<svg width="49" height="49" viewBox="0 0 49 49" fill="none" xmlns="http://www.w3.org/2000/svg">
<rect x="0.333252" y="0.947144" width="48" height="48" rx="9.33333" fill="#CDC5FF"/>
<g clip-path="url(#clip0_4_157)">
<mask id="mask0_4_157" style="mask-type:luminance" maskUnits="userSpaceOnUse" x="8" y="8" width="33" height="33">
<path d="M8.33325 8.94715H40.3333V40.9471H8.33325V8.94715Z" fill="white"/>
</mask>
<g mask="url(#mask0_4_157)">
<path d="M24.3333 36.6346C24.3333 38.4986 22.8222 40.0096 20.9583 40.0096C19.2711 40.0096 17.8773 38.7703 17.6272 37.1532C16.0101 36.9031 14.7708 35.5093 14.7708 33.8221C14.7708 33.1261 14.9818 32.4794 15.3429 31.942C14.0279 31.481 13.0833 30.2321 13.0833 28.7596C13.0833 27.2871 14.0279 26.0383 15.3429 25.5773C14.9818 25.0399 14.7708 24.3932 14.7708 23.6971C14.7708 22.01 16.0101 20.6161 17.6272 20.3661C17.8773 18.749 19.2711 17.5096 20.9583 17.5096C22.8223 17.5096 24.3333 19.0206 24.3333 20.8846C24.3333 19.0206 25.8443 17.5096 27.7083 17.5096C29.3954 17.5096 30.7893 18.749 31.0394 20.3661C32.6564 20.6161 33.8958 22.01 33.8958 23.6971C33.8958 24.3932 33.6847 25.0399 33.3236 25.5773C34.6386 26.0383 35.5833 27.2871 35.5833 28.7596C35.5833 30.2321 34.6386 31.481 33.3236 31.942C33.6847 32.4794 33.8958 33.1261 33.8958 33.8221C33.8958 35.5093 32.6564 36.9031 31.0394 37.1532C30.7893 38.7703 29.3954 40.0096 27.7083 40.0096C25.8443 40.0096 24.3333 38.4986 24.3333 36.6346Z" stroke="#5F45FF" stroke-width="1.875" stroke-miterlimit="10" stroke-linecap="round" stroke-linejoin="round"/>
<path d="M32.2083 30.8993C33.8225 31.8313 34.3756 33.8954 33.4436 35.5096C32.5116 37.1238 30.4475 37.6769 28.8333 36.7449" stroke="#5F45FF" stroke-width="1.875" stroke-miterlimit="10" stroke-linecap="round" stroke-linejoin="round"/>
<path d="M24.3333 36.6346V20.8846" stroke="#5F45FF" stroke-width="1.875" stroke-miterlimit="10" stroke-linecap="round" stroke-linejoin="round"/>
<path d="M28.8333 20.7743C30.4475 19.8423 32.5116 20.3955 33.4436 22.0096" stroke="#5F45FF" stroke-width="1.875" stroke-miterlimit="10" stroke-linecap="round" stroke-linejoin="round"/>
<path d="M16.4583 26.62C14.8441 25.688 14.291 23.6239 15.223 22.0097C16.1549 20.3954 18.2191 19.8424 19.8333 20.7744" stroke="#5F45FF" stroke-width="1.875" stroke-miterlimit="10" stroke-linecap="round" stroke-linejoin="round"/>
<path d="M19.8335 36.7449C18.2192 37.6769 16.1551 37.1238 15.2231 35.5096" stroke="#5F45FF" stroke-width="1.875" stroke-miterlimit="10" stroke-linecap="round" stroke-linejoin="round"/>
<path d="M24.3333 27.0721C24.3333 25.8295 25.3406 24.8221 26.5833 24.8221C27.8259 24.8221 28.8333 25.8295 28.8333 27.0721" stroke="#5F45FF" stroke-width="1.875" stroke-miterlimit="10" stroke-linecap="round" stroke-linejoin="round"/>
<path d="M24.3333 30.4471C24.3333 31.6898 23.3259 32.6971 22.0833 32.6971C20.8406 32.6971 19.8333 31.6898 19.8333 30.4471" stroke="#5F45FF" stroke-width="1.875" stroke-miterlimit="10" stroke-linecap="round" stroke-linejoin="round"/>
<path d="M26.2083 11.7596C26.2083 12.7951 25.3688 13.6346 24.3333 13.6346C23.2978 13.6346 22.4583 12.7951 22.4583 11.7596C22.4583 10.7241 23.2978 9.88464 24.3333 9.88464C25.3688 9.88464 26.2083 10.7241 26.2083 11.7596Z" stroke="#5F45FF" stroke-width="1.875" stroke-miterlimit="10" stroke-linecap="round" stroke-linejoin="round"/>
<path d="M33.7083 13.7596C33.7083 14.7951 32.8688 15.6346 31.8333 15.6346C30.7978 15.6346 29.9583 14.7951 29.9583 13.7596C29.9583 12.7241 30.7978 11.8846 31.8333 11.8846C32.8688 11.8846 33.7083 12.7241 33.7083 13.7596Z" stroke="#5F45FF" stroke-width="1.875" stroke-miterlimit="10" stroke-linecap="round" stroke-linejoin="round"/>
<path d="M39.3958 18.7596C39.3958 19.7951 38.5563 20.6346 37.5208 20.6346C36.4853 20.6346 35.6458 19.7951 35.6458 18.7596C35.6458 17.7241 36.4853 16.8846 37.5208 16.8846C38.5563 16.8846 39.3958 17.7241 39.3958 18.7596Z" stroke="#5F45FF" stroke-width="1.875" stroke-miterlimit="10" stroke-linecap="round" stroke-linejoin="round"/>
<path d="M33.3237 25.5771L35.8972 25.2291C36.8272 25.1033 37.5209 24.3095 37.5209 23.371V20.6345" stroke="#5F45FF" stroke-width="1.875" stroke-miterlimit="10" stroke-linecap="round" stroke-linejoin="round"/>
<path d="M31.6106 15.6121L31.0393 20.366" stroke="#5F45FF" stroke-width="1.875" stroke-miterlimit="10" stroke-linecap="round" stroke-linejoin="round"/>
<path d="M14.9583 13.7596C14.9583 14.7951 15.7978 15.6346 16.8333 15.6346C17.8688 15.6346 18.7083 14.7951 18.7083 13.7596C18.7083 12.7241 17.8688 11.8846 16.8333 11.8846C15.7978 11.8846 14.9583 12.7241 14.9583 13.7596Z" stroke="#5F45FF" stroke-width="1.875" stroke-miterlimit="10" stroke-linecap="round" stroke-linejoin="round"/>
<path d="M9.27075 18.7596C9.27075 19.7951 10.1103 20.6346 11.1458 20.6346C12.1813 20.6346 13.0208 19.7951 13.0208 18.7596C13.0208 17.7241 12.1813 16.8846 11.1458 16.8846C10.1103 16.8846 9.27075 17.7241 9.27075 18.7596Z" stroke="#5F45FF" stroke-width="1.875" stroke-miterlimit="10" stroke-linecap="round" stroke-linejoin="round"/>
<path d="M15.3429 25.5771L12.7694 25.2291C11.8395 25.1033 11.1458 24.3095 11.1458 23.371V20.6345" stroke="#5F45FF" stroke-width="1.875" stroke-miterlimit="10" stroke-linecap="round" stroke-linejoin="round"/>
<path d="M17.0559 15.6121L17.6272 20.366" stroke="#5F45FF" stroke-width="1.875" stroke-miterlimit="10" stroke-linecap="round" stroke-linejoin="round"/>
<path d="M24.3333 20.8846V13.6346" stroke="#5F45FF" stroke-width="1.875" stroke-miterlimit="10" stroke-linecap="round" stroke-linejoin="round"/>
</g>
</g>
<defs>
<clipPath id="clip0_4_157">
<rect width="32" height="32" fill="white" transform="translate(8.33325 8.94714)"/>
</clipPath>
</defs>
</svg>
