<svg width="49" height="49" viewBox="0 0 49 49" fill="none" xmlns="http://www.w3.org/2000/svg">
<rect x="0.666504" y="0.947144" width="48" height="48" rx="9.33333" fill="#CDC5FF"/>
<g clip-path="url(#clip0_4_117)">
<path d="M39.729 32.3007H39.4165V13.8374C39.4165 12.3326 38.1923 11.1084 36.6874 11.1084H12.6455C11.1407 11.1084 9.9165 12.3326 9.9165 13.8374V32.3007H9.604C9.08625 32.3007 8.6665 32.7205 8.6665 33.2382V35.8149C8.6665 37.4531 9.99925 38.7858 11.6374 38.7858H37.6956C39.3338 38.7858 40.6665 37.4531 40.6665 35.8149V33.2382C40.6665 32.7205 40.2468 32.3007 39.729 32.3007ZM11.7915 13.8374C11.7915 13.3665 12.1746 12.9834 12.6455 12.9834H36.6874C37.1584 12.9834 37.5415 13.3665 37.5415 13.8374V32.3007H28.6584C28.2806 32.3007 27.9397 32.5275 27.7937 32.876L27.4097 33.7925H21.9233L21.5393 32.876C21.3933 32.5275 21.0524 32.3007 20.6746 32.3007H11.7915V13.8374ZM38.7915 35.8148C38.7915 36.4191 38.2999 36.9108 37.6956 36.9108H11.6374C11.0332 36.9108 10.5415 36.4191 10.5415 35.8148V34.1756H20.0509L20.4349 35.0922C20.5809 35.4406 20.9218 35.6675 21.2996 35.6675H28.0334C28.4112 35.6675 28.7521 35.4406 28.8981 35.0922L29.2821 34.1756H38.7915V35.8148Z" fill="#5F45FF"/>
<path d="M30.3264 27.1224C30.597 26.9503 30.7608 26.652 30.7608 26.3313V23.8139L34.5776 22.4163C34.9471 22.281 35.1928 21.9294 35.1928 21.536C35.1928 21.1425 34.9471 20.7909 34.5776 20.6557L25.0305 17.1597C24.8223 17.0833 24.5939 17.0833 24.3858 17.1597L14.8385 20.6556C14.469 20.7908 14.2234 21.1425 14.2234 21.5359C14.2234 21.9293 14.4691 22.281 14.8385 22.4162L15.7226 22.74V26.3117C15.7226 26.8294 16.1423 27.2492 16.6601 27.2492C17.1778 27.2492 17.5976 26.8294 17.5976 26.3117V23.4265L18.5639 23.7804V26.3313C18.5639 26.652 18.7278 26.9503 18.9983 27.1224C20.6941 28.2008 22.6526 28.7709 24.6623 28.7709C26.672 28.7709 28.6306 28.2008 30.3264 27.1224ZM24.7081 19.0383L31.5288 21.5359L24.7081 24.0335L17.8874 21.5359L24.7081 19.0383ZM20.439 24.467L24.3858 25.9122C24.4898 25.9503 24.599 25.9693 24.7081 25.9693C24.8173 25.9693 24.9265 25.9503 25.0305 25.9122L28.8858 24.5005V25.799C26.2707 27.2534 23.0541 27.2534 20.439 25.799L20.439 24.467Z" fill="#5F45FF"/>
</g>
<defs>
<clipPath id="clip0_4_117">
<rect width="32" height="32" fill="white" transform="translate(8.6665 8.94714)"/>
</clipPath>
</defs>
</svg>
