<svg width="48" height="49" viewBox="0 0 48 49" fill="none" xmlns="http://www.w3.org/2000/svg">
<rect y="0.947144" width="48" height="48" rx="9.33333" fill="#CDC5FF"/>
<g clip-path="url(#clip0_4_246)">
<path d="M35.3137 13.6335C32.2917 10.6114 28.2738 8.94714 24 8.94714C19.7263 8.94714 15.7083 10.6114 12.6863 13.6334C9.66425 16.6554 8 20.6734 8 24.9472C8 29.2209 9.66425 33.2389 12.6863 36.2609C15.7083 39.2829 19.7263 40.9471 24 40.9471C28.2739 40.9471 32.2917 39.2829 35.3138 36.2608C38.3357 33.2389 40.0001 29.2209 40.0001 24.9471C40.0001 20.6734 38.3358 16.6554 35.3137 13.6335ZM14.0135 14.9607C15.4205 13.5537 17.0721 12.4806 18.8724 11.7801C18.3929 12.3788 17.9442 13.0668 17.533 13.8407C17.0555 14.7395 16.6434 15.7265 16.3002 16.7808C15.1113 16.5835 14.0098 16.3409 13.0256 16.0562C13.3341 15.677 13.6631 15.311 14.0135 14.9607ZM11.8893 17.6712C13.0404 18.0398 14.3568 18.3506 15.7931 18.5968C15.3931 20.2947 15.1577 22.1217 15.1015 24.0087H9.9085C10.056 21.7442 10.7361 19.5829 11.8893 17.6712ZM11.7871 32.0496C10.6962 30.1809 10.0516 28.082 9.90844 25.8856H15.1051C15.1665 27.7187 15.3972 29.4938 15.7837 31.1473C14.3178 31.3849 12.9684 31.6878 11.7871 32.0496ZM14.0135 34.9337C13.6148 34.5349 13.2434 34.1161 12.8991 33.6803C13.9193 33.3974 15.0598 33.1578 16.2875 32.9657C16.6331 34.0346 17.0496 35.0348 17.533 35.9446C17.9811 36.7879 18.4738 37.5289 19.0023 38.1636C17.1517 37.4647 15.4543 36.3743 14.0135 34.9337ZM23.0615 38.8294C21.636 38.4301 20.2875 37.1283 19.1905 35.0638C18.8068 34.3418 18.4698 33.5541 18.1811 32.7146C19.7268 32.5445 21.3715 32.4439 23.0615 32.4203V38.8294ZM23.0615 30.5432C21.1873 30.5688 19.3605 30.6865 17.6496 30.8874C17.2723 29.3274 17.0452 27.6388 16.9829 25.8857H23.0616V30.5432H23.0615ZM23.0615 24.0087H16.9793C17.0363 22.2065 17.267 20.4709 17.6561 18.8711C19.356 19.0836 21.179 19.2129 23.0615 19.2499V24.0087ZM23.0615 17.3727C21.3649 17.3385 19.7238 17.2278 18.1891 17.0473C18.4761 16.2166 18.8105 15.4368 19.1905 14.7214C20.2875 12.6569 21.636 11.3551 23.0615 10.9558V17.3727ZM36.1699 17.7709C37.287 19.658 37.9466 21.7834 38.0917 24.0087H32.8987C32.8431 22.1434 32.6122 20.3369 32.2206 18.6557C33.6664 18.4222 34.9991 18.1252 36.1699 17.7709ZM33.9865 14.9607C34.3633 15.3375 34.7153 15.7325 35.0436 16.1425C34.0391 16.4168 32.9204 16.6497 31.7184 16.837C31.3716 15.7615 30.9532 14.7555 30.4671 13.8407C30.0559 13.0668 29.6072 12.3788 29.1277 11.7801C30.9279 12.4806 32.5796 13.5537 33.9865 14.9607ZM24.9385 25.8857H31.0172C30.9545 27.6524 30.7244 29.3538 30.3416 30.9239C28.642 30.7126 26.8198 30.5846 24.9385 30.5486V25.8857ZM24.9385 24.0087V19.2561C26.8139 19.2315 28.6421 19.1148 30.3545 18.9146C30.7374 20.5023 30.9643 22.2229 31.0207 24.0087H24.9385ZM24.9384 10.9558H24.9385C26.364 11.3551 27.7125 12.6569 28.8095 14.7214C29.1956 15.4481 29.5345 16.2413 29.8245 17.0869C28.2768 17.2564 26.6302 17.3562 24.9384 17.379V10.9558ZM24.9385 38.8294V32.4258C26.6335 32.459 28.2734 32.5686 29.8075 32.748C29.5213 33.575 29.188 34.3514 28.8095 35.0638C27.7125 37.1283 26.364 38.4301 24.9385 38.8294ZM33.9865 34.9337C32.5458 36.3744 30.8484 37.4647 28.9977 38.1636C29.5262 37.5288 30.0189 36.7879 30.467 35.9446C30.9433 35.0483 31.3544 34.0641 31.697 33.0129C32.9136 33.2138 34.0391 33.4621 35.0417 33.7541C34.7141 34.1633 34.3626 34.5575 33.9865 34.9337ZM36.1629 32.1353C34.9982 31.7608 33.6629 31.4458 32.205 31.1971C32.5985 29.5296 32.8331 27.7371 32.8951 25.8857H38.0917C37.9462 28.1156 37.2844 30.2452 36.1629 32.1353Z" fill="#5F45FF"/>
</g>
<defs>
<clipPath id="clip0_4_246">
<rect width="32" height="32" fill="white" transform="translate(8 8.94714)"/>
</clipPath>
</defs>
</svg>
