<svg width="49" height="49" viewBox="0 0 49 49" fill="none" xmlns="http://www.w3.org/2000/svg">
<rect x="0.333252" y="0.947144" width="48" height="48" rx="9.33333" fill="#CDC5FF"/>
<g clip-path="url(#clip0_4_210)">
<path d="M24.3334 12.6971C21.2256 12.6971 18.4578 14.963 17.8397 18.0067C17.7367 18.5141 18.0645 19.009 18.5719 19.112C19.0794 19.2151 19.5742 18.8871 19.6772 18.3799C20.1181 16.2091 22.1198 14.5721 24.3334 14.5721C24.8511 14.5721 25.2709 14.1524 25.2709 13.6346C25.2709 13.1169 24.8511 12.6971 24.3334 12.6971Z" fill="#5F45FF"/>
<path d="M37.5208 31.5721C36.2986 31.5721 35.2565 32.356 34.8695 33.4471H33.7708C33.2538 33.4471 32.8333 33.0266 32.8333 32.5096V29.6346H33.7708C37.3893 29.6346 40.3333 26.6907 40.3333 23.0721C40.3333 19.6675 37.7074 16.8438 34.327 16.5373C33.0874 12.1322 29.0044 8.94714 24.3333 8.94714C19.6709 8.94714 15.5837 12.1231 14.3408 16.5329C10.9808 16.8155 8.33325 19.6404 8.33325 23.0721C8.33325 26.6907 11.2772 29.6346 14.8958 29.6346H15.8333V32.5096C15.8333 33.0266 15.4127 33.4471 14.8958 33.4471H13.797C13.41 32.356 12.3679 31.5721 11.1458 31.5721C9.59494 31.5721 8.33325 32.8338 8.33325 34.3846C8.33325 35.9355 9.59494 37.1971 11.1458 37.1971C12.3679 37.1971 13.41 36.4133 13.797 35.3221H14.8958C16.4466 35.3221 17.7083 34.0605 17.7083 32.5096V29.6346H23.3958V35.4834C22.3046 35.8704 21.5208 36.9125 21.5208 38.1346C21.5208 39.6855 22.7824 40.9471 24.3333 40.9471C25.8841 40.9471 27.1458 39.6855 27.1458 38.1346C27.1458 36.9125 26.3619 35.8704 25.2708 35.4834V29.6346H30.9583V32.5096C30.9583 34.0605 32.2199 35.3221 33.7708 35.3221H34.8695C35.2565 36.4133 36.2986 37.1971 37.5208 37.1971C39.0716 37.1971 40.3333 35.9355 40.3333 34.3846C40.3333 32.8338 39.0716 31.5721 37.5208 31.5721ZM11.1458 35.3221C10.6288 35.3221 10.2083 34.9016 10.2083 34.3846C10.2083 33.8677 10.6288 33.4471 11.1458 33.4471C11.6627 33.4471 12.0833 33.8677 12.0833 34.3846C12.0833 34.9016 11.6627 35.3221 11.1458 35.3221ZM24.3333 39.0721C23.8163 39.0721 23.3958 38.6516 23.3958 38.1346C23.3958 37.6177 23.8163 37.1971 24.3333 37.1971C24.8502 37.1971 25.2708 37.6177 25.2708 38.1346C25.2708 38.6516 24.8502 39.0721 24.3333 39.0721ZM14.8958 27.7596C12.3111 27.7596 10.2083 25.6568 10.2083 23.0721C10.2083 20.6381 12.0965 18.3846 15.0833 18.3846C15.5291 18.3846 15.9133 18.0706 16.002 17.6336C16.8032 13.6868 20.307 10.8221 24.3333 10.8221C28.0125 10.8221 31.2555 13.2143 32.3985 16.6385C31.1373 16.8831 29.9275 17.4681 28.7959 18.3813C28.3931 18.7065 28.33 19.2967 28.6552 19.6996C28.9804 20.1025 29.5706 20.1655 29.9736 19.8404C34.0773 16.5283 38.4583 19.4013 38.4583 23.0721C38.4583 25.6568 36.3554 27.7596 33.7708 27.7596H14.8958ZM37.5208 35.3221C37.0038 35.3221 36.5833 34.9016 36.5833 34.3846C36.5833 33.8677 37.0038 33.4471 37.5208 33.4471C38.0377 33.4471 38.4583 33.8677 38.4583 34.3846C38.4583 34.9016 38.0377 35.3221 37.5208 35.3221Z" fill="#5F45FF"/>
</g>
<defs>
<clipPath id="clip0_4_210">
<rect width="32" height="32" fill="white" transform="translate(8.33325 8.94714)"/>
</clipPath>
</defs>
</svg>
