<svg width="49" height="49" viewBox="0 0 49 49" fill="none" xmlns="http://www.w3.org/2000/svg">
<rect x="0.666504" y="0.947144" width="48" height="48" rx="9.33333" fill="#CDC5FF"/>
<g clip-path="url(#clip0_4_254)">
<path d="M32.7018 23.245C32.568 23.1519 32.3013 22.9888 32.0504 22.8571C31.9419 22.8001 31.8376 22.7489 31.7363 22.7051L31.2509 21.5333C31.2916 21.4306 31.3291 21.3206 31.3655 21.2037C31.4498 20.9333 31.523 20.6294 31.5519 20.4689C31.6062 20.1668 31.5091 19.8572 31.2921 19.6401L29.9734 18.3215C29.7564 18.1044 29.4469 18.0074 29.1447 18.0617C28.9842 18.0906 28.6803 18.1638 28.4099 18.2481C28.2929 18.2845 28.1829 18.322 28.0803 18.3627L26.9084 17.8773C26.8647 17.7759 26.8134 17.6716 26.7565 17.5632C26.6249 17.3123 26.4618 17.0456 26.3686 16.9118C26.1934 16.6598 25.9059 16.5095 25.5989 16.5095H23.7341C23.4272 16.5095 23.1397 16.6598 22.9644 16.9118C22.8714 17.0456 22.7083 17.3123 22.5766 17.5632C22.5196 17.6716 22.4684 17.776 22.4246 17.8773L21.2528 18.3627C21.1501 18.322 21.0401 18.2845 20.9232 18.2481C20.6528 18.1638 20.3489 18.0906 20.1884 18.0617C19.8864 18.0075 19.5767 18.1045 19.3596 18.3215L18.041 19.6401C17.8239 19.8572 17.7269 20.1668 17.7812 20.4689C17.8101 20.6294 17.8833 20.9333 17.9676 21.2037C18.004 21.3206 18.0415 21.4306 18.0822 21.5333L17.5968 22.7051C17.4954 22.7489 17.3911 22.8001 17.2827 22.8571C17.0318 22.9887 16.7651 23.1518 16.6313 23.245C16.3793 23.4202 16.229 23.7077 16.229 24.0146V25.8795C16.229 26.1864 16.3793 26.4739 16.6313 26.6491C16.7651 26.7422 17.0318 26.9053 17.2827 27.037C17.3911 27.094 17.4954 27.1452 17.5968 27.189L18.0822 28.3608C18.0415 28.4635 18.004 28.5735 17.9676 28.6904C17.8833 28.9608 17.8101 29.2647 17.7812 29.4252C17.7269 29.7273 17.8239 30.0369 18.041 30.254L19.3596 31.5726C19.5766 31.7896 19.886 31.8866 20.1884 31.8324C20.3489 31.8035 20.6528 31.7303 20.9232 31.646C21.0401 31.6096 21.1501 31.5721 21.2528 31.5314L22.4246 32.0168C22.4684 32.1181 22.5196 32.2225 22.5766 32.3309C22.7082 32.5818 22.8713 32.8485 22.9644 32.9823C23.1397 33.2343 23.4272 33.3846 23.7341 33.3846H25.5989C25.9059 33.3846 26.1934 33.2343 26.3686 32.9823C26.4617 32.8485 26.6248 32.5818 26.7565 32.3309C26.8134 32.2225 26.8647 32.1181 26.9084 32.0168L28.0803 31.5314C28.1829 31.5721 28.2929 31.6096 28.4099 31.646C28.6803 31.7303 28.9842 31.8035 29.1447 31.8324C29.4468 31.8867 29.7564 31.7896 29.9734 31.5726L31.2921 30.254C31.5091 30.0369 31.6062 29.7273 31.5519 29.4252C31.523 29.2647 31.4498 28.9608 31.3655 28.6904C31.3291 28.5735 31.2916 28.4635 31.2509 28.3608L31.7363 27.189C31.8377 27.1452 31.942 27.094 32.0504 27.037C32.3013 26.9054 32.568 26.7423 32.7018 26.6491C32.9538 26.4739 33.1041 26.1864 33.1041 25.8795V24.0146C33.1041 23.7077 32.9538 23.4202 32.7018 23.245ZM31.2289 25.35C31.1339 25.4015 31.0436 25.4469 30.9804 25.4729C30.6329 25.4968 30.3176 25.7141 30.1786 26.0496L29.3438 28.0652C29.2048 28.4007 29.2741 28.7773 29.5029 29.0399C29.5292 29.103 29.5609 29.1989 29.5917 29.3026L29.022 29.8723C28.9183 29.8415 28.8224 29.8098 28.7593 29.7835C28.4967 29.5547 28.1202 29.4854 27.7846 29.6243L25.769 30.4592C25.4335 30.5982 25.2163 30.9135 25.1923 31.261C25.1663 31.3242 25.1209 31.4145 25.0694 31.5095H24.2636C24.2121 31.4145 24.1667 31.3242 24.1407 31.261C24.1168 30.9135 23.8995 30.5982 23.564 30.4592L21.5484 29.6243C21.2128 29.4855 20.8363 29.5547 20.5737 29.7835C20.5106 29.8098 20.4147 29.8415 20.311 29.8723L19.7413 29.3026C19.7721 29.1989 19.8038 29.103 19.8301 29.0399C20.0589 28.7773 20.1283 28.4007 19.9893 28.0652L19.1544 26.0496C19.0154 25.7141 18.7001 25.4968 18.3526 25.4729C18.2894 25.4468 18.1991 25.4015 18.1041 25.35V24.5442C18.1991 24.4927 18.2894 24.4473 18.3526 24.4213C18.7001 24.3974 19.0154 24.1801 19.1544 23.8446L19.9893 21.829C20.1282 21.4935 20.0589 21.1169 19.8301 20.8543C19.8038 20.7911 19.7721 20.6953 19.7413 20.5916L20.311 20.0219C20.4147 20.0527 20.5106 20.0844 20.5737 20.1106C20.8363 20.3395 21.2129 20.4088 21.5484 20.2698L23.564 19.435C23.8995 19.296 24.1168 18.9807 24.1407 18.6331C24.1668 18.57 24.2121 18.4797 24.2636 18.3846H25.0694C25.1209 18.4797 25.1663 18.57 25.1923 18.6331C25.2162 18.9807 25.4335 19.296 25.769 19.435L27.7846 20.2698C28.1202 20.4088 28.4967 20.3395 28.7593 20.1106C28.8224 20.0844 28.9183 20.0526 29.022 20.0219L29.5917 20.5916C29.5609 20.6953 29.5292 20.7911 29.5029 20.8543C29.2741 21.1169 29.2048 21.4935 29.3438 21.829L30.1786 23.8446C30.3176 24.1801 30.6329 24.3974 30.9804 24.4213C31.0436 24.4473 31.1339 24.4927 31.2289 24.5442V25.35Z" fill="#5F45FF"/>
<path d="M24.6665 8.94714C23.3475 8.94714 22.2383 9.86002 21.9359 11.087C18.8839 11.686 16.0997 13.2876 14.0331 15.6491C11.7815 18.2221 10.5415 21.5243 10.5415 24.9471C10.5415 25.4649 10.9613 25.8846 11.479 25.8846C11.9968 25.8846 12.4165 25.4649 12.4165 24.9471C12.4165 21.9786 13.4918 19.115 15.4442 16.8839C17.1979 14.8798 19.5462 13.5063 22.1243 12.9613C22.5758 13.9126 23.5454 14.5721 24.6665 14.5721C26.2173 14.5721 27.479 13.3105 27.479 11.7596C27.479 10.2088 26.2173 8.94714 24.6665 8.94714ZM24.6665 12.6971C24.1496 12.6971 23.729 12.2766 23.729 11.7596C23.729 11.2427 24.1496 10.8221 24.6665 10.8221C25.1834 10.8221 25.604 11.2427 25.604 11.7596C25.604 12.2766 25.1834 12.6971 24.6665 12.6971Z" fill="#5F45FF"/>
<path d="M24.6665 21.1971C22.5988 21.1971 20.9165 22.8794 20.9165 24.9471C20.9165 27.0149 22.5988 28.6971 24.6665 28.6971C26.7343 28.6971 28.4165 27.0149 28.4165 24.9471C28.4165 22.8794 26.7343 21.1971 24.6665 21.1971ZM24.6665 26.8221C23.6326 26.8221 22.7915 25.981 22.7915 24.9471C22.7915 23.9133 23.6326 23.0721 24.6665 23.0721C25.7004 23.0721 26.5415 23.9133 26.5415 24.9471C26.5415 25.981 25.7004 26.8221 24.6665 26.8221Z" fill="#5F45FF"/>
<path d="M37.854 24.0096C37.3363 24.0096 36.9165 24.4294 36.9165 24.9471C36.9165 27.9157 35.8413 30.7793 33.8888 33.0104C32.1351 35.0145 29.7868 36.388 27.2088 36.933C26.7573 35.9817 25.7876 35.3221 24.6665 35.3221C23.1157 35.3221 21.854 36.5838 21.854 38.1346C21.854 39.6855 23.1157 40.9471 24.6665 40.9471C25.9855 40.9471 27.0948 40.0343 27.3971 38.8073C30.4491 38.2083 33.2333 36.6067 35.2999 34.2451C37.5515 31.6721 38.7915 28.37 38.7915 24.9471C38.7915 24.4294 38.3718 24.0096 37.854 24.0096ZM24.6665 39.0721C24.1496 39.0721 23.729 38.6516 23.729 38.1346C23.729 37.6177 24.1496 37.1971 24.6665 37.1971C25.1834 37.1971 25.604 37.6177 25.604 38.1346C25.604 38.6516 25.1834 39.0721 24.6665 39.0721Z" fill="#5F45FF"/>
</g>
<defs>
<clipPath id="clip0_4_254">
<rect width="32" height="32" fill="white" transform="translate(8.6665 8.94714)"/>
</clipPath>
</defs>
</svg>
