<svg width="57" height="57" viewBox="0 0 57 57" fill="none" xmlns="http://www.w3.org/2000/svg">
<rect x="0.666626" y="0.947266" width="56" height="56" rx="28" fill="#5F45FF"/>
<g clip-path="url(#clip0_14_388)">
<path d="M41.854 16.7598H15.479C13.9301 16.7598 12.6665 18.022 12.6665 19.5723V38.3223C12.6665 39.8673 13.9245 41.1348 15.479 41.1348H41.854C43.399 41.1348 44.6665 39.8768 44.6665 38.3223V19.5723C44.6665 18.0273 43.4085 16.7598 41.854 16.7598ZM41.4656 18.6348L28.7261 31.3743L15.8764 18.6348H41.4656ZM14.5415 37.934V19.9516L23.5714 28.9041L14.5415 37.934ZM15.8673 39.2598L24.9029 30.2241L28.069 33.363C28.4355 33.7264 29.0269 33.7252 29.3919 33.3601L32.479 30.2731L41.4657 39.2598H15.8673ZM42.7915 37.934L33.8048 28.9473L42.7915 19.9605V37.934Z" fill="#EFECFF"/>
</g>
<defs>
<clipPath id="clip0_14_388">
<rect width="32" height="32" fill="white" transform="translate(12.6665 12.9473)"/>
</clipPath>
</defs>
</svg>
