<svg width="40" height="41" viewBox="0 0 40 41" fill="none" xmlns="http://www.w3.org/2000/svg">
<rect y="0.447266" width="40" height="40" rx="20" fill="#5F45FF"/>
<path d="M29.8906 11.3066H10.1094C8.94772 11.3066 8 12.2533 8 13.416V27.4785C8 28.6373 8.9435 29.5879 10.1094 29.5879H29.8906C31.0494 29.5879 32 28.6444 32 27.4785V13.416C32 12.2573 31.0565 11.3066 29.8906 11.3066ZM29.5993 12.7129L20.0447 22.2676L10.4075 12.7129H29.5993ZM9.40625 27.1873V13.7005L16.1787 20.4149L9.40625 27.1873ZM10.4006 28.1816L17.1773 21.4049L19.5519 23.7591C19.8267 24.0316 20.2703 24.0307 20.5441 23.7569L22.8594 21.4416L29.5994 28.1816H10.4006ZM30.5938 27.1873L23.8537 20.4473L30.5938 13.7072V27.1873Z" fill="#EFECFF"/>
</svg>
