<svg width="40" height="41" viewBox="0 0 40 41" fill="none" xmlns="http://www.w3.org/2000/svg">
<rect y="0.447266" width="40" height="40" rx="20" fill="#5F45FF"/>
<path d="M23 14.211C22.6897 14.211 22.3836 14.1388 22.106 14L17.894 11.894C17.6164 11.7553 17.3103 11.6831 17 11.6831M23 14.211C23.3103 14.211 23.6164 14.1388 23.894 14L27.553 12.17C27.7056 12.0938 27.8751 12.0578 28.0455 12.0656C28.2159 12.0734 28.3814 12.1246 28.5265 12.2144C28.6715 12.3042 28.7911 12.4296 28.874 12.5786C28.9569 12.7277 29.0003 12.8955 29 13.066V25.83C28.9999 26.0157 28.9481 26.1977 28.8505 26.3556C28.7528 26.5135 28.6131 26.641 28.447 26.724L23.894 29.001C23.6164 29.1398 23.3103 29.212 23 29.212M23 14.211V29.212M23 29.212C22.6897 29.212 22.3836 29.1398 22.106 29.001L17.894 26.895C17.6164 26.7563 17.3103 26.6841 17 26.6841C16.6897 26.6841 16.3836 26.7563 16.106 26.895L12.447 28.725C12.2944 28.8013 12.1247 28.8373 11.9543 28.8295C11.7838 28.8217 11.6182 28.7704 11.4731 28.6804C11.3281 28.5905 11.2085 28.465 11.1256 28.3158C11.0428 28.1666 10.9996 27.9987 11 27.828V15.065C11.0001 14.8794 11.0519 14.6974 11.1496 14.5395C11.2472 14.3816 11.3869 14.254 11.553 14.171L16.106 11.894C16.3836 11.7553 16.6897 11.6831 17 11.6831M17 11.6831V26.683" stroke="#EFECFF" stroke-width="2" stroke-linecap="round" stroke-linejoin="round"/>
</svg>
