<svg width="511" height="500" viewBox="0 0 511 500" fill="none" xmlns="http://www.w3.org/2000/svg">
<path d="M181.502 215.631L217.168 4.03484L214.299 2.82699L218.608 0.356397L218.601 0.381009C219.437 -0.175584 220.619 -0.141503 221.921 0.610087L506.958 165.176C509.298 166.528 511.07 169.994 510.659 172.416L474.709 385.693C474.52 386.805 473.971 387.541 473.208 387.865L473.212 387.867L468.996 390.303L468.271 386.367L468.511 386.441L185.201 222.871C182.863 221.521 181.091 218.055 181.502 215.631Z" fill="url(#paint0_linear_3_4388)"/>
<path d="M505.371 170.964L510.057 168.891C510.583 170.091 510.841 171.354 510.661 172.418L474.711 385.695C474.522 386.807 473.975 387.543 473.21 387.867L473.214 387.869L468.998 390.305L468.272 386.369L468.513 386.443L454.178 378.166L505.371 170.964Z" fill="url(#paint1_linear_3_4388)"/>
<path d="M180.731 225.436L465.768 390.002C467.968 391.272 469.853 390.54 470.239 388.26L506.189 174.983C506.6 172.56 504.828 169.093 502.488 167.743L217.451 3.17723C215.252 1.90691 213.366 2.63956 212.98 4.91895L177.032 218.196C176.619 220.62 178.391 224.086 180.731 225.436Z" fill="#24126A"/>
<g opacity="0.51">
<path d="M216.493 7.1434L502.868 172.408L466.701 386.229L180.512 221.072L216.493 7.1434Z" fill="#453C9E"/>
</g>
<path d="M1.55737 326.41L17.1136 334.534L173.092 244.479C175.701 242.973 180.26 243.162 183.274 244.902L452.294 400.22C454.869 398.779 466.606 393.135 466.606 393.135L460.912 402.391C460.912 402.391 460.893 402.376 460.889 402.372C460.654 403.033 460.147 403.648 459.297 404.139L295.02 498.983C292.41 500.49 287.853 500.3 284.839 498.561L9.54473 339.623C8.30659 338.907 7.54932 338.044 7.23505 337.167L7.21419 337.181L1.55737 326.41Z" fill="url(#paint2_linear_3_4388)"/>
<path d="M3.96224 328.968L286.1 491.861C289.188 493.644 293.86 493.837 296.535 492.292L464.897 395.089C467.572 393.544 467.235 390.848 464.148 389.065L182.01 226.172C178.922 224.389 174.25 224.196 171.576 225.739L3.2144 322.942C0.539338 324.489 0.874467 327.185 3.96224 328.968Z" fill="url(#paint3_linear_3_4388)"/>
<path d="M3.96224 328.968L286.1 491.861C289.188 493.644 293.86 493.837 296.535 492.292L464.897 395.089C467.572 393.544 467.235 390.848 464.148 389.065L182.01 226.172C178.922 224.389 174.25 224.196 171.576 225.739L3.2144 322.942C0.539338 324.489 0.874467 327.185 3.96224 328.968Z" fill="#24126A"/>
<path opacity="0.51" d="M3.96224 328.968L286.1 491.861C289.188 493.644 293.86 493.837 296.535 492.292L464.897 395.089C467.572 393.544 467.235 390.848 464.148 389.065L182.01 226.172C178.922 224.389 174.25 224.196 171.576 225.739L3.2144 322.942C0.539338 324.489 0.874467 327.185 3.96224 328.968Z" fill="#453C9E"/>
<g opacity="0.3">
<path opacity="0.5" d="M3.96224 322.972L286.1 485.865C289.188 487.648 293.86 487.841 296.535 486.297L464.897 389.093C467.572 387.549 467.235 384.853 464.148 383.069L182.01 220.177C178.922 218.393 174.25 218.2 171.576 219.743L3.2144 316.946C0.539338 318.491 0.874467 321.189 3.96224 322.972Z" fill="url(#paint4_radial_3_4388)"/>
<mask id="mask0_3_4388" style="mask-type:luminance" maskUnits="userSpaceOnUse" x="1" y="218" width="466" height="270">
<path d="M3.96224 322.972L286.1 485.865C289.188 487.648 293.86 487.841 296.535 486.297L464.897 389.093C467.572 387.549 467.235 384.853 464.148 383.069L182.01 220.177C178.922 218.393 174.25 218.2 171.576 219.743L3.2144 316.946C0.539338 318.491 0.874467 321.189 3.96224 322.972Z" fill="white"/>
</mask>
<g mask="url(#mask0_3_4388)">
<path d="M156.228 502.071C156.228 439.414 193.541 388.62 239.568 388.62C285.595 388.62 322.907 439.414 322.907 502.071C322.907 564.727 285.595 583.504 239.568 583.504C193.541 583.504 156.228 564.727 156.228 502.071Z" fill="url(#paint5_radial_3_4388)"/>
</g>
</g>
<path opacity="0.8" d="M291.991 488.014C289.833 488.014 287.573 487.484 285.769 486.44L3.63049 323.548C1.79411 322.49 0.743408 321.036 0.743408 319.565C0.743408 318.302 1.50258 317.168 2.88271 316.371L171.245 219.166C174.147 217.488 179.026 217.683 182.344 219.599L464.482 382.492C466.319 383.552 467.369 385.004 467.369 386.475C467.369 387.738 466.61 388.872 465.23 389.669L296.866 486.874C295.541 487.639 293.803 488.014 291.991 488.014ZM176.106 219.359C174.527 219.359 173.026 219.675 171.907 220.321L3.54533 317.526C2.87514 317.914 2.07241 318.582 2.07241 319.565C2.07241 320.549 2.88271 321.579 4.29502 322.395L286.433 485.288C289.331 486.965 293.712 487.156 296.2 485.719L464.564 388.514C465.234 388.126 466.037 387.458 466.037 386.475C466.037 385.493 465.226 384.461 463.814 383.645L181.676 220.752C180.082 219.832 178.035 219.359 176.106 219.359Z" fill="url(#paint6_linear_3_4388)"/>
<path d="M3.96192 327.703L286.1 490.596C289.188 492.379 293.86 492.572 296.533 491.028L464.895 393.824C465.836 393.281 466.385 392.59 466.591 391.852C466.891 393.05 466.361 394.243 464.895 395.087L296.533 492.29C293.858 493.835 289.188 493.64 286.1 491.857L3.96192 328.964C1.96084 327.809 1.13543 326.272 1.51596 324.913C1.76396 325.905 2.56665 326.899 3.96192 327.703Z" fill="white"/>
<g opacity="0.15">
<mask id="mask1_3_4388" style="mask-type:luminance" maskUnits="userSpaceOnUse" x="180" y="7" width="323" height="380">
<path d="M502.868 172.408L216.493 7.1434L180.512 221.072L466.701 386.229L502.868 172.408Z" fill="white"/>
</mask>
<g mask="url(#mask1_3_4388)">
<path d="M180.383 224.063L195.94 232.187L351.918 142.132C354.529 140.625 359.086 140.815 362.1 142.555L631.12 297.873C633.695 296.432 645.432 290.788 645.432 290.788L639.738 300.044C639.738 300.044 639.719 300.029 639.715 300.025C639.48 300.684 638.973 301.301 638.123 301.791L473.846 396.636C471.237 398.143 466.679 397.953 463.665 396.214L188.373 237.274C187.134 236.558 186.377 235.695 186.063 234.819L186.042 234.832L180.383 224.063Z" fill="url(#paint7_linear_3_4388)"/>
<path d="M182.788 226.621L464.926 389.514C468.013 391.297 472.686 391.49 475.361 389.947L643.723 292.742C646.398 291.197 646.063 288.501 642.973 286.718L360.835 123.825C357.747 122.042 353.075 121.849 350.402 123.392L182.04 220.595C179.365 222.142 179.7 224.838 182.788 226.621Z" fill="url(#paint8_linear_3_4388)"/>
<path d="M182.788 226.621L464.926 389.514C468.013 391.297 472.686 391.49 475.361 389.947L643.723 292.742C646.398 291.197 646.063 288.501 642.973 286.718L360.835 123.825C357.747 122.042 353.075 121.849 350.402 123.392L182.04 220.595C179.365 222.142 179.7 224.838 182.788 226.621Z" fill="#24126A"/>
<path opacity="0.51" d="M182.788 226.621L464.926 389.514C468.013 391.297 472.686 391.49 475.361 389.947L643.723 292.742C646.398 291.197 646.063 288.501 642.973 286.718L360.835 123.825C357.747 122.042 353.075 121.849 350.402 123.392L182.04 220.595C179.365 222.142 179.7 224.838 182.788 226.621Z" fill="#453C9E"/>
<path d="M642.973 286.718L360.835 123.825C358.847 122.678 356.208 122.199 353.863 122.407C355.597 122.544 357.342 123.009 358.756 123.825L640.894 286.718C643.982 288.501 644.317 291.197 641.644 292.742L473.282 389.945C472.33 390.496 471.118 390.814 469.82 390.932C471.874 391.093 473.911 390.784 475.361 389.945L643.723 292.742C646.396 291.197 646.061 288.501 642.973 286.718Z" fill="white"/>
</g>
<mask id="mask2_3_4388" style="mask-type:luminance" maskUnits="userSpaceOnUse" x="180" y="7" width="323" height="380">
<path d="M502.868 172.408L216.493 7.1434L180.512 221.072L466.701 386.229L502.868 172.408Z" fill="white"/>
</mask>
<g mask="url(#mask2_3_4388)">
<path opacity="0.4" d="M390.715 318.836L309.74 272.084C301.52 267.338 301.52 259.615 309.74 254.869L390.713 208.119C398.933 203.373 412.308 203.373 420.528 208.119L501.503 254.871C509.723 259.617 509.723 267.34 501.503 272.084L420.53 318.834C412.31 323.582 398.935 323.582 390.715 318.836Z" fill="#24126A"/>
</g>
<mask id="mask3_3_4388" style="mask-type:luminance" maskUnits="userSpaceOnUse" x="180" y="7" width="323" height="380">
<path d="M502.868 172.408L216.493 7.1434L180.512 221.072L466.701 386.229L502.868 172.408Z" fill="white"/>
</mask>
<g mask="url(#mask3_3_4388)">
<path d="M433.514 325.047C413.296 325.047 394.304 320.511 380.035 312.27C365.52 303.891 357.525 292.676 357.525 280.688C357.525 268.703 365.52 257.484 380.037 249.103C409.525 232.081 457.506 232.079 486.998 249.101C501.513 257.482 509.508 268.699 509.508 280.685C509.508 292.672 501.513 303.889 486.996 312.27C472.725 320.511 453.729 325.047 433.514 325.047ZM433.519 237.225C414.313 237.225 395.109 241.445 380.488 249.886C366.26 258.101 358.428 269.04 358.428 280.69C358.428 292.341 366.262 303.28 380.486 311.492C394.62 319.654 413.452 324.148 433.514 324.148C453.576 324.148 472.409 319.654 486.545 311.492C500.772 303.28 508.605 292.339 508.605 280.688C508.605 269.038 500.771 258.099 486.547 249.885C471.928 241.445 452.72 237.225 433.519 237.225Z" fill="#42E8E0"/>
<path d="M364.769 256.247V240.996H370.041C373.396 236.339 378.343 231.971 384.904 228.183C411.751 212.682 455.279 212.682 482.126 228.183C488.688 231.971 493.635 236.339 496.99 240.996H502.26V256.249C502.26 266.406 495.547 276.565 482.125 284.316C455.277 299.817 411.748 299.817 384.902 284.316C371.48 276.565 364.769 266.406 364.769 256.247Z" fill="url(#paint9_linear_3_4388)"/>
<path d="M433.515 280.686C471.483 280.686 502.262 262.916 502.262 240.996C502.262 219.076 471.483 201.306 433.515 201.306C395.548 201.306 364.769 219.076 364.769 240.996C364.769 262.916 395.548 280.686 433.515 280.686Z" fill="#BCBEFF"/>
<path d="M370.026 240.413V219.594H374.895C377.993 215.292 382.561 211.26 388.621 207.761C413.416 193.447 453.616 193.445 478.409 207.761C484.469 211.26 489.037 215.292 492.136 219.596H497.005V240.415C497.005 249.795 490.805 259.176 478.409 266.334C453.614 280.648 413.414 280.65 388.621 266.334C376.224 259.176 370.026 249.794 370.026 240.413Z" fill="#24126A"/>
<g opacity="0.51">
<path d="M370.026 235.4V214.58H374.895C377.993 210.279 382.561 206.247 388.621 202.748C413.416 188.432 453.616 188.432 478.409 202.748C484.469 206.247 489.037 210.279 492.136 214.582H497.005V235.402C497.005 244.782 490.805 254.163 478.409 261.321C453.614 275.635 413.414 275.637 388.621 261.321C376.224 254.163 370.026 244.782 370.026 235.4Z" fill="#453C9E"/>
</g>
<path d="M433.516 256.249C468.58 256.249 497.005 239.838 497.005 219.594C497.005 199.349 468.58 182.938 433.516 182.938C398.451 182.938 370.026 199.349 370.026 219.594C370.026 239.838 398.451 256.249 433.516 256.249Z" fill="#BCBEFF"/>
<g opacity="0.51">
<path d="M389.778 246.569C400.692 260.469 415.084 267.9 427.259 271.875C413.155 271.075 399.425 267.559 388.621 261.321C376.223 254.163 370.024 244.782 370.026 235.4V229.181C376.442 232.772 383.252 238.256 389.778 246.569Z" fill="#5351AF"/>
</g>
<path d="M364.769 219.26V204.009H370.041C373.396 199.352 378.343 194.984 384.904 191.196C411.751 175.695 455.279 175.695 482.126 191.196C488.688 194.984 493.635 199.352 496.99 204.009H502.26V219.262C502.26 229.419 495.547 239.578 482.125 247.327C455.277 262.828 411.748 262.828 384.902 247.327C371.48 239.578 364.769 229.419 364.769 219.26Z" fill="url(#paint10_linear_3_4388)"/>
<path d="M433.515 243.699C471.483 243.699 502.262 225.929 502.262 204.009C502.262 182.089 471.483 164.319 433.515 164.319C395.548 164.319 364.769 182.089 364.769 204.009C364.769 225.929 395.548 243.699 433.515 243.699Z" fill="#BCBEFF"/>
<path d="M370.026 202.657V181.838H374.895C377.993 177.537 382.561 173.504 388.621 170.006C413.416 155.691 453.616 155.69 478.409 170.006C484.469 173.504 489.037 177.537 492.136 181.84H497.005V202.659C497.005 212.04 490.805 221.421 478.409 228.579C453.614 242.893 413.414 242.895 388.621 228.579C376.224 221.421 370.026 212.038 370.026 202.657Z" fill="#24126A"/>
<g opacity="0.51">
<path d="M370.026 197.894V177.075H374.895C377.993 172.774 382.561 168.741 388.621 165.243C413.416 150.928 453.616 150.926 478.409 165.243C484.469 168.741 489.037 172.774 492.136 177.077H497.005V197.896C497.005 207.277 490.805 216.657 478.409 223.816C453.614 238.13 413.414 238.132 388.621 223.816C376.224 216.657 370.026 207.277 370.026 197.894Z" fill="#453C9E"/>
</g>
<path d="M433.516 218.494C468.58 218.494 497.005 202.082 497.005 181.838C497.005 161.594 468.58 145.182 433.516 145.182C398.451 145.182 370.026 161.594 370.026 181.838C370.026 202.082 398.451 218.494 433.516 218.494Z" fill="#BCBEFF"/>
<g opacity="0.51">
<path d="M389.777 206.858C403.348 224.141 422.291 231.42 435.664 234.493C418.707 234.822 401.566 231.29 388.623 223.815C376.224 216.657 370.026 207.277 370.028 197.894V189.469C376.442 193.061 383.252 198.545 389.777 206.858Z" fill="#5351AF"/>
</g>
<path d="M364.769 181.505V166.253H370.041C373.396 161.596 378.343 157.229 384.904 153.44C411.751 137.939 455.279 137.939 482.126 153.44C488.688 157.229 493.635 161.596 496.99 166.253H502.26V181.507C502.26 191.664 495.547 201.822 482.125 209.573C455.277 225.074 411.748 225.074 384.902 209.573C371.48 201.822 364.769 191.664 364.769 181.505Z" fill="url(#paint11_linear_3_4388)"/>
<path d="M433.515 205.944C471.483 205.944 502.262 188.174 502.262 166.253C502.262 144.333 471.483 126.563 433.515 126.563C395.548 126.563 364.769 144.333 364.769 166.253C364.769 188.174 395.548 205.944 433.515 205.944Z" fill="#BCBEFF"/>
<path d="M370.026 164.902V144.083H374.895C377.993 139.781 382.561 135.749 388.621 132.25C413.416 117.936 453.616 117.934 478.409 132.25C484.469 135.749 489.037 139.781 492.136 144.084H497.005V164.904C497.005 174.284 490.805 183.665 478.409 190.823C453.614 205.137 413.414 205.139 388.621 190.823C376.224 183.665 370.026 174.283 370.026 164.902Z" fill="#24126A"/>
<g opacity="0.51">
<path d="M370.026 159.077V138.257H374.895C377.993 133.956 382.561 129.924 388.621 126.425C413.416 112.111 453.616 112.109 478.409 126.425C484.469 129.924 489.037 133.956 492.136 138.259H497.005V159.078C497.005 168.459 490.805 177.84 478.409 184.998C453.614 199.312 413.414 199.314 388.621 184.998C376.224 177.84 370.026 168.457 370.026 159.077Z" fill="#453C9E"/>
</g>
<path d="M433.516 180.738C468.58 180.738 497.005 164.327 497.005 144.083C497.005 123.838 468.58 107.427 433.516 107.427C398.451 107.427 370.026 123.838 370.026 144.083C370.026 164.327 398.451 180.738 433.516 180.738Z" fill="#BCBEFF"/>
<path d="M364.769 143.749V128.498H370.041C373.396 123.841 378.343 119.475 384.904 115.685C411.751 100.184 455.279 100.184 482.126 115.685C488.688 119.473 493.635 123.841 496.99 128.498H502.26V143.751C502.26 153.908 495.547 164.067 482.125 171.817C455.277 187.319 411.748 187.319 384.902 171.817C371.48 164.067 364.769 153.908 364.769 143.749Z" fill="url(#paint12_linear_3_4388)"/>
<path d="M433.515 168.188C471.483 168.188 502.262 150.418 502.262 128.498C502.262 106.577 471.483 88.8074 433.515 88.8074C395.548 88.8074 364.769 106.577 364.769 128.498C364.769 150.418 395.548 168.188 433.515 168.188Z" fill="#BCBEFF"/>
<path d="M433.515 168.188C471.483 168.188 502.262 150.418 502.262 128.498C502.262 106.577 471.483 88.8074 433.515 88.8074C395.548 88.8074 364.769 106.577 364.769 128.498C364.769 150.418 395.548 168.188 433.515 168.188Z" fill="#BCBEFF"/>
<g opacity="0.51">
<path d="M389.777 167.147C404.681 186.128 426.062 193.044 439.43 195.569C421.272 196.544 402.524 193.023 388.623 184.996C376.224 177.838 370.026 168.457 370.028 159.075V149.758C376.442 153.351 383.252 158.836 389.777 167.147Z" fill="#5351AF"/>
</g>
<path d="M364.769 143.749V128.498H370.041C373.396 123.841 378.343 119.475 384.904 115.685C411.751 100.184 455.279 100.184 482.126 115.685C488.688 119.473 493.635 123.841 496.99 128.498H502.26V143.751C502.26 153.908 495.547 164.067 482.125 171.817C455.277 187.319 411.748 187.319 384.902 171.817C371.48 164.067 364.769 153.908 364.769 143.749Z" fill="url(#paint13_linear_3_4388)"/>
<path d="M433.515 168.188C471.483 168.188 502.262 150.418 502.262 128.498C502.262 106.577 471.483 88.8074 433.515 88.8074C395.548 88.8074 364.769 106.577 364.769 128.498C364.769 150.418 395.548 168.188 433.515 168.188Z" fill="#BCBEFF"/>
<path d="M433.515 168.188C471.483 168.188 502.262 150.418 502.262 128.498C502.262 106.577 471.483 88.8074 433.515 88.8074C395.548 88.8074 364.769 106.577 364.769 128.498C364.769 150.418 395.548 168.188 433.515 168.188Z" fill="#BCBEFF"/>
<path d="M384.513 155.36C411.36 170.86 454.888 170.86 481.735 155.36C498.177 145.868 504.531 132.765 500.835 120.473C505.333 133.108 499.105 146.761 482.127 156.564C455.28 172.065 411.752 172.065 384.905 156.564C374.498 150.557 368.144 143.1 365.806 135.319C368.419 142.663 374.645 149.662 384.513 155.36Z" fill="white"/>
<path d="M384.513 193.116C411.36 208.615 454.888 208.615 481.735 193.114C498.177 183.622 504.531 170.519 500.835 158.227C505.333 170.862 499.105 184.515 482.127 194.318C455.28 209.819 411.752 209.819 384.905 194.32C374.498 188.311 368.144 180.856 365.806 173.075C368.419 180.418 374.645 187.417 384.513 193.116Z" fill="white"/>
<path d="M384.513 230.871C411.36 246.371 454.888 246.371 481.735 230.871C498.177 221.379 504.531 208.276 500.835 195.984C505.333 208.619 499.105 222.273 482.127 232.075C455.28 247.577 411.752 247.577 384.905 232.075C374.498 226.068 368.144 218.611 365.806 210.83C368.419 218.174 374.645 225.173 384.513 230.871Z" fill="white"/>
<path d="M384.513 268.627C411.36 284.126 454.888 284.126 481.735 268.627C498.177 259.135 504.531 246.032 500.835 233.739C505.333 246.374 499.105 260.028 482.127 269.831C455.28 285.332 411.752 285.332 384.905 269.833C374.498 263.824 368.144 256.369 365.806 248.588C368.419 255.929 374.645 262.928 384.513 268.627Z" fill="white"/>
<path opacity="0.78" d="M495.928 145.164H433.517V108.358H492.774C504.267 119.611 505.318 133.437 495.928 145.164Z" fill="url(#paint14_linear_3_4388)"/>
<path d="M398.219 124.787V116.957H400.926C402.649 114.566 405.188 112.324 408.558 110.378C422.342 102.419 444.691 102.419 458.475 110.378C461.845 112.322 464.384 114.566 466.106 116.957H468.814V124.787C468.814 130.003 465.368 135.217 458.475 139.196C444.691 147.155 422.342 147.155 408.558 139.196C401.665 135.218 398.219 130.003 398.219 124.787Z" fill="url(#paint15_linear_3_4388)"/>
<path d="M433.515 137.335C453.009 137.335 468.812 128.212 468.812 116.957C468.812 105.702 453.009 96.5788 433.515 96.5788C414.022 96.5788 398.219 105.702 398.219 116.957C398.219 128.212 414.022 137.335 433.515 137.335Z" fill="#BCBEFF"/>
<path d="M433.515 137.335C453.009 137.335 468.812 128.212 468.812 116.957C468.812 105.702 453.009 96.5788 433.515 96.5788C414.022 96.5788 398.219 105.702 398.219 116.957C398.219 128.212 414.022 137.335 433.515 137.335Z" fill="url(#paint16_linear_3_4388)"/>
<path d="M416.711 126.658C425.992 132.015 441.041 132.015 450.321 126.658C453.219 124.984 455.213 122.987 456.3 120.866C458.696 116.198 452.706 112.811 446.323 109.127C437.042 103.769 430.46 102.44 421.177 107.8C414.797 111.484 408.334 116.196 410.727 120.863C411.816 122.985 413.811 124.984 416.711 126.658Z" fill="#24126A"/>
<path d="M450.321 115.085C441.041 109.727 425.992 109.727 416.711 115.085C413.815 116.756 411.823 118.754 410.735 120.872C408.334 116.204 410.326 110.94 416.711 107.254C425.992 101.897 441.041 101.895 450.321 107.254C456.707 110.94 458.696 116.204 456.298 120.872C455.209 118.754 453.218 116.756 450.321 115.085Z" fill="url(#paint17_linear_3_4388)"/>
<g opacity="0.51">
<path d="M394.817 186.423C399.448 188.246 402.907 187.754 402.543 185.321C402.18 182.889 398.13 179.439 393.499 177.614C388.869 175.791 385.41 176.283 385.773 178.716C386.137 181.149 390.186 184.598 394.817 186.423Z" fill="#6767C1"/>
</g>
<g opacity="0.51">
<path d="M394.817 224.717C399.448 226.54 402.907 226.047 402.543 223.615C402.18 221.182 398.13 217.733 393.499 215.908C388.869 214.084 385.41 214.577 385.773 217.009C386.137 219.442 390.186 222.893 394.817 224.717Z" fill="#6767C1"/>
</g>
<g opacity="0.51">
<path d="M394.563 263.265C399.194 265.088 402.653 264.596 402.289 262.163C401.926 259.731 397.876 256.281 393.245 254.456C388.615 252.633 385.156 253.125 385.519 255.558C385.883 257.991 389.932 261.44 394.563 263.265Z" fill="#6767C1"/>
</g>
<g opacity="0.51">
<path d="M381.629 176.812C382.72 177.59 384.083 177.55 384.675 176.721C385.268 175.892 384.863 174.589 383.772 173.811C382.682 173.033 381.319 173.073 380.726 173.902C380.134 174.729 380.539 176.034 381.629 176.812Z" fill="#6767C1"/>
</g>
<g opacity="0.51">
<path d="M381.629 215.283C382.72 216.061 384.083 216.021 384.675 215.192C385.268 214.363 384.863 213.06 383.772 212.282C382.682 211.504 381.319 211.544 380.726 212.373C380.134 213.202 380.539 214.505 381.629 215.283Z" fill="#6767C1"/>
</g>
<g opacity="0.51">
<path d="M381.629 253.614C382.72 254.392 384.083 254.352 384.675 253.523C385.268 252.694 384.863 251.391 383.772 250.613C382.682 249.835 381.319 249.875 380.726 250.704C380.134 251.531 380.539 252.836 381.629 253.614Z" fill="#6767C1"/>
</g>
</g>
</g>
<path opacity="0.5" d="M244.583 69.056L228.438 59.7302L229.021 56.1824L245.167 65.5082L244.583 69.056Z" fill="#42E8E0"/>
<path opacity="0.5" d="M252.863 73.8363L247.05 70.4797L247.633 66.9319L253.447 70.2904L252.863 73.8363Z" fill="#42E8E0"/>
<path opacity="0.5" d="M259.279 77.543L255.33 75.2617L255.913 71.7139L259.864 73.9971L259.279 77.543Z" fill="#42E8E0"/>
<path opacity="0.5" d="M235.902 72.9144L227.105 67.8331L227.688 64.2853L236.485 69.3665L235.902 72.9144Z" fill="#42E8E0"/>
<path opacity="0.5" d="M249.151 80.5646L238.369 74.338L238.952 70.792L249.734 77.0187L249.151 80.5646Z" fill="#42E8E0"/>
<path opacity="0.5" d="M255.567 84.2715L251.616 81.9902L252.201 78.4424L256.15 80.7237L255.567 84.2715Z" fill="#42E8E0"/>
<path opacity="0.5" d="M261.672 87.7984L257.723 85.5171L258.306 81.9693L262.257 84.2506L261.672 87.7984Z" fill="#42E8E0"/>
<path d="M232.137 79.6105L225.772 75.9358L226.355 72.388L232.72 76.0646L232.137 79.6105Z" fill="#42E8E0"/>
<path d="M236.779 82.2932L234.604 81.0361L235.187 77.4883L237.362 78.7454L236.779 82.2932Z" fill="#42E8E0"/>
<path opacity="0.5" d="M243.197 85.9981L239.246 83.7168L239.829 80.1709L243.78 82.4522L243.197 85.9981Z" fill="#42E8E0"/>
<path opacity="0.5" d="M247.934 97.607L224.439 84.0367L225.022 80.4908L248.517 94.0591L247.934 97.607Z" fill="#42E8E0"/>
<path opacity="0.5" d="M256.212 102.389L250.4 99.0326L250.983 95.4848L256.797 98.8414L256.212 102.389Z" fill="#42E8E0"/>
<path opacity="0.5" d="M229.471 95.816L223.106 92.1394L223.69 88.5935L230.054 92.2701L229.471 95.816Z" fill="#42E8E0"/>
<path opacity="0.5" d="M244.41 104.443L231.938 97.2416L232.521 93.6938L244.993 100.897L244.41 104.443Z" fill="#42E8E0"/>
<path opacity="0.5" d="M250.826 108.15L246.875 105.869L247.46 102.321L251.409 104.602L250.826 108.15Z" fill="#42E8E0"/>
<path opacity="0.5" d="M234.797 107.764L221.773 100.242L222.357 96.6964L235.38 104.218L234.797 107.764Z" fill="#42E8E0"/>
<path d="M246.682 114.629L237.264 109.189L237.847 105.642L247.265 111.083L246.682 114.629Z" fill="#42E8E0"/>
<path opacity="0.5" d="M255.514 119.731L249.149 116.054L249.732 112.506L256.097 116.183L255.514 119.731Z" fill="#42E8E0"/>
<path opacity="0.5" d="M224.839 110.886L220.441 108.345L221.024 104.799L225.422 107.34L224.839 110.886Z" fill="#42E8E0"/>
<path opacity="0.5" d="M233.119 115.668L227.305 112.311L227.89 108.763L233.702 112.122L233.119 115.668Z" fill="#42E8E0"/>
<path opacity="0.5" d="M244.952 122.502L235.586 117.093L236.17 113.546L245.535 118.956L244.952 122.502Z" fill="#42E8E0"/>
<path opacity="0.5" d="M232.582 124.231L219.108 116.448L219.691 112.902L233.165 120.683L232.582 124.231Z" fill="#42E8E0"/>
<path opacity="0.5" d="M247.673 132.947L235.049 125.654L235.632 122.108L248.257 129.399L247.673 132.947Z" fill="#42E8E0"/>
<path d="M254.09 136.652L250.139 134.371L250.724 130.825L254.673 133.106L254.09 136.652Z" fill="#42E8E0"/>
<path opacity="0.5" d="M260.249 140.209L256.298 137.928L256.881 134.38L260.832 136.661L260.249 140.209Z" fill="#42E8E0"/>
<path opacity="0.5" d="M225.848 129.214L217.775 124.551L218.358 121.003L226.431 125.666L225.848 129.214Z" fill="#42E8E0"/>
<path d="M270.273 83.8928L281.468 90.358L282.051 86.8102L270.856 80.345L270.273 83.8928Z" fill="#42E8E0"/>
<path opacity="0.5" d="M271.337 93.3796L280.135 98.4608L280.718 94.913L271.92 89.8336L271.337 93.3796Z" fill="#42E8E0"/>
<path opacity="0.5" d="M272.437 102.887L278.802 106.564L279.385 103.016L273.02 99.3393L272.437 102.887Z" fill="#42E8E0"/>
<path opacity="0.5" d="M268.211 109.318L277.469 114.666L278.052 111.119L268.794 105.77L268.211 109.318Z" fill="#42E8E0"/>
<path opacity="0.5" d="M269.771 119.093L276.136 122.767L276.719 119.221L270.354 115.545L269.771 119.093Z" fill="#42E8E0"/>
<path opacity="0.5" d="M266.731 126.209L274.803 130.87L275.386 127.324L267.314 122.661L266.731 126.209Z" fill="#42E8E0"/>
<path opacity="0.5" d="M269.073 136.432L273.471 138.973L274.054 135.427L269.656 132.886L269.073 136.432Z" fill="#42E8E0"/>
<path opacity="0.5" d="M263.615 142.153L272.138 147.076L272.721 143.53L264.198 138.606L263.615 142.153Z" fill="#42E8E0"/>
<path opacity="0.5" d="M262.732 150.516L270.805 155.179L271.388 151.631L263.315 146.97L262.732 150.516Z" fill="#42E8E0"/>
<path opacity="0.5" d="M231.747 132.621L228.315 130.637L228.898 127.091L232.33 129.073L231.747 132.621Z" fill="#42E8E0"/>
<path opacity="0.5" d="M241.942 138.509L234.214 134.045L234.797 130.499L242.525 134.961L241.942 138.509Z" fill="#42E8E0"/>
<path opacity="0.5" d="M307.216 105.077L291.069 95.7516L291.654 92.2038L307.799 101.53L307.216 105.077Z" fill="#42E8E0"/>
<path opacity="0.5" d="M315.495 109.86L309.683 106.501L310.266 102.955L316.078 106.312L315.495 109.86Z" fill="#42E8E0"/>
<path d="M321.913 113.565L317.962 111.283L318.545 107.737L322.496 110.019L321.913 113.565Z" fill="#42E8E0"/>
<path opacity="0.5" d="M298.534 108.936L289.737 103.854L290.32 100.307L299.118 105.388L298.534 108.936Z" fill="#42E8E0"/>
<path opacity="0.5" d="M311.783 116.586L301.001 110.359L301.584 106.814L312.366 113.04L311.783 116.586Z" fill="#42E8E0"/>
<path d="M318.199 120.293L314.25 118.012L314.833 114.464L318.782 116.745L318.199 120.293Z" fill="#42E8E0"/>
<path opacity="0.5" d="M324.306 123.82L320.355 121.539L320.938 117.991L324.889 120.272L324.306 123.82Z" fill="#42E8E0"/>
<path opacity="0.5" d="M294.769 115.634L288.404 111.957L288.989 108.409L295.354 112.086L294.769 115.634Z" fill="#42E8E0"/>
<path opacity="0.5" d="M299.411 118.314L297.236 117.057L297.819 113.511L299.996 114.767L299.411 118.314Z" fill="#42E8E0"/>
<path opacity="0.5" d="M305.828 122.021L301.877 119.74L302.462 116.192L306.412 118.474L305.828 122.021Z" fill="#42E8E0"/>
<path opacity="0.5" d="M310.566 133.628L287.071 120.06L287.656 116.512L311.149 130.083L310.566 133.628Z" fill="#42E8E0"/>
<path opacity="0.5" d="M318.846 138.411L313.032 135.054L313.615 131.506L319.429 134.865L318.846 138.411Z" fill="#42E8E0"/>
<path opacity="0.5" d="M292.103 131.837L285.738 128.163L286.321 124.615L292.688 128.291L292.103 131.837Z" fill="#42E8E0"/>
<path opacity="0.5" d="M307.042 140.467L294.57 133.263L295.153 129.715L307.625 136.919L307.042 140.467Z" fill="#42E8E0"/>
<path opacity="0.5" d="M313.458 144.171L309.509 141.89L310.092 138.344L314.041 140.626L313.458 144.171Z" fill="#42E8E0"/>
<path d="M297.429 143.787L284.406 136.264L284.989 132.718L298.014 140.239L297.429 143.787Z" fill="#42E8E0"/>
<path opacity="0.5" d="M309.314 150.65L299.896 145.211L300.479 141.665L309.897 147.104L309.314 150.65Z" fill="#42E8E0"/>
<path opacity="0.5" d="M318.145 155.752L311.781 152.076L312.364 148.528L318.728 152.204L318.145 155.752Z" fill="#42E8E0"/>
<path opacity="0.5" d="M287.473 146.907L283.073 144.367L283.656 140.821L288.056 143.361L287.473 146.907Z" fill="#42E8E0"/>
<path opacity="0.5" d="M295.751 151.689L289.938 148.333L290.522 144.785L296.335 148.143L295.751 151.689Z" fill="#42E8E0"/>
<path d="M307.586 158.524L298.218 153.115L298.801 149.567L308.169 154.978L307.586 158.524Z" fill="#42E8E0"/>
<path opacity="0.5" d="M295.213 160.252L281.74 152.469L282.323 148.923L295.797 156.704L295.213 160.252Z" fill="#42E8E0"/>
<path opacity="0.5" d="M310.306 168.968L297.681 161.676L298.264 158.13L310.889 165.42L310.306 168.968Z" fill="#42E8E0"/>
<path opacity="0.5" d="M316.722 172.675L312.773 170.392L313.356 166.846L317.305 169.127L316.722 172.675Z" fill="#42E8E0"/>
<path opacity="0.5" d="M322.881 176.231L318.929 173.949L319.514 170.403L323.464 172.685L322.881 176.231Z" fill="#42E8E0"/>
<path opacity="0.5" d="M288.48 165.235L280.407 160.572L280.991 157.026L289.063 161.687L288.48 165.235Z" fill="#42E8E0"/>
<path d="M332.905 119.914L344.099 126.379L344.684 122.834L333.488 116.366L332.905 119.914Z" fill="#42E8E0"/>
<path opacity="0.5" d="M333.971 129.401L342.767 134.482L343.352 130.936L334.554 125.855L333.971 129.401Z" fill="#42E8E0"/>
<path opacity="0.5" d="M335.069 138.908L341.433 142.585L342.018 139.037L335.652 135.363L335.069 138.908Z" fill="#42E8E0"/>
<path opacity="0.5" d="M330.843 145.34L340.101 150.688L340.684 147.14L331.426 141.794L330.843 145.34Z" fill="#42E8E0"/>
<path opacity="0.5" d="M332.403 155.114L338.768 158.791L339.353 155.243L332.986 151.566L332.403 155.114Z" fill="#42E8E0"/>
<path opacity="0.5" d="M329.363 162.23L337.435 166.893L338.018 163.346L329.946 158.683L329.363 162.23Z" fill="#42E8E0"/>
<path opacity="0.5" d="M331.705 172.456L336.103 174.996L336.686 171.448L332.288 168.908L331.705 172.456Z" fill="#42E8E0"/>
<path opacity="0.5" d="M326.247 178.175L334.77 183.097L335.353 179.551L326.83 174.629L326.247 178.175Z" fill="#42E8E0"/>
<path opacity="0.5" d="M325.364 186.539L333.437 191.2L334.02 187.654L325.947 182.991L325.364 186.539Z" fill="#42E8E0"/>
<path d="M294.379 168.643L290.947 166.661L291.53 163.113L294.964 165.095L294.379 168.643Z" fill="#42E8E0"/>
<path opacity="0.5" d="M304.573 174.53L296.845 170.066L297.429 166.52L305.157 170.983L304.573 174.53Z" fill="#42E8E0"/>
<path opacity="0.5" d="M232.58 142.025L216.435 132.701L217.018 129.153L233.163 138.479L232.58 142.025Z" fill="#42E8E0"/>
<path opacity="0.5" d="M240.86 146.807L235.046 143.45L235.63 139.902L241.443 143.261L240.86 146.807Z" fill="#42E8E0"/>
<path opacity="0.5" d="M247.277 150.514L243.325 148.232L243.91 144.684L247.86 146.966L247.277 150.514Z" fill="#42E8E0"/>
<path opacity="0.5" d="M223.9 145.883L215.102 140.804L215.685 137.256L224.483 142.337L223.9 145.883Z" fill="#42E8E0"/>
<path opacity="0.5" d="M237.146 153.535L226.366 147.309L226.95 143.761L237.729 149.987L237.146 153.535Z" fill="#42E8E0"/>
<path opacity="0.5" d="M243.564 157.242L239.613 154.959L240.196 151.413L244.147 153.694L243.564 157.242Z" fill="#42E8E0"/>
<path opacity="0.5" d="M249.67 160.769L245.72 158.486L246.304 154.94L250.253 157.221L249.67 160.769Z" fill="#42E8E0"/>
<path opacity="0.5" d="M220.134 152.581L213.769 148.904L214.352 145.359L220.717 149.035L220.134 152.581Z" fill="#42E8E0"/>
<path opacity="0.5" d="M224.776 155.262L222.601 154.007L223.184 150.459L225.359 151.716L224.776 155.262Z" fill="#42E8E0"/>
<path opacity="0.5" d="M231.192 158.969L227.243 156.687L227.826 153.139L231.777 155.423L231.192 158.969Z" fill="#42E8E0"/>
<path opacity="0.5" d="M235.931 170.578L212.437 157.007L213.02 153.461L236.514 167.03L235.931 170.578Z" fill="#42E8E0"/>
<path opacity="0.5" d="M244.209 175.36L238.396 172.001L238.98 168.455L244.793 171.812L244.209 175.36Z" fill="#42E8E0"/>
<path opacity="0.5" d="M217.468 168.787L211.104 165.11L211.687 161.564L218.051 165.241L217.468 168.787Z" fill="#42E8E0"/>
<path opacity="0.5" d="M232.406 177.414L219.935 170.212L220.518 166.664L232.991 173.868L232.406 177.414Z" fill="#42E8E0"/>
<path opacity="0.5" d="M238.824 181.121L234.873 178.839L235.456 175.291L239.407 177.573L238.824 181.121Z" fill="#42E8E0"/>
<path opacity="0.5" d="M222.794 180.734L209.771 173.213L210.354 169.667L223.377 177.188L222.794 180.734Z" fill="#42E8E0"/>
<path opacity="0.5" d="M234.679 187.599L225.261 182.16L225.844 178.612L235.262 184.051L234.679 187.599Z" fill="#42E8E0"/>
<path opacity="0.5" d="M243.511 192.699L237.146 189.025L237.729 185.477L244.094 189.153L243.511 192.699Z" fill="#42E8E0"/>
<path opacity="0.5" d="M212.836 183.856L208.438 181.316L209.021 177.768L213.419 180.308L212.836 183.856Z" fill="#42E8E0"/>
<path opacity="0.5" d="M221.115 188.638L215.303 185.282L215.886 181.734L221.7 185.091L221.115 188.638Z" fill="#42E8E0"/>
<path opacity="0.5" d="M232.949 195.473L223.583 190.062L224.167 186.516L233.532 191.925L232.949 195.473Z" fill="#42E8E0"/>
<path opacity="0.5" d="M220.579 197.201L207.105 189.418L207.688 185.871L221.162 193.653L220.579 197.201Z" fill="#42E8E0"/>
<path opacity="0.5" d="M235.67 205.916L223.046 198.625L223.629 195.077L236.253 202.37L235.67 205.916Z" fill="#42E8E0"/>
<path opacity="0.5" d="M242.087 209.622L238.136 207.341L238.719 203.793L242.67 206.075L242.087 209.622Z" fill="#42E8E0"/>
<path opacity="0.5" d="M248.244 213.18L244.295 210.898L244.878 207.351L248.829 209.632L248.244 213.18Z" fill="#42E8E0"/>
<path opacity="0.5" d="M213.845 202.184L205.772 197.521L206.356 193.973L214.428 198.636L213.845 202.184Z" fill="#42E8E0"/>
<path opacity="0.5" d="M258.268 156.862L269.465 163.329L270.048 159.781L258.853 153.316L258.268 156.862Z" fill="#42E8E0"/>
<path opacity="0.5" d="M259.334 166.35L268.132 171.431L268.715 167.884L259.917 162.802L259.334 166.35Z" fill="#42E8E0"/>
<path opacity="0.5" d="M260.434 175.858L266.799 179.534L267.382 175.986L261.017 172.31L260.434 175.858Z" fill="#42E8E0"/>
<path opacity="0.5" d="M256.207 182.289L265.466 187.637L266.049 184.089L256.79 178.741L256.207 182.289Z" fill="#42E8E0"/>
<path opacity="0.5" d="M257.769 192.063L264.134 195.738L264.717 192.192L258.352 188.515L257.769 192.063Z" fill="#42E8E0"/>
<path opacity="0.5" d="M254.728 199.18L262.801 203.841L263.384 200.295L255.311 195.632L254.728 199.18Z" fill="#42E8E0"/>
<path opacity="0.5" d="M257.068 209.403L261.468 211.943L262.051 208.398L257.653 205.857L257.068 209.403Z" fill="#42E8E0"/>
<path opacity="0.5" d="M251.61 215.124L260.135 220.046L260.718 216.5L252.195 211.576L251.61 215.124Z" fill="#42E8E0"/>
<path opacity="0.5" d="M250.728 223.486L258.802 228.149L259.386 224.601L251.313 219.94L250.728 223.486Z" fill="#42E8E0"/>
<path opacity="0.5" d="M219.744 205.59L216.312 203.608L216.895 200.062L220.327 202.044L219.744 205.59Z" fill="#42E8E0"/>
<path opacity="0.5" d="M229.939 211.478L222.211 207.015L222.794 203.468L230.522 207.932L229.939 211.478Z" fill="#42E8E0"/>
<path opacity="0.5" d="M295.212 178.048L279.067 168.722L279.65 165.174L295.795 174.5L295.212 178.048Z" fill="#42E8E0"/>
<path opacity="0.5" d="M303.492 182.83L297.678 179.472L298.262 175.924L304.076 179.282L303.492 182.83Z" fill="#42E8E0"/>
<path opacity="0.5" d="M309.908 186.535L305.959 184.254L306.542 180.708L310.492 182.989L309.908 186.535Z" fill="#42E8E0"/>
<path opacity="0.5" d="M286.531 181.906L277.734 176.825L278.317 173.277L287.115 178.359L286.531 181.906Z" fill="#42E8E0"/>
<path opacity="0.5" d="M299.778 189.557L288.998 183.33L289.581 179.784L300.363 186.011L299.778 189.557Z" fill="#42E8E0"/>
<path opacity="0.5" d="M306.196 193.263L302.245 190.982L302.83 187.434L306.779 189.716L306.196 193.263Z" fill="#42E8E0"/>
<path opacity="0.5" d="M312.302 196.79L308.353 194.509L308.936 190.961L312.885 193.243L312.302 196.79Z" fill="#42E8E0"/>
<path opacity="0.5" d="M282.766 188.604L276.401 184.928L276.984 181.38L283.349 185.056L282.766 188.604Z" fill="#42E8E0"/>
<path opacity="0.5" d="M287.408 191.285L285.233 190.028L285.816 186.482L287.991 187.737L287.408 191.285Z" fill="#42E8E0"/>
<path opacity="0.5" d="M293.826 194.99L289.875 192.709L290.458 189.163L294.409 191.444L293.826 194.99Z" fill="#42E8E0"/>
<path opacity="0.5" d="M298.563 206.599L275.068 193.031L275.651 189.483L299.146 203.051L298.563 206.599Z" fill="#42E8E0"/>
<path opacity="0.5" d="M306.842 211.381L301.03 208.025L301.613 204.477L307.425 207.833L306.842 211.381Z" fill="#42E8E0"/>
<path opacity="0.5" d="M280.1 204.808L273.736 201.133L274.319 197.586L280.684 201.262L280.1 204.808Z" fill="#42E8E0"/>
<path opacity="0.5" d="M295.039 213.437L282.567 206.234L283.15 202.686L295.622 209.889L295.039 213.437Z" fill="#42E8E0"/>
<path opacity="0.5" d="M301.456 217.142L297.507 214.861L298.09 211.313L302.039 213.596L301.456 217.142Z" fill="#42E8E0"/>
<path opacity="0.5" d="M285.426 216.756L272.403 209.234L272.986 205.688L286.009 213.21L285.426 216.756Z" fill="#42E8E0"/>
<path opacity="0.5" d="M297.311 223.621L287.893 218.181L288.476 214.635L297.895 220.075L297.311 223.621Z" fill="#42E8E0"/>
<path opacity="0.5" d="M306.143 228.723L299.778 225.046L300.361 221.498L306.726 225.175L306.143 228.723Z" fill="#42E8E0"/>
<path opacity="0.5" d="M275.468 219.878L271.07 217.337L271.653 213.791L276.053 216.332L275.468 219.878Z" fill="#42E8E0"/>
<path opacity="0.5" d="M283.748 224.66L277.935 221.303L278.518 217.755L284.332 221.114L283.748 224.66Z" fill="#42E8E0"/>
<path opacity="0.5" d="M295.581 231.494L286.215 226.085L286.798 222.538L296.164 227.948L295.581 231.494Z" fill="#42E8E0"/>
<path opacity="0.5" d="M283.211 233.223L269.737 225.44L270.32 221.894L283.794 229.675L283.211 233.223Z" fill="#42E8E0"/>
<path opacity="0.5" d="M298.301 241.939L285.678 234.646L286.261 231.1L298.886 238.391L298.301 241.939Z" fill="#42E8E0"/>
<path opacity="0.5" d="M304.719 245.644L300.768 243.362L301.351 239.817L305.302 242.098L304.719 245.644Z" fill="#42E8E0"/>
<path opacity="0.5" d="M310.878 249.201L306.927 246.92L307.51 243.372L311.461 245.655L310.878 249.201Z" fill="#42E8E0"/>
<path opacity="0.5" d="M276.477 238.206L268.404 233.543L268.987 229.997L277.06 234.658L276.477 238.206Z" fill="#42E8E0"/>
<path opacity="0.5" d="M320.902 192.885L332.097 199.35L332.68 195.802L321.485 189.337L320.902 192.885Z" fill="#42E8E0"/>
<path opacity="0.5" d="M321.966 202.372L330.764 207.453L331.347 203.905L322.549 198.826L321.966 202.372Z" fill="#42E8E0"/>
<path opacity="0.5" d="M323.066 211.879L329.431 215.556L330.014 212.008L323.649 208.331L323.066 211.879Z" fill="#42E8E0"/>
<path opacity="0.5" d="M318.838 218.31L328.098 223.658L328.681 220.111L319.423 214.764L318.838 218.31Z" fill="#42E8E0"/>
<path opacity="0.5" d="M320.401 228.085L326.765 231.761L327.349 228.213L320.984 224.537L320.401 228.085Z" fill="#42E8E0"/>
<path opacity="0.5" d="M317.36 235.201L325.432 239.862L326.016 236.316L317.943 231.653L317.36 235.201Z" fill="#42E8E0"/>
<path opacity="0.5" d="M319.702 245.424L324.1 247.965L324.683 244.419L320.285 241.878L319.702 245.424Z" fill="#42E8E0"/>
<path opacity="0.5" d="M314.244 251.145L322.767 256.068L323.35 252.522L314.827 247.598L314.244 251.145Z" fill="#42E8E0"/>
<path opacity="0.5" d="M313.362 259.508L321.434 264.17L322.017 260.625L313.945 255.962L313.362 259.508Z" fill="#42E8E0"/>
<path opacity="0.5" d="M282.376 241.613L278.943 239.629L279.526 236.083L282.959 238.065L282.376 241.613Z" fill="#42E8E0"/>
<path opacity="0.5" d="M292.57 247.501L284.843 243.037L285.426 239.491L293.154 243.953L292.57 247.501Z" fill="#42E8E0"/>
<path opacity="0.5" d="M378.163 143.744L362.018 134.418L362.601 130.87L378.746 140.196L378.163 143.744Z" fill="#42E8E0"/>
<path opacity="0.5" d="M386.444 148.526L380.63 145.167L381.213 141.621L387.027 144.978L386.444 148.526Z" fill="#42E8E0"/>
<path opacity="0.5" d="M392.86 152.231L388.911 149.95L389.494 146.404L393.443 148.685L392.86 152.231Z" fill="#42E8E0"/>
<path opacity="0.5" d="M369.483 147.602L360.686 142.521L361.269 138.973L370.066 144.054L369.483 147.602Z" fill="#42E8E0"/>
<path opacity="0.5" d="M382.73 155.252L371.95 149.026L372.533 145.48L383.315 151.706L382.73 155.252Z" fill="#42E8E0"/>
<path opacity="0.5" d="M389.148 158.959L385.197 156.678L385.78 153.13L389.731 155.411L389.148 158.959Z" fill="#42E8E0"/>
<path opacity="0.5" d="M395.253 162.486L391.304 160.205L391.887 156.657L395.838 158.938L395.253 162.486Z" fill="#42E8E0"/>
<path d="M365.718 154.3L359.353 150.623L359.936 147.076L366.301 150.752L365.718 154.3Z" fill="#42E8E0"/>
<path d="M370.36 156.981L368.185 155.724L368.768 152.178L370.943 153.433L370.36 156.981Z" fill="#42E8E0"/>
<path opacity="0.5" d="M376.777 160.686L372.826 158.404L373.41 154.858L377.361 157.14L376.777 160.686Z" fill="#42E8E0"/>
<path opacity="0.5" d="M381.515 172.295L358.02 158.726L358.603 155.178L382.098 168.747L381.515 172.295Z" fill="#42E8E0"/>
<path opacity="0.5" d="M389.793 177.077L383.981 173.72L384.564 170.172L390.376 173.531L389.793 177.077Z" fill="#42E8E0"/>
<path opacity="0.5" d="M363.052 170.504L356.688 166.829L357.271 163.281L363.635 166.958L363.052 170.504Z" fill="#42E8E0"/>
<path opacity="0.5" d="M377.991 179.133L365.519 171.929L366.102 168.381L378.574 175.585L377.991 179.133Z" fill="#42E8E0"/>
<path opacity="0.5" d="M384.407 182.838L380.458 180.556L381.041 177.01L384.99 179.292L384.407 182.838Z" fill="#42E8E0"/>
<path opacity="0.5" d="M368.377 182.453L355.354 174.93L355.937 171.384L368.961 178.906L368.377 182.453Z" fill="#42E8E0"/>
<path d="M380.263 189.316L370.844 183.877L371.428 180.329L380.846 185.77L380.263 189.316Z" fill="#42E8E0"/>
<path opacity="0.5" d="M389.095 194.418L382.73 190.742L383.313 187.194L389.678 190.87L389.095 194.418Z" fill="#42E8E0"/>
<path opacity="0.5" d="M358.42 185.573L354.022 183.033L354.605 179.487L359.005 182.027L358.42 185.573Z" fill="#42E8E0"/>
<path opacity="0.5" d="M366.7 190.355L360.886 186.999L361.47 183.451L367.284 186.81L366.7 190.355Z" fill="#42E8E0"/>
<path opacity="0.5" d="M378.533 197.19L369.167 191.781L369.75 188.233L379.116 193.644L378.533 197.19Z" fill="#42E8E0"/>
<path opacity="0.5" d="M366.162 198.918L352.689 191.135L353.272 187.59L366.746 195.371L366.162 198.918Z" fill="#42E8E0"/>
<path opacity="0.5" d="M381.253 207.635L368.63 200.342L369.213 196.796L381.838 204.087L381.253 207.635Z" fill="#42E8E0"/>
<path d="M387.671 211.339L383.72 209.058L384.303 205.512L388.254 207.794L387.671 211.339Z" fill="#42E8E0"/>
<path opacity="0.5" d="M393.829 214.897L389.878 212.615L390.461 209.068L394.413 211.351L393.829 214.897Z" fill="#42E8E0"/>
<path opacity="0.5" d="M359.429 203.901L351.356 199.238L351.939 195.691L360.012 200.353L359.429 203.901Z" fill="#42E8E0"/>
<path d="M403.854 158.58L415.048 165.046L415.631 161.5L404.437 155.033L403.854 158.58Z" fill="#42E8E0"/>
<path opacity="0.5" d="M404.918 168.067L413.716 173.148L414.299 169.602L405.501 164.521L404.918 168.067Z" fill="#42E8E0"/>
<path opacity="0.5" d="M406.018 177.575L412.383 181.251L412.966 177.703L406.601 174.029L406.018 177.575Z" fill="#42E8E0"/>
<path opacity="0.5" d="M401.79 184.006L411.05 189.354L411.633 185.806L402.375 180.46L401.79 184.006Z" fill="#42E8E0"/>
<path opacity="0.5" d="M403.352 193.78L409.717 197.457L410.3 193.909L403.935 190.233L403.352 193.78Z" fill="#42E8E0"/>
<path opacity="0.5" d="M400.312 200.897L408.384 205.56L408.967 202.012L400.895 197.349L400.312 200.897Z" fill="#42E8E0"/>
<path opacity="0.5" d="M402.654 211.122L407.052 213.66L407.635 210.114L403.237 207.574L402.654 211.122Z" fill="#42E8E0"/>
<path opacity="0.5" d="M397.196 216.841L405.719 221.763L406.302 218.217L397.779 213.293L397.196 216.841Z" fill="#42E8E0"/>
<path opacity="0.5" d="M396.313 225.203L404.386 229.866L404.969 226.32L396.896 221.657L396.313 225.203Z" fill="#42E8E0"/>
<path opacity="0.5" d="M365.328 207.309L361.895 205.325L362.478 201.779L365.911 203.761L365.328 207.309Z" fill="#42E8E0"/>
<path opacity="0.5" d="M375.522 213.197L367.794 208.733L368.378 205.187L376.105 209.649L375.522 213.197Z" fill="#42E8E0"/>
<path opacity="0.5" d="M440.797 179.765L424.65 170.439L425.233 166.893L441.38 176.217L440.797 179.765Z" fill="#42E8E0"/>
<path opacity="0.5" d="M449.076 184.547L443.264 181.189L443.847 177.643L449.659 180.999L449.076 184.547Z" fill="#42E8E0"/>
<path d="M455.492 188.252L451.543 185.971L452.126 182.425L456.077 184.706L455.492 188.252Z" fill="#42E8E0"/>
<path opacity="0.5" d="M432.115 183.623L423.318 178.542L423.903 174.996L432.699 180.076L432.115 183.623Z" fill="#42E8E0"/>
<path opacity="0.5" d="M445.364 191.276L434.582 185.047L435.165 181.501L445.947 187.728L445.364 191.276Z" fill="#42E8E0"/>
<path d="M451.78 194.98L447.831 192.699L448.414 189.151L452.363 191.435L451.78 194.98Z" fill="#42E8E0"/>
<path opacity="0.5" d="M457.887 198.508L453.936 196.226L454.519 192.678L458.47 194.962L457.887 198.508Z" fill="#42E8E0"/>
<path opacity="0.5" d="M428.35 190.321L421.985 186.645L422.568 183.097L428.935 186.774L428.35 190.321Z" fill="#42E8E0"/>
<path opacity="0.5" d="M432.992 193.002L430.816 191.745L431.401 188.199L433.577 189.456L432.992 193.002Z" fill="#42E8E0"/>
<path opacity="0.5" d="M439.41 196.709L435.458 194.428L436.043 190.88L439.993 193.161L439.41 196.709Z" fill="#42E8E0"/>
<path opacity="0.5" d="M444.147 208.316L420.652 194.748L421.235 191.2L444.73 204.77L444.147 208.316Z" fill="#42E8E0"/>
<path opacity="0.5" d="M452.425 213.098L446.613 209.742L447.196 206.194L453.01 209.552L452.425 213.098Z" fill="#42E8E0"/>
<path opacity="0.5" d="M425.684 206.527L419.319 202.85L419.902 199.303L426.269 202.979L425.684 206.527Z" fill="#42E8E0"/>
<path opacity="0.5" d="M440.623 215.154L428.151 207.951L428.734 204.405L441.207 211.606L440.623 215.154Z" fill="#42E8E0"/>
<path opacity="0.5" d="M447.039 218.861L443.09 216.578L443.673 213.032L447.624 215.313L447.039 218.861Z" fill="#42E8E0"/>
<path d="M431.009 218.475L417.986 210.953L418.569 207.405L431.594 214.927L431.009 218.475Z" fill="#42E8E0"/>
<path opacity="0.5" d="M442.895 225.339L433.477 219.898L434.06 216.353L443.478 221.792L442.895 225.339Z" fill="#42E8E0"/>
<path opacity="0.5" d="M451.726 230.44L445.361 226.763L445.944 223.217L452.309 226.892L451.726 230.44Z" fill="#42E8E0"/>
<path opacity="0.5" d="M421.054 221.597L416.654 219.056L417.237 215.508L421.637 218.049L421.054 221.597Z" fill="#42E8E0"/>
<path opacity="0.5" d="M429.333 226.377L423.519 223.02L424.104 219.472L429.916 222.831L429.333 226.377Z" fill="#42E8E0"/>
<path d="M441.165 233.211L431.799 227.802L432.382 224.255L441.75 229.665L441.165 233.211Z" fill="#42E8E0"/>
<path opacity="0.5" d="M428.795 234.94L415.321 227.157L415.904 223.611L429.378 231.392L428.795 234.94Z" fill="#42E8E0"/>
<path opacity="0.5" d="M443.887 243.656L431.262 236.365L431.845 232.818L444.47 240.108L443.887 243.656Z" fill="#42E8E0"/>
<path opacity="0.5" d="M450.303 247.363L446.354 245.081L446.937 241.534L450.886 243.815L450.303 247.363Z" fill="#42E8E0"/>
<path opacity="0.5" d="M456.462 250.918L452.51 248.637L453.096 245.091L457.045 247.372L456.462 250.918Z" fill="#42E8E0"/>
<path opacity="0.5" d="M422.061 239.923L413.988 235.26L414.571 231.714L422.644 236.377L422.061 239.923Z" fill="#42E8E0"/>
<path d="M466.486 194.602L477.68 201.067L478.265 197.521L467.069 191.056L466.486 194.602Z" fill="#42E8E0"/>
<path opacity="0.5" d="M467.55 204.089L476.348 209.17L476.931 205.624L468.135 200.543L467.55 204.089Z" fill="#42E8E0"/>
<path opacity="0.5" d="M468.649 213.596L475.014 217.273L475.599 213.727L469.232 210.05L468.649 213.596Z" fill="#42E8E0"/>
<path opacity="0.5" d="M464.424 220.029L473.682 225.375L474.265 221.828L465.007 216.481L464.424 220.029Z" fill="#42E8E0"/>
<path opacity="0.5" d="M465.984 229.802L472.349 233.478L472.932 229.93L466.567 226.256L465.984 229.802Z" fill="#42E8E0"/>
<path opacity="0.5" d="M462.944 236.918L471.016 241.581L471.599 238.033L463.527 233.37L462.944 236.918Z" fill="#42E8E0"/>
<path opacity="0.5" d="M465.286 247.143L469.683 249.684L470.267 246.136L465.869 243.595L465.286 247.143Z" fill="#42E8E0"/>
<path opacity="0.5" d="M459.827 252.862L468.35 257.787L468.934 254.239L460.41 249.317L459.827 252.862Z" fill="#42E8E0"/>
<path opacity="0.5" d="M458.945 261.226L467.018 265.889L467.601 262.342L459.528 257.679L458.945 261.226Z" fill="#42E8E0"/>
<path d="M427.96 243.33L424.527 241.348L425.11 237.8L428.545 239.783L427.96 243.33Z" fill="#42E8E0"/>
<path opacity="0.5" d="M438.154 249.218L430.427 244.754L431.01 241.208L438.738 245.67L438.154 249.218Z" fill="#42E8E0"/>
<path opacity="0.5" d="M366.161 216.712L350.016 207.388L350.599 203.841L366.744 213.166L366.161 216.712Z" fill="#42E8E0"/>
<path opacity="0.5" d="M374.442 221.494L368.628 218.138L369.211 214.59L375.025 217.948L374.442 221.494Z" fill="#42E8E0"/>
<path opacity="0.5" d="M380.857 225.201L376.906 222.92L377.491 219.372L381.44 221.653L380.857 225.201Z" fill="#42E8E0"/>
<path opacity="0.5" d="M357.479 220.572L348.683 215.491L349.266 211.943L358.064 217.025L357.479 220.572Z" fill="#42E8E0"/>
<path opacity="0.5" d="M370.727 228.223L359.946 221.996L360.531 218.45L371.31 224.677L370.727 228.223Z" fill="#42E8E0"/>
<path opacity="0.5" d="M377.145 231.93L373.194 229.648L373.777 226.1L377.728 228.382L377.145 231.93Z" fill="#42E8E0"/>
<path opacity="0.5" d="M383.251 235.457L379.3 233.175L379.885 229.628L383.834 231.909L383.251 235.457Z" fill="#42E8E0"/>
<path opacity="0.5" d="M353.715 227.269L347.35 223.594L347.933 220.046L354.298 223.723L353.715 227.269Z" fill="#42E8E0"/>
<path opacity="0.5" d="M358.357 229.951L356.182 228.694L356.765 225.146L358.94 226.403L358.357 229.951Z" fill="#42E8E0"/>
<path opacity="0.5" d="M364.773 233.656L360.824 231.375L361.407 227.829L365.358 230.11L364.773 233.656Z" fill="#42E8E0"/>
<path opacity="0.5" d="M369.51 245.265L346.018 231.695L346.601 228.149L370.095 241.717L369.51 245.265Z" fill="#42E8E0"/>
<path opacity="0.5" d="M377.791 250.047L371.977 246.689L372.56 243.143L378.374 246.5L377.791 250.047Z" fill="#42E8E0"/>
<path opacity="0.5" d="M351.049 243.474L344.684 239.798L345.267 236.252L351.632 239.928L351.049 243.474Z" fill="#42E8E0"/>
<path opacity="0.5" d="M365.986 252.103L353.516 244.9L354.099 241.352L366.57 248.555L365.986 252.103Z" fill="#42E8E0"/>
<path opacity="0.5" d="M372.405 255.808L368.454 253.527L369.037 249.979L372.988 252.262L372.405 255.808Z" fill="#42E8E0"/>
<path opacity="0.5" d="M356.375 255.422L343.352 247.901L343.935 244.355L356.958 251.876L356.375 255.422Z" fill="#42E8E0"/>
<path opacity="0.5" d="M368.258 262.287L358.842 256.848L359.425 253.3L368.843 258.741L368.258 262.287Z" fill="#42E8E0"/>
<path opacity="0.5" d="M377.092 267.389L370.725 263.712L371.31 260.164L377.675 263.841L377.092 267.389Z" fill="#42E8E0"/>
<path opacity="0.5" d="M346.417 258.544L342.019 256.003L342.602 252.457L347 254.996L346.417 258.544Z" fill="#42E8E0"/>
<path opacity="0.5" d="M354.696 263.326L348.884 259.969L349.467 256.422L355.281 259.778L354.696 263.326Z" fill="#42E8E0"/>
<path opacity="0.5" d="M366.53 270.16L357.162 264.752L357.747 261.204L367.113 266.613L366.53 270.16Z" fill="#42E8E0"/>
<path opacity="0.5" d="M354.16 271.889L340.684 264.106L341.269 260.56L354.743 268.341L354.16 271.889Z" fill="#42E8E0"/>
<path opacity="0.5" d="M369.251 280.605L356.627 273.313L357.21 269.767L369.834 277.057L369.251 280.605Z" fill="#42E8E0"/>
<path opacity="0.5" d="M375.668 284.31L371.717 282.029L372.3 278.483L376.251 280.764L375.668 284.31Z" fill="#42E8E0"/>
<path opacity="0.5" d="M381.825 287.867L377.876 285.586L378.459 282.038L382.408 284.319L381.825 287.867Z" fill="#42E8E0"/>
<path opacity="0.5" d="M347.426 276.872L339.354 272.209L339.937 268.661L348.009 273.324L347.426 276.872Z" fill="#42E8E0"/>
<path opacity="0.5" d="M391.849 231.551L403.046 238.016L403.629 234.468L392.434 228.003L391.849 231.551Z" fill="#42E8E0"/>
<path opacity="0.5" d="M392.915 241.038L401.713 246.119L402.296 242.571L393.498 237.492L392.915 241.038Z" fill="#42E8E0"/>
<path opacity="0.5" d="M394.015 250.545L400.38 254.222L400.963 250.674L394.598 246.997L394.015 250.545Z" fill="#42E8E0"/>
<path opacity="0.5" d="M389.787 256.976L399.047 262.325L399.63 258.777L390.37 253.429L389.787 256.976Z" fill="#42E8E0"/>
<path opacity="0.5" d="M391.35 266.751L397.714 270.427L398.298 266.879L391.933 263.203L391.35 266.751Z" fill="#42E8E0"/>
<path opacity="0.5" d="M388.307 273.867L396.382 278.528L396.965 274.982L388.892 270.319L388.307 273.867Z" fill="#42E8E0"/>
<path opacity="0.5" d="M390.649 284.09L395.049 286.631L395.632 283.085L391.232 280.544L390.649 284.09Z" fill="#42E8E0"/>
<path opacity="0.5" d="M385.191 289.812L393.716 294.734L394.299 291.188L385.776 286.264L385.191 289.812Z" fill="#42E8E0"/>
<path opacity="0.5" d="M384.309 298.174L392.383 302.837L392.966 299.289L384.894 294.628L384.309 298.174Z" fill="#42E8E0"/>
<path opacity="0.5" d="M353.325 280.279L349.893 278.295L350.476 274.749L353.908 276.731L353.325 280.279Z" fill="#42E8E0"/>
<path opacity="0.5" d="M363.52 286.167L355.792 281.703L356.375 278.155L364.103 282.619L363.52 286.167Z" fill="#42E8E0"/>
<path opacity="0.5" d="M428.793 252.736L412.648 243.41L413.231 239.862L429.378 249.188L428.793 252.736Z" fill="#42E8E0"/>
<path opacity="0.5" d="M437.073 257.518L431.26 254.159L431.843 250.613L437.657 253.97L437.073 257.518Z" fill="#42E8E0"/>
<path opacity="0.5" d="M443.489 261.223L439.54 258.941L440.123 255.396L444.072 257.677L443.489 261.223Z" fill="#42E8E0"/>
<path opacity="0.5" d="M420.112 256.594L411.315 251.513L411.898 247.965L420.695 253.046L420.112 256.594Z" fill="#42E8E0"/>
<path opacity="0.5" d="M433.359 264.244L422.579 258.018L423.162 254.472L433.944 260.698L433.359 264.244Z" fill="#42E8E0"/>
<path opacity="0.5" d="M439.777 267.951L435.826 265.67L436.411 262.122L440.36 264.403L439.777 267.951Z" fill="#42E8E0"/>
<path opacity="0.5" d="M445.883 271.478L441.933 269.197L442.516 265.649L446.466 267.93L445.883 271.478Z" fill="#42E8E0"/>
<path opacity="0.5" d="M416.347 263.292L409.982 259.615L410.565 256.068L416.93 259.744L416.347 263.292Z" fill="#42E8E0"/>
<path opacity="0.5" d="M420.989 265.973L418.813 264.716L419.397 261.17L421.572 262.425L420.989 265.973Z" fill="#42E8E0"/>
<path opacity="0.5" d="M427.407 269.68L423.456 267.396L424.039 263.851L427.99 266.132L427.407 269.68Z" fill="#42E8E0"/>
<path opacity="0.5" d="M432.144 281.287L408.649 267.718L409.233 264.17L432.727 277.741L432.144 281.287Z" fill="#42E8E0"/>
<path opacity="0.5" d="M440.422 286.069L434.61 282.712L435.193 279.164L441.005 282.523L440.422 286.069Z" fill="#42E8E0"/>
<path opacity="0.5" d="M413.681 279.497L407.316 275.821L407.899 272.273L414.264 275.95L413.681 279.497Z" fill="#42E8E0"/>
<path opacity="0.5" d="M428.618 288.125L416.148 280.921L416.731 277.373L429.203 284.577L428.618 288.125Z" fill="#42E8E0"/>
<path opacity="0.5" d="M435.037 291.83L431.085 289.548L431.67 286.003L435.62 288.284L435.037 291.83Z" fill="#42E8E0"/>
<path opacity="0.5" d="M419.007 291.445L405.984 283.924L406.567 280.376L419.59 287.898L419.007 291.445Z" fill="#42E8E0"/>
<path opacity="0.5" d="M430.892 298.31L421.474 292.869L422.057 289.323L431.475 294.762L430.892 298.31Z" fill="#42E8E0"/>
<path opacity="0.5" d="M439.724 303.41L433.359 299.734L433.942 296.186L440.307 299.862L439.724 303.41Z" fill="#42E8E0"/>
<path opacity="0.5" d="M409.049 294.565L404.651 292.025L405.234 288.479L409.632 291.019L409.049 294.565Z" fill="#42E8E0"/>
<path opacity="0.5" d="M417.329 299.347L411.515 295.991L412.099 292.443L417.912 295.802L417.329 299.347Z" fill="#42E8E0"/>
<path opacity="0.5" d="M429.162 306.182L419.796 300.773L420.379 297.225L429.745 302.636L429.162 306.182Z" fill="#42E8E0"/>
<path opacity="0.5" d="M416.792 307.91L403.318 300.127L403.901 296.582L417.375 304.362L416.792 307.91Z" fill="#42E8E0"/>
<path opacity="0.5" d="M431.882 316.626L419.259 309.334L419.842 305.788L432.466 313.079L431.882 316.626Z" fill="#42E8E0"/>
<path opacity="0.5" d="M438.3 320.331L434.349 318.05L434.934 314.504L438.883 316.785L438.3 320.331Z" fill="#42E8E0"/>
<path opacity="0.5" d="M444.459 323.889L440.508 321.608L441.091 318.062L445.042 320.343L444.459 323.889Z" fill="#42E8E0"/>
<path opacity="0.5" d="M410.058 312.893L401.985 308.23L402.568 304.684L410.641 309.345L410.058 312.893Z" fill="#42E8E0"/>
<path opacity="0.5" d="M454.483 267.572L465.677 274.038L466.26 270.492L455.066 264.025L454.483 267.572Z" fill="#42E8E0"/>
<path opacity="0.5" d="M455.547 277.059L464.345 282.14L464.928 278.595L456.13 273.513L455.547 277.059Z" fill="#42E8E0"/>
<path opacity="0.5" d="M456.647 286.567L463.012 290.243L463.595 286.695L457.23 283.021L456.647 286.567Z" fill="#42E8E0"/>
<path opacity="0.5" d="M452.421 292.998L461.679 298.346L462.262 294.798L453.004 289.452L452.421 292.998Z" fill="#42E8E0"/>
<path opacity="0.5" d="M453.981 302.772L460.346 306.449L460.929 302.901L454.565 299.224L453.981 302.772Z" fill="#42E8E0"/>
<path opacity="0.5" d="M450.941 309.889L459.014 314.552L459.597 311.004L451.524 306.341L450.941 309.889Z" fill="#42E8E0"/>
<path opacity="0.5" d="M453.281 320.114L457.681 322.652L458.264 319.106L453.866 316.566L453.281 320.114Z" fill="#42E8E0"/>
<path opacity="0.5" d="M447.824 325.833L456.348 330.755L456.931 327.209L448.408 322.287L447.824 325.833Z" fill="#42E8E0"/>
<path opacity="0.5" d="M446.943 334.195L455.015 338.858L455.598 335.312L447.526 330.649L446.943 334.195Z" fill="#42E8E0"/>
<path opacity="0.5" d="M415.957 316.301L412.524 314.317L413.108 310.771L416.54 312.753L415.957 316.301Z" fill="#42E8E0"/>
<path opacity="0.5" d="M426.152 322.189L418.424 317.725L419.007 314.179L426.735 318.641L426.152 322.189Z" fill="#42E8E0"/>
<path d="M289.1 399.12C268.883 399.12 249.891 394.584 235.622 386.343C221.105 377.964 213.11 366.746 213.11 354.761C213.11 342.773 221.107 331.556 235.624 323.175C265.112 306.152 313.091 306.15 342.583 323.173C357.1 331.554 365.094 342.771 365.094 354.757C365.094 366.743 357.1 377.962 342.583 386.343C328.31 394.584 309.316 399.12 289.1 399.12ZM289.104 311.297C269.896 311.297 250.696 315.517 236.075 323.959C221.847 332.173 214.013 343.112 214.013 354.763C214.013 366.413 221.847 377.352 236.073 385.565C250.207 393.726 269.038 398.221 289.1 398.221C309.161 398.221 327.994 393.726 342.132 385.565C356.359 377.35 364.191 366.411 364.191 354.761C364.191 343.112 356.357 332.171 342.132 323.957C327.513 315.517 308.307 311.297 289.104 311.297Z" fill="#42E8E0"/>
<g opacity="0.67">
<path d="M289.105 387.168C320.107 387.168 345.239 372.658 345.239 354.759C345.239 336.86 320.107 322.35 289.105 322.35C258.102 322.35 232.97 336.86 232.97 354.759C232.97 372.658 258.102 387.168 289.105 387.168Z" fill="#24126A"/>
</g>
<path d="M220.357 330.32V315.068H225.63C228.985 310.411 233.932 306.044 240.493 302.255C267.34 286.754 310.868 286.754 337.715 302.255C344.277 306.044 349.224 310.411 352.579 315.068H357.849V330.322C357.849 340.479 351.136 350.637 337.713 358.386C310.866 373.887 267.338 373.887 240.491 358.386C227.067 350.637 220.356 340.479 220.357 330.32Z" fill="url(#paint18_linear_3_4388)"/>
<path d="M289.104 354.759C327.072 354.759 357.851 336.989 357.851 315.068C357.851 293.148 327.072 275.378 289.104 275.378C251.136 275.378 220.357 293.148 220.357 315.068C220.357 336.989 251.136 354.759 289.104 354.759Z" fill="#BCBEFF"/>
<path d="M225.615 314.484V293.664H230.484C233.582 289.363 238.15 285.331 244.212 281.832C269.007 267.516 309.206 267.516 333.999 281.832C340.059 285.331 344.628 289.363 347.727 293.666H352.596V314.485C352.596 323.866 346.396 333.247 333.999 340.405C309.204 354.719 269.005 354.721 244.212 340.405C231.811 333.249 225.613 323.866 225.615 314.484Z" fill="#24126A"/>
<g opacity="0.51">
<path d="M225.615 309.472V288.653H230.484C233.582 284.352 238.15 280.319 244.212 276.821C269.007 262.506 309.206 262.504 333.999 276.821C340.059 280.319 344.628 284.352 347.727 288.655H352.596V309.474C352.596 318.855 346.396 328.235 333.999 335.394C309.204 349.708 269.005 349.71 244.212 335.394C231.811 328.235 225.613 318.855 225.615 309.472Z" fill="#453C9E"/>
</g>
<path d="M289.104 330.322C324.169 330.322 352.594 313.91 352.594 293.666C352.594 273.422 324.169 257.01 289.104 257.01C254.04 257.01 225.615 273.422 225.615 293.666C225.615 313.91 254.04 330.322 289.104 330.322Z" fill="#BCBEFF"/>
<g opacity="0.51">
<path d="M245.364 320.64C256.278 334.54 270.67 341.97 282.845 345.946C268.741 345.145 255.012 341.63 244.207 335.392C231.809 328.234 225.611 318.853 225.613 309.47V303.251C232.029 306.844 238.838 312.329 245.364 320.64Z" fill="#5351AF"/>
</g>
<path d="M220.357 293.333V278.081H225.63C228.985 273.424 233.932 269.057 240.493 265.269C267.34 249.767 310.868 249.767 337.715 265.269C344.277 269.057 349.224 273.424 352.579 278.081H357.849V293.335C357.849 303.492 351.136 313.65 337.713 321.401C310.866 336.902 267.338 336.902 240.491 321.401C227.067 313.65 220.356 303.492 220.357 293.333Z" fill="url(#paint19_linear_3_4388)"/>
<path d="M289.104 317.772C327.072 317.772 357.851 300.002 357.851 278.081C357.851 256.161 327.072 238.391 289.104 238.391C251.136 238.391 220.357 256.161 220.357 278.081C220.357 300.002 251.136 317.772 289.104 317.772Z" fill="#BCBEFF"/>
<path d="M225.615 276.73V255.91H230.484C233.582 251.609 238.15 247.577 244.212 244.078C269.007 229.764 309.206 229.762 333.999 244.078C340.059 247.577 344.628 251.609 347.727 255.912H352.596V276.732C352.596 286.112 346.396 295.493 333.999 302.651C309.204 316.967 269.005 316.967 244.212 302.651C231.811 295.491 225.613 286.11 225.615 276.73Z" fill="#24126A"/>
<g opacity="0.51">
<path d="M225.615 271.967V251.147H230.484C233.582 246.846 238.15 242.814 244.212 239.315C269.007 225.001 309.206 224.999 333.999 239.315C340.059 242.814 344.628 246.846 347.727 251.147H352.596V271.967C352.596 281.347 346.396 290.728 333.999 297.886C309.204 312.2 269.005 312.202 244.212 297.886C231.811 290.73 225.613 281.349 225.615 271.967Z" fill="#453C9E"/>
</g>
<path d="M289.104 292.566C324.169 292.566 352.594 276.155 352.594 255.911C352.594 235.666 324.169 219.255 289.104 219.255C254.04 219.255 225.615 235.666 225.615 255.911C225.615 276.155 254.04 292.566 289.104 292.566Z" fill="#BCBEFF"/>
<g opacity="0.51">
<path d="M245.364 280.931C258.935 298.213 277.878 305.493 291.251 308.565C274.294 308.895 257.153 305.362 244.21 297.89C231.811 290.732 225.613 281.351 225.615 271.968V263.544C232.029 267.133 238.839 272.618 245.364 280.931Z" fill="#5351AF"/>
</g>
<path d="M220.357 255.577V240.326H225.63C228.985 235.669 233.932 231.301 240.493 227.513C267.34 212.011 310.868 212.011 337.715 227.513C344.277 231.301 349.224 235.669 352.579 240.326H357.849V255.579C357.849 265.736 351.136 275.895 337.713 283.645C310.866 299.147 267.338 299.147 240.491 283.645C227.067 275.895 220.356 265.736 220.357 255.577Z" fill="url(#paint20_linear_3_4388)"/>
<path d="M289.104 280.016C327.072 280.016 357.851 262.246 357.851 240.326C357.851 218.405 327.072 200.635 289.104 200.635C251.136 200.635 220.357 218.405 220.357 240.326C220.357 262.246 251.136 280.016 289.104 280.016Z" fill="#BCBEFF"/>
<path d="M225.615 238.974V218.155H230.484C233.582 213.854 238.15 209.821 244.212 206.323C269.007 192.008 309.206 192.006 333.999 206.323C340.059 209.821 344.628 213.854 347.727 218.157H352.596V238.976C352.596 248.357 346.396 257.737 333.999 264.896C309.204 279.21 269.005 279.212 244.212 264.896C231.811 257.737 225.613 248.355 225.615 238.974Z" fill="#24126A"/>
<g opacity="0.51">
<path d="M225.615 233.147V212.328H230.484C233.582 208.026 238.15 203.994 244.212 200.495C269.007 186.181 309.206 186.179 333.999 200.495C340.059 203.994 344.628 208.026 347.727 212.33H352.596V233.149C352.596 242.53 346.396 251.91 333.999 259.068C309.204 273.383 269.005 273.385 244.212 259.068C231.811 251.91 225.613 242.53 225.615 233.147Z" fill="#453C9E"/>
</g>
<path d="M289.104 254.811C324.169 254.811 352.594 238.399 352.594 218.155C352.594 197.911 324.169 181.499 289.104 181.499C254.04 181.499 225.615 197.911 225.615 218.155C225.615 238.399 254.04 254.811 289.104 254.811Z" fill="#BCBEFF"/>
<path d="M220.357 217.822V202.57H225.63C228.985 197.913 233.932 193.546 240.493 189.757C267.34 174.256 310.868 174.256 337.715 189.757C344.277 193.546 349.224 197.913 352.579 202.57H357.849V217.824C357.849 227.981 351.136 238.139 337.713 245.888C310.866 261.389 267.338 261.389 240.491 245.888C227.067 238.139 220.356 227.98 220.357 217.822Z" fill="url(#paint21_linear_3_4388)"/>
<path d="M289.104 242.261C327.072 242.261 357.851 224.491 357.851 202.57C357.851 180.65 327.072 162.88 289.104 162.88C251.136 162.88 220.357 180.65 220.357 202.57C220.357 224.491 251.136 242.261 289.104 242.261Z" fill="#BCBEFF"/>
<path d="M289.104 242.261C327.072 242.261 357.851 224.491 357.851 202.57C357.851 180.65 327.072 162.88 289.104 162.88C251.136 162.88 220.357 180.65 220.357 202.57C220.357 224.491 251.136 242.261 289.104 242.261Z" fill="#BCBEFF"/>
<g opacity="0.51">
<path d="M245.364 241.219C260.267 260.2 281.649 267.116 295.017 269.642C276.857 270.617 258.111 267.095 244.21 259.068C231.811 251.91 225.613 242.53 225.615 233.147V223.831C232.029 227.422 238.839 232.907 245.364 241.219Z" fill="#5351AF"/>
</g>
<path d="M220.357 217.822V202.57H225.63C228.985 197.913 233.932 193.546 240.493 189.757C267.34 174.256 310.868 174.256 337.715 189.757C344.277 193.546 349.224 197.913 352.579 202.57H357.849V217.824C357.849 227.981 351.136 238.139 337.713 245.888C310.866 261.389 267.338 261.389 240.491 245.888C227.067 238.139 220.356 227.98 220.357 217.822Z" fill="url(#paint22_linear_3_4388)"/>
<path d="M289.104 242.261C327.072 242.261 357.851 224.491 357.851 202.57C357.851 180.65 327.072 162.88 289.104 162.88C251.136 162.88 220.357 180.65 220.357 202.57C220.357 224.491 251.136 242.261 289.104 242.261Z" fill="#BCBEFF"/>
<path d="M289.104 242.261C327.072 242.261 357.851 224.491 357.851 202.57C357.851 180.65 327.072 162.88 289.104 162.88C251.136 162.88 220.357 180.65 220.357 202.57C220.357 224.491 251.136 242.261 289.104 242.261Z" fill="#BCBEFF"/>
<path d="M240.102 229.431C266.949 244.93 310.477 244.93 337.324 229.431C353.766 219.938 360.119 206.836 356.424 194.543C360.922 207.178 354.694 220.832 337.716 230.635C310.868 246.136 267.341 246.136 240.493 230.635C230.087 224.628 223.733 217.17 221.395 209.389C224.008 216.735 230.232 223.734 240.102 229.431Z" fill="white"/>
<path d="M240.102 267.186C266.949 282.686 310.477 282.686 337.324 267.186C353.766 257.694 360.119 244.591 356.424 232.299C360.922 244.934 354.694 258.587 337.716 268.39C310.868 283.892 267.341 283.892 240.493 268.392C230.087 262.385 223.733 254.928 221.395 247.147C224.008 254.491 230.232 261.49 240.102 267.186Z" fill="white"/>
<path d="M240.102 304.944C266.949 320.443 310.477 320.443 337.324 304.942C353.766 295.449 360.119 282.347 356.424 270.054C360.922 282.689 354.694 296.343 337.716 306.146C310.868 321.647 267.341 321.647 240.493 306.146C230.087 300.139 223.733 292.682 221.395 284.903C224.008 292.246 230.232 299.245 240.102 304.944Z" fill="white"/>
<path d="M240.102 342.698C266.949 358.197 310.477 358.197 337.324 342.698C353.766 333.205 360.119 320.102 356.424 307.81C360.922 320.445 354.694 334.099 337.716 343.902C310.868 359.403 267.341 359.403 240.493 343.902C230.087 337.894 223.733 330.437 221.395 322.656C224.008 330.002 230.232 337.001 240.102 342.698Z" fill="white"/>
<path opacity="0.78" d="M351.515 219.234H289.102V182.427H348.359C359.854 193.684 360.905 207.51 351.515 219.234Z" fill="url(#paint23_linear_3_4388)"/>
<path d="M253.808 198.858V191.028H256.515C258.238 188.636 260.777 186.395 264.146 184.449C277.931 176.49 300.28 176.49 314.064 184.449C317.434 186.393 319.972 188.636 321.695 191.028H324.402V198.86C324.402 204.075 320.957 209.289 314.064 213.269C300.28 221.227 277.931 221.227 264.146 213.269C257.252 209.289 253.806 204.073 253.808 198.858Z" fill="url(#paint24_linear_3_4388)"/>
<path d="M289.104 211.406C308.598 211.406 324.401 202.282 324.401 191.028C324.401 179.773 308.598 170.649 289.104 170.649C269.611 170.649 253.808 179.773 253.808 191.028C253.808 202.282 269.611 211.406 289.104 211.406Z" fill="#BCBEFF"/>
<path d="M289.104 211.406C308.598 211.406 324.401 202.282 324.401 191.028C324.401 179.773 308.598 170.649 289.104 170.649C269.611 170.649 253.808 179.773 253.808 191.028C253.808 202.282 269.611 211.406 289.104 211.406Z" fill="url(#paint25_linear_3_4388)"/>
<path d="M272.299 200.73C281.579 206.088 296.628 206.088 305.908 200.73C308.807 199.057 310.8 197.059 311.887 194.939C314.284 190.27 308.294 186.884 301.91 183.199C292.629 177.842 286.047 176.513 276.765 181.872C270.385 185.556 263.921 190.269 266.314 194.935C267.405 197.057 269.398 199.057 272.299 200.73Z" fill="#24126A"/>
<path d="M305.908 189.157C296.628 183.8 281.579 183.8 272.299 189.157C269.402 190.829 267.41 192.826 266.322 194.945C263.921 190.276 265.913 185.013 272.299 181.327C281.579 175.969 296.628 175.969 305.908 181.327C312.292 185.013 314.284 190.274 311.885 194.945C310.796 192.826 308.805 190.829 305.908 189.157Z" fill="url(#paint26_linear_3_4388)"/>
<g opacity="0.51">
<path d="M250.404 260.494C255.034 262.317 258.493 261.825 258.13 259.392C257.766 256.959 253.717 253.51 249.086 251.685C244.455 249.862 240.996 250.354 241.36 252.787C241.725 255.22 245.773 258.671 250.404 260.494Z" fill="#6767C1"/>
</g>
<g opacity="0.51">
<path d="M250.404 298.789C255.034 300.612 258.493 300.12 258.13 297.687C257.766 295.254 253.717 291.805 249.086 289.98C244.455 288.157 240.996 288.649 241.36 291.082C241.725 293.515 245.773 296.964 250.404 298.789Z" fill="#6767C1"/>
</g>
<g opacity="0.51">
<path d="M250.15 337.336C254.781 339.159 258.24 338.667 257.877 336.234C257.513 333.801 253.464 330.352 248.833 328.527C244.202 326.704 240.743 327.196 241.107 329.629C241.47 332.063 245.52 335.513 250.15 337.336Z" fill="#6767C1"/>
</g>
<g opacity="0.51">
<path d="M237.216 250.884C238.307 251.662 239.67 251.622 240.262 250.793C240.855 249.964 240.45 248.662 239.359 247.883C238.269 247.105 236.906 247.145 236.313 247.974C235.72 248.802 236.126 250.104 237.216 250.884Z" fill="#6767C1"/>
</g>
<g opacity="0.51">
<path d="M237.216 289.355C238.306 290.133 239.669 290.094 240.262 289.265C240.855 288.435 240.449 287.133 239.359 286.355C238.268 285.577 236.905 285.616 236.313 286.446C235.72 287.275 236.125 288.577 237.216 289.355Z" fill="#6767C1"/>
</g>
<g opacity="0.51">
<path d="M237.216 327.686C238.306 328.465 239.669 328.425 240.262 327.596C240.855 326.766 240.449 325.464 239.359 324.686C238.268 323.908 236.905 323.947 236.313 324.777C235.72 325.604 236.125 326.908 237.216 327.686Z" fill="#6767C1"/>
</g>
<path d="M247.347 436.427C246.209 436.427 245.118 436.19 244.285 435.709L93.8915 348.879C93.0187 348.375 92.5378 347.656 92.5378 346.857C92.5378 345.925 93.2024 345.005 94.3591 344.337L125.615 326.293C127.696 325.087 130.757 324.97 132.58 326.022L282.976 412.851C283.849 413.357 284.33 414.076 284.33 414.877C284.328 415.808 283.665 416.726 282.509 417.393L251.252 435.438C250.12 436.095 248.7 436.427 247.347 436.427ZM244.736 434.929C246.279 435.819 249.001 435.696 250.8 434.658L282.056 416.613C282.927 416.109 283.427 415.477 283.427 414.875C283.427 414.278 282.936 413.87 282.524 413.631L132.128 326.802C130.585 325.913 127.864 326.036 126.066 327.073L94.8097 345.117C93.9388 345.622 93.439 346.255 93.439 346.857C93.439 347.451 93.9293 347.86 94.342 348.099L244.736 434.929Z" fill="#42E8E0"/>
<path d="M154.515 275.172C158.468 277.455 162.209 280.669 165.537 284.467C170.156 269.628 184.247 265.026 200.919 274.651C214.71 282.614 226.73 298.276 233.089 314.87C235.196 314.938 237.544 315.631 240.03 317.066C249.03 322.262 256.326 334.899 256.326 345.291C256.326 345.514 256.303 345.719 256.298 345.937C258.865 346.115 261.701 347.021 264.686 348.744C276.197 355.389 285.528 371.553 285.528 384.845C285.528 398.137 276.197 403.525 264.686 396.878L154.515 333.271C140.621 325.248 129.356 305.739 129.356 289.694C129.356 273.649 140.621 267.15 154.515 275.172Z" fill="url(#paint27_linear_3_4388)"/>
<path d="M154.515 275.172C156.808 276.495 159.024 278.14 161.133 280.022L173.452 272.904L173.45 272.907C180.219 268.15 190.016 268.356 200.919 274.651C214.71 282.614 226.73 298.276 233.089 314.87C235.198 314.938 237.544 315.631 240.03 317.066C249.03 322.262 256.326 334.899 256.326 345.291C256.326 345.514 256.303 345.719 256.298 345.937C258.865 346.115 261.701 347.021 264.686 348.744C276.197 355.389 285.528 371.553 285.528 384.845C285.528 391.431 283.232 396.072 279.519 398.273L279.529 398.277L279.434 398.332C279.428 398.336 279.421 398.34 279.415 398.343L249.24 415.859L242.65 384.154L154.517 333.271C140.623 325.25 129.358 305.739 129.358 289.696C129.358 273.653 140.621 267.15 154.515 275.172Z" fill="url(#paint28_radial_3_4388)"/>
<path d="M106.017 291.252L136.59 273.489L136.588 273.496C141.151 270.777 147.497 271.12 154.515 275.172C156.807 276.495 159.024 278.14 161.133 280.022L173.452 272.904L173.45 272.907C180.218 268.15 190.015 268.356 200.918 274.651C214.71 282.614 226.73 298.276 233.089 314.87C235.198 314.938 237.544 315.631 240.029 317.066C249.029 322.262 256.326 334.899 256.326 345.291C256.326 345.514 256.303 345.719 256.297 345.937C258.864 346.115 261.7 347.021 264.686 348.744C276.197 355.389 285.528 371.553 285.528 384.845C285.528 391.431 283.232 396.072 279.519 398.273L279.528 398.277L279.434 398.332C279.428 398.336 279.421 398.34 279.415 398.343L249.24 415.859L242.649 384.154L154.516 333.271C143.252 326.768 133.722 312.717 130.515 299.08L106.017 291.252Z" fill="url(#paint29_linear_3_4388)"/>
<path d="M124.243 292.744C128.196 295.027 131.937 298.242 135.265 302.039C139.884 287.201 153.975 282.598 170.647 292.223C184.438 300.186 196.458 315.848 202.817 332.442C204.924 332.51 207.272 333.203 209.758 334.638C218.758 339.835 226.054 352.472 226.054 362.863C226.054 363.087 226.031 363.291 226.026 363.509C228.593 363.687 231.429 364.594 234.414 366.317C245.927 372.963 255.258 389.126 255.258 402.417C255.258 415.709 245.927 421.097 234.414 414.451L124.245 350.844C110.349 342.822 99.0864 323.311 99.0864 307.268C99.0845 291.224 110.347 284.721 124.243 292.744Z" fill="url(#paint30_linear_3_4388)"/>
<path d="M135.265 302.039C131.937 298.242 128.198 295.027 124.243 292.744C115.733 287.831 108.217 288.373 103.664 293.212C108.119 287.619 115.989 286.735 124.962 291.915C128.792 294.126 132.416 297.216 135.664 300.858C135.526 301.244 135.39 301.636 135.265 302.039Z" fill="white"/>
<path d="M255.257 402.417C255.257 389.125 245.925 372.963 234.413 366.317C231.427 364.594 228.591 363.685 226.024 363.509C226.032 363.291 226.053 363.087 226.053 362.863C226.053 352.472 218.756 339.835 209.756 334.638C207.27 333.203 204.923 332.51 202.816 332.442C196.456 315.848 184.437 300.186 170.645 292.223C158.014 284.931 146.869 285.811 140.197 293.119C146.768 285.056 158.269 283.833 171.364 291.394C185.156 299.357 197.176 315.019 203.535 331.613C205.642 331.681 207.99 332.374 210.475 333.809C219.476 339.006 226.772 351.643 226.772 362.034C226.772 362.258 226.749 362.462 226.744 362.68C229.311 362.858 232.147 363.765 235.132 365.487C246.643 372.132 255.974 388.296 255.974 401.588C255.974 406.81 254.518 410.787 252.072 413.32C254.079 410.78 255.257 407.101 255.257 402.417Z" fill="white"/>
<defs>
<linearGradient id="paint0_linear_3_4388" x1="510.72" y1="195.153" x2="181.443" y2="195.153" gradientUnits="userSpaceOnUse">
<stop stop-color="#C0BFF6"/>
<stop offset="0.2938" stop-color="#C5C4F7"/>
<stop offset="0.6399" stop-color="#D3D2F9"/>
<stop offset="1" stop-color="#E9E9FD"/>
</linearGradient>
<linearGradient id="paint1_linear_3_4388" x1="510.717" y1="279.597" x2="454.177" y2="279.597" gradientUnits="userSpaceOnUse">
<stop stop-color="#5761D7"/>
<stop offset="0.1779" stop-color="#5C66D9"/>
<stop offset="0.3876" stop-color="#6A73DF"/>
<stop offset="0.6134" stop-color="#8289E8"/>
<stop offset="0.849" stop-color="#A3A7F5"/>
<stop offset="1" stop-color="#BCBEFF"/>
</linearGradient>
<linearGradient id="paint2_linear_3_4388" x1="466.604" y1="371.732" x2="1.55737" y2="371.732" gradientUnits="userSpaceOnUse">
<stop stop-color="#5761D7"/>
<stop offset="0.1779" stop-color="#5C66D9"/>
<stop offset="0.3876" stop-color="#6A73DF"/>
<stop offset="0.6134" stop-color="#8289E8"/>
<stop offset="0.849" stop-color="#A3A7F5"/>
<stop offset="1" stop-color="#BCBEFF"/>
</linearGradient>
<linearGradient id="paint3_linear_3_4388" x1="310.347" y1="359.016" x2="-154.947" y2="359.016" gradientUnits="userSpaceOnUse">
<stop stop-color="#C0BFF6"/>
<stop offset="0.2938" stop-color="#C5C4F7"/>
<stop offset="0.6399" stop-color="#D3D2F9"/>
<stop offset="1" stop-color="#E9E9FD"/>
</linearGradient>
<radialGradient id="paint4_radial_3_4388" cx="0" cy="0" r="1" gradientUnits="userSpaceOnUse" gradientTransform="translate(258.804 364.204) scale(294.566 294.566)">
<stop stop-color="#42E8E0"/>
<stop offset="0.1055" stop-color="#37B6BF"/>
<stop offset="0.2197" stop-color="#2C87A1"/>
<stop offset="0.338" stop-color="#235F87"/>
<stop offset="0.4587" stop-color="#1C3F72"/>
<stop offset="0.5824" stop-color="#162561"/>
<stop offset="0.7105" stop-color="#121355"/>
<stop offset="0.8458" stop-color="#10084E"/>
<stop offset="1" stop-color="#0F054C"/>
</radialGradient>
<radialGradient id="paint5_radial_3_4388" cx="0" cy="0" r="1" gradientUnits="userSpaceOnUse" gradientTransform="translate(190.395 519.072) rotate(180) scale(143.223 194.965)">
<stop stop-color="#C0BFF6"/>
<stop offset="1" stop-color="#393091"/>
</radialGradient>
<linearGradient id="paint6_linear_3_4388" x1="0.741515" y1="353.02" x2="467.369" y2="353.02" gradientUnits="userSpaceOnUse">
<stop stop-color="#42E8E0"/>
<stop offset="0.1055" stop-color="#37B6BF"/>
<stop offset="0.2197" stop-color="#2C87A1"/>
<stop offset="0.338" stop-color="#235F87"/>
<stop offset="0.4587" stop-color="#1C3F72"/>
<stop offset="0.5824" stop-color="#162561"/>
<stop offset="0.7105" stop-color="#121355"/>
<stop offset="0.8458" stop-color="#10084E"/>
<stop offset="1" stop-color="#0F054C"/>
</linearGradient>
<linearGradient id="paint7_linear_3_4388" x1="645.43" y1="269.385" x2="180.383" y2="269.385" gradientUnits="userSpaceOnUse">
<stop stop-color="#5761D7"/>
<stop offset="0.1779" stop-color="#5C66D9"/>
<stop offset="0.3876" stop-color="#6A73DF"/>
<stop offset="0.6134" stop-color="#8289E8"/>
<stop offset="0.849" stop-color="#A3A7F5"/>
<stop offset="1" stop-color="#BCBEFF"/>
</linearGradient>
<linearGradient id="paint8_linear_3_4388" x1="489.172" y1="256.669" x2="23.8777" y2="256.669" gradientUnits="userSpaceOnUse">
<stop stop-color="#C0BFF6"/>
<stop offset="0.2938" stop-color="#C5C4F7"/>
<stop offset="0.6399" stop-color="#D3D2F9"/>
<stop offset="1" stop-color="#E9E9FD"/>
</linearGradient>
<linearGradient id="paint9_linear_3_4388" x1="502.263" y1="256.249" x2="364.769" y2="256.249" gradientUnits="userSpaceOnUse">
<stop stop-color="#5761D7"/>
<stop offset="0.1779" stop-color="#5C66D9"/>
<stop offset="0.3876" stop-color="#6A73DF"/>
<stop offset="0.6134" stop-color="#8289E8"/>
<stop offset="0.849" stop-color="#A3A7F5"/>
<stop offset="1" stop-color="#BCBEFF"/>
</linearGradient>
<linearGradient id="paint10_linear_3_4388" x1="502.263" y1="219.262" x2="364.769" y2="219.262" gradientUnits="userSpaceOnUse">
<stop stop-color="#5761D7"/>
<stop offset="0.1779" stop-color="#5C66D9"/>
<stop offset="0.3876" stop-color="#6A73DF"/>
<stop offset="0.6134" stop-color="#8289E8"/>
<stop offset="0.849" stop-color="#A3A7F5"/>
<stop offset="1" stop-color="#BCBEFF"/>
</linearGradient>
<linearGradient id="paint11_linear_3_4388" x1="502.263" y1="181.506" x2="364.769" y2="181.506" gradientUnits="userSpaceOnUse">
<stop stop-color="#5761D7"/>
<stop offset="0.1779" stop-color="#5C66D9"/>
<stop offset="0.3876" stop-color="#6A73DF"/>
<stop offset="0.6134" stop-color="#8289E8"/>
<stop offset="0.849" stop-color="#A3A7F5"/>
<stop offset="1" stop-color="#BCBEFF"/>
</linearGradient>
<linearGradient id="paint12_linear_3_4388" x1="502.263" y1="143.751" x2="364.769" y2="143.751" gradientUnits="userSpaceOnUse">
<stop stop-color="#5761D7"/>
<stop offset="0.1779" stop-color="#5C66D9"/>
<stop offset="0.3876" stop-color="#6A73DF"/>
<stop offset="0.6134" stop-color="#8289E8"/>
<stop offset="0.849" stop-color="#A3A7F5"/>
<stop offset="1" stop-color="#BCBEFF"/>
</linearGradient>
<linearGradient id="paint13_linear_3_4388" x1="502.263" y1="143.751" x2="364.769" y2="143.751" gradientUnits="userSpaceOnUse">
<stop stop-color="#5761D7"/>
<stop offset="0.1779" stop-color="#5C66D9"/>
<stop offset="0.3876" stop-color="#6A73DF"/>
<stop offset="0.6134" stop-color="#8289E8"/>
<stop offset="0.849" stop-color="#A3A7F5"/>
<stop offset="1" stop-color="#BCBEFF"/>
</linearGradient>
<linearGradient id="paint14_linear_3_4388" x1="502.261" y1="126.76" x2="433.516" y2="126.76" gradientUnits="userSpaceOnUse">
<stop stop-color="#E9E9FD"/>
<stop offset="0.0374" stop-color="#D3D5F7"/>
<stop offset="0.1056" stop-color="#B2B6EF"/>
<stop offset="0.1817" stop-color="#969BE7"/>
<stop offset="0.2663" stop-color="#7F86E1"/>
<stop offset="0.3632" stop-color="#6D75DD"/>
<stop offset="0.4798" stop-color="#606AD9"/>
<stop offset="0.6363" stop-color="#5963D8"/>
<stop offset="1" stop-color="#5761D7"/>
</linearGradient>
<linearGradient id="paint15_linear_3_4388" x1="468.812" y1="124.787" x2="398.22" y2="124.787" gradientUnits="userSpaceOnUse">
<stop stop-color="#5761D7"/>
<stop offset="0.1779" stop-color="#5C66D9"/>
<stop offset="0.3876" stop-color="#6A73DF"/>
<stop offset="0.6134" stop-color="#8289E8"/>
<stop offset="0.849" stop-color="#A3A7F5"/>
<stop offset="1" stop-color="#BCBEFF"/>
</linearGradient>
<linearGradient id="paint16_linear_3_4388" x1="468.812" y1="116.956" x2="398.219" y2="116.956" gradientUnits="userSpaceOnUse">
<stop stop-color="#C0BFF6"/>
<stop offset="0.2938" stop-color="#C5C4F7"/>
<stop offset="0.6399" stop-color="#D3D2F9"/>
<stop offset="1" stop-color="#E9E9FD"/>
</linearGradient>
<linearGradient id="paint17_linear_3_4388" x1="457.281" y1="112.053" x2="409.751" y2="112.053" gradientUnits="userSpaceOnUse">
<stop stop-color="#BCBEFF"/>
<stop offset="0.151" stop-color="#A3A7F5"/>
<stop offset="0.3866" stop-color="#8289E8"/>
<stop offset="0.6124" stop-color="#6A73DF"/>
<stop offset="0.8221" stop-color="#5C66D9"/>
<stop offset="1" stop-color="#5761D7"/>
</linearGradient>
<linearGradient id="paint18_linear_3_4388" x1="357.85" y1="330.321" x2="220.357" y2="330.321" gradientUnits="userSpaceOnUse">
<stop stop-color="#5761D7"/>
<stop offset="0.1779" stop-color="#5C66D9"/>
<stop offset="0.3876" stop-color="#6A73DF"/>
<stop offset="0.6134" stop-color="#8289E8"/>
<stop offset="0.849" stop-color="#A3A7F5"/>
<stop offset="1" stop-color="#BCBEFF"/>
</linearGradient>
<linearGradient id="paint19_linear_3_4388" x1="357.85" y1="293.334" x2="220.357" y2="293.334" gradientUnits="userSpaceOnUse">
<stop stop-color="#5761D7"/>
<stop offset="0.1779" stop-color="#5C66D9"/>
<stop offset="0.3876" stop-color="#6A73DF"/>
<stop offset="0.6134" stop-color="#8289E8"/>
<stop offset="0.849" stop-color="#A3A7F5"/>
<stop offset="1" stop-color="#BCBEFF"/>
</linearGradient>
<linearGradient id="paint20_linear_3_4388" x1="357.85" y1="255.578" x2="220.357" y2="255.578" gradientUnits="userSpaceOnUse">
<stop stop-color="#5761D7"/>
<stop offset="0.1779" stop-color="#5C66D9"/>
<stop offset="0.3876" stop-color="#6A73DF"/>
<stop offset="0.6134" stop-color="#8289E8"/>
<stop offset="0.849" stop-color="#A3A7F5"/>
<stop offset="1" stop-color="#BCBEFF"/>
</linearGradient>
<linearGradient id="paint21_linear_3_4388" x1="357.85" y1="217.823" x2="220.357" y2="217.823" gradientUnits="userSpaceOnUse">
<stop stop-color="#5761D7"/>
<stop offset="0.1779" stop-color="#5C66D9"/>
<stop offset="0.3876" stop-color="#6A73DF"/>
<stop offset="0.6134" stop-color="#8289E8"/>
<stop offset="0.849" stop-color="#A3A7F5"/>
<stop offset="1" stop-color="#BCBEFF"/>
</linearGradient>
<linearGradient id="paint22_linear_3_4388" x1="357.85" y1="217.823" x2="220.357" y2="217.823" gradientUnits="userSpaceOnUse">
<stop stop-color="#5761D7"/>
<stop offset="0.1779" stop-color="#5C66D9"/>
<stop offset="0.3876" stop-color="#6A73DF"/>
<stop offset="0.6134" stop-color="#8289E8"/>
<stop offset="0.849" stop-color="#A3A7F5"/>
<stop offset="1" stop-color="#BCBEFF"/>
</linearGradient>
<linearGradient id="paint23_linear_3_4388" x1="357.849" y1="200.832" x2="289.103" y2="200.832" gradientUnits="userSpaceOnUse">
<stop stop-color="#E9E9FD"/>
<stop offset="0.0374" stop-color="#D3D5F7"/>
<stop offset="0.1056" stop-color="#B2B6EF"/>
<stop offset="0.1817" stop-color="#969BE7"/>
<stop offset="0.2663" stop-color="#7F86E1"/>
<stop offset="0.3632" stop-color="#6D75DD"/>
<stop offset="0.4798" stop-color="#606AD9"/>
<stop offset="0.6363" stop-color="#5963D8"/>
<stop offset="1" stop-color="#5761D7"/>
</linearGradient>
<linearGradient id="paint24_linear_3_4388" x1="324.4" y1="198.859" x2="253.807" y2="198.859" gradientUnits="userSpaceOnUse">
<stop stop-color="#5761D7"/>
<stop offset="0.1779" stop-color="#5C66D9"/>
<stop offset="0.3876" stop-color="#6A73DF"/>
<stop offset="0.6134" stop-color="#8289E8"/>
<stop offset="0.849" stop-color="#A3A7F5"/>
<stop offset="1" stop-color="#BCBEFF"/>
</linearGradient>
<linearGradient id="paint25_linear_3_4388" x1="324.4" y1="191.028" x2="253.807" y2="191.028" gradientUnits="userSpaceOnUse">
<stop stop-color="#C0BFF6"/>
<stop offset="0.2938" stop-color="#C5C4F7"/>
<stop offset="0.6399" stop-color="#D3D2F9"/>
<stop offset="1" stop-color="#E9E9FD"/>
</linearGradient>
<linearGradient id="paint26_linear_3_4388" x1="312.869" y1="186.125" x2="265.338" y2="186.125" gradientUnits="userSpaceOnUse">
<stop stop-color="#BCBEFF"/>
<stop offset="0.151" stop-color="#A3A7F5"/>
<stop offset="0.3866" stop-color="#8289E8"/>
<stop offset="0.6124" stop-color="#6A73DF"/>
<stop offset="0.8221" stop-color="#5C66D9"/>
<stop offset="1" stop-color="#5761D7"/>
</linearGradient>
<linearGradient id="paint27_linear_3_4388" x1="285.529" y1="366.209" x2="129.356" y2="366.209" gradientUnits="userSpaceOnUse">
<stop stop-color="#5761D7"/>
<stop offset="0.1779" stop-color="#5C66D9"/>
<stop offset="0.3876" stop-color="#6A73DF"/>
<stop offset="0.6134" stop-color="#8289E8"/>
<stop offset="0.849" stop-color="#A3A7F5"/>
<stop offset="1" stop-color="#BCBEFF"/>
</linearGradient>
<radialGradient id="paint28_radial_3_4388" cx="0" cy="0" r="1" gradientUnits="userSpaceOnUse" gradientTransform="translate(248.826 319.331) rotate(180) scale(74.4972 74.4972)">
<stop stop-color="#2B237C"/>
<stop offset="1" stop-color="#180D5B"/>
</radialGradient>
<linearGradient id="paint29_linear_3_4388" x1="285.529" y1="342.731" x2="106.016" y2="342.731" gradientUnits="userSpaceOnUse">
<stop stop-color="#5761D7"/>
<stop offset="0.1779" stop-color="#5C66D9"/>
<stop offset="0.3876" stop-color="#6A73DF"/>
<stop offset="0.6134" stop-color="#8289E8"/>
<stop offset="0.849" stop-color="#A3A7F5"/>
<stop offset="1" stop-color="#BCBEFF"/>
</linearGradient>
<linearGradient id="paint30_linear_3_4388" x1="255.256" y1="383.78" x2="99.0839" y2="383.78" gradientUnits="userSpaceOnUse">
<stop stop-color="#C0BFF6"/>
<stop offset="0.2938" stop-color="#C5C4F7"/>
<stop offset="0.6399" stop-color="#D3D2F9"/>
<stop offset="1" stop-color="#E9E9FD"/>
</linearGradient>
</defs>
</svg>
