<svg width="3980" height="1657" viewBox="0 0 3980 1657" fill="none" xmlns="http://www.w3.org/2000/svg">
<path d="M1482.52 597.386V971.386H1796.52H2110.52V914.052V856.719H1863.18H1615.85V540.052V223.386H1549.18H1482.52V597.386Z" fill="#0C1724"/>
<path d="M2207.85 597.386V971.386H2273.85H2339.85V597.386V223.386H2273.85H2207.85V597.386Z" fill="#0C1724"/>
<path d="M2619.72 225.519C2552.92 237.519 2500.78 287.919 2484.38 356.319C2481.05 369.652 2480.12 485.786 2483.05 505.386C2492.38 567.786 2538.25 620.719 2599.85 640.052C2623.45 647.386 2622.38 647.386 2802.52 647.386C2983.72 647.386 2975.32 646.986 2991.85 654.986C3000.78 659.252 3016.52 674.719 3021.45 684.186C3028.65 697.519 3029.18 702.586 3029.18 752.719C3029.18 802.852 3028.65 807.919 3021.45 821.252C3016.52 830.719 3000.78 846.186 2991.85 850.452C2975.05 858.452 2990.78 858.052 2730.25 858.052H2491.85V914.719V971.386L2756.25 970.986C3000.92 970.586 3021.18 970.452 3029.85 968.319C3045.98 964.319 3056.12 960.586 3070.52 953.252C3115.98 930.052 3147.32 889.519 3158.92 838.719C3161.32 827.652 3161.72 821.252 3162.12 761.386C3162.78 691.386 3162.12 679.252 3156.52 657.119C3152.65 642.186 3143.85 623.119 3133.85 608.052C3110.92 573.519 3074.12 548.052 3031.85 537.652C3020.65 534.852 3017.58 534.852 2845.18 534.052C2705.32 533.519 2668.78 532.986 2664.52 531.519C2639.98 523.386 2621.72 503.386 2616.52 478.719C2613.85 465.919 2613.72 405.252 2616.38 392.586C2621.58 368.452 2640.25 347.919 2663.58 340.719C2671.98 338.052 2676.52 338.052 2901.32 338.052H3130.52V280.719V223.386L2880.25 223.519C2674.25 223.652 2628.12 223.919 2619.72 225.519Z" fill="#0C1724"/>
<path d="M3439.85 225.652C3399.32 232.719 3359.98 256.186 3335.32 287.919C3316.65 311.919 3306.92 333.652 3301.85 362.586C3300.12 372.986 3299.85 409.519 3299.85 672.852V971.386H3366.52H3433.18V854.052V736.719H3639.85H3846.52V854.052V971.386H3913.18H3979.85V597.386V223.386L3715.58 223.519C3488.25 223.652 3449.58 223.919 3439.85 225.652ZM3846.52 480.719V623.386L3640.25 623.119L3433.85 622.719L3433.45 512.052C3433.18 434.452 3433.45 398.986 3434.52 393.386C3436.52 383.119 3443.58 368.452 3450.38 360.586C3457.58 352.319 3468.78 344.852 3479.58 341.119L3488.52 338.186L3667.58 338.052H3846.52V480.719Z" fill="#0C1724"/>
<path d="M2245.45 1118.32L2240.25 1126.72L2243.58 1127.12C2246.25 1127.52 2248.25 1126.19 2252.78 1121.12C2261.98 1110.85 2262.25 1110.05 2255.98 1110.05C2251.05 1110.05 2250.52 1110.45 2245.45 1118.32Z" fill="#0C1724"/>
<path d="M3467.98 1112.85C3465.18 1115.52 3462.52 1120.72 3462.52 1123.52C3462.52 1126.05 3468.25 1124.59 3470.78 1121.39C3474.25 1116.99 3477.32 1117.12 3484.12 1122.05C3491.45 1127.39 3496.25 1127.25 3501.98 1121.52C3504.78 1118.72 3506.52 1115.65 3506.52 1113.52C3506.52 1108.72 3502.52 1108.99 3498.78 1114.05C3495.05 1118.99 3492.52 1118.99 3485.98 1114.05C3479.58 1109.12 3472.52 1108.72 3467.98 1112.85Z" fill="#0C1724"/>
<path d="M1703.85 1178.72V1238.05H1740.25C1775.85 1238.05 1776.92 1237.92 1782.52 1234.99C1786.52 1232.85 1789.32 1230.05 1791.45 1226.05C1794.38 1220.59 1794.52 1218.85 1794.52 1193.39C1794.52 1167.92 1794.38 1166.19 1791.45 1160.72C1789.32 1156.72 1786.52 1153.92 1782.52 1151.79C1777.05 1148.85 1775.45 1148.72 1747.58 1148.72H1718.52V1134.05V1119.39H1711.18H1703.85V1178.72ZM1775.98 1165.92L1779.85 1169.79V1193.39V1216.99L1775.98 1220.85L1772.12 1224.72H1745.32H1718.52V1193.39V1162.05H1745.32H1772.12L1775.98 1165.92Z" fill="#0C1724"/>
<path d="M2667.85 1134.05V1148.72H2639.32C2622.38 1148.72 2609.18 1149.25 2606.92 1150.19C2601.32 1152.19 2594.65 1159.25 2593.18 1164.72C2591.45 1170.85 2591.45 1215.92 2593.18 1222.05C2594.65 1227.52 2601.32 1234.59 2606.92 1236.59C2609.18 1237.52 2624.52 1238.05 2646.65 1238.05H2682.52V1178.72V1119.39H2675.18H2667.85V1134.05ZM2667.85 1193.39V1224.72H2641.32C2615.05 1224.72 2614.65 1224.72 2610.92 1221.52L2607.18 1218.32V1193.39V1168.45L2610.92 1165.25C2614.65 1162.05 2615.05 1162.05 2641.32 1162.05H2667.85V1193.39Z" fill="#0C1724"/>
<path d="M2390.52 1128.72V1136.72H2397.85H2405.18V1128.72V1120.72H2397.85H2390.52V1128.72Z" fill="#0C1724"/>
<path d="M1491.85 1183.39V1238.05H1536.52H1581.18V1231.39V1224.72H1543.85H1506.52V1176.72V1128.72H1499.18H1491.85V1183.39Z" fill="#0C1724"/>
<path d="M2135.85 1138.72V1148.72H2119.18H2102.52V1155.39V1162.05H2119.18H2135.85V1200.05V1238.05H2143.18H2150.52V1200.05V1162.05H2167.18H2183.85V1155.39V1148.72H2167.18H2150.52V1138.72V1128.72H2143.18H2135.85V1138.72Z" fill="#0C1724"/>
<path d="M2871.85 1183.39V1238.05H2879.18H2886.52V1183.39V1128.72H2879.18H2871.85V1183.39Z" fill="#0C1724"/>
<path d="M1597.18 1155.39V1162.05H1628.38C1659.45 1162.05 1659.72 1162.05 1663.32 1165.25C1666.52 1167.92 1667.05 1169.52 1667.58 1177.25L1668.12 1186.05H1638.38C1609.98 1186.05 1608.25 1186.19 1603.18 1189.12C1595.85 1193.12 1591.85 1201.39 1591.85 1212.05C1591.85 1222.72 1595.85 1230.99 1603.18 1234.99C1608.38 1237.92 1609.72 1238.05 1645.58 1238.05H1682.52V1203.65C1682.52 1184.85 1681.85 1167.25 1681.18 1164.72C1679.72 1159.25 1673.05 1152.19 1667.45 1150.19C1665.18 1149.25 1650.65 1148.72 1630.38 1148.72H1597.18V1155.39ZM1667.85 1212.05V1224.72H1640.78C1615.45 1224.72 1613.45 1224.59 1610.78 1222.05C1607.18 1218.72 1605.98 1214.05 1607.05 1208.05C1608.65 1199.92 1610.52 1199.39 1640.78 1199.39H1667.85V1212.05Z" fill="#0C1724"/>
<path d="M1824.52 1150.59C1819.05 1153.12 1813.32 1159.39 1811.85 1164.85C1810.12 1170.85 1810.12 1216.05 1811.85 1222.32C1813.58 1228.32 1822.12 1236.32 1828.12 1237.39C1830.52 1237.79 1845.18 1238.05 1860.78 1237.79C1892.12 1237.39 1892.92 1237.12 1899.58 1227.39C1902.38 1223.12 1902.52 1221.92 1902.52 1193.39C1902.52 1164.85 1902.38 1163.65 1899.58 1159.39C1892.78 1149.52 1892.38 1149.39 1858.78 1149.12C1835.45 1148.85 1827.58 1149.12 1824.52 1150.59ZM1882.52 1164.05C1887.85 1166.85 1889.18 1172.59 1889.18 1193.39C1889.18 1202.85 1888.52 1212.99 1887.72 1215.65C1885.58 1223.79 1882.25 1224.72 1855.98 1224.72C1833.98 1224.72 1833.18 1224.59 1829.58 1221.52L1825.85 1218.32V1193.39V1168.45L1829.58 1165.25C1833.18 1162.19 1833.98 1162.05 1855.98 1162.05C1873.58 1162.05 1879.58 1162.45 1882.52 1164.05Z" fill="#0C1724"/>
<path d="M1934.25 1151.39C1931.58 1152.85 1927.98 1155.92 1926.25 1158.32C1923.18 1162.59 1923.18 1163.39 1922.78 1200.32L1922.38 1238.05H1929.85H1937.18V1203.52V1168.99L1941.32 1165.52C1945.32 1162.05 1945.45 1162.05 1969.98 1162.05H1994.52V1155.39V1148.72H1966.92C1942.12 1148.85 1938.65 1149.12 1934.25 1151.39Z" fill="#0C1724"/>
<path d="M2005.18 1155.39V1162.05H2036.38C2067.45 1162.05 2067.72 1162.05 2071.32 1165.25C2074.52 1167.92 2075.05 1169.52 2075.58 1177.25L2076.12 1186.05H2046.38C2017.98 1186.05 2016.25 1186.19 2011.18 1189.12C2003.85 1193.12 1999.85 1201.39 1999.85 1212.05C1999.85 1222.72 2003.85 1230.99 2011.18 1234.99C2016.38 1237.92 2017.72 1238.05 2053.58 1238.05H2090.52V1203.65C2090.52 1184.85 2089.85 1167.25 2089.18 1164.72C2087.72 1159.25 2081.05 1152.19 2075.45 1150.19C2073.18 1149.25 2058.65 1148.72 2038.38 1148.72H2005.18V1155.39ZM2075.85 1212.05V1224.72H2048.78C2023.45 1224.72 2021.45 1224.59 2018.78 1222.05C2015.18 1218.72 2013.98 1214.05 2015.05 1208.05C2016.65 1199.92 2018.52 1199.39 2048.78 1199.39H2075.85V1212.05Z" fill="#0C1724"/>
<path d="M2205.85 1150.59C2200.38 1153.12 2194.65 1159.39 2193.18 1164.85C2191.45 1170.85 2191.45 1216.05 2193.18 1222.32C2194.92 1228.32 2203.45 1236.32 2209.45 1237.39C2211.85 1237.79 2226.52 1238.05 2242.12 1237.79C2273.45 1237.39 2274.25 1237.12 2280.92 1227.39C2283.72 1223.12 2283.85 1221.92 2283.85 1193.39C2283.85 1164.85 2283.72 1163.65 2280.92 1159.39C2274.12 1149.52 2273.72 1149.39 2240.12 1149.12C2216.78 1148.85 2208.92 1149.12 2205.85 1150.59ZM2263.85 1164.05C2269.18 1166.85 2270.52 1172.59 2270.52 1193.39C2270.52 1202.85 2269.85 1212.99 2269.05 1215.65C2266.92 1223.79 2263.58 1224.72 2237.32 1224.72C2215.32 1224.72 2214.52 1224.59 2210.92 1221.52L2207.18 1218.32V1193.39V1168.45L2210.92 1165.25C2214.52 1162.19 2215.32 1162.05 2237.32 1162.05C2254.92 1162.05 2260.92 1162.45 2263.85 1164.05Z" fill="#0C1724"/>
<path d="M2315.58 1151.39C2312.92 1152.85 2309.32 1155.92 2307.58 1158.32C2304.52 1162.59 2304.52 1163.39 2304.12 1200.32L2303.72 1238.05H2311.18H2318.52V1203.52V1168.99L2322.65 1165.52C2326.65 1162.05 2326.78 1162.05 2351.32 1162.05H2375.85V1155.39V1148.72H2348.25C2323.45 1148.85 2319.98 1149.12 2315.58 1151.39Z" fill="#0C1724"/>
<path d="M2390.52 1193.39V1238.05H2397.85H2405.18V1193.39V1148.72H2397.85H2390.52V1193.39Z" fill="#0C1724"/>
<path d="M2437.85 1150.59C2432.38 1153.12 2426.65 1159.39 2425.18 1164.85C2423.45 1170.85 2423.45 1216.05 2425.18 1222.32C2426.92 1228.32 2435.45 1236.32 2441.45 1237.39C2443.85 1237.79 2458.52 1238.05 2474.12 1237.79C2505.45 1237.39 2506.25 1237.12 2512.92 1227.39C2515.72 1223.12 2515.85 1221.92 2515.85 1193.39C2515.85 1164.85 2515.72 1163.65 2512.92 1159.39C2506.12 1149.52 2505.72 1149.39 2472.12 1149.12C2448.78 1148.85 2440.92 1149.12 2437.85 1150.59ZM2495.85 1164.05C2498.52 1165.39 2500.12 1167.65 2501.05 1171.12C2502.92 1177.52 2502.92 1209.25 2501.05 1215.65C2498.92 1223.79 2495.58 1224.72 2469.32 1224.72C2447.32 1224.72 2446.52 1224.59 2442.92 1221.52L2439.18 1218.32V1193.39V1168.45L2442.92 1165.25C2446.52 1162.19 2447.32 1162.05 2469.32 1162.05C2486.92 1162.05 2492.92 1162.45 2495.85 1164.05Z" fill="#0C1724"/>
<path d="M2715.18 1150.59C2709.72 1153.12 2704.12 1159.39 2702.52 1164.85C2700.78 1170.72 2700.78 1215.92 2702.52 1222.05C2703.98 1227.52 2710.65 1234.59 2716.25 1236.59C2718.52 1237.52 2733.72 1238.05 2755.32 1238.05H2790.52V1231.39V1224.72H2757.32C2724.25 1224.72 2723.98 1224.72 2720.38 1221.52C2717.18 1218.85 2716.65 1217.25 2716.12 1209.52L2715.58 1200.72H2746.52C2781.45 1200.72 2784.25 1200.19 2790.12 1191.25C2793.18 1186.59 2793.45 1185.25 2792.92 1173.79C2792.52 1159.79 2790.78 1156.32 2782.38 1151.52C2777.85 1148.85 2775.45 1148.72 2748.38 1148.72C2726.92 1148.85 2718.12 1149.25 2715.18 1150.59ZM2774.92 1164.72C2779.18 1168.19 2780.52 1175.12 2777.98 1181.25C2775.18 1187.92 2770.25 1188.85 2740.92 1188.45L2716.52 1188.05V1178.32C2716.52 1169.25 2716.78 1168.19 2720.25 1165.25C2723.85 1162.19 2724.52 1162.05 2747.72 1162.05C2769.45 1162.05 2771.85 1162.32 2774.92 1164.72Z" fill="#0C1724"/>
<path d="M2909.18 1193.39V1238.05H2916.52H2923.85V1200.05V1162.05H2950.65H2977.45L2981.32 1165.92L2985.18 1169.79V1203.92V1238.05H2992.52H2999.85V1202.32C2999.85 1167.52 2999.72 1166.32 2996.78 1160.72C2994.65 1156.72 2991.85 1153.92 2987.85 1151.79C2982.25 1148.85 2981.18 1148.72 2945.58 1148.72H2909.18V1193.39Z" fill="#0C1724"/>
<path d="M3032.52 1150.59C3027.05 1153.12 3021.32 1159.39 3019.85 1164.85C3018.12 1170.85 3018.12 1216.05 3019.85 1222.32C3021.58 1228.32 3030.12 1236.32 3036.12 1237.39C3038.52 1237.79 3053.18 1238.05 3068.78 1237.79C3100.12 1237.39 3100.92 1237.12 3107.58 1227.39C3110.38 1223.12 3110.52 1221.92 3110.52 1193.39C3110.52 1164.85 3110.38 1163.65 3107.58 1159.39C3100.78 1149.52 3100.38 1149.39 3066.78 1149.12C3043.45 1148.85 3035.58 1149.12 3032.52 1150.59ZM3090.52 1164.05C3093.18 1165.39 3094.78 1167.65 3095.72 1171.12C3097.58 1177.52 3097.58 1209.25 3095.72 1215.65C3093.58 1223.79 3090.25 1224.72 3063.98 1224.72C3041.98 1224.72 3041.18 1224.59 3037.58 1221.52L3033.85 1218.32V1193.39V1168.45L3037.58 1165.25C3041.18 1162.19 3041.98 1162.05 3063.98 1162.05C3081.58 1162.05 3087.58 1162.45 3090.52 1164.05Z" fill="#0C1724"/>
<path d="M3141.05 1192.99L3161.98 1237.39H3170.38H3178.78L3199.32 1193.65C3210.65 1169.52 3219.85 1149.65 3219.85 1149.25C3219.85 1148.99 3216.38 1148.72 3211.98 1148.72H3204.25L3192.12 1174.99C3185.45 1189.52 3177.85 1206.19 3175.18 1212.05L3170.25 1222.59L3165.32 1212.05C3162.65 1206.19 3155.05 1189.52 3148.52 1174.99L3136.52 1148.72H3128.38H3120.12L3141.05 1192.99Z" fill="#0C1724"/>
<path d="M3233.18 1155.39V1162.05H3264.38C3295.45 1162.05 3295.72 1162.05 3299.32 1165.25C3302.52 1167.92 3303.05 1169.52 3303.58 1177.25L3304.12 1186.05H3274.38C3245.98 1186.05 3244.25 1186.19 3239.18 1189.12C3231.85 1193.12 3227.85 1201.39 3227.85 1212.05C3227.85 1222.72 3231.85 1230.99 3239.18 1234.99C3244.38 1237.92 3245.72 1238.05 3281.58 1238.05H3318.52V1203.65C3318.52 1184.85 3317.85 1167.25 3317.18 1164.72C3315.72 1159.25 3309.05 1152.19 3303.45 1150.19C3301.18 1149.25 3286.65 1148.72 3266.38 1148.72H3233.18V1155.39ZM3303.85 1212.05V1224.72H3276.78C3251.45 1224.72 3249.45 1224.59 3246.78 1222.05C3243.18 1218.72 3241.98 1214.05 3243.05 1208.05C3244.65 1199.92 3246.52 1199.39 3276.78 1199.39H3303.85V1212.05Z" fill="#0C1724"/>
<path d="M3351.18 1150.59C3345.72 1153.12 3340.12 1159.39 3338.52 1164.85C3336.78 1170.72 3336.78 1215.92 3338.52 1222.05C3339.98 1227.52 3346.65 1234.59 3352.25 1236.59C3354.38 1237.39 3361.18 1238.05 3367.45 1238.05C3377.05 1238.05 3378.65 1238.32 3377.98 1240.05C3377.58 1241.12 3376.92 1242.85 3376.52 1243.79C3376.12 1244.72 3377.45 1246.05 3379.85 1246.99C3381.98 1247.79 3383.85 1249.39 3383.85 1250.59C3383.85 1253.39 3379.58 1255.39 3375.98 1254.45C3374.12 1253.92 3372.52 1254.32 3371.85 1255.52C3369.98 1258.45 3371.72 1259.39 3379.05 1259.39C3387.58 1259.39 3390.92 1256.59 3390.25 1249.92C3389.98 1246.32 3388.12 1244.05 3384.12 1242.59C3383.98 1242.45 3384.12 1241.39 3384.65 1240.19C3385.32 1238.32 3387.98 1238.05 3403.32 1238.05H3421.18V1231.39V1224.72H3390.65C3360.12 1224.72 3359.98 1224.72 3356.25 1221.52L3352.52 1218.32V1193.39V1168.45L3356.25 1165.25C3359.98 1162.05 3360.12 1162.05 3390.65 1162.05H3421.18V1155.39V1148.72H3388.25C3363.58 1148.85 3354.12 1149.25 3351.18 1150.59Z" fill="#0C1724"/>
<path d="M3439.85 1155.39V1162.05H3471.05C3502.12 1162.05 3502.38 1162.05 3505.98 1165.25C3509.18 1167.92 3509.72 1169.52 3510.25 1177.25L3510.78 1186.05H3481.05C3452.65 1186.05 3450.92 1186.19 3445.85 1189.12C3438.52 1193.12 3434.52 1201.39 3434.52 1212.05C3434.52 1222.72 3438.52 1230.99 3445.85 1234.99C3451.05 1237.92 3452.38 1238.05 3488.25 1238.05H3525.18V1203.65C3525.18 1184.85 3524.52 1167.25 3523.85 1164.72C3522.38 1159.25 3515.72 1152.19 3510.12 1150.19C3507.85 1149.25 3493.32 1148.72 3473.05 1148.72H3439.85V1155.39ZM3510.52 1212.05V1224.72H3483.45C3458.12 1224.72 3456.12 1224.59 3453.45 1222.05C3449.85 1218.72 3448.65 1214.05 3449.72 1208.05C3451.32 1199.92 3453.18 1199.39 3483.45 1199.39H3510.52V1212.05Z" fill="#0C1724"/>
<path d="M3557.85 1150.59C3552.38 1153.12 3546.65 1159.39 3545.18 1164.85C3543.45 1170.85 3543.45 1216.05 3545.18 1222.32C3546.92 1228.32 3555.45 1236.32 3561.45 1237.39C3563.85 1237.79 3578.52 1238.05 3594.12 1237.79C3625.45 1237.39 3626.25 1237.12 3632.92 1227.39C3635.72 1223.12 3635.85 1221.92 3635.85 1193.39C3635.85 1164.85 3635.72 1163.65 3632.92 1159.39C3626.12 1149.52 3625.72 1149.39 3592.12 1149.12C3568.78 1148.85 3560.92 1149.12 3557.85 1150.59ZM3615.85 1164.05C3618.52 1165.39 3620.12 1167.65 3621.05 1171.12C3622.92 1177.52 3622.92 1209.25 3621.05 1215.65C3618.92 1223.79 3615.58 1224.72 3589.32 1224.72C3567.32 1224.72 3566.52 1224.59 3562.92 1221.52L3559.18 1218.32V1193.39V1168.45L3562.92 1165.25C3566.52 1162.19 3567.32 1162.05 3589.32 1162.05C3606.92 1162.05 3612.92 1162.45 3615.85 1164.05Z" fill="#0C1724"/>
<path d="M3725.85 1150.59C3720.38 1153.12 3714.78 1159.39 3713.18 1164.85C3711.45 1170.72 3711.45 1215.92 3713.18 1222.05C3714.65 1227.52 3721.32 1234.59 3726.92 1236.59C3729.18 1237.52 3744.38 1238.05 3765.98 1238.05H3801.18V1231.39V1224.72H3767.98C3734.92 1224.72 3734.65 1224.72 3731.05 1221.52C3727.85 1218.85 3727.32 1217.25 3726.78 1209.52L3726.25 1200.72H3757.18C3792.12 1200.72 3794.92 1200.19 3800.78 1191.25C3803.85 1186.59 3804.12 1185.25 3803.58 1173.79C3803.18 1159.79 3801.45 1156.32 3793.05 1151.52C3788.52 1148.85 3786.12 1148.72 3759.05 1148.72C3737.58 1148.85 3728.78 1149.25 3725.85 1150.59ZM3785.58 1164.72C3789.85 1168.19 3791.18 1175.12 3788.65 1181.25C3785.85 1187.92 3780.92 1188.85 3751.58 1188.45L3727.18 1188.05V1178.32C3727.18 1169.25 3727.45 1168.19 3730.92 1165.25C3734.52 1162.19 3735.18 1162.05 3758.38 1162.05C3780.12 1162.05 3782.52 1162.32 3785.58 1164.72Z" fill="#0C1724"/>
<path d="M3822.52 1193.39V1238.05H3829.85H3837.18V1200.05V1162.05H3859.18H3881.18V1200.05V1238.05H3888.52H3895.85V1200.05V1162.05H3914.38C3932.12 1162.05 3933.18 1162.19 3936.78 1165.25L3940.52 1168.45L3940.92 1203.25L3941.32 1238.05H3948.52H3955.85V1202.72C3955.85 1164.19 3955.45 1161.79 3948.38 1155.12C3946.25 1153.12 3942.78 1150.85 3940.78 1150.19C3938.38 1149.25 3916.92 1148.72 3879.72 1148.72H3822.52V1193.39Z" fill="#0C1724"/>
<path d="M3765.85 1275.52C3761.98 1277.39 3759.98 1281.12 3758.92 1288.05L3758.12 1294.05H3764.78C3770.38 1294.05 3771.72 1293.65 3772.25 1291.39C3773.18 1287.92 3775.85 1288.05 3783.85 1292.05C3796.12 1298.32 3803.85 1295.25 3806.38 1283.25C3807.18 1279.65 3807.85 1276.32 3807.85 1276.05C3807.85 1275.65 3805.05 1275.39 3801.45 1275.39C3796.65 1275.39 3794.78 1276.05 3793.45 1278.05C3791.32 1281.52 3789.32 1281.39 3781.72 1277.39C3775.18 1273.92 3770.38 1273.39 3765.85 1275.52Z" fill="#5F45FF"/>
<path d="M1491.18 1317.52C1480.25 1323.12 1477.18 1329.79 1477.18 1347.39C1477.18 1357.92 1477.72 1361.92 1479.72 1365.79C1485.85 1377.79 1490.65 1379.25 1524.65 1379.39C1556.12 1379.39 1555.18 1378.99 1555.18 1392.32C1555.18 1405.12 1556.65 1404.72 1514.25 1404.72H1478.52V1414.72V1424.72H1519.05C1544.52 1424.72 1561.05 1424.19 1563.45 1423.25C1567.98 1421.52 1574.12 1415.92 1576.65 1411.12C1577.98 1408.59 1578.52 1402.72 1578.52 1391.79C1578.52 1377.92 1578.12 1375.39 1575.45 1370.72C1573.72 1367.79 1570.12 1364.19 1567.18 1362.45C1562.12 1359.65 1560.38 1359.39 1534.52 1359.39C1501.45 1359.39 1501.18 1359.25 1501.18 1347.52C1501.18 1335.12 1500.12 1335.39 1540.25 1335.39H1574.52V1325.39V1315.39H1534.92C1501.45 1315.39 1494.52 1315.79 1491.18 1317.52Z" fill="#5F45FF"/>
<path d="M1621.32 1317.79C1618.78 1318.99 1614.92 1322.32 1612.65 1325.12L1608.52 1330.32V1370.05V1409.79L1612.52 1414.85C1620.38 1424.45 1621.85 1424.72 1658.12 1424.72C1692.25 1424.72 1695.32 1424.32 1701.58 1418.32C1709.05 1411.25 1709.18 1410.59 1709.18 1370.05C1709.18 1329.52 1709.05 1328.85 1701.58 1321.79C1695.32 1315.79 1692.25 1315.39 1658.12 1315.39C1629.98 1315.39 1625.32 1315.65 1621.32 1317.79ZM1683.32 1337.25C1685.72 1339.12 1685.85 1340.99 1685.85 1370.05C1685.85 1399.12 1685.72 1400.99 1683.32 1402.85C1681.32 1404.32 1675.58 1404.72 1658.65 1404.72C1640.12 1404.72 1636.38 1404.32 1634.25 1402.45C1632.12 1400.45 1631.85 1397.65 1631.85 1370.32C1631.85 1344.19 1632.12 1339.92 1634.12 1337.79C1635.98 1335.65 1638.65 1335.39 1658.52 1335.39C1675.58 1335.39 1681.32 1335.79 1683.32 1337.25Z" fill="#5F45FF"/>
<path d="M1741.18 1370.05V1424.72H1752.52H1763.85V1402.05V1379.39H1791.85H1819.85V1369.39V1359.39H1791.85H1763.85V1347.39V1335.39H1797.85H1831.85V1325.39V1315.39H1786.52H1741.18V1370.05Z" fill="#5F45FF"/>
<path d="M1853.18 1325.39V1335.39H1872.52H1891.85V1380.05V1424.72H1903.85H1915.85V1380.05V1335.39H1935.18H1954.52V1325.39V1315.39H1903.85H1853.18V1325.39Z" fill="#5F45FF"/>
<path d="M1978.52 1370.05V1424.72H2038.25C2106.25 1424.72 2105.58 1424.72 2112.78 1413.92L2116.52 1408.19L2116.92 1361.79L2117.32 1315.39H2105.18H2093.18V1357.79C2093.18 1397.65 2093.05 1400.45 2090.65 1402.59C2088.65 1404.45 2085.85 1404.72 2073.72 1404.45L2059.18 1404.05L2058.78 1359.65L2058.52 1315.39H2047.18H2035.85V1360.05V1404.85L2018.92 1404.45L2001.85 1404.05L2001.45 1359.65L2001.18 1315.39H1989.85H1978.52V1370.05Z" fill="#5F45FF"/>
<path d="M2161.45 1318.19C2158.38 1319.79 2154.52 1322.85 2152.78 1325.25C2149.85 1329.39 2149.85 1330.05 2149.45 1376.99L2149.05 1424.72H2160.52H2171.85V1408.72V1392.72H2199.18H2226.52V1408.72V1424.72H2237.85H2249.18V1370.05V1315.39H2208.25C2169.18 1315.39 2166.92 1315.52 2161.45 1318.19ZM2226.52 1354.05V1372.72H2199.18H2171.85V1356.99C2171.85 1334.05 2170.12 1335.39 2201.32 1335.39H2226.52V1354.05Z" fill="#5F45FF"/>
<path d="M2281.18 1370.05V1424.72H2292.52H2303.85V1404.72V1384.72H2318.92H2333.85L2344.92 1404.72L2356.12 1424.72H2368.65C2375.58 1424.72 2381.18 1424.32 2381.18 1423.65C2381.18 1423.12 2376.38 1414.32 2370.52 1404.05C2360.38 1386.05 2360.12 1385.39 2362.92 1384.32C2371.18 1381.12 2375.18 1378.32 2378.38 1373.52C2381.45 1368.72 2381.85 1366.72 2382.38 1352.99C2383.05 1331.25 2380.12 1323.65 2369.05 1318.05C2364.25 1315.52 2361.18 1315.39 2322.52 1315.39H2281.18V1370.05ZM2356.12 1337.65C2357.98 1339.39 2358.52 1341.79 2358.52 1349.65C2358.52 1364.85 2358.65 1364.85 2328.78 1364.45L2304.52 1364.05L2304.12 1349.65L2303.72 1335.39H2328.65C2349.98 1335.39 2353.98 1335.65 2356.12 1337.65Z" fill="#5F45FF"/>
<path d="M2413.18 1370.05V1424.72H2458.52H2503.85V1414.72V1404.72H2469.85H2435.85V1392.05V1379.39H2463.85H2491.85V1369.39V1359.39L2464.25 1359.12L2436.52 1358.72L2436.12 1346.99L2435.72 1335.39H2469.85H2503.85V1325.39V1315.39H2458.52H2413.18V1370.05Z" fill="#5F45FF"/>
<path d="M2603.85 1370.05V1424.72H2649.18H2694.52V1414.72V1404.72H2660.52H2626.52V1392.05V1379.39H2654.52H2682.52V1369.39V1359.39L2654.92 1359.12L2627.18 1358.72L2626.78 1346.99L2626.38 1335.39H2660.52H2694.52V1325.39V1315.39H2649.18H2603.85V1370.05Z" fill="#5F45FF"/>
<path d="M2808.12 1318.19C2805.05 1319.79 2801.18 1322.85 2799.45 1325.25C2796.52 1329.39 2796.52 1330.05 2796.12 1376.99L2795.72 1424.72H2807.18H2818.52V1408.72V1392.72H2845.85H2873.18V1408.72V1424.72H2884.52H2895.85V1370.05V1315.39H2854.92C2815.85 1315.39 2813.58 1315.52 2808.12 1318.19ZM2873.18 1354.05V1372.72H2845.85H2818.52V1356.99C2818.52 1334.05 2816.78 1335.39 2847.98 1335.39H2873.18V1354.05Z" fill="#5F45FF"/>
<path d="M2927.85 1370.05V1424.72H2968.92C3005.72 1424.72 3010.38 1424.45 3015.18 1422.19C3021.58 1419.25 3024.38 1416.32 3027.18 1409.65C3028.78 1405.65 3029.18 1397.25 3029.18 1360.05V1315.39H3017.18H3005.18V1357.79C3005.18 1397.52 3005.05 1400.45 3002.65 1402.59C3000.52 1404.45 2997.18 1404.72 2975.72 1404.45L2951.18 1404.05L2950.78 1359.65L2950.52 1315.39H2939.18H2927.85V1370.05Z" fill="#5F45FF"/>
<path d="M3051.85 1325.39V1335.39H3071.18H3090.52V1380.05V1424.72H3102.52H3114.52V1380.05V1335.39H3133.85H3153.18V1325.39V1315.39H3102.52H3051.85V1325.39Z" fill="#5F45FF"/>
<path d="M3186.65 1317.79C3184.12 1318.99 3180.25 1322.32 3177.98 1325.12L3173.85 1330.32V1370.05V1409.79L3177.85 1414.85C3185.72 1424.45 3187.18 1424.72 3223.45 1424.72C3257.58 1424.72 3260.65 1424.32 3266.92 1418.32C3274.38 1411.25 3274.52 1410.59 3274.52 1370.05C3274.52 1329.52 3274.38 1328.85 3266.92 1321.79C3260.65 1315.79 3257.58 1315.39 3223.45 1315.39C3195.32 1315.39 3190.65 1315.65 3186.65 1317.79ZM3248.65 1337.25C3251.05 1339.12 3251.18 1340.99 3251.18 1370.05C3251.18 1399.12 3251.05 1400.99 3248.65 1402.85C3246.65 1404.32 3240.92 1404.72 3223.98 1404.72C3205.45 1404.72 3201.72 1404.32 3199.58 1402.45C3197.45 1400.45 3197.18 1397.65 3197.18 1370.32C3197.18 1344.19 3197.45 1339.92 3199.45 1337.79C3201.32 1335.65 3203.98 1335.39 3223.85 1335.39C3240.92 1335.39 3246.65 1335.79 3248.65 1337.25Z" fill="#5F45FF"/>
<path d="M3306.52 1370.05V1424.72H3317.85H3329.18V1380.05V1335.39H3347.85H3366.52V1380.05V1424.72H3377.85H3389.18V1380.05V1335.39H3405.58C3419.85 1335.39 3422.38 1335.65 3424.25 1337.79C3426.25 1339.92 3426.52 1345.12 3426.52 1382.45V1424.72H3438.52H3450.52V1380.05C3450.52 1342.85 3450.12 1334.45 3448.52 1330.45C3445.72 1323.79 3442.92 1320.85 3436.52 1317.92C3431.58 1315.65 3426.52 1315.39 3368.92 1315.39H3306.52V1370.05Z" fill="#5F45FF"/>
<path d="M3493.45 1318.19C3490.38 1319.79 3486.52 1322.85 3484.78 1325.25C3481.85 1329.39 3481.85 1330.05 3481.45 1376.99L3481.05 1424.72H3492.52H3503.85V1408.72V1392.72H3531.18H3558.52V1408.72V1424.72H3569.85H3581.18V1370.05V1315.39H3540.25C3501.18 1315.39 3498.92 1315.52 3493.45 1318.19ZM3558.52 1354.05V1372.72H3531.18H3503.85V1356.99C3503.85 1334.05 3502.12 1335.39 3533.32 1335.39H3558.52V1354.05Z" fill="#5F45FF"/>
<path d="M3626.65 1317.79C3624.12 1318.99 3620.25 1322.32 3617.98 1325.12L3613.85 1330.32L3613.45 1368.45C3613.05 1411.52 3613.18 1411.92 3623.05 1420.05C3628.12 1424.05 3628.12 1424.05 3647.32 1424.45L3666.65 1424.85L3663.98 1429.52C3662.38 1432.05 3661.18 1434.45 3661.18 1434.59C3661.18 1434.85 3663.32 1435.52 3665.85 1435.92C3671.32 1436.99 3674.25 1441.12 3671.72 1444.32C3670.38 1445.79 3668.25 1446.19 3663.72 1445.79C3658.12 1445.25 3657.32 1445.52 3656.65 1447.92C3655.58 1451.92 3658.12 1452.85 3667.72 1452.32C3677.58 1451.79 3681.18 1448.85 3681.18 1441.25C3681.18 1436.99 3677.45 1431.39 3674.65 1431.39C3673.98 1431.39 3673.58 1429.92 3673.72 1428.05L3673.85 1424.72H3690.25H3706.52V1414.72V1404.72H3673.98C3646.12 1404.72 3641.05 1404.45 3639.32 1402.59C3637.45 1400.85 3637.18 1395.92 3637.18 1370.05C3637.18 1344.19 3637.45 1339.25 3639.32 1337.52C3641.05 1335.65 3646.12 1335.39 3673.98 1335.39H3706.52V1325.39V1315.39H3668.92C3635.58 1315.39 3630.65 1315.65 3626.65 1317.79Z" fill="#5F45FF"/>
<path d="M3748.12 1318.19C3745.05 1319.79 3741.18 1322.85 3739.45 1325.25C3736.52 1329.39 3736.52 1330.05 3736.12 1376.99L3735.72 1424.72H3747.18H3758.52V1408.72V1392.72H3785.85H3813.18V1408.72V1424.72H3824.52H3835.85V1370.05V1315.39H3794.92C3755.85 1315.39 3753.58 1315.52 3748.12 1318.19ZM3813.18 1354.05V1372.72H3785.85H3758.52V1356.99C3758.52 1334.05 3756.78 1335.39 3787.98 1335.39H3813.18V1354.05Z" fill="#5F45FF"/>
<path d="M3881.32 1317.79C3878.78 1318.99 3874.92 1322.32 3872.65 1325.12L3868.52 1330.32V1370.05V1409.79L3872.52 1414.85C3880.38 1424.45 3881.85 1424.72 3918.12 1424.72C3952.25 1424.72 3955.32 1424.32 3961.58 1418.32C3969.05 1411.25 3969.18 1410.59 3969.18 1370.05C3969.18 1329.52 3969.05 1328.85 3961.58 1321.79C3955.32 1315.79 3952.25 1315.39 3918.12 1315.39C3889.98 1315.39 3885.32 1315.65 3881.32 1317.79ZM3943.32 1337.25C3945.72 1339.12 3945.85 1340.99 3945.85 1370.05C3945.85 1399.12 3945.72 1400.99 3943.32 1402.85C3941.32 1404.32 3935.58 1404.72 3918.65 1404.72C3900.12 1404.72 3896.38 1404.32 3894.25 1402.45C3892.12 1400.45 3891.85 1397.65 3891.85 1370.32C3891.85 1344.19 3892.12 1339.92 3894.12 1337.79C3895.98 1335.65 3898.65 1335.39 3918.52 1335.39C3935.58 1335.39 3941.32 1335.79 3943.32 1337.25Z" fill="#5F45FF"/>
<path d="M597.851 0.185791C442.651 7.38574 299.718 68.9857 189.318 176.052C8.65116 351.519 -48.8155 617.119 43.4512 851.386C95.0512 982.586 193.851 1096.59 314.518 1164.19C327.584 1171.52 328.918 1172.05 337.184 1172.05C344.651 1172.05 346.918 1171.52 351.584 1168.32C360.651 1162.32 365.451 1150.05 362.518 1139.52C360.384 1131.39 354.651 1125.92 339.851 1117.52C273.184 1079.65 208.518 1021.65 162.384 958.052C69.5845 830.319 33.9845 671.786 63.3178 516.719C93.9845 353.652 195.718 211.119 340.384 128.052C507.051 32.4524 713.318 28.1858 884.518 116.586C1028.78 191.119 1134.92 324.452 1175.32 481.786C1209.05 613.252 1194.12 754.852 1133.72 876.052C1084.38 974.986 1009.72 1055.39 913.584 1113.12C891.184 1126.59 887.584 1130.72 886.784 1142.59C886.384 1149.12 886.784 1152.05 889.051 1156.32C894.251 1166.72 905.318 1172.59 916.518 1170.85C923.184 1169.79 939.718 1160.45 966.518 1142.72C1187.05 996.719 1291.18 729.786 1227.85 472.852C1205.32 381.252 1162.78 297.919 1100.12 222.052C1083.45 201.919 1040.65 159.386 1020.52 142.986C907.584 51.2524 777.851 3.25244 634.518 0.319092C620.251 -0.0809326 603.718 -0.0809326 597.851 0.185791Z" fill="#5F45FF"/>
<path d="M565.185 114.986C557.985 116.186 544.118 121.119 537.185 125.119C526.385 131.119 510.651 147.519 504.918 158.719C497.985 172.186 495.451 182.986 495.451 198.719C495.585 221.919 503.718 240.852 520.518 257.519C563.851 300.452 636.918 283.519 657.851 225.652C659.718 220.719 661.718 217.252 663.051 216.986C664.251 216.719 673.584 217.786 683.851 219.386C841.718 243.252 971.451 356.186 1017.18 509.386C1036.38 574.186 1039.05 647.652 1024.25 714.052C1006.65 793.519 966.784 864.586 907.718 921.386C892.784 935.652 874.518 951.386 872.651 951.386C872.118 951.386 868.651 948.986 864.784 946.052C841.451 928.452 807.318 924.719 780.118 936.719C771.318 940.719 758.251 950.452 751.184 958.319C737.851 973.519 729.318 999.252 731.051 1019.12C733.851 1049.65 751.184 1075.25 777.718 1088.05C792.784 1095.25 802.651 1097.25 819.584 1096.45C864.651 1094.19 899.584 1056.32 898.251 1011.12L897.984 999.519L904.518 994.586C965.718 948.319 1018.78 880.586 1049.18 809.519C1074.92 749.519 1086.52 692.186 1086.52 625.652C1086.52 571.252 1079.85 528.719 1063.18 478.719C1013.72 329.652 891.051 215.252 738.918 176.186C717.851 170.719 687.318 165.252 671.184 164.052C655.184 162.852 655.184 162.852 650.518 154.452C640.785 137.119 620.251 122.186 599.051 116.719C589.451 114.186 574.251 113.519 565.185 114.986Z" fill="#5F45FF"/>
<path d="M303.185 229.519C283.851 234.186 264.385 248.186 253.318 265.253C238.518 287.919 235.718 317.386 245.985 342.586L249.185 350.453L238.651 365.919C190.651 436.986 164.385 515.519 159.851 602.319C154.518 706.319 185.051 810.719 245.451 894.986C267.718 926.053 297.985 958.719 325.851 981.919L339.185 992.853L338.785 1009.12C337.985 1036.72 344.385 1053.25 363.185 1072.19C379.985 1089.12 398.118 1096.72 421.851 1096.72C445.451 1096.72 463.451 1089.12 480.651 1072.05C497.585 1055.25 505.185 1037.12 505.185 1013.39C505.185 987.786 494.518 964.986 474.918 948.586C460.385 936.319 441.985 929.919 421.851 929.919C403.718 929.919 388.785 934.586 371.585 945.653C368.118 947.919 367.985 947.919 360.251 941.386C355.985 937.653 345.718 928.186 337.318 920.053C267.185 852.053 225.718 766.853 214.385 667.386C211.985 647.253 212.385 599.786 215.051 578.186C223.051 512.453 245.051 452.186 280.918 398.319C284.918 392.319 288.251 387.386 288.385 387.386C288.518 387.386 292.251 388.719 296.518 390.319C303.451 392.986 307.185 393.386 323.851 393.386C342.385 393.386 343.585 393.253 353.451 389.253C377.851 379.386 395.451 360.719 403.318 336.186C406.251 327.253 406.918 322.853 406.918 310.719C406.918 298.186 406.385 294.453 403.318 285.386C393.451 256.719 372.251 236.986 343.185 229.386C333.451 226.853 313.985 226.986 303.185 229.519Z" fill="#5F45FF"/>
<path d="M605.185 332.186C582.251 337.119 559.051 354.852 548.785 375.386C541.318 390.452 539.451 399.786 540.118 418.052C540.651 431.119 541.318 434.852 544.785 443.652C552.785 463.919 566.918 479.386 586.251 488.986L597.185 494.452V589.652C597.185 642.452 596.651 684.719 595.984 684.452C595.451 684.186 567.851 658.452 534.785 627.119L474.651 570.052L477.851 563.119C483.184 551.519 485.718 539.652 485.585 526.719C485.451 478.319 446.118 441.252 397.318 443.652C337.184 446.719 300.384 510.452 327.451 565.119C337.318 584.719 359.451 602.586 381.584 608.319C395.718 611.919 417.851 610.719 431.851 605.519C433.184 604.986 460.384 629.919 515.184 681.786L596.518 758.852L596.918 996.452L597.185 1234.05H623.185H649.185L649.451 1078.45L649.851 922.852L752.518 862.719L855.185 802.586L855.585 714.719L855.851 626.719L866.385 621.652C907.718 601.786 924.785 550.852 904.251 508.852C897.318 494.719 881.718 479.119 867.851 472.319C852.651 464.852 843.318 462.986 825.185 463.652C811.985 464.186 808.385 464.852 799.185 468.452C779.051 476.452 763.185 491.252 753.984 510.719C747.718 523.652 745.851 532.586 745.984 548.052C746.385 579.386 763.318 606.719 791.185 620.986L802.518 626.719V699.386L802.385 772.052L727.051 816.052C685.585 840.186 651.185 860.186 650.385 860.452C649.718 860.719 649.185 792.452 649.185 677.652V494.452L660.251 488.986C679.718 479.252 694.785 462.319 702.385 441.652C705.451 433.119 705.851 430.052 705.851 414.719C705.851 399.919 705.318 395.919 702.651 387.519C689.585 347.519 646.651 323.252 605.185 332.186Z" fill="#5F45FF"/>
<path d="M386.518 1337.65C380.918 1338.45 367.451 1343.65 362.518 1346.72C328.785 1368.05 323.451 1417.65 351.851 1446.05C360.251 1454.45 371.985 1460.85 383.585 1463.25C393.585 1465.39 852.785 1465.39 862.785 1463.25C884.118 1458.85 902.251 1442.85 909.318 1422.32C919.851 1391.79 906.251 1357.92 877.985 1344.05C872.785 1341.52 865.318 1338.72 861.318 1338.05C854.518 1336.72 394.385 1336.32 386.518 1337.65Z" fill="#5F45FF"/>
<path d="M451.851 1536.72C451.851 1541.25 452.784 1549.52 453.984 1555.12C463.051 1598.99 496.384 1636.32 538.518 1649.79C557.584 1655.92 560.118 1656.05 626.518 1656.05C687.718 1656.05 690.251 1655.92 701.584 1653.12C717.318 1648.99 730.251 1643.39 743.051 1634.85C775.584 1613.12 796.518 1577.92 799.451 1539.79L800.251 1528.72H625.984H451.851V1536.72Z" fill="#5F45FF"/>
</svg>
