<svg width="136" height="266" viewBox="0 0 136 266" fill="none" xmlns="http://www.w3.org/2000/svg">
<path d="M27.6105 266C87.0421 266 135.221 217.821 135.221 158.389C135.221 98.9579 87.0421 50.7791 27.6105 50.7791C-31.8211 50.7791 -80 98.9579 -80 158.389C-80 217.821 -31.8211 266 27.6105 266Z" fill="#ECECEC"/>
<path d="M52.5743 139.645C61.5063 139.645 68.7471 132.404 68.7471 123.472C68.7471 114.54 61.5063 107.299 52.5743 107.299C43.6422 107.299 36.4014 114.54 36.4014 123.472C36.4014 132.404 43.6422 139.645 52.5743 139.645Z" fill="#D9D9D9"/>
<path d="M24.3518 90.5569C24.3518 94.887 27.8619 98.3971 32.1912 98.3971C36.5209 98.3971 40.0306 94.887 40.0306 90.5569C40.0306 86.2272 36.5209 82.7175 32.1912 82.7175C27.8619 82.7175 24.3518 86.2272 24.3518 90.5569Z" fill="#D9D9D9"/>
<path d="M66.5469 88.1878C69.5648 87.6923 71.6097 84.8442 71.1142 81.8263C70.6188 78.8084 67.7707 76.7635 64.7527 77.2589C61.7348 77.7544 59.69 80.6025 60.1854 83.6204C60.6808 86.6383 63.529 88.6832 66.5469 88.1878Z" fill="#D9D9D9"/>
<path d="M100.156 119.286C100.156 121.707 102.118 123.669 104.539 123.669C106.959 123.669 108.921 121.707 108.921 119.286C108.921 116.866 106.959 114.903 104.539 114.903C102.118 114.903 100.156 116.866 100.156 119.286Z" fill="#D9D9D9"/>
<path d="M126.663 13.2031H89.5605V39.6091H126.663L119.041 26.4067L126.663 13.2031Z" fill="#E64142"/>
<path d="M89.5605 39.6091L102.764 26.4067L89.5605 13.2031V39.6091Z" fill="#BF2F2F"/>
<path d="M102.764 0H65.6604V26.4068H102.764V0Z" fill="#FF3E3E"/>
<path d="M102.764 0H65.6604V26.4068H102.764V0Z" fill="#FF3E3E"/>
<path d="M65.6604 0V82.7178" stroke="white" stroke-width="5.72043" stroke-miterlimit="10"/>
</svg>
