<?xml version="1.0" encoding="UTF-8"?>
<!DOCTYPE svg PUBLIC "-//W3C//DTD SVG 1.1//EN" "http://www.w3.org/Graphics/SVG/1.1/DTD/svg11.dtd">
<!-- Creator: CorelDRAW -->
<svg xmlns="http://www.w3.org/2000/svg" xml:space="preserve" width="60.6357mm" height="25.2517mm" version="1.1" style="shape-rendering:geometricPrecision; text-rendering:geometricPrecision; image-rendering:optimizeQuality; fill-rule:evenodd; clip-rule:evenodd"
viewBox="0 0 13871.57 5776.81"
 xmlns:xlink="http://www.w3.org/1999/xlink"
 xmlns:xodm="http://www.corel.com/coreldraw/odm/2003">
 <defs>
  <style type="text/css">
   <![CDATA[
    .fil0 {fill:black}
    .fil2 {fill:#1A1A1A}
    .fil3 {fill:#333333}
    .fil1 {fill:black;fill-rule:nonzero}
   ]]>
  </style>
 </defs>
 <g id="Camada_x0020_1">
  <metadata id="CorelCorpID_0Corel-Layer"/>
  <path class="fil0" d="M2566.72 2894.45c179.31,43.19 570.05,54.65 721.19,-1.1 66.53,-291.41 -107.77,-269.56 38.11,-518l-122.83 -70.39c222.41,-92.86 141.75,-95.05 107.25,-304.51 97.89,-21.98 172.67,-91.16 116.33,-186.95 -59.94,-101.94 -228.65,-124.89 -304.61,-355.39 -37.4,-537.58 -375.14,-1037.35 -1200.74,-1074.3 -26.35,-140.72 -149.87,-247.23 -298.22,-247.23 -167.6,0 -303.46,135.87 -303.46,303.44 0,41.13 8.17,80.32 22.97,116.03l-586.13 170.02c-24,-29.53 -60.65,-48.41 -101.66,-48.41 -72.34,0 -130.97,58.63 -130.97,130.97 0,72.31 58.63,130.95 130.97,130.95 39.76,0 75.36,-17.73 99.4,-45.69l973.05 249.7c-2.79,13.73 -4.26,27.96 -4.26,42.51 0,15.58 1.72,30.77 4.87,45.41l-1349.99 106.49c-12.61,-92.67 -92.01,-164.07 -188.14,-164.07 -104.84,0 -189.86,85.06 -189.86,189.9 0,104.89 85.01,189.88 189.86,189.88 91.99,0 168.67,-65.43 186.15,-152.25l1375.98 -108.55c36.76,62.89 104.98,105.14 183.08,105.14 4.19,0 8.35,-0.14 12.45,-0.41l89.06 505.12c-46.05,10.36 -88.1,31.3 -123.44,60.17l-329.4 -270.89c5.35,-14.25 8.26,-29.69 8.26,-45.8 0,-72.36 -58.66,-130.97 -130.99,-130.97 -72.31,0 -130.95,58.61 -130.95,130.97 0,72.34 58.63,130.99 130.95,130.99 33.35,0 63.8,-12.51 86.93,-33.03l320.64 263.68c-15.74,19.63 -29.08,41.29 -39.51,64.51l-404.33 -28.55c-0.48,-114.11 -93.11,-206.42 -207.31,-206.42 -114.5,0 -207.36,92.83 -207.36,207.31 0,114.52 92.86,207.36 207.36,207.36 41.59,0 80.39,-12.31 112.83,-33.38l610.63 697.84c-9.08,-2.36 -18.6,-3.61 -28.44,-3.61 -28.64,0 -54.81,10.61 -74.76,28.14l-1253.24 -498.72c2.84,-10.71 4.32,-21.98 4.32,-33.56 0,-72.34 -58.63,-130.97 -130.97,-130.97 -72.31,0 -130.97,58.63 -130.97,130.97 0,72.31 58.66,130.95 130.97,130.95 37.86,0 71.97,-16.04 95.85,-41.7l1249.72 497.3c-2.77,9.84 -4.28,20.22 -4.28,30.95 0,14.21 2.63,27.82 7.41,40.35 -36.97,171.51 -73.6,313.71 -9.13,472.06 57.51,202.05 217.7,369.26 403.59,456.3l-39.85 -54.93c-42.96,-63.07 -73.98,-132.75 -93.64,-217.58 -35.48,-95.9 -23.65,-220.12 2.45,-319.25 54.13,-205.64 150.71,-104.23 225.57,-299.87 67.53,-176.47 147.76,-105.9 271.23,-208.93zm-631.65 -1920.31c94.55,0 174.62,61.95 201.93,147.44l645.77 -99.38c-330.8,-375.43 -699.74,-419.43 -882.89,-457.29 -26.03,57.54 -69.45,105.51 -123.58,137.17l113.93 276.79c14.46,-3.09 29.44,-4.74 44.84,-4.74zm211.91 214.91c-0.71,51.72 -19.93,99.01 -51.4,135.41l827.82 672.97c2.86,-0.71 5.7,-48.18 8.49,-49.3 52.21,-45.2 7.62,-691.2 -110.45,-862.87l-674.46 103.79zm-117.04 186.58c-6.73,3.36 -13.61,6.41 -20.73,9.04l90.04 510.77 3.32 -0.02c136.23,0 251.21,90.91 287.7,215.32 31.98,25.37 47.79,25.19 127.54,17.84 273.81,-21.09 313.3,11.39 351.76,-62.59l-839.63 -690.36zm-280.7 -291.61c19.08,-34.64 47.58,-63.39 82.06,-82.77l-112.44 -273.13c-30.08,9.97 -62.2,15.4 -95.65,15.4 -106.4,0 -199.99,-54.79 -254.16,-137.65l-587.18 170.34c2.63,10.36 4.03,21.23 4.03,32.42 0,9.43 -1.01,18.6 -2.91,27.45l966.25 247.94zm304.79 1757.31c7.25,0 14.34,0.69 21.23,2.01l8.19 -232.43 3.68 -98.87c-13.41,-10 -23.68,-16.45 -31.84,-20.77 -143.07,-22.69 -252.47,-146.62 -252.47,-296.05 0,-20.93 2.15,-41.34 6.25,-61.01l-393.64 -27.89c-8.08,26.1 -21.14,49.89 -38.14,70.42l604.36 690.72c19.63,-16.31 44.86,-26.13 72.38,-26.13zm584.14 -2841.33c104.87,0 189.92,84.99 189.92,189.86 0,104.89 -85.06,189.92 -189.92,189.92 -104.84,0 -189.88,-85.03 -189.88,-189.92 0,-104.87 85.03,-189.86 189.88,-189.86zm256.24 379.78c63.85,0 115.57,51.75 115.57,115.55 0,63.85 -51.72,115.6 -115.57,115.6 -63.83,0 -115.57,-51.75 -115.57,-115.6 0,-63.8 51.75,-115.55 115.57,-115.55zm-103.13 2825.41c62.61,0 113.38,50.74 113.38,113.31 0,62.66 -50.76,113.4 -113.38,113.4 -62.59,0 -113.33,-50.74 -113.33,-113.4 0,-62.57 50.74,-113.31 113.33,-113.31zm-1429.12 86.11c93.09,0 168.51,75.45 168.51,168.49 0,93.06 -75.43,168.49 -168.51,168.49 -93.02,0 -168.47,-75.43 -168.47,-168.49 0,-93.04 75.45,-168.49 168.47,-168.49zm3702.65 -1681.48l40.22 36.85 -10.07 53.58c-6.68,17.91 -20.09,41.89 -40.19,72.06 -20.11,30.15 -54.17,64.81 -102.21,103.88 -48.04,39.12 -95.51,58.66 -142.43,58.66l-160.85 0c-53.6,0 -93.82,25.71 -120.63,77.07 -26.81,51.36 -40.22,107.22 -40.22,167.55l3.34 991.94 -428.94 0 0 -1668.87 422.24 0 0 90.48c73.73,-58.06 160.85,-87.12 261.39,-87.12 125.11,0 231.24,34.64 318.36,103.91zm1658.8 392.04c42.46,102.79 63.69,212.23 63.69,328.42 0,84.92 -33.51,144.12 -100.54,177.62 -35.76,17.87 -78.19,26.81 -127.33,26.81l-931.62 0c0,0 0.55,1.12 1.67,3.34 1.12,2.24 1.67,3.34 1.67,3.34 22.35,46.92 52.5,87.14 90.5,120.65 37.95,35.76 82.65,63.67 134.04,83.8 46.92,20.09 98.3,30.17 154.14,30.17 49.16,0 94.96,-7.87 137.4,-23.49l23.47 -6.68c46.9,-17.87 87.12,-26.81 120.63,-26.81 93.82,0 184.32,56.99 271.43,170.89l43.58 60.33 -53.62 46.9c-17.87,17.91 -35.76,32.39 -53.62,43.58 -69.25,46.94 -144.1,83.8 -224.54,110.59 -80.41,29.05 -167.55,43.58 -261.37,43.58 -116.19,0 -226.78,-22.35 -331.78,-67.05 -102.74,-44.68 -192.12,-105.01 -268.07,-180.96 -75.97,-75.95 -136.28,-165.33 -180.98,-268.09 -44.66,-102.74 -67.01,-212.8 -67.01,-330.09 0,-117.27 21.21,-227.3 63.67,-330.05 42.44,-102.79 101.09,-192.69 175.95,-269.79 74.83,-77.05 161.4,-137.95 259.7,-182.63 100.54,-44.68 207.77,-67.05 321.72,-67.05 109.47,0 213.35,22.37 311.65,67.05 96.06,40.19 180.96,98.28 254.69,174.25 71.49,73.71 128.45,160.87 170.89,261.37zm-1082.4 127.36c22.35,0 249.11,0 680.29,0 -22.35,-40.22 -49.16,-75.95 -80.44,-107.22 -35.76,-31.27 -75.97,-56.99 -120.65,-77.07 -42.44,-15.65 -87.12,-23.47 -134.04,-23.47 -49.16,0 -96.06,7.82 -140.76,23.47 -42.44,17.87 -82.65,43.56 -120.63,77.07 -26.81,24.55 -54.72,60.33 -83.78,107.22zm2948.99 -110.56c40.19,102.74 60.3,212.23 60.3,328.38 0,116.19 -20.11,225.66 -60.3,328.42 -40.22,102.79 -96.06,192.14 -167.55,268.12 -71.51,75.95 -155.29,136.28 -251.35,180.96 -96.06,44.68 -199.94,67.01 -311.65,67.01 -96.06,0 -179.86,-11.16 -251.35,-33.51 -46.9,-15.65 -88.24,-33.49 -123.99,-53.6l0 67.01 -428.94 0 0 -2345.78 428.94 0 0 780.79c46.94,-31.3 100.54,-55.82 160.87,-73.73 64.79,-22.3 136.28,-33.51 214.47,-33.51 111.71,0 215.59,23.49 311.65,70.42 96.06,44.66 179.84,105.55 251.35,182.63 71.49,77.05 127.33,165.88 167.55,266.42zm-482.57 633.32c35.73,-37.98 63.67,-83.2 83.78,-135.68 20.11,-52.53 30.15,-108.39 30.15,-167.6 0,-59.21 -10.61,-115.57 -31.82,-169.22 -21.23,-53.6 -48.59,-99.4 -82.11,-137.4 -35.73,-37.95 -75.97,-67.01 -120.63,-87.14 -42.46,-22.3 -88.26,-33.49 -137.4,-33.49 -49.16,0 -94.96,11.19 -137.4,33.49 -46.92,20.13 -88.26,49.73 -124.02,88.81 -35.73,39.12 -63.64,84.92 -83.75,137.4 -20.13,52.53 -30.17,108.35 -30.17,167.55 0,59.21 10.04,115.07 30.17,167.6 20.11,52.48 48.02,97.71 83.75,135.68 35.76,38 75.97,68.15 120.65,90.48 44.68,20.13 91.6,30.2 140.76,30.2 49.14,0 94.94,-10.07 137.4,-30.2 44.66,-22.33 84.9,-52.48 120.63,-90.48zm2302.22 -650.12c42.44,102.79 63.67,212.23 63.67,328.42 0,84.92 -33.51,144.12 -100.52,177.62 -35.76,17.87 -78.19,26.81 -127.36,26.81l-931.62 0c0,0 0.57,1.12 1.67,3.34 1.12,2.24 1.69,3.34 1.69,3.34 22.33,46.92 52.5,87.14 90.48,120.65 37.98,35.76 82.65,63.67 134.04,83.8 46.92,20.09 98.3,30.17 154.14,30.17 49.16,0 94.96,-7.87 137.4,-23.49l23.47 -6.68c46.92,-17.87 87.14,-26.81 120.63,-26.81 93.84,0 184.32,56.99 271.46,170.89l43.56 60.33 -53.62 46.9c-17.87,17.91 -35.73,32.39 -53.62,43.58 -69.25,46.94 -144.08,83.8 -224.51,110.59 -80.44,29.05 -167.55,43.58 -261.39,43.58 -116.17,0 -226.76,-22.35 -331.76,-67.05 -102.76,-44.68 -192.14,-105.01 -268.09,-180.96 -75.95,-75.95 -136.28,-165.33 -180.96,-268.09 -44.68,-102.74 -67.03,-212.8 -67.03,-330.09 0,-117.27 21.23,-227.3 63.69,-330.05 42.44,-102.79 101.09,-192.69 175.92,-269.79 74.83,-77.05 161.42,-137.95 259.72,-182.63 100.52,-44.68 207.75,-67.05 321.7,-67.05 109.47,0 213.35,22.37 311.65,67.05 96.08,40.19 180.96,98.28 254.69,174.25 71.49,73.71 128.45,160.87 170.91,261.37zm-1082.42 127.36c22.35,0 249.11,0 680.29,0 -22.35,-40.22 -49.16,-75.95 -80.44,-107.22 -35.73,-31.27 -75.95,-56.99 -120.63,-77.07 -42.46,-15.65 -87.14,-23.47 -134.06,-23.47 -49.14,0 -96.06,7.82 -140.74,23.47 -42.46,17.87 -82.65,43.56 -120.65,77.07 -26.81,24.55 -54.72,60.33 -83.78,107.22zm2469.77 562.98c111.71,0 202.19,54.77 271.46,164.21l33.51 53.65 -46.92 46.9c-78.19,71.51 -163.09,128.43 -254.69,170.89 -98.3,44.7 -204.41,67.05 -318.36,67.05 -118.41,0 -227.88,-23.47 -328.42,-70.37 -100.52,-44.68 -187.66,-106.13 -261.39,-184.32 -71.49,-75.95 -127.88,-165.33 -169.22,-268.09 -41.32,-102.79 -62,-212.23 -62,-328.42 0,-116.19 20.68,-225.66 62,-328.42 41.34,-102.74 98.3,-192.67 170.91,-269.76 72.61,-77.07 159.18,-137.95 259.7,-182.63 100.54,-44.66 210.01,-67.01 328.42,-67.01 107.25,0 207.77,18.96 301.59,56.96 91.6,35.73 174.28,87.14 248.01,154.14 11.16,6.68 25.69,20.11 43.56,40.24l40.22 46.9 -36.88 53.6c-75.95,98.32 -163.09,147.44 -261.37,147.44 -49.16,0 -108.37,-15.62 -177.62,-46.9 -46.92,-20.11 -98.3,-30.15 -154.17,-30.15 -58.08,0 -110.59,11.16 -157.51,33.49 -49.14,20.13 -91.03,49.14 -125.64,87.14 -34.64,37.98 -62.57,83.2 -83.8,135.73 -21.21,52.48 -31.82,108.89 -31.82,169.22 0,60.3 10.61,116.74 31.82,169.22 21.23,52.53 49.71,97.75 85.47,135.73 33.51,38 74.83,68.17 123.97,90.48 46.92,20.13 99.42,30.17 157.51,30.17 26.81,0 52.5,-2.24 77.1,-6.7 33.51,-8.94 59.21,-17.87 77.07,-26.83 51.38,-29.03 103.88,-43.56 157.48,-43.56zm1735.9 -1189.64c91.6,0 170.89,32.97 237.92,98.87 67.03,65.89 100.54,145.79 100.54,239.61l0 1330.38 -80.44 0c-147.44,0 -247.99,-34.61 -301.59,-103.88 -11.19,8.94 -21.25,15.62 -30.17,20.13 -53.62,35.73 -113.93,62.55 -180.96,80.41 -67.03,17.87 -136.28,26.81 -207.77,26.81 -113.95,0 -221.17,-22.35 -321.72,-67.05 -96.06,-44.68 -180.96,-106.1 -254.69,-184.27 -71.49,-75.97 -127.33,-165.33 -167.55,-268.12 -40.22,-102.76 -60.33,-211.68 -60.33,-326.75 0,-115.03 20.11,-223.94 60.33,-326.71 40.22,-102.79 96.06,-192.14 167.55,-268.12 71.51,-78.17 156.39,-139.62 254.69,-184.27 100.54,-46.92 207.77,-70.42 321.72,-70.42 73.71,0 144.1,10.09 211.11,30.17 62.57,17.87 119.53,42.46 170.91,73.73l0 -100.54 80.44 0zm-117.29 1018.75c20.11,-51.4 30.15,-108.35 30.15,-170.89 0,-60.33 -10.04,-116.74 -30.15,-169.27 -20.11,-52.48 -46.92,-98.83 -80.44,-139.07 -31.27,-35.71 -70.37,-64.76 -117.29,-87.14 -44.68,-22.3 -93.84,-33.49 -147.44,-33.49 -55.84,0 -106.13,11.19 -150.8,33.49 -44.68,22.37 -84.35,51.98 -118.96,88.81 -34.64,36.9 -62,81.58 -82.11,134.04 -20.11,52.53 -30.17,110.04 -30.17,172.63 0,58.06 10.07,113.36 30.17,165.88 20.11,52.48 47.47,97.71 82.11,135.68 34.61,38 74.28,67.05 118.96,87.14 44.68,22.35 94.96,33.54 150.8,33.54 53.6,0 102.76,-10.07 147.44,-30.2 46.92,-22.33 86.02,-51.38 117.29,-87.09 33.51,-38.02 60.33,-82.68 80.44,-134.06z"/>
  <path class="fil1" d="M4416.8 4093.27c-25.74,0 -44.82,-7.76 -57.19,-23.2 -5.65,-7.71 -30.91,-41.2 -75.72,-100.48l-2.33 -3.07c-11.32,-14.94 -26.26,-22.42 -44.82,-22.42 -2.06,0 -3.87,0 -5.42,0 -8.24,1.01 -15.19,1.53 -20.86,1.53l-74.19 0 0 147.62 -73.41 0 0 -528.64 147.6 0c7.23,0 14.94,0.27 23.2,0.78 8.24,0.5 19.58,2.17 34,5.03 14.44,2.81 28.21,6.68 41.36,11.6 13.13,4.87 26.9,12.08 41.34,21.6 14.44,9.54 26.79,20.75 37.11,33.63 10.29,12.88 18.8,29.51 25.51,49.85 6.68,20.38 10.04,42.89 10.04,67.62 0,22.69 -3.23,43.56 -9.68,62.64 -6.43,19.06 -15.19,35.16 -26.26,48.29 -11.07,13.15 -21.89,23.81 -32.46,32.07 -10.57,8.24 -21.78,15.44 -33.63,21.62l5.42 0c10.29,0 18.53,4.14 24.73,12.35 64.4,84.03 99.95,130.4 106.65,139.14 2.59,3.59 3.34,6.95 2.31,10.07 -1.03,3.59 -3.34,5.93 -6.95,6.95 -12.35,3.59 -24.46,5.4 -36.33,5.4zm-280.54 -221.81l74.19 0c8.76,0 17.91,-0.53 27.43,-1.53 9.54,-1.05 21.39,-3.87 35.57,-8.53 14.16,-4.6 26.65,-10.8 37.47,-18.55 10.82,-7.71 20.09,-19.31 27.82,-34.73 7.73,-15.49 11.6,-33.24 11.6,-53.37 0,-18 -3.09,-34.11 -9.27,-48.29 -6.2,-14.16 -14.44,-25.23 -24.75,-33.22 -10.29,-8.01 -20.73,-14.69 -31.27,-20.09 -10.57,-5.42 -21.92,-9.15 -34.02,-11.21 -12.12,-2.06 -21.14,-3.34 -27.06,-3.87 -5.9,-0.53 -11.21,-0.8 -15.83,-0.8l-71.88 0 0 234.19zm3245.23 221.81l-356.28 0 0 -528.64 361.71 0 0 73.43 -287.52 0 0 105.85 225.68 0 0 74.21 -225.68 0 0 201.71 282.1 0 0 73.43zm64.92 -2.33l0 -360.15 72.63 0 0 27.06c4.64,-3.59 9.54,-6.7 14.69,-9.27 10.32,-6.18 21.39,-10.84 33.24,-13.93 11.85,-3.07 23.95,-4.64 36.33,-4.64 20.61,0 39.92,4.14 57.95,12.4 18.05,7.73 33.63,18.39 46.76,32.07 13.15,13.61 23.45,29.74 30.93,48.29 7.46,18.55 11.21,38.11 11.21,58.73l0 208.68 -72.66 0 0 -209.44c-0.53,-10.34 -2.84,-20.61 -6.95,-30.95 -4.12,-9.27 -9.54,-17.48 -16.24,-24.68 -6.68,-7.25 -14.66,-12.93 -23.95,-17 -9.29,-4.14 -20.09,-6.22 -32.46,-6.22 -10.29,0 -20.34,2.08 -30.13,6.22 -9.29,4.07 -17.52,9.52 -24.73,16.2 -7.23,6.73 -13.15,14.69 -17.8,23.95 -4.12,9.27 -6.18,19.35 -6.18,30.15l0 212.53 -72.63 0zm533.26 -1.53c-15.44,4.12 -31.43,6.2 -47.9,6.2 -26.29,0 -50.63,-8.26 -73.05,-24.75 -22.42,-16.47 -39.28,-33.74 -50.63,-51.77l-2.31 -4.64 3.09 -3.09c14.44,-14.94 29.63,-22.4 45.59,-22.4 13.91,0 26.81,5.4 38.64,16.2 14.94,13.41 27.84,20.09 38.66,20.09 6.7,0 13.63,-1.01 20.86,-3.09 6.68,-1.51 13.13,-4.12 19.31,-7.71 5.17,-3.61 9.54,-7.73 13.15,-12.35 2.56,-4.14 3.84,-9.27 3.84,-15.49 0,-5.12 -1.28,-9.52 -3.84,-13.13 -3.61,-5.12 -8.24,-9.54 -13.91,-13.13 -6.7,-4.62 -14.18,-8.24 -22.42,-10.82 -8.24,-3.59 -16.75,-6.45 -25.51,-8.49 -12.88,-3.64 -25.26,-8.26 -37.11,-13.93 -12.35,-6.18 -23.43,-13.41 -33.22,-21.62 -11.35,-9.79 -20.36,-20.86 -27.06,-33.26 -5.67,-11.32 -8.49,-23.7 -8.49,-37.08 0,-15.44 2.81,-29.76 8.49,-42.89 5.67,-13.15 13.66,-24.48 23.95,-34.02 10.32,-9.49 22.69,-16.86 37.11,-22.01 14.44,-4.62 29.9,-6.95 46.37,-6.95 24.73,0 47.15,5.4 67.24,16.22 10.32,5.15 20.5,12.74 30.54,22.81 10.04,10.07 16.61,19.47 19.7,28.21l1.56 3.89 -3.09 3.07c-13.41,12.38 -27.82,18.55 -43.28,18.55 -10.82,0 -21.64,-3.09 -32.46,-9.29 -5.15,-2.56 -12.1,-5.4 -20.86,-8.49 -8.76,-3.11 -15.21,-4.64 -19.33,-4.64 -7.21,0 -13.66,1.05 -19.31,3.11 -5.67,2.06 -10.32,4.62 -13.93,7.73 -3.59,3.09 -6.29,6.7 -8.1,10.8 -1.81,4.14 -2.7,8.76 -2.7,13.91 0,4.12 0.75,7.46 2.31,10.07 2.56,4.12 5.93,7.48 10.04,10.02 5.15,3.64 10.57,6.45 16.24,8.53 6.7,2.59 12.86,4.64 18.53,6.18l10.07 2.29c17,4.67 32.19,10.59 45.59,17.8 13.91,6.68 26.01,14.69 36.33,23.95 10.29,9.79 18.28,20.61 23.95,32.46 6.18,12.35 9.27,25.78 9.27,40.17 0,17.55 -3.84,33.24 -11.58,47.17 -7.23,13.89 -17.02,25.48 -29.37,34.75 -5.67,4.67 -11.99,8.67 -18.94,12.01 -6.95,3.34 -14.3,6.31 -22.03,8.88zm211.77 1.53l-72.66 0 0 -360.15 72.66 0 0 360.15zm10.82 -430.45c0,12.88 -4.51,23.81 -13.52,32.83 -9.01,9.01 -19.97,13.54 -32.85,13.54 -12.88,0 -23.84,-4.53 -32.85,-13.54 -9.01,-9.01 -13.52,-19.95 -13.52,-32.83 0,-12.88 4.51,-23.84 13.52,-32.87 9.01,-9.01 19.97,-13.5 32.85,-13.5 12.88,0 23.84,4.48 32.85,13.5 9.01,9.04 13.52,19.99 13.52,32.87zm61.84 430.45l0 -360.15 72.63 0 0 27.06c4.64,-3.59 9.54,-6.7 14.69,-9.27 10.32,-6.18 21.39,-10.84 33.24,-13.93 11.85,-3.07 23.95,-4.64 36.33,-4.64 20.61,0 39.92,4.14 57.95,12.4 18.05,7.73 33.63,18.39 46.76,32.07 13.13,13.61 23.45,29.74 30.93,48.29 7.46,18.55 11.21,38.11 11.21,58.73l0 208.68 -72.66 0 0 -209.44c-0.53,-10.34 -2.84,-20.61 -6.95,-30.95 -4.14,-9.27 -9.54,-17.48 -16.24,-24.68 -6.68,-7.25 -14.66,-12.93 -23.95,-17 -9.29,-4.14 -20.09,-6.22 -32.46,-6.22 -10.29,0 -20.36,2.08 -30.13,6.22 -9.29,4.07 -17.52,9.52 -24.73,16.2 -7.23,6.73 -13.15,14.69 -17.8,23.95 -4.12,9.27 -6.18,19.35 -6.18,30.15l0 212.53 -72.63 0zm615.18 -8.46c-22.67,9.27 -46.62,13.89 -71.88,13.89 -25.23,0 -48.93,-4.9 -71.1,-14.69 -22.14,-9.27 -41.48,-22.17 -57.95,-38.64 -16.49,-16.47 -29.37,-35.83 -38.64,-57.97 -9.81,-22.67 -14.69,-46.62 -14.69,-71.88 0,-25.23 4.87,-48.93 14.69,-71.08 9.27,-22.19 22.14,-41.61 38.64,-58.36 16.47,-16.75 35.8,-29.76 57.95,-39.03 22.17,-9.79 45.87,-14.71 71.1,-14.71 25.26,0 49.21,4.92 71.88,14.71 22.17,9.27 41.48,22.42 57.97,39.42 16.49,16.49 29.63,35.78 39.42,57.97 9.29,22.14 13.91,45.85 13.91,71.08 0,25.26 -4.62,49.21 -13.91,71.88 -9.79,22.14 -22.92,41.5 -39.42,57.97 -16.49,16.47 -35.8,29.63 -57.97,39.44zm-28.6 -271.3c-13.41,-6.2 -27.57,-9.29 -42.51,-9.29 -14.94,0 -29.12,3.09 -42.51,9.29 -13.91,5.65 -25.9,13.52 -35.94,23.56 -10.04,10.04 -17.91,22.05 -23.56,35.94 -6.18,13.41 -9.29,27.68 -9.29,42.89 0,15.19 3.11,29.49 9.29,42.89 5.65,13.41 13.63,25.14 23.95,35.16 10.29,10.04 22.17,17.94 35.55,23.59 12.88,6.2 27.04,9.29 42.51,9.29 14.94,0 29.37,-3.09 43.28,-9.29 13.41,-5.65 24.98,-13.41 34.77,-23.2 10.32,-10.29 18.55,-22.14 24.73,-35.55 5.67,-13.41 8.51,-27.82 8.51,-43.28 0,-14.92 -3.09,-29.1 -9.29,-42.51 -5.65,-13.89 -13.52,-25.9 -23.56,-35.94 -10.04,-10.04 -22.03,-17.91 -35.94,-23.56zm466.83 282.1l0 -528.64 229.52 0c20.09,0 38.91,3.09 56.41,9.27 18.55,6.73 34.52,16.22 47.93,28.62 13.41,12.33 23.95,27.04 31.68,44.04 7.73,17 11.6,35.8 11.6,56.41 0,26.29 -6.2,49.23 -18.55,68.79 -6.7,9.79 -14.44,18.78 -23.2,27.06 3.61,2.56 7.23,5.15 10.82,7.73 11.85,9.77 22.28,20.98 31.3,33.63 9.01,12.61 16.11,27.02 21.28,43.24 5.15,16.27 7.73,33.88 7.73,52.96 0,22.67 -4,43.42 -11.99,62.23 -8.01,18.8 -18.94,35.3 -32.85,49.44 -13.91,14.21 -29.9,25.14 -47.93,32.87 -18.53,7.73 -38.11,11.83 -58.73,12.35l-255.03 0zm259.68 -73.43c8.24,-1.01 16.47,-3.09 24.73,-6.15 9.27,-3.61 17.5,-8.92 24.73,-15.88 7.21,-6.93 12.88,-15.42 17,-25.48 4.12,-10.07 6.18,-21.76 6.18,-35.16 0,-13.41 -2.31,-25.78 -6.95,-37.13 -4.64,-11.3 -10.57,-21.09 -17.78,-29.35 -7.73,-8.24 -16.22,-14.41 -25.51,-18.55 -9.27,-4.62 -19.06,-6.93 -29.35,-6.93l-178.53 0 0 174.64 185.49 0zm-185.49 -247.3l155.33 0c10.29,0 20.34,-1.78 30.15,-5.4 8.76,-3.11 16.47,-7.73 23.17,-13.93 6.2,-5.67 11.32,-12.61 15.46,-20.89 3.59,-8.21 5.4,-17.73 5.4,-28.55 0,-11.35 -2.17,-21 -6.57,-29.01 -4.37,-7.98 -10.18,-14.53 -17.39,-19.7 -7.73,-5.67 -17.27,-10.07 -28.6,-13.13 -11.85,-3.11 -24.48,-4.67 -37.88,-4.67l-139.09 0 0 135.27zm398.01 318.4l0 -360.15 72.63 0 0 39.42c17.55,-25.74 41.75,-38.62 72.66,-38.62 26.29,0 48.18,7.21 65.7,21.62l3.87 3.09 -0.78 6.18c-2.59,4.14 -5.79,8.76 -9.65,13.93 -3.87,5.15 -10.18,11.35 -18.94,18.55 -8.76,7.21 -17.27,10.82 -25.51,10.82l-37.11 0c-16.47,0 -28.71,7.32 -36.69,22.01 -7.98,14.69 -11.99,30.56 -11.99,47.56l0 215.59 -74.19 0zm442.85 0c-13.91,3.61 -28.85,5.42 -44.82,5.42 -24.23,0 -47.15,-4.9 -68.79,-14.69 -21.14,-9.27 -39.42,-22.42 -54.88,-39.42 -15.44,-15.97 -27.57,-35.05 -36.33,-57.19 -8.74,-22.14 -13.13,-45.87 -13.13,-71.1 0,-25.23 4.39,-48.96 13.13,-71.12 8.76,-22.12 20.89,-41.59 36.33,-58.34 15.46,-16.75 33.74,-30.01 54.88,-39.78 21.12,-9.79 44.04,-14.71 68.79,-14.71 15.97,0 31.16,2.06 45.59,6.2 14.41,4.12 27.54,10.07 39.42,17.78 5.65,3.61 10.8,7.48 15.44,11.58l0 -34.77 6.2 0c18.03,0 33.49,6.47 46.35,19.35 12.9,12.88 19.33,28.32 19.33,46.35l0 294.45 -6.18 0c-37.61,0 -59.5,-10.02 -65.7,-30.11 -5.15,4.62 -10.82,9.01 -17,13.11 -11.85,7.23 -24.73,12.9 -38.64,17zm-5.42 -278.98c-11.85,-5.67 -24.98,-8.51 -39.39,-8.51 -14.44,0 -27.57,2.84 -39.44,8.51 -12.35,5.67 -22.92,13.41 -31.68,23.17 -8.74,9.79 -15.69,21.53 -20.86,35.16 -5.15,13.66 -7.73,28.21 -7.73,43.67 0,15.46 2.45,29.88 7.34,43.31 4.9,13.38 11.99,24.98 21.25,34.75 8.76,9.79 19.33,17.55 31.68,23.2 11.87,5.67 25,8.49 39.44,8.49 14.41,0 27.54,-2.81 39.39,-8.49 11.85,-5.65 22.17,-13.13 30.93,-22.4 8.74,-9.81 15.72,-21.41 20.86,-34.82 5.15,-13.36 7.73,-28.05 7.73,-44.04 0,-15.46 -2.59,-29.88 -7.73,-43.28 -4.64,-13.41 -11.6,-25.23 -20.86,-35.55 -8.26,-9.77 -18.55,-17.5 -30.93,-23.17zm367.88 277.45c-15.44,4.12 -31.43,6.2 -47.93,6.2 -26.26,0 -50.6,-8.26 -73.02,-24.75 -22.42,-16.47 -39.28,-33.74 -50.63,-51.77l-2.31 -4.64 3.09 -3.09c14.41,-14.94 29.63,-22.4 45.59,-22.4 13.91,0 26.79,5.4 38.64,16.2 14.94,13.41 27.84,20.09 38.64,20.09 6.7,0 13.66,-1.01 20.89,-3.09 6.68,-1.51 13.13,-4.12 19.31,-7.71 5.15,-3.61 9.54,-7.73 13.13,-12.35 2.59,-4.14 3.87,-9.27 3.87,-15.49 0,-5.12 -1.28,-9.52 -3.87,-13.13 -3.59,-5.12 -8.24,-9.54 -13.89,-13.13 -6.7,-4.62 -14.18,-8.24 -22.44,-10.82 -8.24,-3.59 -16.72,-6.45 -25.48,-8.49 -12.88,-3.64 -25.26,-8.26 -37.11,-13.93 -12.35,-6.18 -23.43,-13.41 -33.22,-21.62 -11.35,-9.79 -20.36,-20.86 -27.06,-33.26 -5.67,-11.32 -8.49,-23.7 -8.49,-37.08 0,-15.44 2.81,-29.76 8.49,-42.89 5.67,-13.15 13.66,-24.48 23.95,-34.02 10.32,-9.49 22.67,-16.86 37.11,-22.01 14.44,-4.62 29.88,-6.95 46.37,-6.95 24.73,0 47.15,5.4 67.24,16.22 10.32,5.15 20.5,12.74 30.54,22.81 10.04,10.07 16.61,19.47 19.7,28.21l1.56 3.89 -3.11 3.07c-13.38,12.38 -27.82,18.55 -43.26,18.55 -10.82,0 -21.64,-3.09 -32.46,-9.29 -5.17,-2.56 -12.12,-5.4 -20.86,-8.49 -8.76,-3.11 -15.21,-4.64 -19.33,-4.64 -7.21,0 -13.66,1.05 -19.31,3.11 -5.67,2.06 -10.32,4.62 -13.93,7.73 -3.61,3.09 -6.29,6.7 -8.12,10.8 -1.78,4.14 -2.7,8.76 -2.7,13.91 0,4.12 0.78,7.46 2.33,10.07 2.56,4.12 5.93,7.48 10.04,10.02 5.15,3.64 10.57,6.45 16.22,8.53 6.7,2.59 12.88,4.64 18.55,6.18l10.04 2.29c17,4.67 32.21,10.59 45.59,17.8 13.93,6.68 26.03,14.69 36.33,23.95 10.32,9.79 18.3,20.61 23.97,32.46 6.18,12.35 9.27,25.78 9.27,40.17 0,17.55 -3.87,33.24 -11.6,47.17 -7.21,13.89 -17,25.48 -29.37,34.75 -5.65,4.67 -11.96,8.67 -18.92,12.01 -6.95,3.34 -14.3,6.31 -22.03,8.88zm211.75 1.53l-72.63 0 0 -360.15 72.63 0 0 360.15zm10.84 -430.45c0,12.88 -4.51,23.81 -13.52,32.83 -9.04,9.01 -19.97,13.54 -32.85,13.54 -12.88,0 -23.84,-4.53 -32.85,-13.54 -9.01,-9.01 -13.54,-19.95 -13.54,-32.83 0,-12.88 4.53,-23.84 13.54,-32.87 9.01,-9.01 19.97,-13.5 32.85,-13.5 12.88,0 23.81,4.48 32.85,13.5 9.01,9.04 13.52,19.99 13.52,32.87zm145.29 430.45l-73.43 0 0 -516.24 73.43 0 0 516.24zm305.27 -3.87c-17.52,6.2 -36.58,9.29 -57.19,9.29 -25.23,0 -48.93,-4.9 -71.1,-14.69 -22.67,-9.27 -42.25,-22.17 -58.73,-38.64 -16.49,-16.47 -29.51,-35.96 -39.05,-58.36 -9.54,-22.42 -14.3,-46.23 -14.3,-71.49 0,-25.23 4.64,-48.93 13.91,-71.08 9.29,-22.19 21.92,-41.48 37.88,-57.97 15.97,-16.52 34.77,-29.65 56.41,-39.42 21.64,-9.79 44.56,-14.71 68.79,-14.71 23.7,0 45.98,4.64 66.85,13.91 20.86,9.29 39.17,21.92 54.86,37.91 15.72,15.95 27.98,35 36.72,57.17 9.29,21.66 13.93,45.09 13.93,70.35 0,14.41 -5.42,24.46 -16.24,30.13 -6.7,3.11 -14.69,4.64 -23.95,4.64l-232.64 0c2.06,6.68 4.62,13.15 7.73,19.33 6.18,12.35 14.16,23.04 23.95,32.05 9.79,9.04 21.14,16.13 34.02,21.25 12.35,5.15 25.76,7.76 40.17,7.76 12.38,0 24.23,-1.81 35.55,-5.42l5.42 -2.33c9.79,-3.59 17.78,-5.4 23.95,-5.4 18.03,0 35.55,11.6 52.55,34.77l3.87 4.67 -4.62 3.84c-3.61,3.61 -7.23,6.43 -10.84,8.49 -14.94,10.32 -30.91,18.3 -47.9,23.95zm-27.06 -277.43c-11.32,-4.67 -23.43,-6.95 -36.31,-6.95 -12.88,0 -25,2.29 -36.33,6.95 -11.85,4.62 -22.42,11.07 -31.68,19.33 -7.73,7.21 -15.72,17.48 -23.95,30.88 -3.61,5.67 -6.2,12.12 -7.73,19.33 4.12,-2.59 7.98,-3.84 11.58,-3.84l183.95 0c-2.06,-5.67 -4.37,-11.1 -6.95,-16.27 -5.67,-11.3 -13.02,-21.23 -22.03,-29.76 -9.01,-8.46 -19.19,-15.05 -30.54,-19.67zm263.54 281.29l-72.63 0 0 -360.15 72.63 0 0 360.15zm10.82 -430.45c0,12.88 -4.51,23.81 -13.52,32.83 -9.01,9.01 -19.95,13.54 -32.85,13.54 -12.88,0 -23.81,-4.53 -32.83,-13.54 -9.01,-9.01 -13.54,-19.95 -13.54,-32.83 0,-12.88 4.53,-23.84 13.54,-32.87 9.01,-9.01 19.95,-13.5 32.83,-13.5 12.9,0 23.84,4.48 32.85,13.5 9.01,9.04 13.52,19.99 13.52,32.87zm61.84 430.45l0 -360.15 72.66 0 0 39.42c17.52,-25.74 41.73,-38.62 72.66,-38.62 26.26,0 48.16,7.21 65.68,21.62l3.87 3.09 -0.78 6.18c-2.56,4.14 -5.79,8.76 -9.65,13.93 -3.87,5.15 -10.18,11.35 -18.94,18.55 -8.76,7.21 -17.25,10.82 -25.48,10.82l-37.13 0c-16.47,0 -28.71,7.32 -36.69,22.01 -7.98,14.69 -11.99,30.56 -11.99,47.56l0 215.59 -74.19 0zm442.85 0c-13.91,3.61 -28.85,5.42 -44.82,5.42 -24.23,0 -47.15,-4.9 -68.79,-14.69 -21.12,-9.27 -39.42,-22.42 -54.88,-39.42 -15.44,-15.97 -27.57,-35.05 -36.33,-57.19 -8.74,-22.14 -13.13,-45.87 -13.13,-71.1 0,-25.23 4.39,-48.96 13.13,-71.12 8.76,-22.12 20.89,-41.59 36.33,-58.34 15.46,-16.75 33.77,-30.01 54.88,-39.78 21.12,-9.79 44.04,-14.71 68.79,-14.71 15.97,0 31.16,2.06 45.59,6.2 14.41,4.12 27.57,10.07 39.42,17.78 5.65,3.61 10.82,7.48 15.44,11.58l0 -34.77 6.2 0c18.03,0 33.49,6.47 46.37,19.35 12.88,12.88 19.31,28.32 19.31,46.35l0 294.45 -6.18 0c-37.61,0 -59.5,-10.02 -65.7,-30.11 -5.15,4.62 -10.82,9.01 -17,13.11 -11.85,7.23 -24.73,12.9 -38.64,17zm-5.42 -278.98c-11.83,-5.67 -24.98,-8.51 -39.39,-8.51 -14.44,0 -27.57,2.84 -39.44,8.51 -12.35,5.67 -22.92,13.41 -31.68,23.17 -8.74,9.79 -15.69,21.53 -20.86,35.16 -5.15,13.66 -7.73,28.21 -7.73,43.67 0,15.46 2.45,29.88 7.37,43.31 4.87,13.38 11.96,24.98 21.23,34.75 8.76,9.79 19.33,17.55 31.68,23.2 11.87,5.67 25,8.49 39.44,8.49 14.41,0 27.57,-2.81 39.39,-8.49 11.87,-5.65 22.17,-13.13 30.93,-22.4 8.76,-9.81 15.72,-21.41 20.86,-34.82 5.15,-13.36 7.73,-28.05 7.73,-44.04 0,-15.46 -2.59,-29.88 -7.73,-43.28 -4.62,-13.41 -11.6,-25.23 -20.86,-35.55 -8.26,-9.77 -18.55,-17.5 -30.93,-23.17zm544.1 435.87l-74.21 0 0 -517.04 74.21 0 0 25.51c2.06,-1.56 3.84,-2.81 5.4,-3.84 10.82,-7.73 23.95,-14.21 39.42,-19.31 15.46,-5.17 33.49,-7.76 54.1,-7.76 23.7,0 46.12,4.87 67.24,14.66 20.61,9.81 38.39,22.97 53.33,39.44 15.46,16.47 27.57,35.83 36.33,57.97 8.76,22.14 13.13,45.87 13.13,71.1 0,25.23 -4.37,48.96 -13.13,71.1 -8.76,22.14 -20.86,41.5 -36.33,57.97 -15.44,16.47 -33.24,29.63 -53.33,39.42 -21.12,9.79 -43.53,14.69 -67.24,14.69 -16.49,0 -31.82,-2.22 -45.98,-6.59 -14.16,-4.37 -26.93,-10.71 -38.25,-18.92 -5.17,-3.64 -10.04,-7.46 -14.69,-11.6l0 193.2zm133.69 -441.27c-11.85,-5.67 -24.34,-8.53 -37.5,-8.53 -13.11,0 -25.35,2.86 -36.69,8.53 -12.38,5.63 -23.06,13.5 -32.07,23.56 -9.01,10.07 -16.22,21.76 -21.64,35.14 -5.42,13.43 -8.12,27.7 -8.12,42.89 0,15.21 2.7,29.63 8.12,43.31 5.42,13.66 12.74,25.48 22.03,35.55 9.27,10.02 19.83,17.89 31.68,23.56 11.35,5.65 23.59,8.51 36.69,8.51 13.15,0 25.65,-2.86 37.5,-8.51 11.85,-5.67 22.42,-13.63 31.68,-23.97 8.76,-9.77 15.85,-21.48 21.25,-35.14 5.42,-13.68 8.12,-28.09 8.12,-43.31 0,-15.19 -2.7,-29.47 -8.12,-42.89 -5.4,-13.38 -12.49,-25.21 -21.25,-35.55 -9.27,-9.79 -19.83,-17.52 -31.68,-23.15zm401.12 284.38c-13.91,3.61 -28.87,5.42 -44.84,5.42 -24.2,0 -47.13,-4.9 -68.77,-14.69 -21.14,-9.27 -39.42,-22.42 -54.88,-39.42 -15.46,-15.97 -27.57,-35.05 -36.33,-57.19 -8.76,-22.14 -13.13,-45.87 -13.13,-71.1 0,-25.23 4.37,-48.96 13.13,-71.12 8.76,-22.12 20.86,-41.59 36.33,-58.34 15.46,-16.75 33.74,-30.01 54.88,-39.78 21.12,-9.79 44.04,-14.71 68.77,-14.71 15.97,0 31.18,2.06 45.62,6.2 14.41,4.12 27.54,10.07 39.42,17.78 5.65,3.61 10.8,7.48 15.44,11.58l0 -34.77 6.2 0c18.03,0 33.47,6.47 46.35,19.35 12.9,12.88 19.33,28.32 19.33,46.35l0 294.45 -6.18 0c-37.61,0 -59.5,-10.02 -65.7,-30.11 -5.15,4.62 -10.82,9.01 -17,13.11 -11.85,7.23 -24.73,12.9 -38.64,17zm-5.42 -278.98c-11.85,-5.67 -24.98,-8.51 -39.42,-8.51 -14.41,0 -27.54,2.84 -39.42,8.51 -12.35,5.67 -22.92,13.41 -31.68,23.17 -8.74,9.79 -15.69,21.53 -20.86,35.16 -5.15,13.66 -7.73,28.21 -7.73,43.67 0,15.46 2.45,29.88 7.34,43.31 4.9,13.38 11.99,24.98 21.25,34.75 8.76,9.79 19.33,17.55 31.68,23.2 11.87,5.67 25,8.49 39.42,8.49 14.44,0 27.57,-2.81 39.42,-8.49 11.85,-5.65 22.17,-13.13 30.93,-22.4 8.74,-9.81 15.72,-21.41 20.86,-34.82 5.15,-13.36 7.73,-28.05 7.73,-44.04 0,-15.46 -2.59,-29.88 -7.73,-43.28 -4.64,-13.41 -11.6,-25.23 -20.86,-35.55 -8.26,-9.77 -18.55,-17.5 -30.93,-23.17zm212.53 278.98l0 -360.15 72.66 0 0 39.42c17.52,-25.74 41.73,-38.62 72.66,-38.62 26.29,0 48.18,7.21 65.68,21.62l3.87 3.09 -0.75 6.18c-2.59,4.14 -5.81,8.76 -9.68,13.93 -3.87,5.15 -10.18,11.35 -18.92,18.55 -8.78,7.21 -17.27,10.82 -25.51,10.82l-37.11 0c-16.49,0 -28.71,7.32 -36.69,22.01 -8.01,14.69 -11.99,30.56 -11.99,47.56l0 215.59 -74.21 0zm442.87 0c-13.93,3.61 -28.87,5.42 -44.84,5.42 -24.23,0 -47.15,-4.9 -68.79,-14.69 -21.12,-9.27 -39.42,-22.42 -54.86,-39.42 -15.46,-15.97 -27.57,-35.05 -36.33,-57.19 -8.76,-22.14 -13.15,-45.87 -13.15,-71.1 0,-25.23 4.39,-48.96 13.15,-71.12 8.76,-22.12 20.86,-41.59 36.33,-58.34 15.44,-16.75 33.74,-30.01 54.86,-39.78 21.14,-9.79 44.06,-14.71 68.79,-14.71 15.97,0 31.18,2.06 45.59,6.2 14.44,4.12 27.57,10.07 39.42,17.78 5.67,3.61 10.82,7.48 15.46,11.58l0 -34.77 6.18 0c18.03,0 33.49,6.47 46.37,19.35 12.88,12.88 19.33,28.32 19.33,46.35l0 294.45 -6.2 0c-37.61,0 -59.5,-10.02 -65.68,-30.11 -5.17,4.62 -10.82,9.01 -17,13.11 -11.87,7.23 -24.75,12.9 -38.64,17zm-5.42 -278.98c-11.85,-5.67 -25,-8.51 -39.42,-8.51 -14.41,0 -27.57,2.84 -39.42,8.51 -12.38,5.67 -22.92,13.41 -31.68,23.17 -8.76,9.79 -15.72,21.53 -20.86,35.16 -5.17,13.66 -7.73,28.21 -7.73,43.67 0,15.46 2.45,29.88 7.34,43.31 4.9,13.38 11.99,24.98 21.25,34.75 8.76,9.79 19.31,17.55 31.68,23.2 11.85,5.67 25,8.49 39.42,8.49 14.41,0 27.57,-2.81 39.42,-8.49 11.85,-5.65 22.14,-13.13 30.91,-22.4 8.76,-9.81 15.72,-21.41 20.86,-34.82 5.15,-13.36 7.73,-28.05 7.73,-44.04 0,-15.46 -2.59,-29.88 -7.73,-43.28 -4.62,-13.41 -11.6,-25.23 -20.86,-35.55 -8.24,-9.77 -18.55,-17.5 -30.91,-23.17zm-9000.67 275.12c-17.52,6.2 -36.58,9.29 -57.19,9.29 -25.26,0 -48.96,-4.9 -71.1,-14.69 -22.67,-9.27 -42.25,-22.17 -58.75,-38.64 -16.47,-16.47 -29.49,-35.96 -39.03,-58.36 -9.54,-22.42 -14.3,-46.23 -14.3,-71.49 0,-25.23 4.64,-48.93 13.91,-71.08 9.29,-22.19 21.92,-41.48 37.88,-57.97 15.97,-16.52 34.77,-29.65 56.41,-39.42 21.64,-9.79 44.56,-14.71 68.79,-14.71 23.68,0 45.98,4.64 66.85,13.91 20.86,9.29 39.17,21.92 54.86,37.91 15.72,15.95 27.96,35 36.72,57.17 9.29,21.66 13.91,45.09 13.91,70.35 0,14.41 -5.4,24.46 -16.22,30.13 -6.7,3.11 -14.69,4.64 -23.95,4.64l-232.64 0c2.06,6.68 4.62,13.15 7.71,19.33 6.2,12.35 14.18,23.04 23.97,32.05 9.79,9.04 21.14,16.13 34,21.25 12.38,5.15 25.78,7.76 40.19,7.76 12.35,0 24.23,-1.81 35.55,-5.42l5.4 -2.33c9.81,-3.59 17.8,-5.4 23.97,-5.4 18.03,0 35.55,11.6 52.55,34.77l3.87 4.67 -4.62 3.84c-3.61,3.61 -7.23,6.43 -10.84,8.49 -14.94,10.32 -30.91,18.3 -47.9,23.95zm-27.06 -277.43c-11.32,-4.67 -23.43,-6.95 -36.31,-6.95 -12.9,0 -25,2.29 -36.33,6.95 -11.85,4.62 -22.42,11.07 -31.68,19.33 -7.73,7.21 -15.72,17.48 -23.95,30.88 -3.61,5.67 -6.2,12.12 -7.76,19.33 4.14,-2.59 8.01,-3.84 11.6,-3.84l183.95 0c-2.06,-5.67 -4.39,-11.1 -6.95,-16.27 -5.67,-11.3 -13.02,-21.23 -22.03,-29.76 -9.01,-8.46 -19.19,-15.05 -30.54,-19.67z"/>
  <path class="fil1" d="M5113.93 4087.07c-15.46,5.17 -33.49,7.73 -54.1,7.73 -24.2,0 -46.62,-4.87 -67.24,-14.69 -20.61,-9.79 -38.64,-22.92 -54.1,-39.42 -14.94,-16.47 -26.79,-35.8 -35.55,-57.97 -8.74,-22.14 -13.13,-45.82 -13.13,-71.1 0,-25.21 4.39,-48.91 13.13,-71.1 8.76,-22.14 20.75,-41.45 35.94,-57.97 15.19,-16.47 33.1,-29.63 53.71,-39.37 21.14,-9.79 43.53,-14.71 67.24,-14.71 16.49,0 31.82,2.2 45.98,6.59 14.18,4.35 26.93,10.66 38.27,18.92 5.15,3.61 10.04,7.48 14.69,11.58l0 -193.2 74.19 0 0 517.04 -74.19 0 0 -25.51c-2.08,1.56 -4.14,2.84 -6.2,3.89 -10.82,7.71 -23.68,14.14 -38.64,19.29zm-14.66 -277.43c-11.87,-5.67 -24.36,-8.53 -37.5,-8.53 -13.15,0 -25.37,2.86 -36.72,8.53 -12.35,5.67 -22.92,13.66 -31.68,23.93 -9.27,9.81 -16.49,21.55 -21.64,35.16 -5.15,13.68 -7.73,28.09 -7.73,43.28 0,15.21 2.59,29.51 7.73,42.89 5.15,13.43 12.38,25.28 21.64,35.55 8.76,9.81 19.33,17.55 31.68,23.22 11.35,5.65 23.56,8.46 36.72,8.46 13.13,0 25.62,-2.81 37.5,-8.46 11.83,-5.67 22.4,-13.54 31.66,-23.61 9.29,-10.02 16.63,-21.73 22.03,-35.16 5.42,-13.38 8.12,-27.68 8.12,-42.89 0,-15.19 -2.7,-29.6 -8.12,-43.28 -5.4,-13.61 -12.74,-25.46 -22.03,-35.53 -9.27,-10.04 -19.83,-17.89 -31.66,-23.56zm438.21 277.43c-17.52,6.2 -36.6,9.29 -57.22,9.29 -25.23,0 -48.93,-4.9 -71.08,-14.69 -22.67,-9.27 -42.25,-22.17 -58.75,-38.64 -16.49,-16.47 -29.51,-35.96 -39.03,-58.36 -9.54,-22.42 -14.3,-46.23 -14.3,-71.49 0,-25.23 4.64,-48.93 13.91,-71.08 9.29,-22.19 21.89,-41.48 37.86,-57.97 15.99,-16.52 34.8,-29.65 56.44,-39.42 21.62,-9.79 44.56,-14.71 68.77,-14.71 23.7,0 45.98,4.64 66.87,13.91 20.86,9.29 39.14,21.92 54.86,37.91 15.72,15.95 27.96,35 36.72,57.17 9.27,21.66 13.91,45.09 13.91,70.35 0,14.41 -5.42,24.46 -16.22,30.13 -6.7,3.11 -14.69,4.64 -23.97,4.64l-232.61 0c2.04,6.68 4.62,13.15 7.71,19.33 6.2,12.35 14.18,23.04 23.97,32.05 9.77,9.04 21.12,16.13 34,21.25 12.35,5.15 25.76,7.76 40.19,7.76 12.35,0 24.2,-1.81 35.55,-5.42l5.4 -2.33c9.79,-3.59 17.78,-5.4 23.97,-5.4 18.03,0 35.55,11.6 52.55,34.77l3.87 4.67 -4.64 3.84c-3.59,3.61 -7.21,6.43 -10.82,8.49 -14.94,10.32 -30.91,18.3 -47.9,23.95zm-27.06 -277.43c-11.32,-4.67 -23.45,-6.95 -36.33,-6.95 -12.88,0 -24.98,2.29 -36.31,6.95 -11.85,4.62 -22.42,11.07 -31.71,19.33 -7.73,7.21 -15.72,17.48 -23.95,30.88 -3.61,5.67 -6.18,12.12 -7.73,19.33 4.12,-2.59 7.98,-3.84 11.6,-3.84l183.93 0c-2.06,-5.67 -4.37,-11.1 -6.95,-16.27 -5.65,-11.3 -12.99,-21.23 -22.01,-29.76 -9.01,-8.46 -19.19,-15.05 -30.54,-19.67zm660.02 277.43c-15.46,5.17 -33.49,7.73 -54.1,7.73 -24.23,0 -46.62,-4.87 -67.24,-14.69 -20.61,-9.79 -38.64,-22.92 -54.1,-39.42 -14.94,-16.47 -26.79,-35.8 -35.55,-57.97 -8.76,-22.14 -13.15,-45.82 -13.15,-71.1 0,-25.21 4.39,-48.91 13.15,-71.1 8.76,-22.14 20.75,-41.45 35.94,-57.97 15.19,-16.47 33.1,-29.63 53.71,-39.37 21.12,-9.79 43.53,-14.71 67.24,-14.71 16.49,0 31.82,2.2 45.98,6.59 14.16,4.35 26.93,10.66 38.25,18.92 5.17,3.61 10.04,7.48 14.69,11.58l0 -193.2 74.19 0 0 517.04 -74.19 0 0 -25.51c-2.06,1.56 -4.12,2.84 -6.18,3.89 -10.82,7.71 -23.7,14.14 -38.64,19.29zm-14.69 -277.43c-11.85,-5.67 -24.34,-8.53 -37.5,-8.53 -13.13,0 -25.37,2.86 -36.69,8.53 -12.38,5.67 -22.92,13.66 -31.71,23.93 -9.27,9.81 -16.47,21.55 -21.62,35.16 -5.15,13.68 -7.73,28.09 -7.73,43.28 0,15.21 2.59,29.51 7.73,42.89 5.15,13.43 12.35,25.28 21.62,35.55 8.78,9.81 19.33,17.55 31.71,23.22 11.32,5.65 23.56,8.46 36.69,8.46 13.15,0 25.65,-2.81 37.5,-8.46 11.85,-5.67 22.42,-13.54 31.68,-23.61 9.27,-10.02 16.61,-21.73 22.03,-35.16 5.4,-13.38 8.1,-27.68 8.1,-42.89 0,-15.19 -2.7,-29.6 -8.1,-43.28 -5.42,-13.61 -12.77,-25.46 -22.03,-35.53 -9.27,-10.04 -19.83,-17.89 -31.68,-23.56zm438.21 277.43c-17.52,6.2 -36.58,9.29 -57.19,9.29 -25.23,0 -48.93,-4.9 -71.1,-14.69 -22.67,-9.27 -42.25,-22.17 -58.73,-38.64 -16.49,-16.47 -29.51,-35.96 -39.05,-58.36 -9.52,-22.42 -14.28,-46.23 -14.28,-71.49 0,-25.23 4.62,-48.93 13.91,-71.08 9.27,-22.19 21.89,-41.48 37.86,-57.97 15.97,-16.52 34.77,-29.65 56.41,-39.42 21.64,-9.79 44.56,-14.71 68.79,-14.71 23.7,0 45.98,4.64 66.85,13.91 20.86,9.29 39.17,21.92 54.88,37.91 15.72,15.95 27.96,35 36.69,57.17 9.29,21.66 13.93,45.09 13.93,70.35 0,14.41 -5.42,24.46 -16.24,30.13 -6.7,3.11 -14.69,4.64 -23.95,4.64l-232.64 0c2.06,6.68 4.64,13.15 7.73,19.33 6.18,12.35 14.16,23.04 23.95,32.05 9.79,9.04 21.14,16.13 34.02,21.25 12.35,5.15 25.76,7.76 40.17,7.76 12.38,0 24.23,-1.81 35.55,-5.42l5.42 -2.33c9.79,-3.59 17.78,-5.4 23.95,-5.4 18.05,0 35.55,11.6 52.55,34.77l3.87 4.67 -4.62 3.84c-3.61,3.61 -7.23,6.43 -10.82,8.49 -14.94,10.32 -30.91,18.3 -47.93,23.95zm-27.04 -277.43c-11.35,-4.67 -23.45,-6.95 -36.33,-6.95 -12.88,0 -25,2.29 -36.33,6.95 -11.85,4.62 -22.4,11.07 -31.68,19.33 -7.73,7.21 -15.72,17.48 -23.95,30.88 -3.61,5.67 -6.2,12.12 -7.73,19.33 4.12,-2.59 7.98,-3.84 11.6,-3.84l183.93 0c-2.06,-5.67 -4.37,-11.1 -6.95,-16.27 -5.67,-11.3 -13.02,-21.23 -22.03,-29.76 -9.01,-8.46 -19.19,-15.05 -30.52,-19.67z"/>
  <path class="fil1" d="M1641.12 5037.24l-467.74 0 0 -693.97 474.83 0 0 96.4 -377.42 0 0 138.98 296.28 0 0 97.43 -296.28 0 0 264.8 370.33 0 0 96.36zm85.22 -3.04l0 -472.77 95.37 0 0 35.48c6.09,-4.74 12.51,-8.76 19.29,-12.17 13.52,-8.1 28.07,-14.18 43.63,-18.28 15.56,-4.05 31.46,-6.04 47.68,-6.04 27.06,0 52.43,5.4 76.11,16.22 23.65,10.13 44.13,24.18 61.38,42.09 17.25,17.94 30.77,39.05 40.58,63.44 9.81,24.32 14.71,50.01 14.71,77.1l0 273.95 -95.37 0 0 -274.96c-0.66,-13.54 -3.73,-27.06 -9.13,-40.61 -5.42,-12.17 -12.51,-22.99 -21.32,-32.49 -8.78,-9.45 -19.26,-16.91 -31.43,-22.3 -12.19,-5.4 -26.38,-8.12 -42.62,-8.12 -13.54,0 -26.72,2.72 -39.58,8.12 -12.17,5.4 -22.99,12.54 -32.46,21.3 -9.47,8.83 -17.25,19.29 -23.33,31.46 -5.4,12.17 -8.12,25.39 -8.12,39.6l0 278.98 -95.37 0zm790.37 189.76c-27.75,10.13 -56.14,15.21 -85.24,15.21 -24.34,0 -46.33,-3.09 -65.95,-9.13 -19.61,-6.09 -38.2,-13.91 -55.8,-23.36l-5.06 -3.04c-2.72,-2.04 -5.08,-4.05 -7.11,-6.06l-4.05 -4.07 3.04 -5.08c22.33,-38.57 46.67,-57.83 73.05,-57.83 6.77,0 15.56,1.67 26.38,5.08l4.07 1.01c10.82,2.7 20.61,4.05 29.42,4.05 16.91,0 33.47,-2.7 49.71,-8.1 15.56,-6.09 29.42,-14.57 41.59,-25.39 13.52,-12.17 23.33,-26.01 29.42,-41.57 6.77,-18.3 10.16,-41.29 10.16,-69 -7.43,6.09 -15.21,11.51 -23.33,16.22 -15.56,9.49 -32.46,16.59 -50.72,21.3 -18.28,4.74 -37.54,7.09 -57.86,7.09 -31.78,0 -61.88,-6.41 -90.3,-19.26 -27.73,-12.17 -51.72,-29.4 -72.04,-51.75 -20.27,-20.96 -36.17,-45.96 -47.68,-75.08 -11.51,-29.08 -17.25,-60.19 -17.25,-93.31 0,-33.17 5.74,-64.28 17.25,-93.36 11.51,-29.08 27.41,-54.63 47.68,-76.61 20.31,-21.96 44.31,-39.37 72.04,-52.23 27.75,-12.83 57.83,-19.26 90.3,-19.26 20.98,0 41.09,2.68 60.37,8.1 19.29,5.4 37.04,13.18 53.28,23.33 8.78,5.42 16.91,11.51 24.34,18.28 2.7,-9.49 7.09,-17.96 13.2,-25.39 6.09,-7.41 13.52,-13.18 22.3,-17.23 8.81,-4.05 18.28,-6.09 28.41,-6.09l28.41 0 0 387.56c0,31.11 -0.34,48.7 -1.03,52.78 0.69,37.84 -5.4,71.99 -18.26,102.44 -12.17,29.76 -28.73,54.79 -49.71,75.1 -20.98,20.29 -45.32,35.16 -73.05,44.66zm-35.5 -556c-16.24,-7.46 -33.83,-11.19 -52.78,-11.19 -18.94,0 -36.17,3.73 -51.75,11.19 -16.22,7.43 -30.08,17.57 -41.59,30.43 -11.48,12.86 -20.63,28.25 -27.38,46.14 -6.77,17.94 -10.16,37.04 -10.16,57.35 0,20.29 3.39,39.21 10.16,56.78 6.75,17.62 15.9,32.83 27.38,45.66 11.51,12.86 25.37,23.01 41.59,30.47 15.58,7.41 32.81,11.14 51.75,11.14 18.94,0 36.53,-3.73 52.78,-11.14 16.22,-7.46 30.43,-17.62 42.6,-30.47 11.51,-12.83 20.82,-28.05 27.91,-45.66 7.09,-17.57 10.64,-36.49 10.64,-56.78 0,-20.31 -3.36,-39.26 -10.13,-56.85 -6.77,-17.57 -16.24,-32.94 -28.41,-46.17 -12.17,-13.18 -26.38,-23.47 -42.6,-30.91zm577.3 361.16c-22.99,8.12 -48.04,12.17 -75.08,12.17 -33.15,0 -64.26,-6.41 -93.34,-19.26 -29.76,-12.17 -55.48,-29.08 -77.12,-50.74 -21.64,-21.64 -38.73,-47.17 -51.24,-76.57 -12.49,-29.44 -18.76,-60.72 -18.76,-93.84 0,-33.15 6.09,-64.28 18.26,-93.36 12.17,-29.08 28.76,-54.47 49.73,-76.09 20.96,-21.66 45.64,-38.89 74.05,-51.75 28.41,-12.83 58.5,-19.26 90.3,-19.26 31.11,0 60.37,6.04 87.78,18.23 27.38,12.17 51.38,28.76 72.02,49.73 20.63,20.93 36.69,45.98 48.2,75.06 12.17,28.44 18.26,59.18 18.26,92.35 0,18.94 -7.09,32.1 -21.3,39.58 -8.81,4.03 -19.29,6.09 -31.46,6.09l-305.41 0c2.72,8.76 6.11,17.2 10.16,25.32 8.12,16.27 18.6,30.29 31.46,42.14 12.86,11.8 27.73,21.12 44.66,27.86 16.22,6.77 33.81,10.18 52.75,10.18 16.22,0 31.78,-2.4 46.67,-7.14l7.09 -3.04c12.86,-4.71 23.33,-7.07 31.46,-7.07 23.68,0 46.67,15.21 69,45.66l5.08 6.09 -6.11 5.08c-4.74,4.74 -9.47,8.44 -14.21,11.14 -19.61,13.54 -40.56,24.02 -62.89,31.43zm-35.5 -364.2c-14.89,-6.11 -30.79,-9.15 -47.7,-9.15 -16.91,0 -32.81,3.04 -47.68,9.15 -15.56,6.09 -29.44,14.53 -41.61,25.35 -10.13,9.47 -20.61,22.99 -31.46,40.61 -4.74,7.41 -8.12,15.85 -10.13,25.35 5.4,-3.41 10.48,-5.1 15.21,-5.1l241.49 0c-2.72,-7.43 -5.76,-14.53 -9.15,-21.3 -7.43,-14.85 -17.07,-27.86 -28.89,-39.03 -11.85,-11.19 -25.21,-19.79 -40.08,-25.87zm256.68 369.28l0 -472.77 95.37 0 0 35.48c6.09,-4.74 12.51,-8.76 19.26,-12.17 13.54,-8.1 28.07,-14.18 43.65,-18.28 15.53,-4.05 31.43,-6.04 47.68,-6.04 27.06,0 52.41,5.4 76.09,16.22 23.68,10.13 44.13,24.18 61.4,42.09 17.23,17.94 30.77,39.05 40.58,63.44 9.79,24.32 14.71,50.01 14.71,77.1l0 273.95 -95.37 0 0 -274.96c-0.69,-13.54 -3.73,-27.06 -9.15,-40.61 -5.4,-12.17 -12.49,-22.99 -21.3,-32.49 -8.78,-9.45 -19.29,-16.91 -31.46,-22.3 -12.17,-5.4 -26.38,-8.12 -42.6,-8.12 -13.54,0 -26.74,2.72 -39.58,8.12 -12.17,5.4 -23.01,12.54 -32.49,21.3 -9.45,8.83 -17.23,19.29 -23.31,31.46 -5.42,12.17 -8.12,25.39 -8.12,39.6l0 278.98 -95.37 0zm497.14 0l0 -677.75 95.37 0 0 240.46c6.09,-4.74 12.51,-8.76 19.29,-12.17 13.52,-8.1 28.07,-14.18 43.63,-18.28 15.56,-4.05 31.46,-6.04 47.68,-6.04 27.06,0 52.43,5.4 76.11,16.22 23.65,10.13 44.13,24.18 61.38,42.09 17.25,17.94 30.77,39.05 40.58,63.44 9.79,24.32 14.71,50.01 14.71,77.1l0 273.95 -95.37 0 0 -274.96c-0.69,-13.54 -3.73,-27.06 -9.13,-40.61 -5.42,-12.17 -12.51,-22.99 -21.32,-32.49 -8.78,-9.45 -19.26,-16.91 -31.43,-22.3 -12.19,-5.4 -26.4,-8.12 -42.62,-8.12 -13.52,0 -26.72,2.72 -39.58,8.12 -12.17,5.4 -22.99,12.54 -32.46,21.3 -9.47,8.83 -17.25,19.29 -23.33,31.46 -5.42,12.17 -8.12,25.39 -8.12,39.6l0 278.98 -95.37 0zm760.95 0c-18.26,4.74 -37.88,7.09 -58.84,7.09 -31.8,0 -61.9,-6.41 -90.3,-19.26 -27.75,-12.17 -51.75,-29.4 -72.06,-51.75 -20.27,-20.96 -36.17,-45.96 -47.68,-75.08 -11.48,-29.08 -17.25,-60.19 -17.25,-93.31 0,-33.17 5.76,-64.28 17.25,-93.36 11.51,-29.08 27.41,-54.63 47.68,-76.61 20.31,-21.96 44.31,-39.37 72.06,-52.23 27.73,-12.83 57.81,-19.26 90.3,-19.26 20.96,0 40.9,2.68 59.85,8.1 18.94,5.4 36.19,13.18 51.75,23.33 7.43,4.74 14.21,9.81 20.29,15.21l0 -45.64 8.12 0c23.68,0 43.97,8.46 60.88,25.35 16.91,16.91 25.37,37.2 25.37,60.85l0 386.57 -8.12 0c-49.37,0 -78.12,-13.18 -86.25,-39.58 -6.77,6.11 -14.21,11.87 -22.3,17.27 -15.58,9.45 -32.49,16.91 -50.74,22.3zm-7.11 -366.24c-15.56,-7.46 -32.78,-11.19 -51.72,-11.19 -18.96,0 -36.19,3.73 -51.75,11.19 -16.24,7.43 -30.11,17.57 -41.59,30.43 -11.51,12.86 -20.63,28.25 -27.41,46.14 -6.77,17.94 -10.13,37.04 -10.13,57.35 0,20.29 3.2,39.21 9.63,56.78 6.43,17.62 15.72,32.83 27.91,45.66 11.48,12.86 25.35,23.01 41.59,30.47 15.56,7.41 32.78,11.14 51.75,11.14 18.94,0 36.17,-3.73 51.72,-11.14 15.58,-7.46 29.1,-17.25 40.61,-29.42 11.48,-12.86 20.61,-28.09 27.38,-45.66 6.77,-17.59 10.13,-36.9 10.13,-57.83 0,-20.31 -3.36,-39.26 -10.13,-56.85 -6.09,-17.57 -15.24,-33.1 -27.38,-46.65 -10.84,-12.86 -24.36,-22.99 -40.61,-30.43zm279.01 366.24l0 -472.77 95.37 0 0 51.75c23.01,-33.86 54.81,-50.76 95.4,-50.76 34.48,0 63.23,9.49 86.22,28.41l5.08 4.09 -1.03 8.08c-3.36,5.44 -7.6,11.53 -12.67,18.26 -5.08,6.77 -13.36,14.89 -24.84,24.36 -11.51,9.49 -22.67,14.21 -33.49,14.21l-48.7 0c-21.64,0 -37.7,9.65 -48.18,28.92 -10.48,19.31 -15.74,40.1 -15.74,62.39l0 283.08 -97.41 0zm440.33 0l-95.37 0 0 -472.77 95.37 0 0 472.77zm14.21 -565.13c0,16.93 -5.9,31.32 -17.75,43.12 -11.83,11.85 -26.19,17.75 -43.12,17.75 -16.91,0 -31.27,-5.9 -43.1,-17.75 -11.85,-11.8 -17.78,-26.19 -17.78,-43.12 0,-16.91 5.93,-31.3 17.78,-43.1 11.83,-11.85 26.19,-17.78 43.1,-17.78 16.93,0 31.3,5.93 43.12,17.78 11.85,11.8 17.75,26.19 17.75,43.1zm352.08 565.13c-18.28,4.74 -37.88,7.09 -58.86,7.09 -31.78,0 -61.88,-6.41 -90.27,-19.26 -27.75,-12.17 -51.75,-29.4 -72.06,-51.75 -20.27,-20.96 -36.17,-45.96 -47.68,-75.08 -11.51,-29.08 -17.25,-60.19 -17.25,-93.31 0,-33.17 5.74,-64.28 17.25,-93.36 11.51,-29.08 27.41,-54.63 47.68,-76.61 20.31,-21.96 44.31,-39.37 72.06,-52.23 27.73,-12.83 57.81,-19.26 90.27,-19.26 20.98,0 40.93,2.68 59.87,8.1 18.94,5.4 36.19,13.18 51.75,23.33 7.43,4.74 14.21,9.81 20.29,15.21l0 -45.64 8.12 0c23.68,0 43.95,8.46 60.88,25.35 16.91,16.91 25.35,37.2 25.35,60.85l0 386.57 -8.1 0c-49.39,0 -78.12,-13.18 -86.25,-39.58 -6.77,6.11 -14.21,11.87 -22.33,17.27 -15.56,9.45 -32.46,16.91 -50.72,22.3zm-7.11 -366.24c-15.56,-7.46 -32.81,-11.19 -51.75,-11.19 -18.94,0 -36.17,3.73 -51.75,11.19 -16.22,7.43 -30.08,17.57 -41.59,30.43 -11.48,12.86 -20.63,28.25 -27.38,46.14 -6.77,17.94 -10.16,37.04 -10.16,57.35 0,20.29 3.23,39.21 9.65,56.78 6.43,17.62 15.72,32.83 27.89,45.66 11.51,12.86 25.37,23.01 41.59,30.47 15.58,7.41 32.81,11.14 51.75,11.14 18.94,0 36.19,-3.73 51.75,-11.14 15.58,-7.46 29.1,-17.25 40.58,-29.42 11.51,-12.86 20.63,-28.09 27.41,-45.66 6.75,-17.59 10.13,-36.9 10.13,-57.83 0,-20.31 -3.39,-39.26 -10.13,-56.85 -6.09,-17.57 -15.24,-33.1 -27.41,-46.65 -10.82,-12.86 -24.34,-22.99 -40.58,-30.43zm482.95 364.2c-20.29,5.44 -41.27,8.12 -62.91,8.12 -34.5,0 -66.46,-10.8 -95.88,-32.44 -29.42,-21.66 -51.59,-44.34 -66.46,-68.01l-3.04 -6.09 4.05 -4.03c18.96,-19.63 38.91,-29.44 59.87,-29.44 18.26,0 35.16,7.09 50.74,21.3 19.61,17.59 36.51,26.4 50.72,26.4 8.81,0 17.94,-1.37 27.41,-4.05 8.78,-2.04 17.25,-5.44 25.35,-10.18 6.77,-4.71 12.51,-10.11 17.25,-16.2 3.39,-5.42 5.08,-12.17 5.08,-20.31 0,-6.77 -1.69,-12.49 -5.08,-17.23 -4.74,-6.77 -10.82,-12.54 -18.26,-17.25 -8.78,-6.09 -18.6,-10.82 -29.42,-14.23 -10.82,-4.71 -21.98,-8.44 -33.49,-11.16 -16.91,-4.74 -33.13,-10.82 -48.7,-18.23 -16.22,-8.12 -30.77,-17.62 -43.6,-28.44 -14.89,-12.86 -26.74,-27.38 -35.53,-43.6 -7.43,-14.92 -11.16,-31.11 -11.16,-48.7 0,-20.31 3.73,-39.05 11.16,-56.3 7.43,-17.27 17.94,-32.14 31.46,-44.68 13.52,-12.49 29.76,-22.12 48.7,-28.89 18.94,-6.11 39.23,-9.15 60.88,-9.15 32.46,0 61.88,7.09 88.26,21.3 13.54,6.79 26.88,16.75 40.08,29.95 13.18,13.22 21.82,25.53 25.87,37.01l2.04 5.12 -4.07 4.03c-17.59,16.22 -36.51,24.34 -56.8,24.34 -14.21,0 -28.41,-4.03 -42.62,-12.17 -6.77,-3.36 -15.9,-7.07 -27.38,-11.16 -11.51,-4.05 -19.97,-6.09 -25.37,-6.09 -9.47,0 -17.94,1.35 -25.37,4.07 -7.43,2.7 -13.52,6.11 -18.26,10.13 -4.74,4.05 -8.28,8.81 -10.66,14.23 -2.36,5.4 -3.55,11.48 -3.55,18.26 0,5.42 1.01,9.81 3.04,13.18 3.39,5.4 7.78,9.81 13.2,13.18 6.75,4.76 13.84,8.49 21.3,11.16 8.78,3.41 16.91,6.09 24.34,8.14l13.2 3.04c22.33,6.09 42.28,13.84 59.85,23.31 18.28,8.81 34.18,19.31 47.7,31.48 13.52,12.86 24,27.04 31.46,42.6 8.12,16.22 12.17,33.81 12.17,52.75 0,22.99 -5.08,43.65 -15.21,61.88 -9.47,18.26 -22.33,33.51 -38.57,45.69 -7.43,6.09 -15.72,11.3 -24.84,15.69 -9.13,4.42 -18.78,8.3 -28.92,11.67zm822.84 -3.04c-23.01,8.12 -48.04,12.17 -75.08,12.17 -33.15,0 -64.26,-6.41 -93.36,-19.26 -29.74,-12.17 -55.45,-29.08 -77.1,-50.74 -21.66,-21.64 -38.73,-47.17 -51.24,-76.57 -12.51,-29.44 -18.76,-60.72 -18.76,-93.84 0,-33.15 6.09,-64.28 18.26,-93.36 12.17,-29.08 28.76,-54.47 49.71,-76.09 20.96,-21.66 45.66,-38.89 74.08,-51.75 28.41,-12.83 58.5,-19.26 90.3,-19.26 31.11,0 60.37,6.04 87.76,18.23 27.38,12.17 51.4,28.76 72.04,49.73 20.63,20.93 36.69,45.98 48.2,75.06 12.17,28.44 18.26,59.18 18.26,92.35 0,18.94 -7.11,32.1 -21.3,39.58 -8.81,4.03 -19.29,6.09 -31.46,6.09l-305.41 0c2.72,8.76 6.09,17.2 10.16,25.32 8.12,16.27 18.6,30.29 31.46,42.14 12.83,11.8 27.73,21.12 44.63,27.86 16.24,6.77 33.81,10.18 52.75,10.18 16.24,0 31.8,-2.4 46.69,-7.14l7.09 -3.04c12.86,-4.71 23.33,-7.07 31.43,-7.07 23.7,0 46.69,15.21 69.02,45.66l5.06 6.09 -6.09 5.08c-4.74,4.74 -9.47,8.44 -14.21,11.14 -19.61,13.54 -40.58,24.02 -62.89,31.43zm-35.53 -364.2c-14.87,-6.11 -30.77,-9.15 -47.68,-9.15 -16.91,0 -32.81,3.04 -47.7,9.15 -15.53,6.09 -29.42,14.53 -41.59,25.35 -10.16,9.47 -20.63,22.99 -31.46,40.61 -4.74,7.41 -8.12,15.85 -10.13,25.35 5.4,-3.41 10.48,-5.1 15.21,-5.1l241.47 0c-2.7,-7.43 -5.74,-14.53 -9.13,-21.3 -7.43,-14.85 -17.07,-27.86 -28.92,-39.03 -11.83,-11.19 -25.19,-19.79 -40.08,-25.87zm1041.97 359.17c-36.51,12.83 -76.09,19.24 -118.71,19.24 -48.68,0 -94.69,-9.13 -137.97,-27.38 -42.62,-18.26 -79.82,-43.47 -111.59,-75.59 -31.8,-32.12 -57.17,-69.84 -76.11,-113.13 -18.26,-42.62 -27.38,-88.6 -27.38,-137.97 0,-32.49 4.23,-63.76 12.67,-93.84 8.46,-30.11 20.29,-58.2 35.5,-84.23 15.21,-26.03 33.65,-49.89 55.32,-71.51 21.62,-21.66 45.64,-40.24 72.02,-55.82 26.38,-15.56 54.47,-27.41 84.21,-35.5 30.45,-8.81 61.9,-13.2 94.37,-13.2 41.93,0 81.17,6.75 117.68,20.29 35.85,13.54 69.34,32.12 100.45,55.8l6.09 4.07 -3.04 5.06c-3.39,7.43 -9.31,14.89 -17.75,22.35 -8.46,7.43 -18.94,13.86 -31.46,19.26 -12.51,5.4 -25.19,8.12 -38.04,8.12 -12.17,0 -23.33,-2.72 -33.47,-8.12 -36.53,-18.94 -69,-28.39 -97.41,-28.39 -24.34,0 -47.36,3.04 -69,9.13 -22.3,6.09 -43.28,14.69 -62.89,25.87 -19.63,11.14 -37.22,24.87 -52.78,41.09 -15.56,16.22 -29.08,33.49 -40.58,51.75 -10.82,19.61 -19.29,40.24 -25.35,61.86 -6.11,21.69 -9.15,43.99 -9.15,66.98 0,23.65 3.04,46.33 9.15,67.99 6.06,21.64 14.71,41.93 25.87,60.88 11.14,18.9 24.68,36.17 40.56,51.75 15.9,15.56 33.33,29.08 52.27,40.58 18.92,10.8 39.21,19.24 60.85,25.32 21.64,6.11 43.97,9.15 66.96,9.15 39.23,0 77.8,-9.81 115.67,-29.4 12.19,-6.13 24.02,-9.17 35.5,-9.17 27.75,0 51.43,16.56 71.03,49.76l3.04 6.06 -5.06 4.05c-31.11,24.34 -64.95,43.28 -101.48,56.85zm270.91 10.11l-95.37 0 0 -472.77 95.37 0 0 472.77zm14.21 -565.13c0,16.93 -5.93,31.32 -17.75,43.12 -11.83,11.85 -26.22,17.75 -43.12,17.75 -16.91,0 -31.3,-5.9 -43.12,-17.75 -11.83,-11.8 -17.75,-26.19 -17.75,-43.12 0,-16.91 5.93,-31.3 17.75,-43.1 11.83,-11.85 26.22,-17.78 43.12,-17.78 16.91,0 31.3,5.93 43.12,17.78 11.83,11.8 17.75,26.19 17.75,43.1zm380.47 560.05c-22.99,8.12 -48.02,12.17 -75.08,12.17 -33.15,0 -64.26,-6.41 -93.34,-19.26 -29.76,-12.17 -55.48,-29.08 -77.12,-50.74 -21.64,-21.64 -38.71,-47.17 -51.22,-76.57 -12.51,-29.44 -18.78,-60.72 -18.78,-93.84 0,-33.15 6.09,-64.28 18.28,-93.36 12.15,-29.08 28.73,-54.47 49.71,-76.09 20.96,-21.66 45.66,-38.89 74.05,-51.75 28.41,-12.83 58.52,-19.26 90.32,-19.26 31.11,0 60.35,6.04 87.76,18.23 27.38,12.17 51.4,28.76 72.04,49.73 20.61,20.93 36.67,45.98 48.18,75.06 12.17,28.44 18.28,59.18 18.28,92.35 0,18.94 -7.11,32.1 -21.32,39.58 -8.78,4.03 -19.26,6.09 -31.46,6.09l-305.38 0c2.7,8.76 6.09,17.2 10.16,25.32 8.1,16.27 18.58,30.29 31.43,42.14 12.86,11.8 27.73,21.12 44.66,27.86 16.22,6.77 33.81,10.18 52.75,10.18 16.22,0 31.8,-2.4 46.67,-7.14l7.09 -3.04c12.86,-4.71 23.33,-7.07 31.46,-7.07 23.68,0 46.67,15.21 69,45.66l5.08 6.09 -6.09 5.08c-4.74,4.74 -9.47,8.44 -14.21,11.14 -19.63,13.54 -40.58,24.02 -62.91,31.43zm-35.5 -364.2c-14.89,-6.11 -30.77,-9.15 -47.68,-9.15 -16.93,0 -32.83,3.04 -47.7,9.15 -15.56,6.09 -29.42,14.53 -41.59,25.35 -10.16,9.47 -20.63,22.99 -31.46,40.61 -4.74,7.41 -8.12,15.85 -10.16,25.35 5.42,-3.41 10.5,-5.1 15.21,-5.1l241.49 0c-2.72,-7.43 -5.76,-14.53 -9.15,-21.3 -7.43,-14.85 -17.07,-27.86 -28.89,-39.03 -11.85,-11.19 -25.21,-19.79 -40.08,-25.87zm256.68 369.28l0 -472.77 95.37 0 0 35.48c6.09,-4.74 12.51,-8.76 19.29,-12.17 13.52,-8.1 28.07,-14.18 43.63,-18.28 15.56,-4.05 31.46,-6.04 47.68,-6.04 27.06,0 52.41,5.4 76.09,16.22 23.68,10.13 44.15,24.18 61.4,42.09 17.23,17.94 30.77,39.05 40.58,63.44 9.79,24.32 14.71,50.01 14.71,77.1l0 273.95 -95.37 0 0 -274.96c-0.69,-13.54 -3.73,-27.06 -9.15,-40.61 -5.4,-12.17 -12.49,-22.99 -21.3,-32.49 -8.78,-9.45 -19.29,-16.91 -31.46,-22.3 -12.17,-5.4 -26.38,-8.12 -42.6,-8.12 -13.54,0 -26.72,2.72 -39.58,8.12 -12.17,5.4 -22.99,12.54 -32.46,21.3 -9.47,8.83 -17.25,19.29 -23.33,31.46 -5.42,12.17 -8.12,25.39 -8.12,39.6l0 278.98 -95.37 0zm795.45 -11.16c-27.06,12.17 -56.83,18.26 -89.29,18.26 -33.15,0 -64.26,-6.41 -93.36,-19.26 -27.73,-12.86 -52.07,-30.08 -73.05,-51.75 -20.98,-22.3 -37.2,-48.02 -48.7,-77.1 -11.48,-29.08 -17.23,-60.19 -17.23,-93.36 0,-33.1 5.74,-64.24 17.23,-93.34 11.51,-29.08 27.73,-54.61 48.7,-76.59 20.98,-21.96 45.66,-39.07 74.08,-51.24 28.39,-12.83 59.18,-19.29 92.33,-19.29 30.43,0 58.84,5.42 85.22,16.24 26.38,10.16 50.05,24.71 71.03,43.65 3.36,1.99 7.09,5.4 11.16,10.11l4.05 5.1 -4.05 5.06c-19.63,25.69 -41.61,38.55 -65.95,38.55 -12.86,0 -28.41,-4.03 -46.69,-12.17 -16.22,-7.43 -34.16,-11.16 -53.76,-11.16 -20.29,0 -38.55,3.73 -54.79,11.16 -16.22,7.46 -30.43,17.75 -42.62,30.98 -12.17,13.15 -21.64,28.73 -28.39,46.65 -6.77,17.94 -10.16,36.69 -10.16,56.3 0,20.31 3.39,39.26 10.16,56.85 6.75,17.57 16.22,33.1 28.39,46.65 12.19,12.86 26.4,22.99 42.62,30.43 16.24,7.46 34.5,11.19 54.79,11.19 9.47,0 18.6,-1.01 27.38,-3.04 11.51,-2.72 20.31,-5.76 26.38,-9.13 13.54,-7.46 27.06,-11.19 40.58,-11.19 27.75,0 50.4,13.86 67.99,41.61l4.07 6.11 -5.1 4.03c-21.64,21 -45.98,37.56 -73.02,49.71zm245.51 11.16l-95.37 0 0 -472.77 95.37 0 0 472.77zm14.21 -565.13c0,16.93 -5.93,31.32 -17.75,43.12 -11.85,11.85 -26.22,17.75 -43.12,17.75 -16.91,0 -31.3,-5.9 -43.12,-17.75 -11.83,-11.8 -17.75,-26.19 -17.75,-43.12 0,-16.91 5.93,-31.3 17.75,-43.1 11.83,-11.85 26.22,-17.78 43.12,-17.78 16.91,0 31.27,5.93 43.12,17.78 11.83,11.8 17.75,26.19 17.75,43.1zm352.05 565.13c-18.26,4.74 -37.88,7.09 -58.84,7.09 -31.8,0 -61.88,-6.41 -90.3,-19.26 -27.73,-12.17 -51.75,-29.4 -72.04,-51.75 -20.29,-20.96 -36.19,-45.96 -47.7,-75.08 -11.48,-29.08 -17.25,-60.19 -17.25,-93.31 0,-33.17 5.76,-64.28 17.25,-93.36 11.51,-29.08 27.41,-54.63 47.7,-76.61 20.29,-21.96 44.31,-39.37 72.04,-52.23 27.73,-12.83 57.83,-19.26 90.3,-19.26 20.96,0 40.93,2.68 59.87,8.1 18.94,5.4 36.17,13.18 51.75,23.33 7.41,4.74 14.18,9.81 20.27,15.21l0 -45.64 8.12 0c23.68,0 43.97,8.46 60.88,25.35 16.91,16.91 25.37,37.2 25.37,60.85l0 386.57 -8.12 0c-49.37,0 -78.12,-13.18 -86.25,-39.58 -6.75,6.11 -14.18,11.87 -22.3,17.27 -15.56,9.45 -32.46,16.91 -50.74,22.3zm-7.09 -366.24c-15.56,-7.46 -32.81,-11.19 -51.75,-11.19 -18.94,0 -36.19,3.73 -51.75,11.19 -16.24,7.43 -30.11,17.57 -41.59,30.43 -11.51,12.86 -20.63,28.25 -27.41,46.14 -6.75,17.94 -10.13,37.04 -10.13,57.35 0,20.29 3.2,39.21 9.63,56.78 6.43,17.62 15.72,32.83 27.91,45.66 11.48,12.86 25.35,23.01 41.59,30.47 15.56,7.41 32.81,11.14 51.75,11.14 18.94,0 36.19,-3.73 51.75,-11.14 15.56,-7.46 29.08,-17.25 40.58,-29.42 11.48,-12.86 20.63,-28.09 27.38,-45.66 6.77,-17.59 10.16,-36.9 10.16,-57.83 0,-20.31 -3.39,-39.26 -10.16,-56.85 -6.09,-17.57 -15.21,-33.1 -27.38,-46.65 -10.82,-12.86 -24.36,-22.99 -40.58,-30.43zm482.93 364.2c-20.29,5.44 -41.27,8.12 -62.91,8.12 -34.48,0 -66.46,-10.8 -95.88,-32.44 -29.42,-21.66 -51.56,-44.34 -66.46,-68.01l-3.04 -6.09 4.07 -4.03c18.94,-19.63 38.89,-29.44 59.87,-29.44 18.26,0 35.16,7.09 50.72,21.3 19.61,17.59 36.51,26.4 50.72,26.4 8.81,0 17.94,-1.37 27.41,-4.05 8.78,-2.04 17.25,-5.44 25.37,-10.18 6.77,-4.71 12.51,-10.11 17.25,-16.2 3.36,-5.42 5.06,-12.17 5.06,-20.31 0,-6.77 -1.69,-12.49 -5.06,-17.23 -4.74,-6.77 -10.82,-12.54 -18.28,-17.25 -8.78,-6.09 -18.58,-10.82 -29.42,-14.23 -10.82,-4.71 -21.98,-8.44 -33.47,-11.16 -16.91,-4.74 -33.15,-10.82 -48.7,-18.23 -16.24,-8.12 -30.79,-17.62 -43.63,-28.44 -14.89,-12.86 -26.72,-27.38 -35.5,-43.6 -7.46,-14.92 -11.16,-31.11 -11.16,-48.7 0,-20.31 3.71,-39.05 11.16,-56.3 7.43,-17.27 17.91,-32.14 31.43,-44.68 13.54,-12.49 29.76,-22.12 48.7,-28.89 18.94,-6.11 39.23,-9.15 60.88,-9.15 32.46,0 61.88,7.09 88.28,21.3 13.52,6.79 26.88,16.75 40.06,29.95 13.2,13.22 21.82,25.53 25.87,37.01l2.04 5.12 -4.05 4.03c-17.59,16.22 -36.53,24.34 -56.83,24.34 -14.21,0 -28.39,-4.03 -42.6,-12.17 -6.77,-3.36 -15.9,-7.07 -27.41,-11.16 -11.51,-4.05 -19.95,-6.09 -25.37,-6.09 -9.45,0 -17.91,1.35 -25.35,4.07 -7.46,2.7 -13.54,6.11 -18.28,10.13 -4.74,4.05 -8.28,8.81 -10.64,14.23 -2.38,5.4 -3.57,11.48 -3.57,18.26 0,5.42 1.01,9.81 3.07,13.18 3.36,5.4 7.78,9.81 13.18,13.18 6.77,4.76 13.86,8.49 21.3,11.16 8.78,3.41 16.91,6.09 24.36,8.14l13.18 3.04c22.33,6.09 42.28,13.84 59.87,23.31 18.26,8.81 34.16,19.31 47.68,31.48 13.54,12.86 24.02,27.04 31.46,42.6 8.12,16.22 12.17,33.81 12.17,52.75 0,22.99 -5.06,43.65 -15.21,61.88 -9.47,18.26 -22.33,33.51 -38.55,45.69 -7.46,6.09 -15.74,11.3 -24.87,15.69 -9.13,4.42 -18.76,8.3 -28.92,11.67zm1005.46 5.08l-467.74 0 0 -693.97 474.83 0 0 96.4 -377.42 0 0 138.98 296.28 0 0 97.43 -296.28 0 0 264.8 370.33 0 0 96.36zm480.92 -3.04l-74.08 0c-15.56,0 -28.73,-2.72 -39.55,-8.12 -10.84,-5.4 -21.32,-15.88 -31.46,-31.46 -17.59,-25.03 -41.27,-59.5 -71.03,-103.47l-73.05 105.53c-14.87,25.03 -41.59,37.52 -80.14,37.52l-62.91 0 158.26 -227.28 -161.31 -247.55 71.01 0 10.16 0c20.96,0 36.85,7.48 47.68,22.33l91.32 141.06c38.55,-58.2 67.62,-101.83 87.25,-130.9 14.21,-20.29 36.53,-30.43 66.96,-30.43l75.08 0 -165.38 246.54 151.17 226.23zm311.47 0c-18.26,4.74 -37.88,7.09 -58.84,7.09 -31.78,0 -61.88,-6.41 -90.3,-19.26 -27.73,-12.17 -51.75,-29.4 -72.04,-51.75 -20.29,-20.96 -36.19,-45.96 -47.68,-75.08 -11.51,-29.08 -17.27,-60.19 -17.27,-93.31 0,-33.17 5.76,-64.28 17.27,-93.36 11.48,-29.08 27.38,-54.63 47.68,-76.61 20.29,-21.96 44.31,-39.37 72.04,-52.23 27.73,-12.83 57.83,-19.26 90.3,-19.26 20.96,0 40.93,2.68 59.87,8.1 18.94,5.4 36.17,13.18 51.75,23.33 7.41,4.74 14.18,9.81 20.27,15.21l0 -45.64 8.12 0c23.68,0 43.97,8.46 60.88,25.35 16.91,16.91 25.37,37.2 25.37,60.85l0 386.57 -8.12 0c-49.37,0 -78.12,-13.18 -86.25,-39.58 -6.75,6.11 -14.18,11.87 -22.3,17.27 -15.56,9.45 -32.46,16.91 -50.74,22.3zm-7.09 -366.24c-15.56,-7.46 -32.81,-11.19 -51.75,-11.19 -18.94,0 -36.19,3.73 -51.75,11.19 -16.24,7.43 -30.11,17.57 -41.59,30.43 -11.51,12.86 -20.63,28.25 -27.41,46.14 -6.75,17.94 -10.13,37.04 -10.13,57.35 0,20.29 3.2,39.21 9.63,56.78 6.43,17.62 15.72,32.83 27.91,45.66 11.48,12.86 25.35,23.01 41.59,30.47 15.56,7.41 32.81,11.14 51.75,11.14 18.94,0 36.19,-3.73 51.75,-11.14 15.56,-7.46 29.08,-17.25 40.58,-29.42 11.48,-12.86 20.63,-28.09 27.38,-45.66 6.77,-17.59 10.16,-36.9 10.16,-57.83 0,-20.31 -3.39,-39.26 -10.16,-56.85 -6.09,-17.57 -15.21,-33.1 -27.38,-46.65 -10.82,-12.86 -24.36,-22.99 -40.58,-30.43zm308.43 368.3l0 -370.35 -58.84 0 0 -39.58c0,-15.53 5.42,-28.55 16.22,-39.03 10.82,-10.5 23.68,-15.74 38.57,-15.74l4.05 0 0 -55.8c0,-48.02 22.33,-72.06 66.96,-72.06l30.43 0 0 127.86 82.2 0 0 27.38c0,18.26 -6.59,34 -19.79,47.17 -13.18,13.22 -28.92,19.79 -47.17,19.79l-15.24 0 0 272.94c0,27.04 -9.45,50.05 -28.39,69 -18.94,18.92 -41.93,28.41 -69,28.41zm497.14 -2.06c-18.26,4.74 -37.86,7.09 -58.84,7.09 -31.78,0 -61.88,-6.41 -90.3,-19.26 -27.73,-12.17 -51.75,-29.4 -72.04,-51.75 -20.29,-20.96 -36.19,-45.96 -47.68,-75.08 -11.51,-29.08 -17.25,-60.19 -17.25,-93.31 0,-33.17 5.74,-64.28 17.25,-93.36 11.48,-29.08 27.38,-54.63 47.68,-76.61 20.29,-21.96 44.31,-39.37 72.04,-52.23 27.75,-12.83 57.83,-19.26 90.3,-19.26 20.98,0 40.93,2.68 59.87,8.1 18.94,5.4 36.19,13.18 51.75,23.33 7.43,4.74 14.18,9.81 20.29,15.21l0 -45.64 8.1 0c23.7,0 43.97,8.46 60.9,25.35 16.91,16.91 25.35,37.2 25.35,60.85l0 386.57 -8.12 0c-49.37,0 -78.12,-13.18 -86.22,-39.58 -6.77,6.11 -14.21,11.87 -22.33,17.27 -15.56,9.45 -32.46,16.91 -50.74,22.3zm-7.09 -366.24c-15.56,-7.46 -32.81,-11.19 -51.75,-11.19 -18.94,0 -36.17,3.73 -51.75,11.19 -16.22,7.43 -30.08,17.57 -41.59,30.43 -11.48,12.86 -20.63,28.25 -27.38,46.14 -6.77,17.94 -10.16,37.04 -10.16,57.35 0,20.29 3.23,39.21 9.65,56.78 6.43,17.62 15.72,32.83 27.89,45.66 11.51,12.86 25.37,23.01 41.59,30.47 15.58,7.41 32.81,11.14 51.75,11.14 18.94,0 36.19,-3.73 51.75,-11.14 15.56,-7.46 29.1,-17.25 40.58,-29.42 11.51,-12.86 20.63,-28.09 27.41,-45.66 6.75,-17.59 10.13,-36.9 10.13,-57.83 0,-20.31 -3.39,-39.26 -10.13,-56.85 -6.11,-17.57 -15.24,-33.1 -27.41,-46.65 -10.82,-12.86 -24.34,-22.99 -40.58,-30.43zm482.95 364.2c-20.31,5.44 -41.27,8.12 -62.91,8.12 -34.5,0 -66.46,-10.8 -95.88,-32.44 -29.42,-21.66 -51.59,-44.34 -66.46,-68.01l-3.04 -6.09 4.05 -4.03c18.94,-19.63 38.89,-29.44 59.87,-29.44 18.26,0 35.16,7.09 50.72,21.3 19.63,17.59 36.53,26.4 50.74,26.4 8.81,0 17.91,-1.37 27.38,-4.05 8.81,-2.04 17.27,-5.44 25.37,-10.18 6.77,-4.71 12.51,-10.11 17.25,-16.2 3.39,-5.42 5.08,-12.17 5.08,-20.31 0,-6.77 -1.69,-12.49 -5.08,-17.23 -4.74,-6.77 -10.82,-12.54 -18.26,-17.25 -8.78,-6.09 -18.6,-10.82 -29.42,-14.23 -10.84,-4.71 -21.98,-8.44 -33.49,-11.16 -16.91,-4.74 -33.15,-10.82 -48.7,-18.23 -16.22,-8.12 -30.77,-17.62 -43.6,-28.44 -14.89,-12.86 -26.74,-27.38 -35.53,-43.6 -7.43,-14.92 -11.16,-31.11 -11.16,-48.7 0,-20.31 3.73,-39.05 11.16,-56.3 7.43,-17.27 17.94,-32.14 31.46,-44.68 13.52,-12.49 29.76,-22.12 48.7,-28.89 18.94,-6.11 39.21,-9.15 60.85,-9.15 32.49,0 61.9,7.09 88.28,21.3 13.52,6.79 26.88,16.75 40.08,29.95 13.18,13.22 21.82,25.53 25.87,37.01l2.04 5.12 -4.07 4.03c-17.59,16.22 -36.51,24.34 -56.8,24.34 -14.23,0 -28.41,-4.03 -42.62,-12.17 -6.77,-3.36 -15.9,-7.07 -27.41,-11.16 -11.48,-4.05 -19.95,-6.09 -25.37,-6.09 -9.45,0 -17.91,1.35 -25.35,4.07 -7.43,2.7 -13.52,6.11 -18.26,10.13 -4.74,4.05 -8.28,8.81 -10.66,14.23 -2.36,5.4 -3.55,11.48 -3.55,18.26 0,5.42 1.01,9.81 3.04,13.18 3.39,5.4 7.78,9.81 13.18,13.18 6.77,4.76 13.86,8.49 21.32,11.16 8.78,3.41 16.91,6.09 24.34,8.14l13.2 3.04c22.3,6.09 42.28,13.84 59.85,23.31 18.28,8.81 34.16,19.31 47.7,31.48 13.52,12.86 24,27.04 31.46,42.6 8.12,16.22 12.17,33.81 12.17,52.75 0,22.99 -5.08,43.65 -15.21,61.88 -9.47,18.26 -22.33,33.51 -38.57,45.69 -7.43,6.09 -15.72,11.3 -24.84,15.69 -9.15,4.42 -18.78,8.3 -28.92,11.67zm-5292.44 -637.72l56.78 0 118.07 135.89 -26.9 0 -119.81 -89.68 -119.81 89.68 -26.93 0 118.59 -135.89z"/>
  <polygon class="fil0" points="1173.38,5495.35 5406.11,5495.35 5406.11,5776.81 1173.38,5776.81 "/>
  <polygon class="fil2" points="9638.82,5495.35 5406.11,5495.35 5406.11,5776.81 9638.82,5776.81 "/>
  <polygon class="fil3" points="13871.55,5495.35 9638.82,5495.35 9638.82,5776.81 13871.55,5776.81 "/>
 </g>
</svg>
