<?xml version="1.0" encoding="UTF-8"?>
<!DOCTYPE svg PUBLIC "-//W3C//DTD SVG 1.1//EN" "http://www.w3.org/Graphics/SVG/1.1/DTD/svg11.dtd">
<!-- Creator: CorelDRAW -->
<svg xmlns="http://www.w3.org/2000/svg" xml:space="preserve" width="115.699mm" height="48.1826mm" version="1.1" style="shape-rendering:geometricPrecision; text-rendering:geometricPrecision; image-rendering:optimizeQuality; fill-rule:evenodd; clip-rule:evenodd"
viewBox="0 0 11131.69 4635.78"
 xmlns:xlink="http://www.w3.org/1999/xlink"
 xmlns:xodm="http://www.corel.com/coreldraw/odm/2003">
 <defs>
  <style type="text/css">
   <![CDATA[
    .fil2 {fill:#4A32A2}
    .fil3 {fill:#793AB1}
    .fil4 {fill:#C647CA}
    .fil1 {fill:#793AB1;fill-rule:nonzero}
    .fil0 {fill:url(#id0)}
   ]]>
  </style>
  <linearGradient id="id0" gradientUnits="userSpaceOnUse" x1="-0.08" y1="1603.09" x2="11131.77" y2="1603.09">
   <stop offset="0" style="stop-opacity:1; stop-color:#4A32A2"/>
   <stop offset="1" style="stop-opacity:1; stop-color:#C647CA"/>
  </linearGradient>
 </defs>
 <g id="Camada_x0020_1">
  <metadata id="CorelCorpID_0Corel-Layer"/>
  <path class="fil0" d="M2059.74 2322.77c143.9,34.66 457.45,43.83 578.75,-0.88 53.39,-233.85 -86.49,-216.33 30.6,-415.71l-98.57 -56.46c178.47,-74.55 113.75,-76.28 86.06,-244.38 78.55,-17.65 138.57,-73.16 93.36,-150.04 -48.11,-81.77 -183.5,-100.2 -244.45,-285.18 -30.02,-431.4 -301.04,-832.46 -963.56,-862.12 -21.17,-112.92 -120.27,-198.38 -239.33,-198.38 -134.5,0 -243.52,109.04 -243.52,243.51 0,32.99 6.55,64.43 18.43,93.11l-470.35 136.43c-19.26,-23.7 -48.66,-38.87 -81.59,-38.87 -58.05,0 -105.1,47.07 -105.1,105.1 0,58.05 47.05,105.11 105.1,105.11 31.9,0 60.48,-14.24 79.76,-36.68l780.85 200.37c-2.24,11.02 -3.42,22.44 -3.42,34.11 0,12.51 1.38,24.72 3.93,36.46l-1083.34 85.44c-10.11,-74.33 -73.84,-131.65 -150.98,-131.65 -84.15,0 -152.36,68.24 -152.36,152.38 0,84.16 68.21,152.37 152.36,152.37 73.81,0 135.35,-52.49 149.38,-122.17l1104.18 -87.1c29.51,50.46 84.26,84.35 146.93,84.35 3.37,0 6.7,-0.09 10,-0.3l71.46 405.34c-36.95,8.32 -70.7,25.11 -99.05,48.26l-264.34 -217.34c4.29,-11.45 6.63,-23.84 6.63,-36.79 0,-58.04 -47.07,-105.08 -105.12,-105.08 -58.04,0 -105.08,47.05 -105.08,105.08 0,58.05 47.05,105.12 105.08,105.12 26.77,0 51.19,-10.02 69.75,-26.48l257.32 211.56c-12.63,15.77 -23.33,33.16 -31.71,51.8l-324.46 -22.94c-0.39,-91.55 -74.72,-165.65 -166.37,-165.65 -91.88,0 -166.39,74.51 -166.39,166.39 0,91.89 74.51,166.38 166.39,166.38 33.39,0 64.51,-9.85 90.55,-26.78l490.02 560c-7.29,-1.89 -14.93,-2.91 -22.82,-2.91 -22.99,0 -43.98,8.53 -59.99,22.61l-1005.71 -400.22c2.27,-8.6 3.47,-17.66 3.47,-26.95 0,-58.05 -47.05,-105.11 -105.1,-105.11 -58.04,0 -105.1,47.06 -105.1,105.11 0,58.05 47.07,105.1 105.1,105.1 30.38,0 57.75,-12.87 76.92,-33.49l1002.88 399.09c-2.23,7.9 -3.43,16.22 -3.43,24.83 0,11.4 2.11,22.3 5.94,32.37 -29.65,137.66 -59.06,251.78 -7.32,378.83 46.15,162.17 174.7,296.33 323.89,366.17l-31.98 -44.07c-34.49,-50.6 -59.38,-106.52 -75.15,-174.59 -28.47,-76.97 -18.98,-176.65 1.96,-256.2 43.45,-165.01 120.95,-83.62 181.01,-240.63 54.21,-141.64 118.58,-84.98 217.65,-167.67zm-506.89 -1541.04c75.87,0 140.13,49.71 162.05,118.33l518.22 -79.74c-265.47,-301.29 -561.53,-336.58 -708.51,-366.96 -20.88,46.15 -55.73,84.65 -99.17,110.06l91.43 222.14c11.59,-2.49 23.63,-3.83 35.97,-3.83zm170.06 172.5c-0.58,41.5 -15.99,79.42 -41.25,108.65l664.31 540.04c2.29,-0.58 4.57,-38.66 6.81,-39.56 41.9,-36.27 6.11,-554.7 -88.63,-692.43l-541.24 83.3zm-93.91 149.73c-5.4,2.69 -10.93,5.13 -16.64,7.24l72.26 409.89 2.67 -0.02c109.33,0 201.58,72.94 230.86,172.78 25.68,20.35 38.35,20.22 102.36,14.31 219.73,-16.92 251.41,9.14 282.28,-50.22l-673.79 -553.98zm-225.26 -234.02c15.32,-27.82 38.19,-50.87 65.85,-66.43l-90.24 -219.19c-24.13,8 -49.92,12.35 -76.75,12.35 -85.39,0 -160.49,-43.95 -203.95,-110.44l-471.21 136.7c2.12,8.32 3.23,17.02 3.23,25.99 0,7.57 -0.81,14.95 -2.33,22.06l775.4 198.97zm244.58 1410.19c5.82,0 11.52,0.57 17.05,1.62l6.56 -186.53 2.95 -79.31c-10.76,-8.04 -18.99,-13.21 -25.55,-16.7 -114.81,-18.2 -202.6,-117.64 -202.6,-237.57 0,-16.8 1.73,-33.16 5.02,-48.97l-315.9 -22.35c-6.48,20.93 -16.97,40.02 -30.61,56.51l485 554.26c15.75,-13.08 35.99,-20.96 58.07,-20.96zm468.77 -2280.12c84.16,0 152.4,68.23 152.4,152.39 0,84.16 -68.24,152.38 -152.4,152.38 -84.15,0 -152.37,-68.22 -152.37,-152.38 0,-84.16 68.22,-152.39 152.37,-152.39zm205.64 304.77c51.22,0 92.74,41.52 92.74,92.75 0,51.21 -41.52,92.74 -92.74,92.74 -51.22,0 -92.75,-41.53 -92.75,-92.74 0,-51.23 41.53,-92.75 92.75,-92.75zm-82.76 2267.33c50.25,0 90.98,40.74 90.98,90.96 0,50.26 -40.73,90.99 -90.98,90.99 -50.23,0 -90.96,-40.73 -90.96,-90.99 0,-50.22 40.73,-90.96 90.96,-90.96zm-1146.85 69.13c74.69,0 135.22,60.53 135.22,135.22 0,74.66 -60.53,135.19 -135.22,135.19 -74.65,0 -135.19,-60.53 -135.19,-135.19 0,-74.69 60.54,-135.22 135.19,-135.22zm2971.32 -1349.38l32.27 29.58 -8.07 43.04c-5.38,14.34 -16.13,33.62 -32.27,57.82 -16.13,24.2 -43.47,51.98 -82.02,83.36 -38.54,31.38 -76.64,47.06 -114.29,47.06l-129.08 0c-43.03,0 -75.3,20.63 -96.81,61.86 -21.52,41.24 -32.28,86.05 -32.28,134.46l2.69 796.02 -344.22 0 0 -1339.24 338.84 0 0 72.62c59.16,-46.62 129.08,-69.93 209.76,-69.93 100.4,0 185.56,27.8 255.47,83.37zm1331.16 314.64c34.07,82.47 51.1,170.32 51.1,263.55 0,68.13 -26.89,115.63 -80.67,142.52 -28.69,14.35 -62.75,21.51 -102.19,21.51l-747.61 0c0,0 0.45,0.9 1.35,2.68 0.89,1.8 1.35,2.7 1.35,2.7 17.92,37.65 42.13,69.91 72.61,96.8 30.47,28.7 66.33,51.11 107.57,67.24 37.65,16.13 78.88,24.21 123.7,24.21 39.45,0 76.2,-6.29 110.26,-18.84l18.83 -5.37c37.65,-14.35 69.92,-21.52 96.81,-21.52 75.3,0 147.91,45.73 217.83,137.15l34.96 48.4 -43.03 37.65c-14.35,14.35 -28.69,26 -43.04,34.96 -55.57,37.65 -115.63,67.23 -180.18,88.74 -64.54,23.32 -134.46,34.96 -209.75,34.96 -93.23,0 -181.98,-17.92 -266.24,-53.77 -82.46,-35.86 -154.18,-84.26 -215.13,-145.22 -60.96,-60.96 -109.36,-132.67 -145.22,-215.13 -35.85,-82.48 -53.78,-170.77 -53.78,-264.9 0,-94.12 17.03,-182.41 51.1,-264.87 34.06,-82.48 81.13,-154.64 141.18,-216.5 60.06,-61.85 129.53,-110.69 208.42,-146.56 80.67,-35.85 166.73,-53.77 258.17,-53.77 87.84,0 171.21,17.92 250.1,53.77 77.1,32.28 145.21,78.89 204.38,139.85 57.36,59.15 103.08,129.07 137.14,209.75zm-868.62 102.19c17.93,0 199.9,0 545.92,0 -17.93,-32.28 -39.45,-60.96 -64.55,-86.05 -28.68,-25.11 -60.95,-45.72 -96.81,-61.85 -34.06,-12.57 -69.92,-18.84 -107.57,-18.84 -39.45,0 -77.1,6.27 -112.95,18.84 -34.06,14.33 -66.33,34.95 -96.81,61.85 -21.51,19.72 -43.92,48.4 -67.23,86.05zm2366.51 -88.74c32.27,82.46 48.4,170.32 48.4,263.54 0,93.22 -16.13,181.07 -48.4,263.54 -32.27,82.48 -77.09,154.18 -134.46,215.15 -57.37,60.94 -124.61,109.36 -201.69,145.21 -77.1,35.86 -160.46,53.78 -250.1,53.78 -77.09,0 -144.32,-8.96 -201.69,-26.89 -37.65,-12.56 -70.81,-26.89 -99.5,-43.04l0 53.79 -344.22 0 0 -1882.46 344.22 0 0 626.59c37.66,-25.11 80.68,-44.82 129.09,-59.17 51.99,-17.92 109.36,-26.88 172.11,-26.88 89.64,0 173.01,18.83 250.1,56.48 77.09,35.85 144.32,84.7 201.69,146.55 57.37,61.86 102.19,133.11 134.46,213.8zm-387.25 508.26c28.68,-30.49 51.1,-66.79 67.23,-108.92 16.13,-42.12 24.2,-86.95 24.2,-134.47 0,-47.5 -8.51,-92.77 -25.54,-135.8 -17.03,-43.02 -38.99,-79.77 -65.89,-110.26 -28.68,-30.47 -60.96,-53.77 -96.81,-69.91 -34.07,-17.93 -70.82,-26.9 -110.26,-26.9 -39.45,0 -76.2,8.97 -110.26,26.9 -37.65,16.13 -70.81,39.88 -99.5,71.26 -28.68,31.38 -51.09,68.13 -67.22,110.26 -16.14,42.13 -24.21,86.96 -24.21,134.46 0,47.52 8.06,92.34 24.21,134.47 16.13,42.13 38.54,78.43 67.22,108.92 28.69,30.47 60.96,54.68 96.81,72.6 35.86,16.13 73.51,24.21 112.95,24.21 39.44,0 76.19,-8.07 110.26,-24.21 35.85,-17.92 68.13,-42.13 96.81,-72.6zm1847.49 -521.71c34.07,82.47 51.1,170.32 51.1,263.55 0,68.13 -26.89,115.63 -80.67,142.52 -28.69,14.35 -62.75,21.51 -102.19,21.51l-747.61 0c0,0 0.45,0.9 1.35,2.68 0.89,1.8 1.35,2.7 1.35,2.7 17.92,37.65 42.13,69.91 72.61,96.8 30.47,28.7 66.33,51.11 107.57,67.24 37.65,16.13 78.88,24.21 123.7,24.21 39.45,0 76.2,-6.29 110.26,-18.84l18.83 -5.37c37.65,-14.35 69.92,-21.52 96.81,-21.52 75.3,0 147.91,45.73 217.83,137.15l34.96 48.4 -43.03 37.65c-14.35,14.35 -28.69,26 -43.04,34.96 -55.57,37.65 -115.63,67.23 -180.18,88.74 -64.54,23.32 -134.46,34.96 -209.75,34.96 -93.23,0 -181.98,-17.92 -266.24,-53.77 -82.46,-35.86 -154.18,-84.26 -215.13,-145.22 -60.96,-60.96 -109.36,-132.67 -145.22,-215.13 -35.85,-82.48 -53.78,-170.77 -53.78,-264.9 0,-94.12 17.03,-182.41 51.1,-264.87 34.06,-82.48 81.13,-154.64 141.18,-216.5 60.06,-61.85 129.53,-110.69 208.42,-146.56 80.67,-35.85 166.73,-53.77 258.17,-53.77 87.84,0 171.21,17.92 250.1,53.77 77.1,32.28 145.21,78.89 204.38,139.85 57.36,59.15 103.08,129.07 137.14,209.75zm-868.62 102.19c17.93,0 199.9,0 545.92,0 -17.93,-32.28 -39.45,-60.96 -64.55,-86.05 -28.68,-25.11 -60.95,-45.72 -96.81,-61.85 -34.06,-12.57 -69.92,-18.84 -107.57,-18.84 -39.45,0 -77.1,6.27 -112.95,18.84 -34.06,14.33 -66.33,34.95 -96.81,61.85 -21.51,19.72 -43.92,48.4 -67.23,86.05zm1981.95 451.79c89.64,0 162.25,43.92 217.84,131.77l26.89 43.04 -37.65 37.65c-62.75,57.37 -130.88,103.07 -204.38,137.15 -78.88,35.85 -164.04,53.77 -255.47,53.77 -95.02,0 -182.87,-18.82 -263.55,-56.47 -80.67,-35.86 -150.6,-85.16 -209.76,-147.91 -57.37,-60.95 -102.64,-132.68 -135.8,-215.14 -33.16,-82.46 -49.75,-170.32 -49.75,-263.54 0,-93.23 16.59,-181.07 49.75,-263.56 33.16,-82.46 78.88,-154.62 137.15,-216.47 58.27,-61.86 127.74,-110.72 208.42,-146.57 80.67,-35.85 168.53,-53.78 263.55,-53.78 86.05,0 166.73,15.24 242.02,45.71 73.51,28.69 139.85,69.92 199.01,123.7 8.97,5.39 20.62,16.15 34.96,32.28l32.27 37.65 -29.59 43.04c-60.95,78.88 -130.88,118.31 -209.75,118.31 -39.45,0 -86.96,-12.55 -142.53,-37.65 -37.66,-16.13 -78.88,-24.21 -123.71,-24.21 -46.62,0 -88.75,8.97 -126.39,26.9 -39.44,16.14 -73.05,39.44 -100.84,69.92 -27.79,30.49 -50.2,66.79 -67.23,108.92 -17.03,42.13 -25.54,87.4 -25.54,135.8 0,48.4 8.51,93.67 25.54,135.8 17.03,42.13 39.89,78.43 68.58,108.91 26.89,30.47 60.06,54.68 99.49,72.61 37.65,16.13 79.78,24.21 126.39,24.21 21.51,0 42.13,-1.8 61.86,-5.39 26.89,-7.17 47.51,-14.34 61.86,-21.52 41.23,-23.29 83.36,-34.95 126.38,-34.95zm1393.01 -954.68c73.51,0 137.15,26.46 190.93,79.35 53.78,52.89 80.68,116.98 80.68,192.27l0 1067.62 -64.55 0c-118.32,0 -199,-27.79 -242.02,-83.36 -8.97,7.16 -17.04,12.55 -24.21,16.13 -43.03,28.68 -91.43,50.2 -145.21,64.54 -53.79,14.35 -109.36,21.51 -166.74,21.51 -91.43,0 -177.48,-17.92 -258.17,-53.77 -77.09,-35.86 -145.21,-85.17 -204.37,-147.91 -57.37,-60.97 -102.2,-132.67 -134.47,-215.15 -32.27,-82.46 -48.4,-169.85 -48.4,-262.2 0,-92.33 16.13,-179.73 48.4,-262.19 32.27,-82.46 77.1,-154.19 134.47,-215.13 57.37,-62.76 125.49,-112.06 204.37,-147.91 80.68,-37.65 166.74,-56.48 258.17,-56.48 59.16,0 115.64,8.07 169.42,24.21 50.2,14.33 95.91,34.05 137.15,59.16l0 -80.69 64.54 0zm-94.12 817.53c16.14,-41.23 24.21,-86.95 24.21,-137.15 0,-48.4 -8.06,-93.67 -24.21,-135.8 -16.13,-42.13 -37.65,-79.33 -64.54,-111.61 -25.09,-28.68 -56.47,-51.98 -94.12,-69.91 -35.86,-17.93 -75.31,-26.9 -118.33,-26.9 -44.82,0 -85.16,8.97 -121.02,26.9 -35.85,17.92 -67.68,41.68 -95.46,71.26 -27.79,29.6 -49.75,65.44 -65.89,107.58 -16.13,42.12 -24.21,88.3 -24.21,138.49 0,46.62 8.07,91 24.21,133.12 16.13,42.13 38.1,78.43 65.89,108.92 27.79,30.47 59.61,53.77 95.46,69.92 35.86,17.92 76.2,26.89 121.02,26.89 43.03,0 82.47,-8.07 118.33,-24.21 37.65,-17.92 69.02,-41.24 94.12,-69.93 26.89,-30.48 48.4,-66.33 64.54,-107.57z"/>
  <path class="fil1" d="M3544.41 3284.79c-20.67,0 -35.96,-6.2 -45.89,-18.6 -4.55,-6.21 -24.8,-33.09 -60.78,-80.64l-1.87 -2.48c-9.09,-11.99 -21.08,-17.98 -35.96,-17.98 -1.65,0 -3.11,0 -4.35,0 -6.61,0.84 -12.19,1.25 -16.74,1.25l-59.54 0 0 118.45 -58.92 0 0 -424.21 118.46 0c5.79,0 11.99,0.19 18.61,0.61 6.61,0.41 15.71,1.77 27.29,4.04 11.57,2.28 22.64,5.38 33.18,9.29 10.54,3.94 21.6,9.72 33.18,17.38 11.57,7.64 21.49,16.64 29.77,26.98 8.26,10.33 15.09,23.67 20.46,40 5.38,16.35 8.06,34.43 8.06,54.28 0,18.19 -2.59,34.93 -7.75,50.22 -5.17,15.3 -12.2,28.22 -21.08,38.76 -8.89,10.55 -17.58,19.13 -26.05,25.75 -8.48,6.61 -17.47,12.4 -26.98,17.36l4.34 0c8.27,0 14.88,3.31 19.85,9.93 51.69,67.4 80.21,104.61 85.59,111.64 2.07,2.89 2.68,5.58 1.86,8.07 -0.83,2.89 -2.68,4.75 -5.58,5.58 -9.92,2.9 -19.64,4.33 -29.15,4.33zm-225.13 -178l59.54 0c7.03,0 14.36,-0.41 22.01,-1.23 7.65,-0.82 17.16,-3.1 28.54,-6.82 11.36,-3.71 21.4,-8.68 30.08,-14.88 8.68,-6.21 16.13,-15.51 22.33,-27.91 6.2,-12.41 9.3,-26.66 9.3,-42.79 0,-14.48 -2.48,-27.4 -7.45,-38.76 -4.96,-11.38 -11.57,-20.27 -19.85,-26.68 -8.26,-6.41 -16.64,-11.78 -25.11,-16.13 -8.48,-4.33 -17.58,-7.33 -27.3,-8.99 -9.72,-1.66 -16.95,-2.69 -21.71,-3.11 -4.75,-0.41 -9,-0.62 -12.71,-0.62l-57.68 0 0 187.91zm2604.24 178l-285.92 0 0 -424.21 290.25 0 0 58.91 -230.72 0 0 84.98 181.1 0 0 59.55 -181.1 0 0 161.87 226.38 0 0 58.91zm52.09 -1.85l0 -289.03 58.3 0 0 21.71c3.72,-2.88 7.65,-5.37 11.79,-7.43 8.27,-4.97 17.16,-8.7 26.67,-11.16 9.52,-2.49 19.22,-3.72 29.15,-3.72 16.54,0 32.04,3.31 46.51,9.91 14.48,6.22 26.99,14.79 37.52,25.75 10.54,10.96 18.82,23.88 24.81,38.76 5.99,14.88 9,30.6 9,47.13l0 167.46 -58.3 0 0 -168.08c-0.41,-8.27 -2.27,-16.53 -5.58,-24.8 -3.31,-7.44 -7.65,-14.07 -13.03,-19.84 -5.37,-5.8 -11.78,-10.35 -19.22,-13.65 -7.45,-3.31 -16.13,-4.96 -26.04,-4.96 -8.27,0 -16.34,1.65 -24.19,4.96 -7.45,3.3 -14.07,7.66 -19.85,13.02 -5.79,5.39 -10.54,11.8 -14.27,19.24 -3.31,7.43 -4.96,15.49 -4.96,24.18l0 170.57 -58.3 0zm427.94 -1.25c-12.4,3.31 -25.23,4.95 -38.46,4.95 -21.08,0 -40.62,-6.6 -58.6,-19.84 -17.99,-13.23 -31.53,-27.07 -40.63,-41.55l-1.86 -3.72 2.48 -2.47c11.57,-11.99 23.77,-17.98 36.59,-17.98 11.16,0 21.5,4.33 31.01,13.01 11.99,10.76 22.33,16.13 31.01,16.13 5.38,0 10.96,-0.83 16.75,-2.47 5.37,-1.23 10.54,-3.31 15.5,-6.21 4.14,-2.9 7.65,-6.2 10.54,-9.92 2.07,-3.3 3.1,-7.44 3.1,-12.41 0,-4.14 -1.03,-7.65 -3.1,-10.54 -2.9,-4.13 -6.61,-7.64 -11.16,-10.54 -5.38,-3.72 -11.37,-6.62 -17.99,-8.68 -6.61,-2.91 -13.43,-5.18 -20.46,-6.82 -10.33,-2.9 -20.26,-6.62 -29.77,-11.16 -9.92,-4.97 -18.81,-10.76 -26.67,-17.38 -9.09,-7.86 -16.33,-16.75 -21.71,-26.66 -4.55,-9.1 -6.82,-19.03 -6.82,-29.78 0,-12.41 2.27,-23.87 6.82,-34.42 4.55,-10.54 10.96,-19.65 19.22,-27.29 8.27,-7.66 18.19,-13.55 29.77,-17.68 11.58,-3.72 23.99,-5.58 37.22,-5.58 19.85,0 37.83,4.35 53.96,13.03 8.27,4.14 16.44,10.24 24.51,18.29 8.06,8.07 13.34,15.62 15.81,22.64l1.24 3.11 -2.48 2.47c-10.75,9.93 -22.32,14.88 -34.72,14.88 -8.69,0 -17.37,-2.48 -26.05,-7.45 -4.14,-2.06 -9.72,-4.33 -16.74,-6.81 -7.03,-2.49 -12.2,-3.72 -15.51,-3.72 -5.78,0 -10.96,0.82 -15.5,2.48 -4.55,1.65 -8.27,3.72 -11.17,6.2 -2.9,2.49 -5.06,5.39 -6.51,8.68 -1.44,3.31 -2.16,7.03 -2.16,11.17 0,3.3 0.62,5.99 1.86,8.07 2.07,3.3 4.75,5.99 8.06,8.06 4.14,2.89 8.48,5.16 13.03,6.82 5.38,2.06 10.33,3.72 14.88,4.95l8.06 1.87c13.64,3.72 25.84,8.48 36.59,14.25 11.17,5.38 20.88,11.8 29.15,19.24 8.26,7.85 14.68,16.54 19.22,26.04 4.96,9.94 7.45,20.69 7.45,32.25 0,14.06 -3.1,26.68 -9.3,37.84 -5.79,11.17 -13.64,20.47 -23.57,27.9 -4.54,3.72 -9.61,6.93 -15.19,9.62 -5.58,2.69 -11.47,5.07 -17.67,7.13zm169.93 1.25l-58.3 0 0 -289.03 58.3 0 0 289.03zm8.69 -345.47c0,10.34 -3.62,19.13 -10.85,26.36 -7.24,7.24 -16.02,10.86 -26.36,10.86 -10.33,0 -19.12,-3.62 -26.35,-10.86 -7.24,-7.24 -10.86,-16.02 -10.86,-26.36 0,-10.32 3.63,-19.11 10.86,-26.35 7.24,-7.24 16.02,-10.84 26.35,-10.84 10.34,0 19.13,3.61 26.36,10.84 7.24,7.24 10.85,16.03 10.85,26.35zm49.62 345.47l0 -289.03 58.3 0 0 21.71c3.72,-2.88 7.65,-5.37 11.79,-7.43 8.27,-4.97 17.16,-8.7 26.67,-11.16 9.52,-2.49 19.22,-3.72 29.15,-3.72 16.54,0 32.04,3.31 46.51,9.91 14.48,6.22 26.99,14.79 37.52,25.75 10.54,10.96 18.82,23.88 24.81,38.76 5.99,14.88 9,30.6 9,47.13l0 167.46 -58.3 0 0 -168.08c-0.41,-8.27 -2.27,-16.53 -5.58,-24.8 -3.31,-7.44 -7.65,-14.07 -13.03,-19.84 -5.37,-5.8 -11.78,-10.35 -19.22,-13.65 -7.45,-3.31 -16.13,-4.96 -26.04,-4.96 -8.27,0 -16.34,1.65 -24.19,4.96 -7.45,3.3 -14.07,7.66 -19.85,13.02 -5.79,5.39 -10.54,11.8 -14.27,19.24 -3.31,7.43 -4.96,15.49 -4.96,24.18l0 170.57 -58.3 0zm493.69 -6.83c-18.19,7.44 -37.42,11.16 -57.68,11.16 -20.26,0 -39.28,-3.92 -57.06,-11.78 -17.78,-7.44 -33.28,-17.78 -46.51,-31.01 -13.23,-13.24 -23.57,-28.74 -31.01,-46.53 -7.86,-18.19 -11.79,-37.42 -11.79,-57.67 0,-20.25 3.93,-39.27 11.79,-57.06 7.44,-17.77 17.78,-33.38 31.01,-46.82 13.23,-13.44 28.73,-23.89 46.51,-31.33 17.78,-7.86 36.8,-11.78 57.06,-11.78 20.26,0 39.49,3.92 57.68,11.78 17.78,7.44 33.28,17.98 46.52,31.63 13.23,13.22 23.77,28.74 31.63,46.51 7.45,17.79 11.16,36.81 11.16,57.06 0,20.25 -3.71,39.48 -11.16,57.67 -7.85,17.79 -18.4,33.29 -31.63,46.53 -13.24,13.23 -28.74,23.76 -46.52,31.63zm-22.95 -217.69c-10.76,-4.95 -22.12,-7.45 -34.12,-7.45 -11.99,0 -23.36,2.49 -34.11,7.45 -11.16,4.54 -20.78,10.84 -28.84,18.92 -8.06,8.05 -14.36,17.68 -18.92,28.84 -4.95,10.74 -7.44,22.23 -7.44,34.42 0,12.2 2.48,23.67 7.44,34.42 4.55,10.76 10.96,20.15 19.23,28.22 8.26,8.05 17.78,14.37 28.53,18.92 10.33,4.95 21.71,7.45 34.11,7.45 12,0 23.57,-2.49 34.73,-7.45 10.76,-4.54 20.05,-10.76 27.91,-18.62 8.27,-8.26 14.88,-17.76 19.85,-28.52 4.55,-10.76 6.82,-22.33 6.82,-34.73 0,-11.99 -2.48,-23.37 -7.45,-34.11 -4.54,-11.16 -10.85,-20.79 -18.92,-28.84 -8.06,-8.07 -17.67,-14.37 -28.83,-18.92zm374.6 226.37l0 -424.21 184.2 0c16.13,0 31.22,2.47 45.28,7.45 14.88,5.37 27.7,13.01 38.45,22.94 10.76,9.92 19.23,21.71 25.43,35.36 6.21,13.63 9.3,28.73 9.3,45.28 0,21.08 -4.96,39.48 -14.88,55.19 -5.38,7.85 -11.57,15.1 -18.61,21.71 2.9,2.08 5.79,4.14 8.69,6.21 9.51,7.86 17.88,16.86 25.11,26.99 7.24,10.13 12.92,21.71 17.06,34.73 4.14,13.01 6.21,27.18 6.21,42.48 0,18.18 -3.2,34.83 -9.61,49.92 -6.42,15.09 -15.2,28.32 -26.36,39.7 -11.16,11.36 -23.99,20.15 -38.46,26.36 -14.88,6.19 -30.6,9.5 -47.13,9.91l-204.66 0zm208.39 -58.91c6.62,-0.83 13.23,-2.49 19.85,-4.96 7.44,-2.89 14.06,-7.13 19.85,-12.72 5.78,-5.58 10.33,-12.39 13.64,-20.46 3.3,-8.05 4.95,-17.47 4.95,-28.22 0,-10.75 -1.86,-20.68 -5.58,-29.77 -3.72,-9.1 -8.48,-16.95 -14.26,-23.56 -6.21,-6.62 -13.03,-11.57 -20.47,-14.88 -7.44,-3.72 -15.3,-5.58 -23.56,-5.58l-143.27 0 0 140.16 148.85 0zm-148.85 -198.47l124.66 0c8.26,0 16.33,-1.45 24.19,-4.35 7.03,-2.47 13.23,-6.2 18.61,-11.15 4.96,-4.56 9.09,-10.14 12.4,-16.75 2.9,-6.62 4.34,-14.26 4.34,-22.96 0,-9.09 -1.75,-16.84 -5.27,-23.24 -3.51,-6.42 -8.16,-11.68 -13.95,-15.82 -6.21,-4.55 -13.85,-8.07 -22.95,-10.54 -9.52,-2.48 -19.64,-3.72 -30.39,-3.72l-111.64 0 0 108.54zm319.41 255.53l0 -289.03 58.3 0 0 31.64c14.07,-20.68 33.49,-31.02 58.3,-31.02 21.09,0 38.66,5.78 52.71,17.38l3.1 2.47 -0.62 4.95c-2.07,3.31 -4.65,7.03 -7.75,11.17 -3.1,4.13 -8.17,9.1 -15.19,14.88 -7.03,5.78 -13.85,8.68 -20.46,8.68l-29.78 0c-13.23,0 -23.04,5.91 -29.45,17.67 -6.42,11.8 -9.62,24.51 -9.62,38.16l0 173.04 -59.54 0zm355.38 0c-11.17,2.88 -23.16,4.33 -35.97,4.33 -19.43,0 -37.83,-3.92 -55.2,-11.78 -16.95,-7.44 -31.63,-17.98 -44.04,-31.63 -12.4,-12.82 -22.12,-28.11 -29.15,-45.9 -7.02,-17.77 -10.54,-36.78 -10.54,-57.04 0,-20.27 3.52,-39.29 10.54,-57.06 7.03,-17.79 16.75,-33.4 29.15,-46.84 12.4,-13.43 27.08,-24.08 44.04,-31.93 16.95,-7.86 35.35,-11.78 55.2,-11.78 12.82,0 25.02,1.65 36.59,4.95 11.57,3.31 22.12,8.07 31.63,14.26 4.54,2.91 8.68,5.99 12.4,9.3l0 -27.91 4.96 0c14.47,0 26.87,5.18 37.21,15.52 10.34,10.32 15.51,22.74 15.51,37.21l0 236.31 -4.96 0c-30.18,0 -47.75,-8.06 -52.71,-24.19 -4.14,3.71 -8.69,7.23 -13.64,10.54 -9.52,5.78 -19.85,10.34 -31.01,13.65zm-4.35 -223.9c-9.51,-4.56 -20.05,-6.83 -31.63,-6.83 -11.57,0 -22.12,2.27 -31.63,6.83 -9.92,4.55 -18.4,10.74 -25.43,18.6 -7.02,7.85 -12.6,17.26 -16.74,28.22 -4.14,10.97 -6.21,22.64 -6.21,35.05 0,12.4 1.96,23.98 5.9,34.73 3.93,10.74 9.61,20.04 17.05,27.89 7.03,7.86 15.51,14.08 25.43,18.62 9.52,4.54 20.06,6.81 31.63,6.81 11.57,0 22.12,-2.27 31.63,-6.81 9.52,-4.54 17.78,-10.54 24.81,-17.98 7.02,-7.86 12.61,-17.16 16.74,-27.92 4.14,-10.75 6.21,-22.52 6.21,-35.34 0,-12.41 -2.07,-24 -6.21,-34.73 -3.71,-10.75 -9.3,-20.27 -16.74,-28.54 -6.62,-7.86 -14.88,-14.05 -24.81,-18.6zm295.22 222.65c-12.4,3.31 -25.23,4.95 -38.46,4.95 -21.08,0 -40.62,-6.6 -58.6,-19.84 -17.99,-13.23 -31.53,-27.07 -40.63,-41.55l-1.86 -3.72 2.48 -2.47c11.57,-11.99 23.77,-17.98 36.59,-17.98 11.16,0 21.5,4.33 31.01,13.01 11.99,10.76 22.33,16.13 31.01,16.13 5.38,0 10.96,-0.83 16.75,-2.47 5.37,-1.23 10.54,-3.31 15.5,-6.21 4.14,-2.9 7.65,-6.2 10.54,-9.92 2.07,-3.3 3.1,-7.44 3.1,-12.41 0,-4.14 -1.03,-7.65 -3.1,-10.54 -2.9,-4.13 -6.61,-7.64 -11.16,-10.54 -5.38,-3.72 -11.37,-6.62 -17.99,-8.68 -6.61,-2.91 -13.43,-5.18 -20.46,-6.82 -10.33,-2.9 -20.26,-6.62 -29.77,-11.16 -9.92,-4.97 -18.81,-10.76 -26.67,-17.38 -9.09,-7.86 -16.33,-16.75 -21.71,-26.66 -4.55,-9.1 -6.82,-19.03 -6.82,-29.78 0,-12.41 2.27,-23.87 6.82,-34.42 4.55,-10.54 10.96,-19.65 19.22,-27.29 8.27,-7.66 18.19,-13.55 29.77,-17.68 11.58,-3.72 23.99,-5.58 37.22,-5.58 19.85,0 37.83,4.35 53.96,13.03 8.27,4.14 16.44,10.24 24.51,18.29 8.06,8.07 13.34,15.62 15.81,22.64l1.24 3.11 -2.48 2.47c-10.75,9.93 -22.32,14.88 -34.72,14.88 -8.69,0 -17.37,-2.48 -26.05,-7.45 -4.14,-2.06 -9.72,-4.33 -16.74,-6.81 -7.03,-2.49 -12.2,-3.72 -15.51,-3.72 -5.78,0 -10.96,0.82 -15.5,2.48 -4.55,1.65 -8.27,3.72 -11.17,6.2 -2.9,2.49 -5.06,5.39 -6.51,8.68 -1.44,3.31 -2.16,7.03 -2.16,11.17 0,3.3 0.62,5.99 1.86,8.07 2.07,3.3 4.75,5.99 8.06,8.06 4.14,2.89 8.48,5.16 13.03,6.82 5.38,2.06 10.33,3.72 14.88,4.95l8.06 1.87c13.64,3.72 25.84,8.48 36.59,14.25 11.17,5.38 20.88,11.8 29.15,19.24 8.26,7.85 14.68,16.54 19.22,26.04 4.96,9.94 7.45,20.69 7.45,32.25 0,14.06 -3.1,26.68 -9.3,37.84 -5.79,11.17 -13.64,20.47 -23.57,27.9 -4.54,3.72 -9.61,6.93 -15.19,9.62 -5.58,2.69 -11.47,5.07 -17.67,7.13zm169.93 1.25l-58.3 0 0 -289.03 58.3 0 0 289.03zm8.69 -345.47c0,10.34 -3.62,19.13 -10.85,26.36 -7.24,7.24 -16.02,10.86 -26.36,10.86 -10.33,0 -19.12,-3.62 -26.35,-10.86 -7.24,-7.24 -10.86,-16.02 -10.86,-26.36 0,-10.32 3.63,-19.11 10.86,-26.35 7.24,-7.24 16.02,-10.84 26.35,-10.84 10.34,0 19.13,3.61 26.36,10.84 7.24,7.24 10.85,16.03 10.85,26.35zm116.59 345.47l-58.92 0 0 -414.31 58.92 0 0 414.31zm244.99 -3.12c-14.07,4.96 -29.36,7.45 -45.9,7.45 -20.25,0 -39.27,-3.92 -57.05,-11.78 -18.19,-7.44 -33.91,-17.78 -47.13,-31.01 -13.23,-13.24 -23.68,-28.84 -31.33,-46.83 -7.65,-17.98 -11.47,-37.12 -11.47,-57.37 0,-20.25 3.72,-39.27 11.16,-57.06 7.45,-17.77 17.58,-33.29 30.39,-46.51 12.82,-13.24 27.91,-23.78 45.28,-31.63 17.36,-7.86 35.76,-11.78 55.2,-11.78 19.01,0 36.9,3.72 53.65,11.16 16.74,7.45 31.42,17.58 44.03,30.39 12.61,12.81 22.44,28.1 29.46,45.89 7.45,17.36 11.17,36.17 11.17,56.44 0,11.57 -4.35,19.63 -13.03,24.18 -5.38,2.49 -11.79,3.72 -19.22,3.72l-186.68 0c1.65,5.39 3.71,10.55 6.2,15.51 4.96,9.92 11.37,18.51 19.23,25.74 7.85,7.24 16.95,12.92 27.29,17.05 9.92,4.14 20.68,6.22 32.25,6.22 9.92,0 19.43,-1.45 28.53,-4.35l4.34 -1.87c7.86,-2.9 14.27,-4.33 19.23,-4.33 14.47,0 28.53,9.29 42.17,27.9l3.1 3.72 -3.71 3.11c-2.9,2.89 -5.79,5.16 -8.69,6.82 -11.99,8.26 -24.8,14.67 -38.45,19.21zm-21.72 -222.65c-9.09,-3.71 -18.81,-5.58 -29.14,-5.58 -10.34,0 -20.06,1.87 -29.15,5.58 -9.51,3.72 -17.98,8.88 -25.43,15.5 -6.21,5.8 -12.61,14.07 -19.22,24.8 -2.9,4.56 -4.96,9.72 -6.21,15.52 3.31,-2.08 6.41,-3.1 9.3,-3.1l147.61 0c-1.65,-4.56 -3.51,-8.89 -5.58,-13.03 -4.55,-9.09 -10.44,-17.06 -17.67,-23.89 -7.24,-6.82 -15.4,-12.08 -24.51,-15.81zm211.49 225.76l-58.3 0 0 -289.03 58.3 0 0 289.03zm8.69 -345.47c0,10.34 -3.62,19.13 -10.85,26.36 -7.24,7.24 -16.02,10.86 -26.36,10.86 -10.33,0 -19.12,-3.62 -26.35,-10.86 -7.24,-7.24 -10.86,-16.02 -10.86,-26.36 0,-10.32 3.63,-19.11 10.86,-26.35 7.24,-7.24 16.02,-10.84 26.35,-10.84 10.34,0 19.13,3.61 26.36,10.84 7.24,7.24 10.85,16.03 10.85,26.35zm49.62 345.47l0 -289.03 58.3 0 0 31.64c14.07,-20.68 33.49,-31.02 58.3,-31.02 21.09,0 38.66,5.78 52.71,17.38l3.1 2.47 -0.62 4.95c-2.07,3.31 -4.65,7.03 -7.75,11.17 -3.1,4.13 -8.17,9.1 -15.19,14.88 -7.03,5.78 -13.85,8.68 -20.46,8.68l-29.78 0c-13.23,0 -23.04,5.91 -29.45,17.67 -6.42,11.8 -9.62,24.51 -9.62,38.16l0 173.04 -59.54 0zm355.38 0c-11.17,2.88 -23.16,4.33 -35.97,4.33 -19.43,0 -37.83,-3.92 -55.2,-11.78 -16.95,-7.44 -31.63,-17.98 -44.04,-31.63 -12.4,-12.82 -22.12,-28.11 -29.15,-45.9 -7.02,-17.77 -10.54,-36.78 -10.54,-57.04 0,-20.27 3.52,-39.29 10.54,-57.06 7.03,-17.79 16.75,-33.4 29.15,-46.84 12.4,-13.43 27.08,-24.08 44.04,-31.93 16.95,-7.86 35.35,-11.78 55.2,-11.78 12.82,0 25.02,1.65 36.59,4.95 11.57,3.31 22.12,8.07 31.63,14.26 4.54,2.91 8.68,5.99 12.4,9.3l0 -27.91 4.96 0c14.47,0 26.87,5.18 37.21,15.52 10.34,10.32 15.51,22.74 15.51,37.21l0 236.31 -4.96 0c-30.18,0 -47.75,-8.06 -52.71,-24.19 -4.14,3.71 -8.69,7.23 -13.64,10.54 -9.52,5.78 -19.85,10.34 -31.01,13.65zm-4.35 -223.9c-9.51,-4.56 -20.05,-6.83 -31.63,-6.83 -11.57,0 -22.12,2.27 -31.63,6.83 -9.92,4.55 -18.4,10.74 -25.43,18.6 -7.02,7.85 -12.6,17.26 -16.74,28.22 -4.14,10.97 -6.21,22.64 -6.21,35.05 0,12.4 1.96,23.98 5.9,34.73 3.93,10.74 9.61,20.04 17.05,27.89 7.03,7.86 15.51,14.08 25.43,18.62 9.52,4.54 20.06,6.81 31.63,6.81 11.57,0 22.12,-2.27 31.63,-6.81 9.52,-4.54 17.78,-10.54 24.81,-17.98 7.02,-7.86 12.61,-17.16 16.74,-27.92 4.14,-10.75 6.21,-22.52 6.21,-35.34 0,-12.41 -2.07,-24 -6.21,-34.73 -3.71,-10.75 -9.3,-20.27 -16.74,-28.54 -6.62,-7.86 -14.88,-14.05 -24.81,-18.6zm436.62 349.78l-59.55 0 0 -414.92 59.55 0 0 20.47c1.65,-1.23 3.1,-2.27 4.34,-3.1 8.69,-6.21 19.22,-11.38 31.63,-15.51 12.4,-4.14 26.87,-6.2 43.41,-6.2 19.02,0 37,3.92 53.96,11.78 16.54,7.85 30.81,18.4 42.8,31.63 12.4,13.23 22.12,28.74 29.15,46.51 7.02,17.79 10.54,36.81 10.54,57.06 0,20.25 -3.52,39.28 -10.54,57.06 -7.03,17.77 -16.75,33.29 -29.15,46.51 -12.4,13.23 -26.67,23.78 -42.8,31.63 -16.95,7.86 -34.93,11.78 -53.96,11.78 -13.23,0 -25.53,-1.75 -36.91,-5.26 -11.36,-3.52 -21.6,-8.59 -30.69,-15.2 -4.14,-2.89 -8.06,-5.99 -11.79,-9.29l0 155.04zm107.3 -354.13c-9.52,-4.54 -19.54,-6.81 -30.09,-6.81 -10.54,0 -20.36,2.27 -29.46,6.81 -9.92,4.54 -18.5,10.86 -25.74,18.92 -7.24,8.07 -13.02,17.46 -17.37,28.22 -4.34,10.76 -6.51,22.23 -6.51,34.42 0,12.19 2.17,23.76 6.51,34.72 4.35,10.97 10.24,20.46 17.67,28.54 7.45,8.05 15.92,14.37 25.43,18.92 9.1,4.54 18.93,6.82 29.46,6.82 10.54,0 20.57,-2.28 30.09,-6.82 9.51,-4.54 17.98,-10.95 25.43,-19.23 7.02,-7.84 12.71,-17.25 17.05,-28.22 4.35,-10.96 6.51,-22.53 6.51,-34.72 0,-12.2 -2.16,-23.67 -6.51,-34.42 -4.34,-10.76 -10.03,-20.25 -17.05,-28.53 -7.45,-7.85 -15.92,-14.07 -25.43,-18.61zm321.89 228.25c-11.17,2.88 -23.16,4.33 -35.97,4.33 -19.43,0 -37.83,-3.92 -55.2,-11.78 -16.95,-7.44 -31.63,-17.98 -44.04,-31.63 -12.4,-12.82 -22.12,-28.11 -29.15,-45.9 -7.02,-17.77 -10.54,-36.78 -10.54,-57.04 0,-20.27 3.52,-39.29 10.54,-57.06 7.03,-17.79 16.75,-33.4 29.15,-46.84 12.4,-13.43 27.08,-24.08 44.04,-31.93 16.95,-7.86 35.35,-11.78 55.2,-11.78 12.82,0 25.02,1.65 36.59,4.95 11.57,3.31 22.12,8.07 31.63,14.26 4.54,2.91 8.68,5.99 12.4,9.3l0 -27.91 4.96 0c14.47,0 26.87,5.18 37.21,15.52 10.34,10.32 15.51,22.74 15.51,37.21l0 236.31 -4.96 0c-30.18,0 -47.75,-8.06 -52.71,-24.19 -4.14,3.71 -8.69,7.23 -13.64,10.54 -9.52,5.78 -19.85,10.34 -31.01,13.65zm-4.35 -223.9c-9.51,-4.56 -20.05,-6.83 -31.63,-6.83 -11.57,0 -22.12,2.27 -31.63,6.83 -9.92,4.55 -18.4,10.74 -25.43,18.6 -7.02,7.85 -12.6,17.26 -16.74,28.22 -4.14,10.97 -6.21,22.64 -6.21,35.05 0,12.4 1.96,23.98 5.9,34.73 3.93,10.74 9.61,20.04 17.05,27.89 7.03,7.86 15.51,14.08 25.43,18.62 9.52,4.54 20.06,6.81 31.63,6.81 11.57,0 22.12,-2.27 31.63,-6.81 9.52,-4.54 17.78,-10.54 24.81,-17.98 7.02,-7.86 12.61,-17.16 16.74,-27.92 4.14,-10.75 6.21,-22.52 6.21,-35.34 0,-12.41 -2.07,-24 -6.21,-34.73 -3.71,-10.75 -9.3,-20.27 -16.74,-28.54 -6.62,-7.86 -14.88,-14.05 -24.81,-18.6zm170.56 223.9l0 -289.03 58.3 0 0 31.64c14.07,-20.68 33.49,-31.02 58.3,-31.02 21.09,0 38.66,5.78 52.71,17.38l3.1 2.47 -0.62 4.95c-2.07,3.31 -4.65,7.03 -7.75,11.17 -3.1,4.13 -8.17,9.1 -15.19,14.88 -7.03,5.78 -13.85,8.68 -20.46,8.68l-29.78 0c-13.23,0 -23.04,5.91 -29.45,17.67 -6.42,11.8 -9.62,24.51 -9.62,38.16l0 173.04 -59.54 0zm355.38 0c-11.17,2.88 -23.16,4.33 -35.97,4.33 -19.43,0 -37.83,-3.92 -55.2,-11.78 -16.95,-7.44 -31.63,-17.98 -44.04,-31.63 -12.4,-12.82 -22.12,-28.11 -29.15,-45.9 -7.02,-17.77 -10.54,-36.78 -10.54,-57.04 0,-20.27 3.52,-39.29 10.54,-57.06 7.03,-17.79 16.75,-33.4 29.15,-46.84 12.4,-13.43 27.08,-24.08 44.04,-31.93 16.95,-7.86 35.35,-11.78 55.2,-11.78 12.82,0 25.02,1.65 36.59,4.95 11.57,3.31 22.12,8.07 31.63,14.26 4.54,2.91 8.68,5.99 12.4,9.3l0 -27.91 4.96 0c14.47,0 26.87,5.18 37.21,15.52 10.34,10.32 15.51,22.74 15.51,37.21l0 236.31 -4.96 0c-30.18,0 -47.75,-8.06 -52.71,-24.19 -4.14,3.71 -8.69,7.23 -13.64,10.54 -9.52,5.78 -19.85,10.34 -31.01,13.65zm-4.35 -223.9c-9.51,-4.56 -20.05,-6.83 -31.63,-6.83 -11.57,0 -22.12,2.27 -31.63,6.83 -9.92,4.55 -18.4,10.74 -25.43,18.6 -7.02,7.85 -12.6,17.26 -16.74,28.22 -4.14,10.97 -6.21,22.64 -6.21,35.05 0,12.4 1.96,23.98 5.9,34.73 3.93,10.74 9.61,20.04 17.05,27.89 7.03,7.86 15.51,14.08 25.43,18.62 9.52,4.54 20.06,6.81 31.63,6.81 11.57,0 22.12,-2.27 31.63,-6.81 9.52,-4.54 17.78,-10.54 24.81,-17.98 7.02,-7.86 12.61,-17.16 16.74,-27.92 4.14,-10.75 6.21,-22.52 6.21,-35.34 0,-12.41 -2.07,-24 -6.21,-34.73 -3.71,-10.75 -9.3,-20.27 -16.74,-28.54 -6.62,-7.86 -14.88,-14.05 -24.81,-18.6zm-7222.87 220.78c-14.07,4.96 -29.36,7.45 -45.9,7.45 -20.25,0 -39.27,-3.92 -57.05,-11.78 -18.19,-7.44 -33.91,-17.78 -47.13,-31.01 -13.23,-13.24 -23.68,-28.84 -31.33,-46.83 -7.65,-17.98 -11.47,-37.12 -11.47,-57.37 0,-20.25 3.72,-39.27 11.16,-57.06 7.45,-17.77 17.58,-33.29 30.39,-46.51 12.82,-13.24 27.91,-23.78 45.28,-31.63 17.36,-7.86 35.76,-11.78 55.2,-11.78 19.01,0 36.9,3.72 53.65,11.16 16.74,7.45 31.42,17.58 44.03,30.39 12.61,12.81 22.44,28.1 29.46,45.89 7.45,17.36 11.17,36.17 11.17,56.44 0,11.57 -4.35,19.63 -13.03,24.18 -5.38,2.49 -11.79,3.72 -19.22,3.72l-186.68 0c1.65,5.39 3.71,10.55 6.2,15.51 4.96,9.92 11.37,18.51 19.23,25.74 7.85,7.24 16.95,12.92 27.29,17.05 9.92,4.14 20.68,6.22 32.25,6.22 9.92,0 19.43,-1.45 28.53,-4.35l4.34 -1.87c7.86,-2.9 14.27,-4.33 19.23,-4.33 14.47,0 28.53,9.29 42.17,27.9l3.1 3.72 -3.71 3.11c-2.9,2.89 -5.79,5.16 -8.69,6.82 -11.99,8.26 -24.8,14.67 -38.45,19.21zm-21.72 -222.65c-9.09,-3.71 -18.81,-5.58 -29.14,-5.58 -10.34,0 -20.06,1.87 -29.15,5.58 -9.51,3.72 -17.98,8.88 -25.43,15.5 -6.21,5.8 -12.61,14.07 -19.22,24.8 -2.9,4.56 -4.96,9.72 -6.21,15.52 3.31,-2.08 6.41,-3.1 9.3,-3.1l147.61 0c-1.65,-4.56 -3.51,-8.89 -5.58,-13.03 -4.55,-9.09 -10.44,-17.06 -17.67,-23.89 -7.24,-6.82 -15.4,-12.08 -24.51,-15.81z"/>
  <path class="fil1" d="M4103.84 3279.82c-12.4,4.14 -26.87,6.22 -43.41,6.22 -19.43,0 -37.42,-3.94 -53.96,-11.8 -16.54,-7.85 -31.01,-18.4 -43.42,-31.62 -11.99,-13.25 -21.49,-28.74 -28.53,-46.53 -7.02,-17.77 -10.54,-36.79 -10.54,-57.05 0,-20.26 3.52,-39.27 10.54,-57.05 7.03,-17.79 16.64,-33.29 28.84,-46.53 12.19,-13.23 26.56,-23.76 43.1,-31.62 16.95,-7.86 34.93,-11.8 53.96,-11.8 13.23,0 25.53,1.77 36.9,5.27 11.37,3.51 21.61,8.59 30.7,15.19 4.14,2.91 8.06,5.99 11.79,9.3l0 -155.05 59.54 0 0 414.92 -59.54 0 0 -20.47c-1.65,1.25 -3.31,2.29 -4.96,3.12 -8.68,6.19 -19.01,11.36 -31.01,15.49zm-11.78 -222.65c-9.52,-4.55 -19.54,-6.83 -30.09,-6.83 -10.54,0 -20.36,2.28 -29.46,6.83 -9.92,4.55 -18.4,10.96 -25.43,19.22 -7.44,7.86 -13.23,17.27 -17.37,28.22 -4.13,10.96 -6.2,22.53 -6.2,34.74 0,12.18 2.07,23.67 6.2,34.41 4.14,10.76 9.93,20.27 17.37,28.55 7.03,7.85 15.51,14.05 25.43,18.6 9.1,4.55 18.92,6.82 29.46,6.82 10.54,0 20.57,-2.27 30.09,-6.82 9.51,-4.55 17.98,-10.85 25.42,-18.93 7.45,-8.05 13.34,-17.46 17.68,-28.22 4.34,-10.74 6.5,-22.23 6.5,-34.41 0,-12.21 -2.16,-23.78 -6.5,-34.74 -4.35,-10.95 -10.24,-20.46 -17.68,-28.52 -7.44,-8.07 -15.91,-14.37 -25.42,-18.93zm351.66 222.65c-14.07,4.96 -29.36,7.45 -45.9,7.45 -20.25,0 -39.27,-3.92 -57.05,-11.78 -18.19,-7.44 -33.91,-17.78 -47.13,-31.01 -13.23,-13.24 -23.68,-28.84 -31.33,-46.83 -7.65,-17.98 -11.47,-37.12 -11.47,-57.37 0,-20.25 3.72,-39.27 11.16,-57.06 7.45,-17.77 17.58,-33.29 30.39,-46.51 12.82,-13.24 27.91,-23.78 45.28,-31.63 17.36,-7.86 35.76,-11.78 55.2,-11.78 19.01,0 36.9,3.72 53.65,11.16 16.74,7.45 31.42,17.58 44.03,30.39 12.61,12.81 22.44,28.1 29.46,45.89 7.45,17.36 11.17,36.17 11.17,56.44 0,11.57 -4.35,19.63 -13.03,24.18 -5.38,2.49 -11.79,3.72 -19.22,3.72l-186.68 0c1.65,5.39 3.71,10.55 6.2,15.51 4.96,9.92 11.37,18.51 19.23,25.74 7.85,7.24 16.95,12.92 27.29,17.05 9.92,4.14 20.68,6.22 32.25,6.22 9.92,0 19.43,-1.45 28.53,-4.35l4.34 -1.87c7.86,-2.9 14.27,-4.33 19.23,-4.33 14.47,0 28.53,9.29 42.17,27.9l3.1 3.72 -3.71 3.11c-2.9,2.89 -5.79,5.16 -8.69,6.82 -11.99,8.26 -24.8,14.67 -38.45,19.21zm-21.72 -222.65c-9.09,-3.71 -18.81,-5.58 -29.14,-5.58 -10.34,0 -20.06,1.87 -29.15,5.58 -9.51,3.72 -17.98,8.88 -25.43,15.5 -6.21,5.8 -12.61,14.07 -19.22,24.8 -2.9,4.56 -4.96,9.72 -6.21,15.52 3.31,-2.08 6.41,-3.1 9.3,-3.1l147.61 0c-1.65,-4.56 -3.51,-8.89 -5.58,-13.03 -4.55,-9.09 -10.44,-17.06 -17.67,-23.89 -7.24,-6.82 -15.4,-12.08 -24.51,-15.81zm529.65 222.65c-12.4,4.14 -26.87,6.22 -43.41,6.22 -19.43,0 -37.42,-3.94 -53.96,-11.8 -16.54,-7.85 -31.01,-18.4 -43.42,-31.62 -11.99,-13.25 -21.49,-28.74 -28.53,-46.53 -7.02,-17.77 -10.54,-36.79 -10.54,-57.05 0,-20.26 3.52,-39.27 10.54,-57.05 7.03,-17.79 16.64,-33.29 28.84,-46.53 12.19,-13.23 26.56,-23.76 43.1,-31.62 16.95,-7.86 34.93,-11.8 53.96,-11.8 13.23,0 25.53,1.77 36.9,5.27 11.37,3.51 21.61,8.59 30.7,15.19 4.14,2.91 8.06,5.99 11.79,9.3l0 -155.05 59.54 0 0 414.92 -59.54 0 0 -20.47c-1.65,1.25 -3.31,2.29 -4.96,3.12 -8.68,6.19 -19.01,11.36 -31.01,15.49zm-11.78 -222.65c-9.52,-4.55 -19.54,-6.83 -30.09,-6.83 -10.54,0 -20.36,2.28 -29.46,6.83 -9.92,4.55 -18.4,10.96 -25.43,19.22 -7.44,7.86 -13.23,17.27 -17.37,28.22 -4.13,10.96 -6.2,22.53 -6.2,34.74 0,12.18 2.07,23.67 6.2,34.41 4.14,10.76 9.93,20.27 17.37,28.55 7.03,7.85 15.51,14.05 25.43,18.6 9.1,4.55 18.92,6.82 29.46,6.82 10.54,0 20.57,-2.27 30.09,-6.82 9.51,-4.55 17.98,-10.85 25.42,-18.93 7.45,-8.05 13.34,-17.46 17.68,-28.22 4.34,-10.74 6.5,-22.23 6.5,-34.41 0,-12.21 -2.16,-23.78 -6.5,-34.74 -4.35,-10.95 -10.24,-20.46 -17.68,-28.52 -7.44,-8.07 -15.91,-14.37 -25.42,-18.93zm351.66 222.65c-14.07,4.96 -29.36,7.45 -45.9,7.45 -20.25,0 -39.27,-3.92 -57.05,-11.78 -18.19,-7.44 -33.91,-17.78 -47.13,-31.01 -13.23,-13.24 -23.68,-28.84 -31.33,-46.83 -7.65,-17.98 -11.47,-37.12 -11.47,-57.37 0,-20.25 3.72,-39.27 11.16,-57.06 7.45,-17.77 17.58,-33.29 30.39,-46.51 12.82,-13.24 27.91,-23.78 45.28,-31.63 17.36,-7.86 35.76,-11.78 55.2,-11.78 19.01,0 36.9,3.72 53.65,11.16 16.74,7.45 31.42,17.58 44.03,30.39 12.61,12.81 22.44,28.1 29.46,45.89 7.45,17.36 11.17,36.17 11.17,56.44 0,11.57 -4.35,19.63 -13.03,24.18 -5.38,2.49 -11.79,3.72 -19.22,3.72l-186.68 0c1.65,5.39 3.71,10.55 6.2,15.51 4.96,9.92 11.37,18.51 19.23,25.74 7.85,7.24 16.95,12.92 27.29,17.05 9.92,4.14 20.68,6.22 32.25,6.22 9.92,0 19.43,-1.45 28.53,-4.35l4.34 -1.87c7.86,-2.9 14.27,-4.33 19.23,-4.33 14.47,0 28.53,9.29 42.17,27.9l3.1 3.72 -3.71 3.11c-2.9,2.89 -5.79,5.16 -8.69,6.82 -11.99,8.26 -24.8,14.67 -38.45,19.21zm-21.72 -222.65c-9.09,-3.71 -18.81,-5.58 -29.14,-5.58 -10.34,0 -20.06,1.87 -29.15,5.58 -9.51,3.72 -17.98,8.88 -25.43,15.5 -6.21,5.8 -12.61,14.07 -19.22,24.8 -2.9,4.56 -4.96,9.72 -6.21,15.52 3.31,-2.08 6.41,-3.1 9.3,-3.1l147.61 0c-1.65,-4.56 -3.51,-8.89 -5.58,-13.03 -4.55,-9.09 -10.44,-17.06 -17.67,-23.89 -7.24,-6.82 -15.4,-12.08 -24.51,-15.81z"/>
  <path class="fil1" d="M1316.97 4042.33l-375.34 0 0 -556.92 381.04 0 0 77.35 -302.88 0 0 111.55 237.75 0 0 78.15 -237.75 0 0 212.5 297.18 0 0 77.35zm68.39 -2.44l0 -379.41 76.54 0 0 28.5c4.89,-3.81 10.04,-7.06 15.47,-9.77 10.85,-6.51 22.52,-11.4 35.01,-14.66 12.48,-3.25 25.24,-4.89 38.26,-4.89 21.72,0 42.06,4.35 61.07,13.04 18.99,8.14 35.42,19.4 49.26,33.79 13.84,14.38 24.7,31.34 32.57,50.88 7.87,19.54 11.81,40.16 11.81,61.88l0 219.84 -76.54 0 0 -220.65c-0.54,-10.85 -2.98,-21.72 -7.33,-32.57 -4.34,-9.77 -10.03,-18.45 -17.1,-26.06 -7.05,-7.58 -15.47,-13.56 -25.24,-17.91 -9.78,-4.34 -21.17,-6.51 -34.19,-6.51 -10.86,0 -21.45,2.17 -31.76,6.51 -9.77,4.35 -18.45,10.04 -26.05,17.1 -7.59,7.05 -13.84,15.47 -18.72,25.25 -4.34,9.78 -6.51,20.36 -6.51,31.76l0 223.9 -76.54 0zm634.25 152.25c-22.25,8.14 -45.05,12.21 -68.39,12.21 -19.54,0 -37.19,-2.44 -52.93,-7.32 -15.74,-4.89 -30.66,-11.13 -44.78,-18.73l-4.07 -2.44c-2.17,-1.63 -4.07,-3.24 -5.7,-4.87l-3.26 -3.26 2.44 -4.07c17.91,-30.94 37.46,-46.41 58.62,-46.41 5.43,0 12.48,1.35 21.17,4.07l3.26 0.82c8.68,2.16 16.55,3.26 23.61,3.26 13.57,0 26.86,-2.17 39.89,-6.52 12.49,-4.89 23.61,-11.67 33.39,-20.36 10.85,-9.77 18.72,-20.89 23.61,-33.39 5.43,-14.64 8.14,-33.11 8.14,-55.35 -5.97,4.89 -12.21,9.22 -18.72,13.03 -12.49,7.59 -26.05,13.29 -40.71,17.1 -14.66,3.8 -30.12,5.7 -46.41,5.7 -25.51,0 -49.66,-5.16 -72.46,-15.46 -22.25,-9.78 -41.53,-23.62 -57.81,-41.54 -16.28,-16.82 -29.04,-36.9 -38.26,-60.24 -9.23,-23.34 -13.85,-48.32 -13.85,-74.92 0,-26.59 4.62,-51.56 13.85,-74.89 9.23,-23.34 21.98,-43.83 38.26,-61.47 16.29,-17.66 35.56,-31.63 57.81,-41.93 22.25,-10.31 46.4,-15.48 72.46,-15.48 16.83,0 32.97,2.16 48.44,6.52 15.47,4.34 29.72,10.58 42.75,18.72 7.05,4.33 13.57,9.22 19.54,14.65 2.17,-7.6 5.7,-14.39 10.58,-20.35 4.89,-5.98 10.85,-10.58 17.91,-13.85 7.05,-3.26 14.65,-4.89 22.79,-4.89l22.8 0 0 311.02c0,24.97 -0.27,39.09 -0.82,42.34 0.55,30.38 -4.34,57.79 -14.65,82.22 -9.78,23.89 -23.07,43.98 -39.9,60.26 -16.83,16.29 -36.37,28.23 -58.62,35.82zm-28.49 -446.18c-13.03,-5.97 -27.14,-8.96 -42.34,-8.96 -15.2,0 -29.04,2.99 -41.53,8.96 -13.03,5.97 -24.15,14.12 -33.38,24.43 -9.23,10.3 -16.56,22.66 -21.98,37.05 -5.43,14.38 -8.14,29.71 -8.14,45.99 0,16.29 2.71,31.48 8.14,45.6 5.43,14.1 12.76,26.31 21.98,36.64 9.23,10.31 20.35,18.45 33.38,24.42 12.49,5.97 26.32,8.96 41.53,8.96 15.2,0 29.32,-2.98 42.34,-8.96 13.03,-5.97 24.42,-14.1 34.19,-24.42 9.23,-10.32 16.69,-22.53 22.39,-36.64 5.7,-14.12 8.54,-29.32 8.54,-45.6 0,-16.28 -2.71,-31.48 -8.14,-45.59 -5.43,-14.12 -13.03,-26.46 -22.79,-37.05 -9.78,-10.58 -21.17,-18.86 -34.19,-24.83zm463.27 289.86c-18.45,6.51 -38.54,9.77 -60.25,9.77 -26.6,0 -51.57,-5.16 -74.91,-15.46 -23.88,-9.78 -44.51,-23.34 -61.87,-40.73 -17.38,-17.36 -31.08,-37.86 -41.12,-61.46 -10.03,-23.61 -15.06,-48.72 -15.06,-75.32 0,-26.6 4.88,-51.57 14.65,-74.9 9.77,-23.34 23.07,-43.7 39.9,-61.08 16.82,-17.36 36.64,-31.2 59.43,-41.51 22.8,-10.31 46.95,-15.48 72.47,-15.48 24.97,0 48.44,4.89 70.43,14.66 21.97,9.77 41.25,23.06 57.8,39.9 16.56,16.82 29.44,36.91 38.68,60.24 9.77,22.8 14.65,47.49 14.65,74.08 0,15.2 -5.71,25.78 -17.1,31.76 -7.06,3.26 -15.47,4.89 -25.25,4.89l-245.07 0c2.17,7.05 4.89,13.85 8.15,20.36 6.51,13.03 14.92,24.28 25.24,33.79 10.31,9.5 22.25,16.95 35.83,22.38 13.03,5.44 27.13,8.14 42.33,8.14 13.03,0 25.52,-1.89 37.46,-5.7l5.7 -2.44c10.31,-3.79 18.72,-5.7 25.24,-5.7 19,0 37.46,12.21 55.37,36.64l4.07 4.89 -4.89 4.07c-3.8,3.8 -7.6,6.79 -11.4,8.97 -15.74,10.84 -32.56,19.25 -50.47,25.24zm-28.5 -292.3c-11.94,-4.89 -24.7,-7.33 -38.26,-7.33 -13.58,0 -26.33,2.44 -38.27,7.33 -12.48,4.89 -23.61,11.68 -33.38,20.36 -8.15,7.6 -16.56,18.45 -25.25,32.58 -3.8,5.96 -6.51,12.75 -8.14,20.35 4.34,-2.71 8.42,-4.07 12.21,-4.07l193.78 0c-2.17,-5.97 -4.62,-11.68 -7.33,-17.1 -5.97,-11.94 -13.7,-22.4 -23.2,-31.36 -9.51,-8.96 -20.22,-15.88 -32.16,-20.76zm205.98 296.37l0 -379.41 76.54 0 0 28.5c4.89,-3.81 10.04,-7.06 15.47,-9.77 10.85,-6.51 22.52,-11.4 35.01,-14.66 12.48,-3.25 25.24,-4.89 38.26,-4.89 21.72,0 42.06,4.35 61.07,13.04 18.99,8.14 35.42,19.4 49.26,33.79 13.84,14.38 24.7,31.34 32.57,50.88 7.87,19.54 11.81,40.16 11.81,61.88l0 219.84 -76.54 0 0 -220.65c-0.54,-10.85 -2.98,-21.72 -7.33,-32.57 -4.34,-9.77 -10.03,-18.45 -17.1,-26.06 -7.05,-7.58 -15.47,-13.56 -25.24,-17.91 -9.78,-4.34 -21.17,-6.51 -34.19,-6.51 -10.86,0 -21.45,2.17 -31.76,6.51 -9.77,4.35 -18.45,10.04 -26.05,17.1 -7.59,7.05 -13.84,15.47 -18.72,25.25 -4.34,9.78 -6.51,20.36 -6.51,31.76l0 223.9 -76.54 0zm398.96 0l0 -543.89 76.54 0 0 192.97c4.88,-3.81 10.03,-7.06 15.47,-9.77 10.85,-6.51 22.52,-11.4 35,-14.66 12.49,-3.25 25.25,-4.89 38.27,-4.89 21.71,0 42.06,4.35 61.07,13.04 18.99,8.14 35.42,19.4 49.25,33.79 13.85,14.38 24.7,31.34 32.57,50.88 7.87,19.54 11.81,40.16 11.81,61.88l0 219.84 -76.53 0 0 -220.65c-0.55,-10.85 -2.99,-21.72 -7.33,-32.57 -4.34,-9.77 -10.04,-18.45 -17.1,-26.06 -7.05,-7.58 -15.47,-13.56 -25.24,-17.91 -9.78,-4.34 -21.18,-6.51 -34.2,-6.51 -10.85,0 -21.44,2.17 -31.75,6.51 -9.77,4.35 -18.45,10.04 -26.05,17.1 -7.6,7.05 -13.85,15.47 -18.72,25.25 -4.35,9.78 -6.51,20.36 -6.51,31.76l0 223.9 -76.54 0zm610.64 0c-14.65,3.8 -30.39,5.7 -47.22,5.7 -25.51,0 -49.66,-5.16 -72.46,-15.46 -22.25,-9.78 -41.53,-23.62 -57.81,-41.54 -16.28,-16.82 -29.04,-36.9 -38.26,-60.24 -9.23,-23.34 -13.85,-48.32 -13.85,-74.92 0,-26.59 4.62,-51.56 13.85,-74.89 9.23,-23.34 21.98,-43.83 38.26,-61.47 16.29,-17.66 35.56,-31.63 57.81,-41.93 22.25,-10.31 46.4,-15.48 72.46,-15.48 16.83,0 32.84,2.16 48.04,6.52 15.2,4.34 29.04,10.58 41.53,18.72 5.97,3.79 11.39,7.87 16.28,12.21l0 -36.64 6.51 0c19,0 35.28,6.79 48.86,20.36 13.57,13.57 20.35,29.85 20.35,48.84l0 310.22 -6.51 0c-39.62,0 -62.69,-10.58 -69.21,-31.75 -5.43,4.89 -11.39,9.49 -17.91,13.84 -12.49,7.59 -26.05,13.57 -40.72,17.91zm-5.7 -293.93c-12.49,-5.97 -26.32,-8.96 -41.53,-8.96 -15.2,0 -29.04,2.99 -41.53,8.96 -13.03,5.97 -24.15,14.12 -33.38,24.43 -9.23,10.3 -16.56,22.66 -21.98,37.05 -5.43,14.38 -8.14,29.71 -8.14,45.99 0,16.29 2.58,31.48 7.74,45.6 5.16,14.1 12.61,26.31 22.39,36.64 9.23,10.31 20.35,18.45 33.38,24.42 12.49,5.97 26.32,8.96 41.53,8.96 15.2,0 29.04,-2.98 41.53,-8.96 12.49,-5.97 23.34,-13.85 32.57,-23.6 9.23,-10.32 16.56,-22.53 21.98,-36.64 5.43,-14.12 8.14,-29.6 8.14,-46.42 0,-16.28 -2.71,-31.48 -8.14,-45.59 -4.89,-14.12 -12.22,-26.59 -21.98,-37.46 -8.69,-10.3 -19.54,-18.45 -32.57,-24.43zm223.9 293.93l0 -379.41 76.54 0 0 41.53c18.45,-27.15 43.97,-40.71 76.54,-40.71 27.68,0 50.75,7.6 69.21,22.79l4.07 3.26 -0.82 6.51c-2.71,4.33 -6.1,9.22 -10.18,14.65 -4.07,5.43 -10.72,11.94 -19.94,19.53 -9.23,7.61 -18.18,11.4 -26.86,11.4l-39.08 0c-17.38,0 -30.27,7.74 -38.68,23.21 -8.41,15.47 -12.62,32.16 -12.62,50.08l0 227.16 -78.16 0zm353.36 0l-76.54 0 0 -379.41 76.54 0 0 379.41zm11.4 -453.5c0,13.57 -4.75,25.09 -14.25,34.59 -9.5,9.5 -21.03,14.25 -34.61,14.25 -13.57,0 -25.1,-4.75 -34.6,-14.25 -9.5,-9.5 -14.25,-21.02 -14.25,-34.59 0,-13.59 4.75,-25.12 14.25,-34.61 9.5,-9.5 21.03,-14.25 34.6,-14.25 13.58,0 25.11,4.75 34.61,14.25 9.5,9.49 14.25,21.02 14.25,34.61zm282.52 453.5c-14.65,3.8 -30.39,5.7 -47.22,5.7 -25.51,0 -49.66,-5.16 -72.46,-15.46 -22.25,-9.78 -41.53,-23.62 -57.81,-41.54 -16.28,-16.82 -29.04,-36.9 -38.26,-60.24 -9.23,-23.34 -13.85,-48.32 -13.85,-74.92 0,-26.59 4.62,-51.56 13.85,-74.89 9.23,-23.34 21.98,-43.83 38.26,-61.47 16.29,-17.66 35.56,-31.63 57.81,-41.93 22.25,-10.31 46.4,-15.48 72.46,-15.48 16.83,0 32.84,2.16 48.04,6.52 15.2,4.34 29.04,10.58 41.53,18.72 5.97,3.79 11.39,7.87 16.28,12.21l0 -36.64 6.51 0c19,0 35.28,6.79 48.86,20.36 13.57,13.57 20.35,29.85 20.35,48.84l0 310.22 -6.51 0c-39.62,0 -62.69,-10.58 -69.21,-31.75 -5.43,4.89 -11.39,9.49 -17.91,13.84 -12.49,7.59 -26.05,13.57 -40.72,17.91zm-5.7 -293.93c-12.49,-5.97 -26.32,-8.96 -41.53,-8.96 -15.2,0 -29.04,2.99 -41.53,8.96 -13.03,5.97 -24.15,14.12 -33.38,24.43 -9.23,10.3 -16.56,22.66 -21.98,37.05 -5.43,14.38 -8.14,29.71 -8.14,45.99 0,16.29 2.58,31.48 7.74,45.6 5.16,14.1 12.61,26.31 22.39,36.64 9.23,10.31 20.35,18.45 33.38,24.42 12.49,5.97 26.32,8.96 41.53,8.96 15.2,0 29.04,-2.98 41.53,-8.96 12.49,-5.97 23.34,-13.85 32.57,-23.6 9.23,-10.32 16.56,-22.53 21.98,-36.64 5.43,-14.12 8.14,-29.6 8.14,-46.42 0,-16.28 -2.71,-31.48 -8.14,-45.59 -4.89,-14.12 -12.22,-26.59 -21.98,-37.46 -8.69,-10.3 -19.54,-18.45 -32.57,-24.43zm387.55 292.3c-16.29,4.33 -33.12,6.51 -50.48,6.51 -27.68,0 -53.33,-8.7 -76.94,-26.05 -23.61,-17.38 -41.39,-35.55 -53.33,-54.56l-2.44 -4.89 3.26 -3.25c15.2,-15.73 31.21,-23.6 48.04,-23.6 14.65,0 28.22,5.7 40.71,17.09 15.74,14.11 29.31,21.17 40.71,21.17 7.06,0 14.38,-1.08 21.98,-3.25 7.05,-1.64 13.85,-4.34 20.36,-8.15 5.43,-3.79 10.03,-8.14 13.84,-13.03 2.71,-4.33 4.07,-9.76 4.07,-16.27 0,-5.44 -1.36,-10.05 -4.07,-13.85 -3.8,-5.44 -8.68,-10.04 -14.65,-13.84 -7.05,-4.89 -14.92,-8.69 -23.61,-11.4 -8.69,-3.8 -17.65,-6.79 -26.87,-8.97 -13.57,-3.79 -26.59,-8.68 -39.08,-14.65 -13.03,-6.51 -24.7,-14.1 -35,-22.8 -11.95,-10.31 -21.45,-21.97 -28.5,-34.99 -5.97,-11.96 -8.96,-24.99 -8.96,-39.09 0,-16.29 2.98,-31.35 8.96,-45.19 5.97,-13.85 14.38,-25.78 25.24,-35.82 10.85,-10.04 23.88,-17.78 39.08,-23.2 15.2,-4.89 31.48,-7.33 48.85,-7.33 26.05,0 49.66,5.7 70.84,17.1 10.85,5.42 21.57,13.43 32.15,24.02 10.58,10.58 17.51,20.48 20.76,29.7l1.64 4.08 -3.26 3.25c-14.11,13.03 -29.31,19.54 -45.6,19.54 -11.4,0 -22.79,-3.26 -34.19,-9.78 -5.43,-2.71 -12.76,-5.7 -21.98,-8.95 -9.23,-3.26 -16.01,-4.89 -20.36,-4.89 -7.59,0 -14.38,1.09 -20.35,3.25 -5.97,2.18 -10.85,4.89 -14.65,8.15 -3.8,3.25 -6.65,7.05 -8.55,11.39 -1.9,4.36 -2.85,9.24 -2.85,14.66 0,4.35 0.81,7.87 2.44,10.59 2.71,4.34 6.24,7.86 10.58,10.58 5.43,3.79 11.12,6.77 17.1,8.96 7.05,2.7 13.57,4.88 19.54,6.51l10.58 2.44c17.91,4.88 33.92,11.12 48.04,18.72 14.65,7.05 27.41,15.46 38.26,25.23 10.86,10.31 19.27,21.72 25.25,34.2 6.51,13.03 9.77,27.13 9.77,42.34 0,18.45 -4.07,35 -12.21,49.66 -7.6,14.65 -17.91,26.87 -30.94,36.65 -5.97,4.89 -12.62,9.08 -19.94,12.62 -7.33,3.51 -15.07,6.64 -23.21,9.36zm660.31 -2.44c-18.45,6.51 -38.54,9.77 -60.25,9.77 -26.6,0 -51.57,-5.16 -74.91,-15.46 -23.88,-9.78 -44.51,-23.34 -61.87,-40.73 -17.38,-17.36 -31.08,-37.86 -41.12,-61.46 -10.03,-23.61 -15.06,-48.72 -15.06,-75.32 0,-26.6 4.88,-51.57 14.65,-74.9 9.77,-23.34 23.07,-43.7 39.9,-61.08 16.82,-17.36 36.64,-31.2 59.43,-41.51 22.8,-10.31 46.95,-15.48 72.47,-15.48 24.97,0 48.44,4.89 70.43,14.66 21.97,9.77 41.25,23.06 57.8,39.9 16.56,16.82 29.44,36.91 38.68,60.24 9.77,22.8 14.65,47.49 14.65,74.08 0,15.2 -5.71,25.78 -17.1,31.76 -7.06,3.26 -15.47,4.89 -25.25,4.89l-245.07 0c2.17,7.05 4.89,13.85 8.15,20.36 6.51,13.03 14.92,24.28 25.24,33.79 10.31,9.5 22.25,16.95 35.83,22.38 13.03,5.44 27.13,8.14 42.33,8.14 13.03,0 25.52,-1.89 37.46,-5.7l5.7 -2.44c10.31,-3.79 18.72,-5.7 25.24,-5.7 19,0 37.46,12.21 55.37,36.64l4.07 4.89 -4.89 4.07c-3.8,3.8 -7.6,6.79 -11.4,8.97 -15.74,10.84 -32.56,19.25 -50.47,25.24zm-28.5 -292.3c-11.94,-4.89 -24.7,-7.33 -38.26,-7.33 -13.58,0 -26.33,2.44 -38.27,7.33 -12.48,4.89 -23.61,11.68 -33.38,20.36 -8.15,7.6 -16.56,18.45 -25.25,32.58 -3.8,5.96 -6.51,12.75 -8.14,20.35 4.34,-2.71 8.42,-4.07 12.21,-4.07l193.78 0c-2.17,-5.97 -4.62,-11.68 -7.33,-17.1 -5.97,-11.94 -13.7,-22.4 -23.2,-31.36 -9.51,-8.96 -20.22,-15.88 -32.16,-20.76zm836.16 288.23c-29.31,10.3 -61.07,15.47 -95.26,15.47 -39.08,0 -75.99,-7.33 -110.73,-21.98 -34.19,-14.65 -64.05,-34.89 -89.55,-60.67 -25.52,-25.78 -45.86,-56.04 -61.07,-90.78 -14.65,-34.19 -21.98,-71.1 -21.98,-110.73 0,-26.05 3.4,-51.15 10.18,-75.31 6.78,-24.15 16.28,-46.69 28.5,-67.59 12.21,-20.9 27,-40.02 44.37,-57.39 17.37,-17.38 36.64,-32.29 57.8,-44.79 21.17,-12.47 43.7,-21.98 67.58,-28.5 24.43,-7.05 49.66,-10.58 75.72,-10.58 33.66,0 65.14,5.44 94.44,16.29 28.77,10.86 55.64,25.78 80.61,44.79l4.89 3.25 -2.44 4.08c-2.71,5.97 -7.47,11.93 -14.25,17.91 -6.78,5.97 -15.2,11.12 -25.24,15.47 -10.04,4.34 -20.22,6.51 -30.54,6.51 -9.77,0 -18.72,-2.17 -26.86,-6.51 -29.32,-15.19 -55.37,-22.79 -78.16,-22.79 -19.54,0 -37.99,2.44 -55.37,7.32 -17.91,4.89 -34.73,11.81 -50.47,20.76 -15.74,8.95 -29.85,19.94 -42.34,32.97 -12.48,13.03 -23.34,26.86 -32.57,41.53 -8.68,15.73 -15.47,32.3 -20.35,49.66 -4.89,17.38 -7.33,35.29 -7.33,53.74 0,19 2.44,37.18 7.33,54.55 4.88,17.37 11.81,33.66 20.76,48.85 8.95,15.19 19.81,29.04 32.56,41.54 12.76,12.47 26.74,23.33 41.94,32.57 15.19,8.68 31.48,15.45 48.85,20.34 17.37,4.89 35.28,7.33 53.73,7.33 31.48,0 62.42,-7.87 92.82,-23.6 9.78,-4.89 19.27,-7.33 28.5,-7.33 22.25,0 41.26,13.29 57,39.89l2.44 4.88 -4.07 3.26c-24.97,19.55 -52.11,34.74 -81.42,45.6zm217.39 8.14l-76.54 0 0 -379.41 76.54 0 0 379.41zm11.4 -453.5c0,13.57 -4.75,25.09 -14.25,34.59 -9.5,9.5 -21.03,14.25 -34.61,14.25 -13.57,0 -25.1,-4.75 -34.6,-14.25 -9.5,-9.5 -14.25,-21.02 -14.25,-34.59 0,-13.59 4.75,-25.12 14.25,-34.61 9.5,-9.5 21.03,-14.25 34.6,-14.25 13.58,0 25.11,4.75 34.61,14.25 9.5,9.49 14.25,21.02 14.25,34.61zm305.32 449.43c-18.45,6.51 -38.54,9.77 -60.25,9.77 -26.6,0 -51.57,-5.16 -74.91,-15.46 -23.88,-9.78 -44.51,-23.34 -61.87,-40.73 -17.38,-17.36 -31.08,-37.86 -41.12,-61.46 -10.03,-23.61 -15.06,-48.72 -15.06,-75.32 0,-26.6 4.88,-51.57 14.65,-74.9 9.77,-23.34 23.07,-43.7 39.9,-61.08 16.82,-17.36 36.64,-31.2 59.43,-41.51 22.8,-10.31 46.95,-15.48 72.47,-15.48 24.97,0 48.44,4.89 70.43,14.66 21.97,9.77 41.25,23.06 57.8,39.9 16.56,16.82 29.44,36.91 38.68,60.24 9.77,22.8 14.65,47.49 14.65,74.08 0,15.2 -5.71,25.78 -17.1,31.76 -7.06,3.26 -15.47,4.89 -25.25,4.89l-245.07 0c2.17,7.05 4.89,13.85 8.15,20.36 6.51,13.03 14.92,24.28 25.24,33.79 10.31,9.5 22.25,16.95 35.83,22.38 13.03,5.44 27.13,8.14 42.33,8.14 13.03,0 25.52,-1.89 37.46,-5.7l5.7 -2.44c10.31,-3.79 18.72,-5.7 25.24,-5.7 19,0 37.46,12.21 55.37,36.64l4.07 4.89 -4.89 4.07c-3.8,3.8 -7.6,6.79 -11.4,8.97 -15.74,10.84 -32.56,19.25 -50.47,25.24zm-28.5 -292.3c-11.94,-4.89 -24.7,-7.33 -38.26,-7.33 -13.58,0 -26.33,2.44 -38.27,7.33 -12.48,4.89 -23.61,11.68 -33.38,20.36 -8.15,7.6 -16.56,18.45 -25.25,32.58 -3.8,5.96 -6.51,12.75 -8.14,20.35 4.34,-2.71 8.42,-4.07 12.21,-4.07l193.78 0c-2.17,-5.97 -4.62,-11.68 -7.33,-17.1 -5.97,-11.94 -13.7,-22.4 -23.2,-31.36 -9.51,-8.96 -20.22,-15.88 -32.16,-20.76zm205.98 296.37l0 -379.41 76.54 0 0 28.5c4.89,-3.81 10.04,-7.06 15.47,-9.77 10.85,-6.51 22.52,-11.4 35.01,-14.66 12.48,-3.25 25.24,-4.89 38.26,-4.89 21.72,0 42.06,4.35 61.07,13.04 18.99,8.14 35.42,19.4 49.26,33.79 13.84,14.38 24.7,31.34 32.57,50.88 7.87,19.54 11.81,40.16 11.81,61.88l0 219.84 -76.54 0 0 -220.65c-0.54,-10.85 -2.98,-21.72 -7.33,-32.57 -4.34,-9.77 -10.03,-18.45 -17.1,-26.06 -7.05,-7.58 -15.47,-13.56 -25.24,-17.91 -9.78,-4.34 -21.17,-6.51 -34.19,-6.51 -10.86,0 -21.45,2.17 -31.76,6.51 -9.77,4.35 -18.45,10.04 -26.05,17.1 -7.59,7.05 -13.84,15.47 -18.72,25.25 -4.34,9.78 -6.51,20.36 -6.51,31.76l0 223.9 -76.54 0zm638.33 -8.96c-21.72,9.78 -45.6,14.65 -71.65,14.65 -26.6,0 -51.57,-5.16 -74.91,-15.46 -22.25,-10.31 -41.79,-24.16 -58.62,-41.54 -16.83,-17.91 -29.85,-38.53 -39.08,-61.87 -9.23,-23.33 -13.84,-48.32 -13.84,-74.91 0,-26.59 4.61,-51.56 13.84,-74.9 9.23,-23.33 22.25,-43.82 39.08,-61.48 16.83,-17.64 36.64,-31.34 59.44,-41.1 22.79,-10.31 47.49,-15.47 74.09,-15.47 24.42,0 47.22,4.34 68.39,13.03 21.17,8.14 40.17,19.8 57,35.01 2.71,1.63 5.7,4.33 8.96,8.13l3.25 4.07 -3.25 4.07c-15.74,20.64 -33.39,30.94 -52.93,30.94 -10.31,0 -22.79,-3.25 -37.46,-9.77 -13.03,-5.97 -27.41,-8.96 -43.15,-8.96 -16.28,0 -30.93,2.99 -43.96,8.96 -13.03,5.97 -24.43,14.25 -34.2,24.83 -9.77,10.59 -17.37,23.06 -22.79,37.46 -5.43,14.38 -8.14,29.45 -8.14,45.18 0,16.28 2.71,31.48 8.14,45.6 5.43,14.1 13.03,26.59 22.79,37.46 9.78,10.31 21.18,18.45 34.2,24.41 13.03,5.98 27.68,8.96 43.96,8.96 7.6,0 14.93,-0.81 21.98,-2.44 9.23,-2.16 16.29,-4.61 21.17,-7.32 10.86,-5.97 21.72,-8.96 32.57,-8.96 22.25,0 40.44,11.13 54.55,33.38l3.26 4.89 -4.08 3.26c-17.37,16.83 -36.91,30.13 -58.61,39.9zm197.02 8.96l-76.54 0 0 -379.41 76.54 0 0 379.41zm11.4 -453.5c0,13.57 -4.75,25.09 -14.25,34.59 -9.5,9.5 -21.03,14.25 -34.61,14.25 -13.57,0 -25.1,-4.75 -34.6,-14.25 -9.5,-9.5 -14.25,-21.02 -14.25,-34.59 0,-13.59 4.75,-25.12 14.25,-34.61 9.5,-9.5 21.03,-14.25 34.6,-14.25 13.58,0 25.11,4.75 34.61,14.25 9.5,9.49 14.25,21.02 14.25,34.61zm282.52 453.5c-14.65,3.8 -30.39,5.7 -47.22,5.7 -25.51,0 -49.66,-5.16 -72.46,-15.46 -22.25,-9.78 -41.53,-23.62 -57.81,-41.54 -16.28,-16.82 -29.04,-36.9 -38.26,-60.24 -9.23,-23.34 -13.85,-48.32 -13.85,-74.92 0,-26.59 4.62,-51.56 13.85,-74.89 9.23,-23.34 21.98,-43.83 38.26,-61.47 16.29,-17.66 35.56,-31.63 57.81,-41.93 22.25,-10.31 46.4,-15.48 72.46,-15.48 16.83,0 32.84,2.16 48.04,6.52 15.2,4.34 29.04,10.58 41.53,18.72 5.97,3.79 11.39,7.87 16.28,12.21l0 -36.64 6.51 0c19,0 35.28,6.79 48.86,20.36 13.57,13.57 20.35,29.85 20.35,48.84l0 310.22 -6.51 0c-39.62,0 -62.69,-10.58 -69.21,-31.75 -5.43,4.89 -11.39,9.49 -17.91,13.84 -12.49,7.59 -26.05,13.57 -40.72,17.91zm-5.7 -293.93c-12.49,-5.97 -26.32,-8.96 -41.53,-8.96 -15.2,0 -29.04,2.99 -41.53,8.96 -13.03,5.97 -24.15,14.12 -33.38,24.43 -9.23,10.3 -16.56,22.66 -21.98,37.05 -5.43,14.38 -8.14,29.71 -8.14,45.99 0,16.29 2.58,31.48 7.74,45.6 5.16,14.1 12.61,26.31 22.39,36.64 9.23,10.31 20.35,18.45 33.38,24.42 12.49,5.97 26.32,8.96 41.53,8.96 15.2,0 29.04,-2.98 41.53,-8.96 12.49,-5.97 23.34,-13.85 32.57,-23.6 9.23,-10.32 16.56,-22.53 21.98,-36.64 5.43,-14.12 8.14,-29.6 8.14,-46.42 0,-16.28 -2.71,-31.48 -8.14,-45.59 -4.89,-14.12 -12.22,-26.59 -21.98,-37.46 -8.69,-10.3 -19.54,-18.45 -32.57,-24.43zm387.55 292.3c-16.29,4.33 -33.12,6.51 -50.48,6.51 -27.68,0 -53.33,-8.7 -76.94,-26.05 -23.61,-17.38 -41.39,-35.55 -53.33,-54.56l-2.44 -4.89 3.26 -3.25c15.2,-15.73 31.21,-23.6 48.04,-23.6 14.65,0 28.22,5.7 40.71,17.09 15.74,14.11 29.31,21.17 40.71,21.17 7.06,0 14.38,-1.08 21.98,-3.25 7.05,-1.64 13.85,-4.34 20.36,-8.15 5.43,-3.79 10.03,-8.14 13.84,-13.03 2.71,-4.33 4.07,-9.76 4.07,-16.27 0,-5.44 -1.36,-10.05 -4.07,-13.85 -3.8,-5.44 -8.68,-10.04 -14.65,-13.84 -7.05,-4.89 -14.92,-8.69 -23.61,-11.4 -8.69,-3.8 -17.65,-6.79 -26.87,-8.97 -13.57,-3.79 -26.59,-8.68 -39.08,-14.65 -13.03,-6.51 -24.7,-14.1 -35,-22.8 -11.95,-10.31 -21.45,-21.97 -28.5,-34.99 -5.97,-11.96 -8.96,-24.99 -8.96,-39.09 0,-16.29 2.98,-31.35 8.96,-45.19 5.97,-13.85 14.38,-25.78 25.24,-35.82 10.85,-10.04 23.88,-17.78 39.08,-23.2 15.2,-4.89 31.48,-7.33 48.85,-7.33 26.05,0 49.66,5.7 70.84,17.1 10.85,5.42 21.57,13.43 32.15,24.02 10.58,10.58 17.51,20.48 20.76,29.7l1.64 4.08 -3.26 3.25c-14.11,13.03 -29.31,19.54 -45.6,19.54 -11.4,0 -22.79,-3.26 -34.19,-9.78 -5.43,-2.71 -12.76,-5.7 -21.98,-8.95 -9.23,-3.26 -16.01,-4.89 -20.36,-4.89 -7.59,0 -14.38,1.09 -20.35,3.25 -5.97,2.18 -10.85,4.89 -14.65,8.15 -3.8,3.25 -6.65,7.05 -8.55,11.39 -1.9,4.36 -2.85,9.24 -2.85,14.66 0,4.35 0.81,7.87 2.44,10.59 2.71,4.34 6.24,7.86 10.58,10.58 5.43,3.79 11.12,6.77 17.1,8.96 7.05,2.7 13.57,4.88 19.54,6.51l10.58 2.44c17.91,4.88 33.92,11.12 48.04,18.72 14.65,7.05 27.41,15.46 38.26,25.23 10.86,10.31 19.27,21.72 25.25,34.2 6.51,13.03 9.77,27.13 9.77,42.34 0,18.45 -4.07,35 -12.21,49.66 -7.6,14.65 -17.91,26.87 -30.94,36.65 -5.97,4.89 -12.62,9.08 -19.94,12.62 -7.33,3.51 -15.07,6.64 -23.21,9.36zm806.86 4.07l-375.34 0 0 -556.92 381.04 0 0 77.35 -302.88 0 0 111.55 237.75 0 0 78.15 -237.75 0 0 212.5 297.18 0 0 77.35zm385.93 -2.44l-59.44 0c-12.48,0 -23.06,-2.18 -31.75,-6.51 -8.69,-4.35 -17.1,-12.77 -25.24,-25.24 -14.11,-20.09 -33.12,-47.77 -57,-83.05l-58.62 84.68c-11.94,20.07 -33.39,30.12 -64.32,30.12l-50.48 0 127.01 -182.39 -129.45 -198.65 57 0 8.14 0c16.83,0 29.59,5.97 38.26,17.91l73.29 113.17c30.93,-46.68 54.27,-81.69 70.01,-105.04 11.4,-16.28 29.32,-24.43 53.73,-24.43l60.26 0 -132.72 197.84 121.31 181.57zm249.95 0c-14.65,3.8 -30.39,5.7 -47.22,5.7 -25.51,0 -49.66,-5.16 -72.46,-15.46 -22.25,-9.78 -41.53,-23.62 -57.81,-41.54 -16.28,-16.82 -29.04,-36.9 -38.26,-60.24 -9.23,-23.34 -13.85,-48.32 -13.85,-74.92 0,-26.59 4.62,-51.56 13.85,-74.89 9.23,-23.34 21.98,-43.83 38.26,-61.47 16.29,-17.66 35.56,-31.63 57.81,-41.93 22.25,-10.31 46.4,-15.48 72.46,-15.48 16.83,0 32.84,2.16 48.04,6.52 15.2,4.34 29.04,10.58 41.53,18.72 5.97,3.79 11.39,7.87 16.28,12.21l0 -36.64 6.51 0c19,0 35.28,6.79 48.86,20.36 13.57,13.57 20.35,29.85 20.35,48.84l0 310.22 -6.51 0c-39.62,0 -62.69,-10.58 -69.21,-31.75 -5.43,4.89 -11.39,9.49 -17.91,13.84 -12.49,7.59 -26.05,13.57 -40.72,17.91zm-5.7 -293.93c-12.49,-5.97 -26.32,-8.96 -41.53,-8.96 -15.2,0 -29.04,2.99 -41.53,8.96 -13.03,5.97 -24.15,14.12 -33.38,24.43 -9.23,10.3 -16.56,22.66 -21.98,37.05 -5.43,14.38 -8.14,29.71 -8.14,45.99 0,16.29 2.58,31.48 7.74,45.6 5.16,14.1 12.61,26.31 22.39,36.64 9.23,10.31 20.35,18.45 33.38,24.42 12.49,5.97 26.32,8.96 41.53,8.96 15.2,0 29.04,-2.98 41.53,-8.96 12.49,-5.97 23.34,-13.85 32.57,-23.6 9.23,-10.32 16.56,-22.53 21.98,-36.64 5.43,-14.12 8.14,-29.6 8.14,-46.42 0,-16.28 -2.71,-31.48 -8.14,-45.59 -4.89,-14.12 -12.22,-26.59 -21.98,-37.46 -8.69,-10.3 -19.54,-18.45 -32.57,-24.43zm247.52 295.56l0 -297.18 -47.23 0 0 -31.76c0,-12.47 4.35,-22.93 13.03,-31.34 8.69,-8.42 19,-12.61 30.94,-12.61l3.26 0 0 -44.8c0,-38.52 17.91,-57.79 53.73,-57.79l24.42 0 0 102.59 65.95 0 0 21.97c0,14.66 -5.29,27.27 -15.88,37.85 -10.58,10.59 -23.21,15.88 -37.86,15.88l-12.22 0 0 219.01c0,21.72 -7.59,40.18 -22.79,55.38 -15.2,15.19 -33.66,22.79 -55.36,22.79zm398.95 -1.63c-14.65,3.8 -30.39,5.7 -47.22,5.7 -25.51,0 -49.66,-5.16 -72.46,-15.46 -22.25,-9.78 -41.53,-23.62 -57.81,-41.54 -16.28,-16.82 -29.04,-36.9 -38.26,-60.24 -9.23,-23.34 -13.85,-48.32 -13.85,-74.92 0,-26.59 4.62,-51.56 13.85,-74.89 9.23,-23.34 21.98,-43.83 38.26,-61.47 16.29,-17.66 35.56,-31.63 57.81,-41.93 22.25,-10.31 46.4,-15.48 72.46,-15.48 16.83,0 32.84,2.16 48.04,6.52 15.2,4.34 29.04,10.58 41.53,18.72 5.97,3.79 11.39,7.87 16.28,12.21l0 -36.64 6.51 0c19,0 35.28,6.79 48.86,20.36 13.57,13.57 20.35,29.85 20.35,48.84l0 310.22 -6.51 0c-39.62,0 -62.69,-10.58 -69.21,-31.75 -5.43,4.89 -11.39,9.49 -17.91,13.84 -12.49,7.59 -26.05,13.57 -40.72,17.91zm-5.7 -293.93c-12.49,-5.97 -26.32,-8.96 -41.53,-8.96 -15.2,0 -29.04,2.99 -41.53,8.96 -13.03,5.97 -24.15,14.12 -33.38,24.43 -9.23,10.3 -16.56,22.66 -21.98,37.05 -5.43,14.38 -8.14,29.71 -8.14,45.99 0,16.29 2.58,31.48 7.74,45.6 5.16,14.1 12.61,26.31 22.39,36.64 9.23,10.31 20.35,18.45 33.38,24.42 12.49,5.97 26.32,8.96 41.53,8.96 15.2,0 29.04,-2.98 41.53,-8.96 12.49,-5.97 23.34,-13.85 32.57,-23.6 9.23,-10.32 16.56,-22.53 21.98,-36.64 5.43,-14.12 8.14,-29.6 8.14,-46.42 0,-16.28 -2.71,-31.48 -8.14,-45.59 -4.89,-14.12 -12.22,-26.59 -21.98,-37.46 -8.69,-10.3 -19.54,-18.45 -32.57,-24.43zm387.55 292.3c-16.29,4.33 -33.12,6.51 -50.48,6.51 -27.68,0 -53.33,-8.7 -76.94,-26.05 -23.61,-17.38 -41.39,-35.55 -53.33,-54.56l-2.44 -4.89 3.26 -3.25c15.2,-15.73 31.21,-23.6 48.04,-23.6 14.65,0 28.22,5.7 40.71,17.09 15.74,14.11 29.31,21.17 40.71,21.17 7.06,0 14.38,-1.08 21.98,-3.25 7.05,-1.64 13.85,-4.34 20.36,-8.15 5.43,-3.79 10.03,-8.14 13.84,-13.03 2.71,-4.33 4.07,-9.76 4.07,-16.27 0,-5.44 -1.36,-10.05 -4.07,-13.85 -3.8,-5.44 -8.68,-10.04 -14.65,-13.84 -7.05,-4.89 -14.92,-8.69 -23.61,-11.4 -8.69,-3.8 -17.65,-6.79 -26.87,-8.97 -13.57,-3.79 -26.59,-8.68 -39.08,-14.65 -13.03,-6.51 -24.7,-14.1 -35,-22.8 -11.95,-10.31 -21.45,-21.97 -28.5,-34.99 -5.97,-11.96 -8.96,-24.99 -8.96,-39.09 0,-16.29 2.98,-31.35 8.96,-45.19 5.97,-13.85 14.38,-25.78 25.24,-35.82 10.85,-10.04 23.88,-17.78 39.08,-23.2 15.2,-4.89 31.48,-7.33 48.85,-7.33 26.05,0 49.66,5.7 70.84,17.1 10.85,5.42 21.57,13.43 32.15,24.02 10.58,10.58 17.51,20.48 20.76,29.7l1.64 4.08 -3.26 3.25c-14.11,13.03 -29.31,19.54 -45.6,19.54 -11.4,0 -22.79,-3.26 -34.19,-9.78 -5.43,-2.71 -12.76,-5.7 -21.98,-8.95 -9.23,-3.26 -16.01,-4.89 -20.36,-4.89 -7.59,0 -14.38,1.09 -20.35,3.25 -5.97,2.18 -10.85,4.89 -14.65,8.15 -3.8,3.25 -6.65,7.05 -8.55,11.39 -1.9,4.36 -2.85,9.24 -2.85,14.66 0,4.35 0.81,7.87 2.44,10.59 2.71,4.34 6.24,7.86 10.58,10.58 5.43,3.79 11.12,6.77 17.1,8.96 7.05,2.7 13.57,4.88 19.54,6.51l10.58 2.44c17.91,4.88 33.92,11.12 48.04,18.72 14.65,7.05 27.41,15.46 38.26,25.23 10.86,10.31 19.27,21.72 25.25,34.2 6.51,13.03 9.77,27.13 9.77,42.34 0,18.45 -4.07,35 -12.21,49.66 -7.6,14.65 -17.91,26.87 -30.94,36.65 -5.97,4.89 -12.62,9.08 -19.94,12.62 -7.33,3.51 -15.07,6.64 -23.21,9.36zm-4247.09 -511.76l45.57 0 94.76 109.06 -21.6 0 -96.15 -71.98 -96.14 71.98 -21.6 0 95.15 -109.06z"/>
  <polygon class="fil2" points="941.62,4409.96 4338.32,4409.96 4338.32,4635.78 941.62,4635.78 "/>
  <polygon class="fil3" points="7734.99,4409.96 4338.31,4409.96 4338.31,4635.78 7734.99,4635.78 "/>
  <polygon class="fil4" points="11131.68,4409.96 7734.99,4409.96 7734.99,4635.78 11131.68,4635.78 "/>
 </g>
</svg>
