<?xml version="1.0" encoding="UTF-8"?>
<!DOCTYPE svg PUBLIC "-//W3C//DTD SVG 1.1//EN" "http://www.w3.org/Graphics/SVG/1.1/DTD/svg11.dtd">
<!-- Creator: CorelDRAW -->
<svg xmlns="http://www.w3.org/2000/svg" xml:space="preserve" width="60.6357mm" height="25.2517mm" version="1.1" style="shape-rendering:geometricPrecision; text-rendering:geometricPrecision; image-rendering:optimizeQuality; fill-rule:evenodd; clip-rule:evenodd"
viewBox="0 0 2486.48 1035.49"
 xmlns:xlink="http://www.w3.org/1999/xlink"
 xmlns:xodm="http://www.corel.com/coreldraw/odm/2003">
 <defs>
  <style type="text/css">
   <![CDATA[
    .fil2 {fill:#CCCCCC}
    .fil3 {fill:#E6E6E6}
    .fil0 {fill:white}
    .fil1 {fill:white;fill-rule:nonzero}
   ]]>
  </style>
 </defs>
 <g id="Camada_x0020_1">
  <metadata id="CorelCorpID_0Corel-Layer"/>
  <path class="fil0" d="M460.08 518.83c32.14,7.74 102.18,9.8 129.27,-0.2 11.92,-52.23 -19.32,-48.32 6.83,-92.85l-22.02 -12.62c39.87,-16.64 25.41,-17.04 19.22,-54.58 17.55,-3.94 30.95,-16.34 20.85,-33.51 -10.74,-18.27 -40.99,-22.39 -54.6,-63.7 -6.7,-96.36 -67.24,-185.95 -215.23,-192.57 -4.72,-25.22 -26.86,-44.32 -53.46,-44.32 -30.04,0 -54.4,24.35 -54.4,54.39 0,7.37 1.46,14.4 4.12,20.8l-105.06 30.48c-4.3,-5.29 -10.87,-8.68 -18.22,-8.68 -12.97,0 -23.48,10.51 -23.48,23.48 0,12.96 10.51,23.47 23.48,23.47 7.13,0 13.51,-3.18 17.82,-8.19l174.42 44.76c-0.5,2.46 -0.76,5.01 -0.76,7.62 0,2.79 0.31,5.52 0.87,8.14l-241.99 19.09c-2.26,-16.61 -16.49,-29.41 -33.72,-29.41 -18.79,0 -34.03,15.25 -34.03,34.04 0,18.8 15.24,34.04 34.03,34.04 16.49,0 30.23,-11.73 33.37,-27.29l246.64 -19.46c6.59,11.27 18.82,18.85 32.82,18.85 0.75,0 1.5,-0.02 2.23,-0.07l15.96 90.54c-8.25,1.86 -15.79,5.61 -22.13,10.78l-59.05 -48.56c0.96,-2.55 1.48,-5.32 1.48,-8.21 0,-12.97 -10.51,-23.48 -23.48,-23.48 -12.96,0 -23.47,10.51 -23.47,23.48 0,12.97 10.51,23.48 23.47,23.48 5.98,0 11.44,-2.24 15.58,-5.92l57.48 47.26c-2.82,3.52 -5.21,7.4 -7.08,11.56l-72.48 -5.12c-0.09,-20.45 -16.69,-37 -37.16,-37 -20.52,0 -37.17,16.64 -37.17,37.16 0,20.53 16.64,37.17 37.17,37.17 7.46,0 14.41,-2.21 20.22,-5.98l109.46 125.09c-1.63,-0.42 -3.33,-0.65 -5.1,-0.65 -5.13,0 -9.83,1.9 -13.4,5.04l-224.64 -89.39c0.51,-1.92 0.78,-3.94 0.78,-6.02 0,-12.97 -10.51,-23.48 -23.48,-23.48 -12.96,0 -23.48,10.51 -23.48,23.48 0,12.96 10.51,23.47 23.48,23.47 6.79,0 12.9,-2.87 17.18,-7.48l224.01 89.14c-0.5,1.76 -0.77,3.63 -0.77,5.55 0,2.55 0.47,4.99 1.33,7.23 -6.63,30.74 -13.19,56.23 -1.64,84.62 10.31,36.22 39.02,66.19 72.34,81.79l-7.14 -9.85c-7.7,-11.31 -13.26,-23.8 -16.78,-39 -6.36,-17.19 -4.24,-39.46 0.44,-57.22 9.7,-36.86 27.02,-18.68 40.43,-53.75 12.11,-31.63 26.49,-18.98 48.62,-37.45zm-113.22 -344.22c16.95,0 31.3,11.1 36.2,26.43l115.75 -17.81c-59.3,-67.3 -125.43,-75.18 -158.26,-81.97 -4.67,10.31 -12.45,18.91 -22.15,24.59l20.42 49.61c2.59,-0.55 5.28,-0.85 8.04,-0.85zm37.98 38.52c-0.13,9.27 -3.57,17.75 -9.21,24.27l148.39 120.63c0.51,-0.13 1.02,-8.64 1.52,-8.84 9.36,-8.1 1.37,-123.9 -19.8,-154.67l-120.9 18.6zm-20.98 33.45c-1.21,0.6 -2.44,1.15 -3.72,1.62l16.14 91.56 0.59 -0c24.42,0 45.03,16.3 51.57,38.6 5.73,4.55 8.57,4.51 22.86,3.2 49.08,-3.78 56.16,2.04 63.05,-11.22l-150.5 -123.75zm-50.32 -52.27c3.42,-6.21 8.53,-11.36 14.71,-14.84l-20.15 -48.96c-5.39,1.79 -11.15,2.76 -17.14,2.76 -19.07,0 -35.85,-9.82 -45.56,-24.67l-105.25 30.53c0.47,1.86 0.72,3.81 0.72,5.81 0,1.69 -0.18,3.33 -0.52,4.92l173.2 44.44zm54.63 315c1.3,0 2.57,0.12 3.81,0.36l1.47 -41.66 0.66 -17.72c-2.4,-1.79 -4.24,-2.95 -5.71,-3.72 -25.65,-4.07 -45.26,-26.28 -45.26,-53.07 0,-3.75 0.39,-7.41 1.12,-10.94l-70.56 -5c-1.45,4.68 -3.79,8.94 -6.84,12.62l108.33 123.81c3.52,-2.92 8.04,-4.68 12.97,-4.68zm104.71 -509.31c18.8,0 34.04,15.23 34.04,34.03 0,18.8 -15.25,34.04 -34.04,34.04 -18.79,0 -34.04,-15.24 -34.04,-34.04 0,-18.8 15.24,-34.03 34.04,-34.03zm45.93 68.08c11.44,0 20.72,9.28 20.72,20.71 0,11.44 -9.27,20.72 -20.72,20.72 -11.44,0 -20.72,-9.28 -20.72,-20.72 0,-11.44 9.28,-20.71 20.72,-20.71zm-18.49 506.45c11.22,0 20.32,9.1 20.32,20.31 0,11.23 -9.1,20.33 -20.32,20.33 -11.22,0 -20.31,-9.1 -20.31,-20.33 0,-11.22 9.1,-20.31 20.31,-20.31zm-256.17 15.43c16.69,0 30.21,13.52 30.21,30.2 0,16.68 -13.52,30.2 -30.21,30.2 -16.67,0 -30.2,-13.52 -30.2,-30.2 0,-16.68 13.52,-30.2 30.2,-30.2zm663.7 -301.4l7.21 6.61 -1.8 9.6c-1.2,3.21 -3.6,7.51 -7.2,12.92 -3.6,5.4 -9.71,11.62 -18.32,18.62 -8.61,7.01 -17.12,10.51 -25.53,10.51l-28.83 0c-9.61,0 -16.82,4.61 -21.62,13.82 -4.81,9.21 -7.21,19.22 -7.21,30.03l0.6 177.81 -76.89 0 0 -299.14 75.69 0 0 16.22c13.22,-10.41 28.83,-15.62 46.85,-15.62 22.43,0 41.45,6.21 57.07,18.63zm297.34 70.27c7.61,18.42 11.42,38.04 11.42,58.87 0,15.22 -6.01,25.83 -18.02,31.84 -6.41,3.2 -14.02,4.81 -22.82,4.81l-166.99 0c0,0 0.1,0.2 0.3,0.6 0.2,0.4 0.3,0.6 0.3,0.6 4.01,8.41 9.41,15.62 16.22,21.63 6.8,6.41 14.82,11.41 24.03,15.02 8.41,3.6 17.62,5.41 27.63,5.41 8.81,0 17.02,-1.41 24.63,-4.21l4.21 -1.2c8.41,-3.2 15.62,-4.81 21.62,-4.81 16.82,0 33.04,10.21 48.65,30.63l7.81 10.81 -9.61 8.41c-3.2,3.21 -6.41,5.81 -9.61,7.81 -12.41,8.41 -25.83,15.02 -40.25,19.82 -14.41,5.21 -30.03,7.81 -46.85,7.81 -20.83,0 -40.65,-4.01 -59.47,-12.02 -18.42,-8.01 -34.44,-18.82 -48.05,-32.44 -13.62,-13.61 -24.43,-29.64 -32.44,-48.06 -8,-18.42 -12.01,-38.14 -12.01,-59.17 0,-21.02 3.8,-40.74 11.41,-59.16 7.61,-18.42 18.12,-34.54 31.54,-48.36 13.41,-13.81 28.93,-24.73 46.55,-32.74 18.02,-8.01 37.24,-12.02 57.67,-12.02 19.62,0 38.24,4.01 55.86,12.02 17.22,7.2 32.44,17.62 45.65,31.23 12.81,13.21 23.03,28.84 30.63,46.85zm-194.02 22.83c4.01,0 44.65,0 121.94,0 -4.01,-7.21 -8.81,-13.61 -14.42,-19.22 -6.41,-5.61 -13.62,-10.21 -21.63,-13.82 -7.61,-2.8 -15.62,-4.21 -24.03,-4.21 -8.81,0 -17.22,1.4 -25.23,4.21 -7.61,3.2 -14.82,7.81 -21.62,13.82 -4.81,4.4 -9.81,10.81 -15.02,19.22zm528.61 -19.82c7.2,18.42 10.81,38.04 10.81,58.86 0,20.83 -3.6,40.45 -10.81,58.87 -7.21,18.42 -17.22,34.44 -30.03,48.06 -12.82,13.61 -27.84,24.43 -45.05,32.44 -17.22,8.01 -35.84,12.01 -55.86,12.01 -17.22,0 -32.24,-2 -45.05,-6.01 -8.41,-2.8 -15.82,-6 -22.23,-9.61l0 12.01 -76.89 0 0 -420.48 76.89 0 0 139.96c8.41,-5.61 18.02,-10.01 28.84,-13.22 11.61,-4 24.43,-6.01 38.44,-6.01 20.02,0 38.64,4.21 55.86,12.62 17.22,8 32.24,18.92 45.05,32.74 12.81,13.81 22.82,29.73 30.03,47.76zm-86.5 113.52c6.41,-6.81 11.41,-14.91 15.02,-24.32 3.6,-9.42 5.4,-19.43 5.4,-30.04 0,-10.61 -1.9,-20.72 -5.7,-30.33 -3.81,-9.61 -8.71,-17.82 -14.72,-24.63 -6.41,-6.8 -13.62,-12.01 -21.62,-15.62 -7.61,-4 -15.82,-6 -24.63,-6 -8.81,0 -17.02,2.01 -24.63,6 -8.41,3.61 -15.82,8.91 -22.23,15.92 -6.41,7.01 -11.41,15.22 -15.01,24.63 -3.61,9.42 -5.41,19.42 -5.41,30.03 0,10.61 1.8,20.63 5.41,30.04 3.6,9.41 8.61,17.51 15.01,24.32 6.41,6.81 13.62,12.22 21.63,16.22 8.01,3.61 16.42,5.41 25.23,5.41 8.81,0 17.02,-1.8 24.63,-5.41 8,-4 15.22,-9.41 21.62,-16.22zm412.67 -116.53c7.61,18.42 11.41,38.04 11.41,58.87 0,15.22 -6.01,25.83 -18.02,31.84 -6.41,3.2 -14.02,4.81 -22.83,4.81l-166.99 0c0,0 0.1,0.2 0.3,0.6 0.2,0.4 0.3,0.6 0.3,0.6 4,8.41 9.41,15.62 16.22,21.63 6.81,6.41 14.82,11.41 24.03,15.02 8.41,3.6 17.62,5.41 27.63,5.41 8.81,0 17.02,-1.41 24.63,-4.21l4.21 -1.2c8.41,-3.2 15.62,-4.81 21.62,-4.81 16.82,0 33.04,10.21 48.66,30.63l7.81 10.81 -9.61 8.41c-3.2,3.21 -6.41,5.81 -9.61,7.81 -12.41,8.41 -25.83,15.02 -40.24,19.82 -14.42,5.21 -30.03,7.81 -46.85,7.81 -20.82,0 -40.65,-4.01 -59.47,-12.02 -18.42,-8.01 -34.44,-18.82 -48.06,-32.44 -13.61,-13.61 -24.43,-29.64 -32.44,-48.06 -8.01,-18.42 -12.01,-38.14 -12.01,-59.17 0,-21.02 3.81,-40.74 11.42,-59.16 7.61,-18.42 18.12,-34.54 31.53,-48.36 13.41,-13.81 28.93,-24.73 46.56,-32.74 18.02,-8.01 37.24,-12.02 57.66,-12.02 19.62,0 38.24,4.01 55.86,12.02 17.22,7.2 32.44,17.62 45.65,31.23 12.81,13.21 23.03,28.84 30.64,46.85zm-194.02 22.83c4.01,0 44.65,0 121.94,0 -4.01,-7.21 -8.81,-13.61 -14.42,-19.22 -6.41,-5.61 -13.61,-10.21 -21.62,-13.82 -7.61,-2.8 -15.62,-4.21 -24.03,-4.21 -8.81,0 -17.22,1.4 -25.23,4.21 -7.61,3.2 -14.82,7.81 -21.63,13.82 -4.81,4.4 -9.81,10.81 -15.02,19.22zm442.71 100.91c20.02,0 36.24,9.82 48.66,29.43l6.01 9.62 -8.41 8.41c-14.02,12.82 -29.23,23.02 -45.65,30.63 -17.62,8.01 -36.64,12.02 -57.07,12.02 -21.23,0 -40.85,-4.21 -58.87,-12.61 -18.02,-8.01 -33.64,-19.02 -46.85,-33.04 -12.81,-13.61 -22.92,-29.64 -30.33,-48.06 -7.41,-18.42 -11.11,-38.04 -11.11,-58.87 0,-20.83 3.71,-40.45 11.11,-58.87 7.41,-18.42 17.62,-34.54 30.64,-48.36 13.02,-13.82 28.53,-24.73 46.55,-32.74 18.02,-8 37.64,-12.01 58.87,-12.01 19.22,0 37.24,3.4 54.06,10.21 16.42,6.41 31.24,15.62 44.46,27.63 2,1.2 4.61,3.6 7.81,7.21l7.21 8.41 -6.61 9.61c-13.61,17.62 -29.23,26.43 -46.85,26.43 -8.81,0 -19.42,-2.8 -31.84,-8.41 -8.41,-3.6 -17.62,-5.4 -27.63,-5.4 -10.41,0 -19.82,2 -28.23,6 -8.81,3.61 -16.32,8.81 -22.52,15.62 -6.21,6.81 -11.22,14.91 -15.02,24.33 -3.8,9.41 -5.7,19.52 -5.7,30.33 0,10.81 1.9,20.93 5.7,30.33 3.81,9.42 8.91,17.52 15.32,24.33 6.01,6.81 13.41,12.22 22.22,16.22 8.41,3.61 17.82,5.41 28.23,5.41 4.81,0 9.41,-0.4 13.82,-1.2 6.01,-1.6 10.61,-3.2 13.82,-4.81 9.21,-5.2 18.62,-7.81 28.23,-7.81zm311.16 -213.24c16.42,0 30.63,5.91 42.65,17.72 12.01,11.81 18.02,26.13 18.02,42.95l0 238.47 -14.42 0c-26.43,0 -44.45,-6.2 -54.06,-18.62 -2.01,1.6 -3.81,2.8 -5.41,3.61 -9.61,6.41 -20.42,11.21 -32.44,14.41 -12.01,3.2 -24.43,4.81 -37.24,4.81 -20.43,0 -39.65,-4.01 -57.67,-12.02 -17.22,-8.01 -32.44,-19.02 -45.65,-33.03 -12.81,-13.62 -22.82,-29.64 -30.03,-48.06 -7.21,-18.42 -10.81,-37.94 -10.81,-58.57 0,-20.62 3.6,-40.14 10.81,-58.56 7.21,-18.42 17.22,-34.44 30.03,-48.06 12.82,-14.01 28.03,-25.03 45.65,-33.03 18.02,-8.41 37.24,-12.62 57.67,-12.62 13.21,0 25.83,1.81 37.84,5.41 11.22,3.2 21.43,7.61 30.64,13.22l0 -18.02 14.42 0zm-21.02 182.61c3.6,-9.21 5.4,-19.42 5.4,-30.63 0,-10.81 -1.8,-20.93 -5.4,-30.34 -3.6,-9.41 -8.41,-17.71 -14.42,-24.93 -5.61,-6.4 -12.61,-11.61 -21.02,-15.62 -8.01,-4 -16.82,-6 -26.43,-6 -10.01,0 -19.02,2.01 -27.03,6 -8.01,4.01 -15.12,9.32 -21.32,15.92 -6.21,6.61 -11.11,14.62 -14.72,24.03 -3.6,9.42 -5.41,19.72 -5.41,30.94 0,10.41 1.8,20.32 5.41,29.73 3.6,9.41 8.51,17.51 14.72,24.32 6.2,6.81 13.31,12.02 21.32,15.62 8.01,4.01 17.02,6.01 27.03,6.01 9.61,0 18.42,-1.8 26.43,-5.41 8.41,-4 15.42,-9.21 21.02,-15.61 6.01,-6.82 10.81,-14.82 14.42,-24.03z"/>
  <path class="fil1" d="M791.71 733.72c-4.61,0 -8.03,-1.39 -10.25,-4.16 -1.01,-1.38 -5.54,-7.39 -13.57,-18.01l-0.42 -0.55c-2.03,-2.68 -4.71,-4.02 -8.03,-4.02 -0.37,0 -0.69,0 -0.97,0 -1.48,0.18 -2.72,0.27 -3.74,0.27l-13.3 0 0 26.46 -13.16 0 0 -94.76 26.46 0c1.3,0 2.68,0.05 4.16,0.14 1.48,0.09 3.51,0.39 6.09,0.9 2.59,0.5 5.06,1.2 7.41,2.08 2.35,0.87 4.82,2.17 7.41,3.87 2.59,1.71 4.8,3.72 6.65,6.03 1.85,2.31 3.37,5.29 4.57,8.94 1.2,3.65 1.8,7.69 1.8,12.12 0,4.07 -0.58,7.81 -1.73,11.23 -1.15,3.42 -2.72,6.3 -4.71,8.66 -1.98,2.36 -3.92,4.27 -5.82,5.75 -1.89,1.48 -3.9,2.77 -6.03,3.88l0.97 0c1.85,0 3.32,0.74 4.43,2.21 11.54,15.06 17.92,23.37 19.12,24.94 0.46,0.64 0.6,1.25 0.41,1.8 -0.18,0.64 -0.6,1.06 -1.25,1.25 -2.21,0.64 -4.38,0.97 -6.51,0.97zm-50.29 -39.76l13.3 0c1.57,0 3.21,-0.09 4.92,-0.27 1.71,-0.19 3.83,-0.69 6.38,-1.53 2.54,-0.82 4.78,-1.94 6.72,-3.33 1.94,-1.38 3.6,-3.46 4.99,-6.22 1.39,-2.78 2.08,-5.96 2.08,-9.57 0,-3.23 -0.55,-6.11 -1.66,-8.66 -1.11,-2.54 -2.59,-4.52 -4.44,-5.95 -1.85,-1.44 -3.72,-2.63 -5.61,-3.6 -1.89,-0.97 -3.93,-1.64 -6.1,-2.01 -2.17,-0.37 -3.79,-0.6 -4.85,-0.69 -1.06,-0.09 -2.01,-0.14 -2.84,-0.14l-12.88 0 0 41.98zm581.71 39.76l-63.86 0 0 -94.76 64.84 0 0 13.16 -51.54 0 0 18.97 40.45 0 0 13.3 -40.45 0 0 36.16 50.57 0 0 13.16zm11.64 -0.42l0 -64.56 13.02 0 0 4.85c0.83,-0.64 1.71,-1.2 2.63,-1.66 1.85,-1.11 3.83,-1.94 5.96,-2.5 2.12,-0.55 4.29,-0.83 6.51,-0.83 3.69,0 7.16,0.74 10.39,2.22 3.24,1.39 6.03,3.3 8.38,5.75 2.36,2.44 4.2,5.33 5.54,8.66 1.34,3.33 2.01,6.83 2.01,10.53l0 37.41 -13.02 0 0 -37.54c-0.09,-1.85 -0.51,-3.69 -1.25,-5.55 -0.74,-1.66 -1.71,-3.13 -2.91,-4.42 -1.2,-1.3 -2.63,-2.32 -4.29,-3.05 -1.66,-0.74 -3.6,-1.12 -5.82,-1.12 -1.85,0 -3.65,0.37 -5.4,1.12 -1.66,0.73 -3.14,1.71 -4.43,2.9 -1.3,1.21 -2.36,2.63 -3.19,4.29 -0.74,1.66 -1.11,3.47 -1.11,5.4l0 38.1 -13.02 0zm95.59 -0.27c-2.77,0.74 -5.63,1.11 -8.59,1.11 -4.71,0 -9.07,-1.48 -13.09,-4.44 -4.02,-2.95 -7.04,-6.05 -9.07,-9.28l-0.41 -0.83 0.55 -0.55c2.59,-2.68 5.31,-4.01 8.17,-4.01 2.49,0 4.81,0.97 6.93,2.9 2.68,2.4 4.99,3.6 6.93,3.6 1.2,0 2.44,-0.18 3.74,-0.55 1.2,-0.27 2.35,-0.74 3.46,-1.38 0.93,-0.65 1.71,-1.39 2.36,-2.21 0.46,-0.74 0.69,-1.66 0.69,-2.78 0,-0.92 -0.23,-1.71 -0.69,-2.35 -0.65,-0.92 -1.48,-1.71 -2.49,-2.35 -1.2,-0.83 -2.54,-1.48 -4.02,-1.94 -1.48,-0.64 -3,-1.16 -4.57,-1.52 -2.31,-0.65 -4.53,-1.48 -6.65,-2.5 -2.21,-1.11 -4.2,-2.4 -5.95,-3.88 -2.03,-1.76 -3.65,-3.74 -4.85,-5.96 -1.02,-2.03 -1.52,-4.25 -1.52,-6.65 0,-2.77 0.5,-5.33 1.52,-7.69 1.02,-2.36 2.45,-4.39 4.29,-6.1 1.85,-1.7 4.07,-3.02 6.65,-3.94 2.59,-0.83 5.36,-1.25 8.31,-1.25 4.43,0 8.45,0.97 12.05,2.91 1.85,0.92 3.67,2.28 5.47,4.09 1.8,1.8 2.98,3.49 3.53,5.06l0.28 0.7 -0.55 0.55c-2.4,2.22 -4.99,3.33 -7.76,3.33 -1.94,0 -3.88,-0.55 -5.82,-1.66 -0.92,-0.46 -2.17,-0.97 -3.74,-1.52 -1.57,-0.56 -2.73,-0.83 -3.47,-0.83 -1.29,0 -2.45,0.19 -3.46,0.56 -1.02,0.37 -1.85,0.83 -2.5,1.39 -0.64,0.55 -1.13,1.2 -1.45,1.94 -0.32,0.74 -0.48,1.57 -0.48,2.49 0,0.74 0.14,1.34 0.41,1.8 0.46,0.74 1.06,1.34 1.8,1.8 0.92,0.65 1.89,1.16 2.91,1.53 1.2,0.46 2.3,0.83 3.32,1.11l1.8 0.41c3.05,0.84 5.77,1.9 8.17,3.19 2.49,1.2 4.66,2.63 6.51,4.29 1.85,1.76 3.28,3.69 4.29,5.82 1.11,2.21 1.66,4.62 1.66,7.2 0,3.15 -0.69,5.96 -2.07,8.46 -1.3,2.49 -3.05,4.57 -5.27,6.23 -1.02,0.84 -2.15,1.55 -3.4,2.15 -1.25,0.6 -2.56,1.13 -3.95,1.59zm37.96 0.27l-13.02 0 0 -64.56 13.02 0 0 64.56zm1.94 -77.16c0,2.31 -0.81,4.27 -2.42,5.88 -1.62,1.62 -3.58,2.43 -5.89,2.43 -2.31,0 -4.27,-0.81 -5.89,-2.43 -1.62,-1.62 -2.42,-3.58 -2.42,-5.88 0,-2.31 0.81,-4.27 2.42,-5.89 1.62,-1.62 3.58,-2.42 5.89,-2.42 2.31,0 4.27,0.8 5.89,2.42 1.62,1.62 2.42,3.58 2.42,5.89zm11.08 77.16l0 -64.56 13.02 0 0 4.85c0.83,-0.64 1.71,-1.2 2.63,-1.66 1.85,-1.11 3.83,-1.94 5.96,-2.5 2.12,-0.55 4.29,-0.83 6.51,-0.83 3.69,0 7.16,0.74 10.39,2.22 3.24,1.39 6.03,3.3 8.38,5.75 2.35,2.44 4.2,5.33 5.54,8.66 1.34,3.33 2.01,6.83 2.01,10.53l0 37.41 -13.02 0 0 -37.54c-0.09,-1.85 -0.51,-3.69 -1.25,-5.55 -0.74,-1.66 -1.71,-3.13 -2.91,-4.42 -1.2,-1.3 -2.63,-2.32 -4.29,-3.05 -1.66,-0.74 -3.6,-1.12 -5.82,-1.12 -1.85,0 -3.65,0.37 -5.4,1.12 -1.66,0.73 -3.14,1.71 -4.43,2.9 -1.3,1.21 -2.36,2.63 -3.19,4.29 -0.74,1.66 -1.11,3.47 -1.11,5.4l0 38.1 -13.02 0zm110.27 -1.52c-4.06,1.66 -8.36,2.49 -12.88,2.49 -4.52,0 -8.77,-0.88 -12.74,-2.63 -3.97,-1.66 -7.43,-3.97 -10.39,-6.93 -2.96,-2.95 -5.27,-6.42 -6.93,-10.39 -1.76,-4.06 -2.63,-8.36 -2.63,-12.88 0,-4.52 0.87,-8.77 2.63,-12.74 1.66,-3.98 3.97,-7.46 6.93,-10.46 2.95,-3 6.42,-5.33 10.39,-7 3.97,-1.76 8.22,-2.64 12.74,-2.64 4.53,0 8.82,0.88 12.88,2.64 3.97,1.66 7.43,4.02 10.39,7.07 2.96,2.96 5.31,6.41 7.07,10.39 1.66,3.97 2.49,8.22 2.49,12.74 0,4.53 -0.83,8.82 -2.49,12.88 -1.76,3.97 -4.11,7.44 -7.07,10.39 -2.96,2.95 -6.42,5.31 -10.39,7.07zm-5.13 -48.63c-2.4,-1.11 -4.94,-1.66 -7.62,-1.66 -2.68,0 -5.22,0.55 -7.62,1.66 -2.49,1.01 -4.64,2.42 -6.44,4.22 -1.8,1.8 -3.21,3.95 -4.22,6.44 -1.11,2.4 -1.66,4.96 -1.66,7.69 0,2.72 0.56,5.29 1.66,7.69 1.01,2.4 2.44,4.51 4.29,6.3 1.85,1.8 3.97,3.21 6.37,4.23 2.31,1.11 4.85,1.66 7.62,1.66 2.68,0 5.27,-0.55 7.76,-1.66 2.4,-1.01 4.48,-2.4 6.23,-4.16 1.85,-1.85 3.33,-3.97 4.43,-6.37 1.02,-2.4 1.53,-4.99 1.53,-7.76 0,-2.67 -0.55,-5.22 -1.66,-7.62 -1.01,-2.49 -2.42,-4.64 -4.22,-6.44 -1.8,-1.8 -3.95,-3.21 -6.44,-4.22zm83.68 50.57l0 -94.76 41.14 0c3.6,0 6.98,0.55 10.11,1.66 3.33,1.21 6.19,2.91 8.59,5.13 2.4,2.21 4.29,4.85 5.68,7.89 1.39,3.05 2.08,6.42 2.08,10.11 0,4.71 -1.11,8.82 -3.33,12.33 -1.2,1.76 -2.59,3.37 -4.16,4.85 0.65,0.46 1.3,0.92 1.94,1.39 2.12,1.75 3.99,3.76 5.61,6.03 1.62,2.26 2.89,4.84 3.81,7.75 0.92,2.92 1.39,6.07 1.39,9.49 0,4.06 -0.72,7.78 -2.15,11.15 -1.44,3.37 -3.4,6.33 -5.89,8.86 -2.49,2.55 -5.36,4.51 -8.59,5.89 -3.32,1.39 -6.83,2.12 -10.53,2.21l-45.71 0zm46.55 -13.16c1.48,-0.18 2.95,-0.55 4.43,-1.1 1.66,-0.65 3.14,-1.6 4.43,-2.85 1.29,-1.24 2.31,-2.76 3.05,-4.57 0.74,-1.8 1.11,-3.9 1.11,-6.3 0,-2.4 -0.41,-4.62 -1.25,-6.66 -0.83,-2.03 -1.89,-3.78 -3.19,-5.26 -1.39,-1.48 -2.91,-2.58 -4.57,-3.33 -1.66,-0.83 -3.42,-1.24 -5.26,-1.24l-32 0 0 31.3 33.25 0zm-33.25 -44.33l27.84 0c1.85,0 3.65,-0.32 5.4,-0.97 1.57,-0.56 2.95,-1.39 4.15,-2.5 1.11,-1.02 2.03,-2.26 2.77,-3.74 0.64,-1.47 0.97,-3.18 0.97,-5.12 0,-2.03 -0.39,-3.76 -1.18,-5.2 -0.78,-1.43 -1.82,-2.6 -3.12,-3.53 -1.39,-1.02 -3.1,-1.8 -5.13,-2.35 -2.12,-0.56 -4.39,-0.84 -6.79,-0.84l-24.93 0 0 24.25zm71.34 57.07l0 -64.56 13.02 0 0 7.07c3.15,-4.61 7.48,-6.92 13.02,-6.92 4.71,0 8.64,1.29 11.78,3.88l0.69 0.55 -0.14 1.11c-0.46,0.74 -1.04,1.57 -1.73,2.5 -0.69,0.92 -1.82,2.03 -3.4,3.33 -1.57,1.29 -3.1,1.94 -4.57,1.94l-6.65 0c-2.95,0 -5.15,1.31 -6.58,3.94 -1.43,2.63 -2.15,5.48 -2.15,8.53l0 38.64 -13.3 0zm79.38 0c-2.49,0.65 -5.17,0.97 -8.03,0.97 -4.34,0 -8.45,-0.88 -12.33,-2.63 -3.79,-1.66 -7.07,-4.02 -9.84,-7.07 -2.77,-2.86 -4.94,-6.28 -6.51,-10.25 -1.57,-3.97 -2.35,-8.22 -2.35,-12.74 0,-4.52 0.79,-8.78 2.35,-12.75 1.57,-3.97 3.74,-7.46 6.51,-10.46 2.77,-3 6.05,-5.38 9.84,-7.13 3.78,-1.76 7.89,-2.64 12.33,-2.64 2.86,0 5.59,0.37 8.17,1.11 2.58,0.74 4.94,1.8 7.07,3.19 1.01,0.65 1.94,1.34 2.77,2.07l0 -6.23 1.11 0c3.23,0 6,1.16 8.31,3.47 2.31,2.31 3.47,5.08 3.47,8.31l0 52.78 -1.11 0c-6.74,0 -10.67,-1.8 -11.78,-5.4 -0.92,0.83 -1.94,1.62 -3.05,2.35 -2.12,1.3 -4.43,2.31 -6.93,3.05zm-0.97 -50.01c-2.12,-1.02 -4.48,-1.53 -7.06,-1.53 -2.59,0 -4.94,0.51 -7.07,1.53 -2.21,1.02 -4.11,2.4 -5.68,4.15 -1.57,1.76 -2.81,3.86 -3.74,6.3 -0.92,2.45 -1.39,5.06 -1.39,7.83 0,2.77 0.44,5.36 1.32,7.76 0.88,2.4 2.15,4.48 3.81,6.23 1.57,1.76 3.47,3.15 5.68,4.16 2.13,1.02 4.48,1.52 7.07,1.52 2.58,0 4.94,-0.5 7.06,-1.52 2.12,-1.01 3.97,-2.35 5.54,-4.01 1.57,-1.76 2.82,-3.84 3.74,-6.24 0.92,-2.39 1.39,-5.03 1.39,-7.89 0,-2.77 -0.46,-5.36 -1.39,-7.76 -0.83,-2.4 -2.08,-4.52 -3.74,-6.37 -1.48,-1.75 -3.33,-3.14 -5.54,-4.15zm65.94 49.73c-2.77,0.74 -5.63,1.11 -8.59,1.11 -4.71,0 -9.07,-1.48 -13.09,-4.44 -4.02,-2.95 -7.04,-6.05 -9.07,-9.28l-0.41 -0.83 0.55 -0.55c2.58,-2.68 5.31,-4.01 8.17,-4.01 2.49,0 4.8,0.97 6.93,2.9 2.68,2.4 4.99,3.6 6.93,3.6 1.2,0 2.45,-0.18 3.74,-0.55 1.2,-0.27 2.35,-0.74 3.46,-1.38 0.92,-0.65 1.71,-1.39 2.35,-2.21 0.46,-0.74 0.69,-1.66 0.69,-2.78 0,-0.92 -0.23,-1.71 -0.69,-2.35 -0.64,-0.92 -1.48,-1.71 -2.49,-2.35 -1.2,-0.83 -2.54,-1.48 -4.02,-1.94 -1.48,-0.64 -3,-1.16 -4.57,-1.52 -2.31,-0.65 -4.53,-1.48 -6.65,-2.5 -2.21,-1.11 -4.2,-2.4 -5.95,-3.88 -2.03,-1.76 -3.65,-3.74 -4.85,-5.96 -1.02,-2.03 -1.52,-4.25 -1.52,-6.65 0,-2.77 0.5,-5.33 1.52,-7.69 1.02,-2.36 2.45,-4.39 4.29,-6.1 1.85,-1.7 4.06,-3.02 6.65,-3.94 2.59,-0.83 5.36,-1.25 8.31,-1.25 4.43,0 8.45,0.97 12.05,2.91 1.85,0.92 3.67,2.28 5.47,4.09 1.8,1.8 2.98,3.49 3.53,5.06l0.28 0.7 -0.56 0.55c-2.4,2.22 -4.99,3.33 -7.75,3.33 -1.94,0 -3.88,-0.55 -5.82,-1.66 -0.93,-0.46 -2.17,-0.97 -3.74,-1.52 -1.57,-0.56 -2.73,-0.83 -3.47,-0.83 -1.29,0 -2.45,0.19 -3.46,0.56 -1.02,0.37 -1.85,0.83 -2.5,1.39 -0.65,0.55 -1.13,1.2 -1.46,1.94 -0.32,0.74 -0.48,1.57 -0.48,2.49 0,0.74 0.14,1.34 0.42,1.8 0.46,0.74 1.06,1.34 1.8,1.8 0.92,0.65 1.89,1.16 2.91,1.53 1.2,0.46 2.31,0.83 3.33,1.11l1.8 0.41c3.05,0.84 5.77,1.9 8.17,3.19 2.5,1.2 4.67,2.63 6.51,4.29 1.85,1.76 3.28,3.69 4.3,5.82 1.11,2.21 1.66,4.62 1.66,7.2 0,3.15 -0.69,5.96 -2.08,8.46 -1.29,2.49 -3.05,4.57 -5.27,6.23 -1.01,0.84 -2.14,1.55 -3.39,2.15 -1.25,0.6 -2.56,1.13 -3.95,1.59zm37.96 0.27l-13.02 0 0 -64.56 13.02 0 0 64.56zm1.94 -77.16c0,2.31 -0.81,4.27 -2.42,5.88 -1.62,1.62 -3.58,2.43 -5.89,2.43 -2.31,0 -4.27,-0.81 -5.89,-2.43 -1.62,-1.62 -2.43,-3.58 -2.43,-5.88 0,-2.31 0.81,-4.27 2.43,-5.89 1.62,-1.62 3.58,-2.42 5.89,-2.42 2.31,0 4.27,0.8 5.89,2.42 1.62,1.62 2.42,3.58 2.42,5.89zm26.04 77.16l-13.16 0 0 -92.54 13.16 0 0 92.54zm54.72 -0.69c-3.14,1.11 -6.56,1.66 -10.25,1.66 -4.52,0 -8.77,-0.88 -12.74,-2.63 -4.06,-1.66 -7.57,-3.97 -10.53,-6.93 -2.96,-2.95 -5.29,-6.45 -7,-10.46 -1.71,-4.02 -2.56,-8.29 -2.56,-12.81 0,-4.52 0.83,-8.77 2.49,-12.74 1.66,-3.98 3.93,-7.43 6.79,-10.39 2.86,-2.96 6.23,-5.31 10.11,-7.07 3.88,-1.76 7.99,-2.64 12.33,-2.64 4.25,0 8.24,0.83 11.98,2.49 3.74,1.66 7.02,3.93 9.83,6.79 2.82,2.86 5.02,6.27 6.58,10.25 1.66,3.88 2.5,8.08 2.5,12.61 0,2.58 -0.97,4.38 -2.91,5.4 -1.2,0.56 -2.63,0.83 -4.29,0.83l-41.7 0c0.37,1.2 0.83,2.36 1.39,3.47 1.11,2.21 2.54,4.13 4.29,5.75 1.76,1.62 3.79,2.89 6.1,3.81 2.21,0.92 4.62,1.39 7.2,1.39 2.22,0 4.34,-0.32 6.37,-0.97l0.97 -0.42c1.76,-0.64 3.19,-0.97 4.29,-0.97 3.23,0 6.37,2.08 9.42,6.23l0.69 0.84 -0.83 0.69c-0.65,0.65 -1.3,1.15 -1.94,1.52 -2.68,1.85 -5.54,3.28 -8.59,4.29zm-4.85 -49.73c-2.03,-0.84 -4.2,-1.25 -6.51,-1.25 -2.31,0 -4.48,0.41 -6.51,1.25 -2.12,0.83 -4.02,1.98 -5.68,3.47 -1.39,1.29 -2.82,3.13 -4.29,5.54 -0.65,1.02 -1.11,2.17 -1.39,3.47 0.74,-0.46 1.43,-0.69 2.07,-0.69l32.97 0c-0.37,-1.02 -0.78,-1.99 -1.25,-2.92 -1.02,-2.03 -2.33,-3.81 -3.95,-5.33 -1.62,-1.52 -3.44,-2.7 -5.47,-3.53zm47.24 50.42l-13.02 0 0 -64.56 13.02 0 0 64.56zm1.94 -77.16c0,2.31 -0.81,4.27 -2.42,5.88 -1.62,1.62 -3.58,2.43 -5.89,2.43 -2.31,0 -4.27,-0.81 -5.88,-2.43 -1.62,-1.62 -2.43,-3.58 -2.43,-5.88 0,-2.31 0.81,-4.27 2.43,-5.89 1.62,-1.62 3.58,-2.42 5.88,-2.42 2.31,0 4.27,0.8 5.89,2.42 1.62,1.62 2.42,3.58 2.42,5.89zm11.08 77.16l0 -64.56 13.02 0 0 7.07c3.14,-4.61 7.48,-6.92 13.02,-6.92 4.71,0 8.63,1.29 11.77,3.88l0.69 0.55 -0.14 1.11c-0.46,0.74 -1.04,1.57 -1.73,2.5 -0.69,0.92 -1.82,2.03 -3.4,3.33 -1.57,1.29 -3.09,1.94 -4.57,1.94l-6.66 0c-2.95,0 -5.15,1.31 -6.58,3.94 -1.43,2.63 -2.15,5.48 -2.15,8.53l0 38.64 -13.3 0zm79.38 0c-2.49,0.65 -5.17,0.97 -8.03,0.97 -4.34,0 -8.45,-0.88 -12.33,-2.63 -3.78,-1.66 -7.07,-4.02 -9.84,-7.07 -2.77,-2.86 -4.94,-6.28 -6.51,-10.25 -1.57,-3.97 -2.35,-8.22 -2.35,-12.74 0,-4.52 0.79,-8.78 2.35,-12.75 1.57,-3.97 3.74,-7.46 6.51,-10.46 2.77,-3 6.05,-5.38 9.84,-7.13 3.78,-1.76 7.89,-2.64 12.33,-2.64 2.86,0 5.59,0.37 8.17,1.11 2.58,0.74 4.94,1.8 7.07,3.19 1.01,0.65 1.94,1.34 2.77,2.07l0 -6.23 1.11 0c3.23,0 6,1.16 8.31,3.47 2.31,2.31 3.46,5.08 3.46,8.31l0 52.78 -1.11 0c-6.74,0 -10.67,-1.8 -11.78,-5.4 -0.92,0.83 -1.94,1.62 -3.05,2.35 -2.12,1.3 -4.43,2.31 -6.93,3.05zm-0.97 -50.01c-2.12,-1.02 -4.48,-1.53 -7.06,-1.53 -2.59,0 -4.94,0.51 -7.07,1.53 -2.21,1.02 -4.11,2.4 -5.68,4.15 -1.57,1.76 -2.81,3.86 -3.74,6.3 -0.92,2.45 -1.39,5.06 -1.39,7.83 0,2.77 0.44,5.36 1.32,7.76 0.87,2.4 2.14,4.48 3.81,6.23 1.57,1.76 3.47,3.15 5.68,4.16 2.13,1.02 4.48,1.52 7.07,1.52 2.58,0 4.94,-0.5 7.06,-1.52 2.13,-1.01 3.97,-2.35 5.54,-4.01 1.57,-1.76 2.82,-3.84 3.74,-6.24 0.92,-2.39 1.39,-5.03 1.39,-7.89 0,-2.77 -0.46,-5.36 -1.39,-7.76 -0.83,-2.4 -2.08,-4.52 -3.74,-6.37 -1.48,-1.75 -3.33,-3.14 -5.54,-4.15zm97.53 78.13l-13.3 0 0 -92.68 13.3 0 0 4.57c0.37,-0.28 0.69,-0.5 0.97,-0.69 1.94,-1.39 4.29,-2.55 7.07,-3.46 2.77,-0.93 6,-1.39 9.7,-1.39 4.25,0 8.27,0.87 12.05,2.63 3.69,1.76 6.88,4.12 9.56,7.07 2.77,2.95 4.94,6.42 6.51,10.39 1.57,3.97 2.35,8.22 2.35,12.74 0,4.52 -0.78,8.78 -2.35,12.74 -1.57,3.97 -3.74,7.44 -6.51,10.39 -2.77,2.95 -5.96,5.31 -9.56,7.07 -3.78,1.76 -7.8,2.63 -12.05,2.63 -2.96,0 -5.7,-0.4 -8.24,-1.18 -2.54,-0.78 -4.83,-1.92 -6.86,-3.39 -0.93,-0.65 -1.8,-1.34 -2.63,-2.08l0 34.63zm23.96 -79.1c-2.12,-1.02 -4.36,-1.53 -6.72,-1.53 -2.35,0 -4.54,0.51 -6.58,1.53 -2.22,1.01 -4.13,2.42 -5.75,4.22 -1.62,1.8 -2.91,3.9 -3.88,6.3 -0.97,2.41 -1.46,4.97 -1.46,7.69 0,2.73 0.48,5.31 1.46,7.76 0.97,2.45 2.28,4.57 3.95,6.37 1.66,1.8 3.56,3.21 5.68,4.22 2.03,1.01 4.23,1.53 6.58,1.53 2.36,0 4.6,-0.51 6.72,-1.53 2.12,-1.02 4.02,-2.44 5.68,-4.3 1.57,-1.75 2.84,-3.85 3.81,-6.3 0.97,-2.45 1.46,-5.04 1.46,-7.76 0,-2.72 -0.48,-5.28 -1.46,-7.69 -0.97,-2.4 -2.24,-4.52 -3.81,-6.37 -1.66,-1.76 -3.56,-3.14 -5.68,-4.15zm71.9 50.98c-2.49,0.65 -5.18,0.97 -8.04,0.97 -4.34,0 -8.45,-0.88 -12.33,-2.63 -3.79,-1.66 -7.07,-4.02 -9.84,-7.07 -2.77,-2.86 -4.94,-6.28 -6.51,-10.25 -1.57,-3.97 -2.35,-8.22 -2.35,-12.74 0,-4.52 0.78,-8.78 2.35,-12.75 1.57,-3.97 3.74,-7.46 6.51,-10.46 2.77,-3 6.05,-5.38 9.84,-7.13 3.78,-1.76 7.89,-2.64 12.33,-2.64 2.86,0 5.59,0.37 8.18,1.11 2.58,0.74 4.94,1.8 7.07,3.19 1.01,0.65 1.94,1.34 2.77,2.07l0 -6.23 1.11 0c3.23,0 6,1.16 8.31,3.47 2.31,2.31 3.47,5.08 3.47,8.31l0 52.78 -1.11 0c-6.74,0 -10.67,-1.8 -11.78,-5.4 -0.92,0.83 -1.94,1.62 -3.05,2.35 -2.12,1.3 -4.43,2.31 -6.93,3.05zm-0.97 -50.01c-2.12,-1.02 -4.48,-1.53 -7.07,-1.53 -2.58,0 -4.94,0.51 -7.07,1.53 -2.21,1.02 -4.11,2.4 -5.68,4.15 -1.57,1.76 -2.81,3.86 -3.74,6.3 -0.92,2.45 -1.39,5.06 -1.39,7.83 0,2.77 0.44,5.36 1.32,7.76 0.88,2.4 2.15,4.48 3.81,6.23 1.57,1.76 3.47,3.15 5.68,4.16 2.13,1.02 4.48,1.52 7.07,1.52 2.59,0 4.94,-0.5 7.07,-1.52 2.12,-1.01 3.97,-2.35 5.54,-4.01 1.57,-1.76 2.82,-3.84 3.74,-6.24 0.92,-2.39 1.39,-5.03 1.39,-7.89 0,-2.77 -0.46,-5.36 -1.39,-7.76 -0.83,-2.4 -2.08,-4.52 -3.74,-6.37 -1.48,-1.75 -3.33,-3.14 -5.54,-4.15zm38.1 50.01l0 -64.56 13.02 0 0 7.07c3.14,-4.61 7.48,-6.92 13.02,-6.92 4.71,0 8.64,1.29 11.77,3.88l0.69 0.55 -0.14 1.11c-0.46,0.74 -1.04,1.57 -1.73,2.5 -0.69,0.92 -1.82,2.03 -3.39,3.33 -1.57,1.29 -3.1,1.94 -4.57,1.94l-6.65 0c-2.96,0 -5.15,1.31 -6.58,3.94 -1.44,2.63 -2.15,5.48 -2.15,8.53l0 38.64 -13.3 0zm79.39 0c-2.5,0.65 -5.18,0.97 -8.04,0.97 -4.34,0 -8.45,-0.88 -12.33,-2.63 -3.78,-1.66 -7.07,-4.02 -9.83,-7.07 -2.77,-2.86 -4.94,-6.28 -6.51,-10.25 -1.57,-3.97 -2.36,-8.22 -2.36,-12.74 0,-4.52 0.79,-8.78 2.36,-12.75 1.57,-3.97 3.74,-7.46 6.51,-10.46 2.77,-3 6.05,-5.38 9.83,-7.13 3.79,-1.76 7.9,-2.64 12.33,-2.64 2.86,0 5.59,0.37 8.17,1.11 2.59,0.74 4.94,1.8 7.07,3.19 1.02,0.65 1.94,1.34 2.77,2.07l0 -6.23 1.11 0c3.23,0 6,1.16 8.31,3.47 2.31,2.31 3.47,5.08 3.47,8.31l0 52.78 -1.11 0c-6.74,0 -10.67,-1.8 -11.77,-5.4 -0.93,0.83 -1.94,1.62 -3.05,2.35 -2.13,1.3 -4.44,2.31 -6.93,3.05zm-0.97 -50.01c-2.12,-1.02 -4.48,-1.53 -7.07,-1.53 -2.58,0 -4.94,0.51 -7.07,1.53 -2.22,1.02 -4.11,2.4 -5.68,4.15 -1.57,1.76 -2.82,3.86 -3.74,6.3 -0.93,2.45 -1.39,5.06 -1.39,7.83 0,2.77 0.44,5.36 1.32,7.76 0.88,2.4 2.15,4.48 3.81,6.23 1.57,1.76 3.46,3.15 5.68,4.16 2.12,1.02 4.48,1.52 7.07,1.52 2.58,0 4.94,-0.5 7.07,-1.52 2.12,-1.01 3.97,-2.35 5.54,-4.01 1.57,-1.76 2.82,-3.84 3.74,-6.24 0.92,-2.39 1.39,-5.03 1.39,-7.89 0,-2.77 -0.46,-5.36 -1.39,-7.76 -0.83,-2.4 -2.08,-4.52 -3.74,-6.37 -1.48,-1.75 -3.33,-3.14 -5.54,-4.15zm-1613.37 49.31c-3.14,1.11 -6.56,1.66 -10.25,1.66 -4.53,0 -8.78,-0.88 -12.74,-2.63 -4.06,-1.66 -7.57,-3.97 -10.53,-6.93 -2.95,-2.95 -5.29,-6.45 -7,-10.46 -1.71,-4.02 -2.56,-8.29 -2.56,-12.81 0,-4.52 0.83,-8.77 2.49,-12.74 1.66,-3.98 3.93,-7.43 6.79,-10.39 2.86,-2.96 6.23,-5.31 10.11,-7.07 3.88,-1.76 7.99,-2.64 12.33,-2.64 4.24,0 8.24,0.83 11.98,2.49 3.74,1.66 7.02,3.93 9.83,6.79 2.82,2.86 5.01,6.27 6.58,10.25 1.66,3.88 2.49,8.08 2.49,12.61 0,2.58 -0.97,4.38 -2.91,5.4 -1.2,0.56 -2.63,0.83 -4.29,0.83l-41.7 0c0.37,1.2 0.83,2.36 1.38,3.47 1.11,2.21 2.54,4.13 4.3,5.75 1.76,1.62 3.79,2.89 6.09,3.81 2.22,0.92 4.62,1.39 7.2,1.39 2.21,0 4.34,-0.32 6.37,-0.97l0.97 -0.42c1.76,-0.64 3.19,-0.97 4.3,-0.97 3.23,0 6.37,2.08 9.42,6.23l0.69 0.84 -0.83 0.69c-0.65,0.65 -1.3,1.15 -1.94,1.52 -2.68,1.85 -5.54,3.28 -8.59,4.29zm-4.85 -49.73c-2.03,-0.84 -4.2,-1.25 -6.51,-1.25 -2.31,0 -4.48,0.41 -6.51,1.25 -2.12,0.83 -4.02,1.98 -5.68,3.47 -1.39,1.29 -2.82,3.13 -4.29,5.54 -0.65,1.02 -1.11,2.17 -1.39,3.47 0.74,-0.46 1.44,-0.69 2.08,-0.69l32.97 0c-0.37,-1.02 -0.79,-1.99 -1.25,-2.92 -1.02,-2.03 -2.33,-3.81 -3.95,-5.33 -1.62,-1.52 -3.44,-2.7 -5.47,-3.53z"/>
  <path class="fil1" d="M916.67 732.61c-2.77,0.93 -6,1.39 -9.7,1.39 -4.34,0 -8.36,-0.87 -12.05,-2.63 -3.69,-1.76 -6.93,-4.11 -9.7,-7.07 -2.68,-2.95 -4.8,-6.42 -6.37,-10.39 -1.57,-3.97 -2.35,-8.21 -2.35,-12.74 0,-4.52 0.79,-8.77 2.35,-12.74 1.57,-3.97 3.72,-7.43 6.44,-10.39 2.72,-2.95 5.93,-5.31 9.63,-7.06 3.79,-1.76 7.8,-2.64 12.05,-2.64 2.96,0 5.7,0.39 8.24,1.18 2.54,0.78 4.83,1.91 6.86,3.39 0.92,0.65 1.8,1.34 2.63,2.07l0 -34.63 13.3 0 0 92.68 -13.3 0 0 -4.57c-0.37,0.28 -0.74,0.51 -1.11,0.7 -1.94,1.38 -4.24,2.53 -6.93,3.46zm-2.63 -49.73c-2.13,-1.02 -4.37,-1.53 -6.72,-1.53 -2.36,0 -4.55,0.51 -6.58,1.53 -2.21,1.02 -4.11,2.45 -5.68,4.29 -1.66,1.76 -2.96,3.86 -3.88,6.3 -0.92,2.45 -1.39,5.04 -1.39,7.76 0,2.73 0.46,5.29 1.39,7.69 0.92,2.41 2.22,4.53 3.88,6.37 1.57,1.76 3.47,3.15 5.68,4.16 2.03,1.01 4.22,1.52 6.58,1.52 2.35,0 4.59,-0.5 6.72,-1.52 2.12,-1.02 4.01,-2.43 5.68,-4.23 1.66,-1.8 2.98,-3.9 3.95,-6.3 0.97,-2.4 1.46,-4.96 1.46,-7.69 0,-2.72 -0.48,-5.31 -1.46,-7.76 -0.97,-2.44 -2.28,-4.56 -3.95,-6.37 -1.66,-1.8 -3.56,-3.21 -5.68,-4.22zm78.55 49.73c-3.14,1.11 -6.56,1.66 -10.26,1.66 -4.52,0 -8.77,-0.88 -12.74,-2.63 -4.06,-1.66 -7.57,-3.97 -10.53,-6.93 -2.96,-2.95 -5.29,-6.45 -7,-10.46 -1.71,-4.02 -2.56,-8.29 -2.56,-12.81 0,-4.52 0.83,-8.77 2.49,-12.74 1.66,-3.98 3.92,-7.43 6.79,-10.39 2.87,-2.96 6.24,-5.31 10.12,-7.07 3.88,-1.76 7.99,-2.64 12.33,-2.64 4.25,0 8.24,0.83 11.99,2.49 3.74,1.66 7.02,3.93 9.83,6.79 2.82,2.86 5.01,6.27 6.58,10.25 1.66,3.88 2.49,8.08 2.49,12.61 0,2.58 -0.97,4.38 -2.91,5.4 -1.2,0.56 -2.63,0.83 -4.3,0.83l-41.7 0c0.36,1.2 0.83,2.36 1.38,3.47 1.11,2.21 2.54,4.13 4.3,5.75 1.75,1.62 3.78,2.89 6.09,3.81 2.21,0.92 4.62,1.39 7.2,1.39 2.21,0 4.34,-0.32 6.37,-0.97l0.97 -0.42c1.76,-0.64 3.19,-0.97 4.3,-0.97 3.23,0 6.37,2.08 9.42,6.23l0.69 0.84 -0.83 0.69c-0.64,0.65 -1.29,1.15 -1.94,1.52 -2.68,1.85 -5.54,3.28 -8.59,4.29zm-4.85 -49.73c-2.03,-0.84 -4.2,-1.25 -6.51,-1.25 -2.31,0 -4.48,0.41 -6.51,1.25 -2.12,0.83 -4.02,1.98 -5.68,3.47 -1.39,1.29 -2.82,3.13 -4.29,5.54 -0.65,1.02 -1.11,2.17 -1.39,3.47 0.74,-0.46 1.43,-0.69 2.08,-0.69l32.97 0c-0.37,-1.02 -0.78,-1.99 -1.25,-2.92 -1.01,-2.03 -2.33,-3.81 -3.94,-5.33 -1.62,-1.52 -3.44,-2.7 -5.47,-3.53zm118.31 49.73c-2.77,0.93 -6,1.39 -9.7,1.39 -4.34,0 -8.36,-0.87 -12.05,-2.63 -3.69,-1.76 -6.93,-4.11 -9.7,-7.07 -2.68,-2.95 -4.8,-6.42 -6.37,-10.39 -1.57,-3.97 -2.36,-8.21 -2.36,-12.74 0,-4.52 0.79,-8.77 2.36,-12.74 1.57,-3.97 3.72,-7.43 6.44,-10.39 2.72,-2.95 5.93,-5.31 9.63,-7.06 3.78,-1.76 7.8,-2.64 12.05,-2.64 2.96,0 5.7,0.39 8.24,1.18 2.54,0.78 4.83,1.91 6.86,3.39 0.93,0.65 1.8,1.34 2.63,2.07l0 -34.63 13.3 0 0 92.68 -13.3 0 0 -4.57c-0.37,0.28 -0.74,0.51 -1.11,0.7 -1.94,1.38 -4.25,2.53 -6.93,3.46zm-2.63 -49.73c-2.12,-1.02 -4.36,-1.53 -6.72,-1.53 -2.35,0 -4.55,0.51 -6.58,1.53 -2.22,1.02 -4.11,2.45 -5.68,4.29 -1.66,1.76 -2.95,3.86 -3.88,6.3 -0.92,2.45 -1.39,5.04 -1.39,7.76 0,2.73 0.46,5.29 1.39,7.69 0.92,2.41 2.21,4.53 3.88,6.37 1.57,1.76 3.47,3.15 5.68,4.16 2.03,1.01 4.22,1.52 6.58,1.52 2.36,0 4.6,-0.5 6.72,-1.52 2.12,-1.02 4.02,-2.43 5.68,-4.23 1.66,-1.8 2.98,-3.9 3.95,-6.3 0.97,-2.4 1.45,-4.96 1.45,-7.69 0,-2.72 -0.48,-5.31 -1.45,-7.76 -0.97,-2.44 -2.29,-4.56 -3.95,-6.37 -1.66,-1.8 -3.56,-3.21 -5.68,-4.22zm78.55 49.73c-3.14,1.11 -6.56,1.66 -10.25,1.66 -4.52,0 -8.77,-0.88 -12.74,-2.63 -4.06,-1.66 -7.57,-3.97 -10.53,-6.93 -2.96,-2.95 -5.29,-6.45 -7,-10.46 -1.71,-4.02 -2.56,-8.29 -2.56,-12.81 0,-4.52 0.83,-8.77 2.49,-12.74 1.66,-3.98 3.92,-7.43 6.79,-10.39 2.86,-2.96 6.23,-5.31 10.11,-7.07 3.88,-1.76 7.99,-2.64 12.33,-2.64 4.25,0 8.24,0.83 11.98,2.49 3.74,1.66 7.02,3.93 9.84,6.79 2.82,2.86 5.01,6.27 6.58,10.25 1.66,3.88 2.5,8.08 2.5,12.61 0,2.58 -0.97,4.38 -2.91,5.4 -1.2,0.56 -2.63,0.83 -4.29,0.83l-41.7 0c0.37,1.2 0.83,2.36 1.39,3.47 1.11,2.21 2.54,4.13 4.29,5.75 1.76,1.62 3.79,2.89 6.1,3.81 2.21,0.92 4.62,1.39 7.2,1.39 2.22,0 4.34,-0.32 6.37,-0.97l0.97 -0.42c1.76,-0.64 3.19,-0.97 4.29,-0.97 3.24,0 6.37,2.08 9.42,6.23l0.69 0.84 -0.83 0.69c-0.65,0.65 -1.3,1.15 -1.94,1.52 -2.68,1.85 -5.54,3.28 -8.59,4.29zm-4.85 -49.73c-2.03,-0.84 -4.2,-1.25 -6.51,-1.25 -2.31,0 -4.48,0.41 -6.51,1.25 -2.12,0.83 -4.01,1.98 -5.68,3.47 -1.39,1.29 -2.82,3.13 -4.29,5.54 -0.65,1.02 -1.11,2.17 -1.39,3.47 0.74,-0.46 1.43,-0.69 2.08,-0.69l32.97 0c-0.37,-1.02 -0.78,-1.99 -1.25,-2.92 -1.02,-2.03 -2.33,-3.81 -3.95,-5.33 -1.62,-1.52 -3.44,-2.7 -5.47,-3.53z"/>
  <path class="fil1" d="M294.17 902.92l-83.84 0 0 -124.39 85.11 0 0 17.28 -67.65 0 0 24.91 53.11 0 0 17.46 -53.11 0 0 47.47 66.38 0 0 17.27zm15.28 -0.55l0 -84.74 17.1 0 0 6.36c1.09,-0.85 2.24,-1.57 3.46,-2.18 2.42,-1.45 5.03,-2.54 7.82,-3.28 2.79,-0.73 5.64,-1.08 8.55,-1.08 4.85,0 9.4,0.97 13.64,2.91 4.24,1.82 7.91,4.33 11,7.55 3.09,3.21 5.52,7 7.27,11.37 1.76,4.36 2.64,8.96 2.64,13.82l0 49.11 -17.1 0 0 -49.29c-0.12,-2.43 -0.67,-4.85 -1.64,-7.28 -0.97,-2.18 -2.24,-4.12 -3.82,-5.82 -1.57,-1.69 -3.45,-3.03 -5.63,-4 -2.19,-0.97 -4.73,-1.46 -7.64,-1.46 -2.43,0 -4.79,0.49 -7.09,1.46 -2.18,0.97 -4.12,2.25 -5.82,3.82 -1.7,1.58 -3.09,3.46 -4.18,5.64 -0.97,2.18 -1.46,4.55 -1.46,7.1l0 50.01 -17.1 0zm141.67 34.02c-4.97,1.82 -10.06,2.73 -15.28,2.73 -4.36,0 -8.3,-0.55 -11.82,-1.64 -3.51,-1.09 -6.85,-2.49 -10,-4.19l-0.91 -0.55c-0.49,-0.36 -0.91,-0.73 -1.28,-1.09l-0.73 -0.73 0.55 -0.91c4,-6.91 8.37,-10.37 13.09,-10.37 1.21,0 2.79,0.3 4.73,0.91l0.73 0.18c1.94,0.48 3.69,0.73 5.27,0.73 3.03,0 6,-0.48 8.91,-1.45 2.79,-1.09 5.27,-2.61 7.46,-4.55 2.42,-2.18 4.18,-4.66 5.27,-7.45 1.21,-3.28 1.82,-7.4 1.82,-12.37 -1.33,1.09 -2.73,2.06 -4.18,2.91 -2.79,1.7 -5.82,2.97 -9.09,3.82 -3.28,0.85 -6.73,1.27 -10.37,1.27 -5.7,0 -11.09,-1.15 -16.19,-3.45 -4.97,-2.18 -9.27,-5.27 -12.91,-9.28 -3.63,-3.76 -6.48,-8.24 -8.55,-13.46 -2.06,-5.21 -3.09,-10.79 -3.09,-16.73 0,-5.95 1.03,-11.52 3.09,-16.73 2.06,-5.21 4.91,-9.79 8.55,-13.73 3.64,-3.94 7.94,-7.06 12.91,-9.36 4.97,-2.3 10.37,-3.45 16.19,-3.45 3.76,0 7.36,0.48 10.82,1.45 3.46,0.97 6.64,2.36 9.55,4.18 1.57,0.97 3.03,2.06 4.36,3.28 0.48,-1.7 1.27,-3.22 2.37,-4.55 1.09,-1.33 2.42,-2.36 4,-3.09 1.58,-0.73 3.28,-1.09 5.09,-1.09l5.09 0 0 69.47c0,5.58 -0.06,8.73 -0.18,9.46 0.12,6.78 -0.97,12.9 -3.27,18.36 -2.18,5.33 -5.15,9.82 -8.91,13.46 -3.76,3.64 -8.12,6.3 -13.09,8zm-6.36 -99.66c-2.91,-1.34 -6.06,-2.01 -9.46,-2.01 -3.4,0 -6.48,0.67 -9.28,2.01 -2.91,1.33 -5.39,3.15 -7.46,5.45 -2.06,2.3 -3.7,5.06 -4.91,8.27 -1.21,3.21 -1.82,6.64 -1.82,10.28 0,3.64 0.61,7.03 1.82,10.18 1.21,3.16 2.85,5.88 4.91,8.18 2.06,2.3 4.55,4.13 7.46,5.46 2.79,1.33 5.88,2 9.28,2 3.4,0 6.55,-0.67 9.46,-2 2.91,-1.34 5.45,-3.16 7.64,-5.46 2.06,-2.3 3.73,-5.03 5,-8.18 1.27,-3.15 1.91,-6.54 1.91,-10.18 0,-3.64 -0.6,-7.04 -1.82,-10.19 -1.21,-3.15 -2.91,-5.9 -5.09,-8.28 -2.18,-2.36 -4.73,-4.21 -7.64,-5.54zm103.48 64.74c-4.12,1.46 -8.61,2.18 -13.46,2.18 -5.94,0 -11.52,-1.15 -16.73,-3.45 -5.33,-2.18 -9.94,-5.21 -13.82,-9.1 -3.88,-3.88 -6.94,-8.46 -9.19,-13.72 -2.24,-5.28 -3.36,-10.88 -3.36,-16.82 0,-5.94 1.09,-11.52 3.27,-16.73 2.18,-5.21 5.15,-9.76 8.91,-13.64 3.76,-3.88 8.18,-6.97 13.27,-9.28 5.09,-2.3 10.49,-3.45 16.19,-3.45 5.58,0 10.82,1.08 15.73,3.27 4.91,2.18 9.21,5.15 12.91,8.91 3.7,3.75 6.58,8.24 8.64,13.45 2.18,5.1 3.27,10.61 3.27,16.55 0,3.4 -1.27,5.75 -3.82,7.09 -1.58,0.72 -3.46,1.09 -5.64,1.09l-54.74 0c0.49,1.57 1.09,3.08 1.82,4.54 1.46,2.92 3.33,5.43 5.64,7.55 2.3,2.12 4.97,3.78 8,4.99 2.91,1.21 6.06,1.82 9.46,1.82 2.91,0 5.7,-0.43 8.37,-1.28l1.27 -0.55c2.3,-0.84 4.18,-1.27 5.64,-1.27 4.24,0 8.37,2.73 12.37,8.18l0.91 1.09 -1.09 0.91c-0.85,0.85 -1.7,1.51 -2.55,2 -3.51,2.43 -7.27,4.31 -11.27,5.63zm-6.36 -65.28c-2.67,-1.09 -5.52,-1.64 -8.55,-1.64 -3.03,0 -5.88,0.55 -8.55,1.64 -2.79,1.09 -5.28,2.6 -7.46,4.54 -1.82,1.7 -3.69,4.12 -5.64,7.28 -0.85,1.33 -1.46,2.84 -1.82,4.54 0.97,-0.61 1.88,-0.91 2.73,-0.91l43.29 0c-0.49,-1.33 -1.03,-2.6 -1.64,-3.82 -1.33,-2.66 -3.06,-4.99 -5.18,-7 -2.12,-2.01 -4.52,-3.55 -7.18,-4.64zm46.01 66.19l0 -84.74 17.1 0 0 6.36c1.09,-0.85 2.24,-1.57 3.45,-2.18 2.43,-1.45 5.03,-2.54 7.82,-3.28 2.78,-0.73 5.63,-1.08 8.55,-1.08 4.85,0 9.39,0.97 13.64,2.91 4.24,1.82 7.91,4.33 11.01,7.55 3.09,3.21 5.52,7 7.27,11.37 1.76,4.36 2.64,8.96 2.64,13.82l0 49.11 -17.1 0 0 -49.29c-0.12,-2.43 -0.67,-4.85 -1.64,-7.28 -0.97,-2.18 -2.24,-4.12 -3.82,-5.82 -1.57,-1.69 -3.46,-3.03 -5.64,-4 -2.18,-0.97 -4.73,-1.46 -7.64,-1.46 -2.43,0 -4.79,0.49 -7.09,1.46 -2.18,0.97 -4.13,2.25 -5.82,3.82 -1.69,1.58 -3.09,3.46 -4.18,5.64 -0.97,2.18 -1.46,4.55 -1.46,7.1l0 50.01 -17.1 0zm89.11 0l0 -121.49 17.1 0 0 43.1c1.09,-0.85 2.24,-1.57 3.46,-2.18 2.42,-1.45 5.03,-2.54 7.82,-3.28 2.79,-0.73 5.64,-1.08 8.55,-1.08 4.85,0 9.4,0.97 13.64,2.91 4.24,1.82 7.91,4.33 11,7.55 3.09,3.21 5.52,7 7.27,11.37 1.76,4.36 2.64,8.96 2.64,13.82l0 49.11 -17.1 0 0 -49.29c-0.12,-2.43 -0.67,-4.85 -1.64,-7.28 -0.97,-2.18 -2.24,-4.12 -3.82,-5.82 -1.57,-1.69 -3.45,-3.03 -5.63,-4 -2.19,-0.97 -4.73,-1.46 -7.64,-1.46 -2.42,0 -4.79,0.49 -7.09,1.46 -2.18,0.97 -4.12,2.25 -5.82,3.82 -1.7,1.58 -3.09,3.46 -4.18,5.64 -0.97,2.18 -1.46,4.55 -1.46,7.1l0 50.01 -17.1 0zm136.4 0c-3.27,0.85 -6.79,1.27 -10.55,1.27 -5.7,0 -11.1,-1.15 -16.19,-3.45 -4.97,-2.18 -9.28,-5.27 -12.92,-9.28 -3.63,-3.76 -6.48,-8.24 -8.55,-13.46 -2.06,-5.21 -3.09,-10.79 -3.09,-16.73 0,-5.95 1.03,-11.52 3.09,-16.73 2.06,-5.21 4.91,-9.79 8.55,-13.73 3.64,-3.94 7.94,-7.06 12.92,-9.36 4.97,-2.3 10.36,-3.45 16.19,-3.45 3.76,0 7.33,0.48 10.73,1.45 3.4,0.97 6.49,2.36 9.28,4.18 1.33,0.85 2.55,1.76 3.64,2.73l0 -8.18 1.46 0c4.24,0 7.88,1.52 10.91,4.54 3.03,3.03 4.55,6.67 4.55,10.91l0 69.29 -1.46 0c-8.85,0 -14,-2.36 -15.46,-7.09 -1.21,1.09 -2.55,2.13 -4,3.1 -2.79,1.69 -5.82,3.03 -9.1,4zm-1.28 -65.65c-2.79,-1.34 -5.88,-2.01 -9.27,-2.01 -3.4,0 -6.49,0.67 -9.28,2.01 -2.91,1.33 -5.4,3.15 -7.46,5.45 -2.06,2.3 -3.7,5.06 -4.91,8.27 -1.21,3.21 -1.82,6.64 -1.82,10.28 0,3.64 0.57,7.03 1.73,10.18 1.15,3.16 2.82,5.88 5,8.18 2.06,2.3 4.54,4.13 7.46,5.46 2.79,1.33 5.88,2 9.28,2 3.4,0 6.48,-0.67 9.27,-2 2.79,-1.34 5.22,-3.09 7.28,-5.27 2.06,-2.3 3.69,-5.04 4.91,-8.18 1.21,-3.15 1.82,-6.61 1.82,-10.37 0,-3.64 -0.6,-7.04 -1.82,-10.19 -1.09,-3.15 -2.73,-5.93 -4.91,-8.36 -1.94,-2.3 -4.37,-4.12 -7.28,-5.45zm50.01 65.65l0 -84.74 17.1 0 0 9.28c4.13,-6.07 9.83,-9.1 17.1,-9.1 6.18,0 11.33,1.7 15.46,5.09l0.91 0.73 -0.18 1.45c-0.6,0.98 -1.36,2.07 -2.27,3.27 -0.91,1.21 -2.39,2.67 -4.45,4.37 -2.06,1.7 -4.06,2.55 -6,2.55l-8.73 0c-3.88,0 -6.76,1.73 -8.64,5.18 -1.88,3.46 -2.82,7.19 -2.82,11.18l0 50.74 -17.46 0zm78.93 0l-17.1 0 0 -84.74 17.1 0 0 84.74zm2.55 -101.3c0,3.03 -1.06,5.61 -3.18,7.73 -2.12,2.12 -4.7,3.18 -7.73,3.18 -3.03,0 -5.61,-1.06 -7.73,-3.18 -2.12,-2.12 -3.19,-4.7 -3.19,-7.73 0,-3.03 1.06,-5.61 3.19,-7.73 2.12,-2.12 4.7,-3.19 7.73,-3.19 3.03,0 5.61,1.06 7.73,3.19 2.12,2.12 3.18,4.7 3.18,7.73zm63.11 101.3c-3.28,0.85 -6.79,1.27 -10.55,1.27 -5.7,0 -11.09,-1.15 -16.18,-3.45 -4.97,-2.18 -9.28,-5.27 -12.92,-9.28 -3.63,-3.76 -6.48,-8.24 -8.55,-13.46 -2.06,-5.21 -3.09,-10.79 -3.09,-16.73 0,-5.95 1.03,-11.52 3.09,-16.73 2.06,-5.21 4.91,-9.79 8.55,-13.73 3.64,-3.94 7.94,-7.06 12.92,-9.36 4.97,-2.3 10.36,-3.45 16.18,-3.45 3.76,0 7.34,0.48 10.73,1.45 3.4,0.97 6.49,2.36 9.28,4.18 1.33,0.85 2.55,1.76 3.64,2.73l0 -8.18 1.46 0c4.24,0 7.88,1.52 10.91,4.54 3.03,3.03 4.54,6.67 4.54,10.91l0 69.29 -1.45 0c-8.85,0 -14,-2.36 -15.46,-7.09 -1.21,1.09 -2.55,2.13 -4,3.1 -2.79,1.69 -5.82,3.03 -9.09,4zm-1.28 -65.65c-2.79,-1.34 -5.88,-2.01 -9.28,-2.01 -3.4,0 -6.48,0.67 -9.28,2.01 -2.91,1.33 -5.39,3.15 -7.46,5.45 -2.06,2.3 -3.7,5.06 -4.91,8.27 -1.21,3.21 -1.82,6.64 -1.82,10.28 0,3.64 0.58,7.03 1.73,10.18 1.15,3.16 2.82,5.88 5,8.18 2.06,2.3 4.55,4.13 7.46,5.46 2.79,1.33 5.88,2 9.28,2 3.4,0 6.49,-0.67 9.28,-2 2.79,-1.34 5.22,-3.09 7.27,-5.27 2.06,-2.3 3.7,-5.04 4.91,-8.18 1.21,-3.15 1.82,-6.61 1.82,-10.37 0,-3.64 -0.61,-7.04 -1.82,-10.19 -1.09,-3.15 -2.73,-5.93 -4.91,-8.36 -1.94,-2.3 -4.36,-4.12 -7.27,-5.45zm86.57 65.28c-3.64,0.98 -7.4,1.46 -11.28,1.46 -6.18,0 -11.91,-1.94 -17.19,-5.81 -5.27,-3.88 -9.25,-7.95 -11.91,-12.19l-0.55 -1.09 0.73 -0.72c3.4,-3.52 6.98,-5.28 10.73,-5.28 3.27,0 6.3,1.27 9.1,3.82 3.51,3.15 6.54,4.73 9.09,4.73 1.58,0 3.21,-0.25 4.91,-0.73 1.57,-0.36 3.09,-0.98 4.54,-1.82 1.21,-0.84 2.24,-1.81 3.09,-2.9 0.61,-0.97 0.91,-2.18 0.91,-3.64 0,-1.21 -0.3,-2.24 -0.91,-3.09 -0.85,-1.21 -1.94,-2.25 -3.27,-3.09 -1.57,-1.09 -3.33,-1.94 -5.27,-2.55 -1.94,-0.84 -3.94,-1.51 -6,-2 -3.03,-0.85 -5.94,-1.94 -8.73,-3.27 -2.91,-1.46 -5.52,-3.16 -7.82,-5.1 -2.67,-2.3 -4.79,-4.91 -6.37,-7.82 -1.33,-2.67 -2,-5.58 -2,-8.73 0,-3.64 0.67,-7 2,-10.09 1.33,-3.1 3.21,-5.76 5.64,-8.01 2.42,-2.24 5.33,-3.97 8.73,-5.18 3.4,-1.09 7.03,-1.64 10.91,-1.64 5.82,0 11.09,1.27 15.82,3.82 2.43,1.22 4.82,3 7.18,5.37 2.36,2.37 3.91,4.58 4.64,6.63l0.36 0.92 -0.73 0.72c-3.15,2.91 -6.54,4.36 -10.18,4.36 -2.55,0 -5.09,-0.72 -7.64,-2.18 -1.21,-0.6 -2.85,-1.27 -4.91,-2 -2.06,-0.73 -3.58,-1.09 -4.55,-1.09 -1.7,0 -3.21,0.24 -4.55,0.73 -1.33,0.48 -2.42,1.09 -3.27,1.82 -0.85,0.73 -1.48,1.58 -1.91,2.55 -0.42,0.97 -0.64,2.06 -0.64,3.27 0,0.97 0.18,1.76 0.55,2.36 0.61,0.97 1.39,1.76 2.37,2.36 1.21,0.85 2.48,1.52 3.82,2 1.57,0.61 3.03,1.09 4.36,1.46l2.37 0.55c4,1.09 7.58,2.48 10.73,4.18 3.28,1.58 6.13,3.46 8.55,5.64 2.42,2.3 4.3,4.85 5.64,7.64 1.46,2.91 2.18,6.06 2.18,9.46 0,4.12 -0.91,7.82 -2.73,11.09 -1.7,3.27 -4,6.01 -6.91,8.19 -1.33,1.09 -2.82,2.03 -4.45,2.81 -1.64,0.79 -3.37,1.49 -5.18,2.09zm147.49 -0.55c-4.13,1.46 -8.61,2.18 -13.46,2.18 -5.94,0 -11.52,-1.15 -16.73,-3.45 -5.33,-2.18 -9.94,-5.21 -13.82,-9.1 -3.88,-3.88 -6.94,-8.46 -9.19,-13.72 -2.24,-5.28 -3.36,-10.88 -3.36,-16.82 0,-5.94 1.09,-11.52 3.27,-16.73 2.18,-5.21 5.15,-9.76 8.91,-13.64 3.76,-3.88 8.18,-6.97 13.28,-9.28 5.09,-2.3 10.49,-3.45 16.19,-3.45 5.58,0 10.82,1.08 15.73,3.27 4.91,2.18 9.21,5.15 12.91,8.91 3.7,3.75 6.58,8.24 8.64,13.45 2.18,5.1 3.27,10.61 3.27,16.55 0,3.4 -1.28,5.75 -3.82,7.09 -1.58,0.72 -3.46,1.09 -5.64,1.09l-54.74 0c0.49,1.57 1.09,3.08 1.82,4.54 1.46,2.92 3.33,5.43 5.64,7.55 2.3,2.12 4.97,3.78 8,4.99 2.91,1.21 6.06,1.82 9.46,1.82 2.91,0 5.7,-0.43 8.37,-1.28l1.27 -0.55c2.3,-0.84 4.18,-1.27 5.63,-1.27 4.25,0 8.37,2.73 12.37,8.18l0.91 1.09 -1.09 0.91c-0.85,0.85 -1.7,1.51 -2.55,2 -3.51,2.43 -7.27,4.31 -11.27,5.63zm-6.37 -65.28c-2.67,-1.09 -5.52,-1.64 -8.55,-1.64 -3.03,0 -5.88,0.55 -8.55,1.64 -2.78,1.09 -5.27,2.6 -7.46,4.54 -1.82,1.7 -3.7,4.12 -5.64,7.28 -0.85,1.33 -1.46,2.84 -1.82,4.54 0.97,-0.61 1.88,-0.91 2.73,-0.91l43.28 0c-0.48,-1.33 -1.03,-2.6 -1.64,-3.82 -1.33,-2.66 -3.06,-4.99 -5.18,-7 -2.12,-2.01 -4.51,-3.55 -7.18,-4.64zm186.77 64.38c-6.54,2.3 -13.64,3.45 -21.28,3.45 -8.73,0 -16.97,-1.64 -24.73,-4.91 -7.64,-3.27 -14.31,-7.79 -20,-13.55 -5.7,-5.76 -10.25,-12.52 -13.64,-20.28 -3.27,-7.64 -4.91,-15.88 -4.91,-24.73 0,-5.82 0.76,-11.43 2.27,-16.82 1.52,-5.4 3.64,-10.43 6.36,-15.1 2.73,-4.67 6.03,-8.94 9.92,-12.82 3.88,-3.88 8.18,-7.21 12.91,-10.01 4.73,-2.79 9.76,-4.91 15.09,-6.36 5.46,-1.58 11.1,-2.37 16.92,-2.37 7.52,0 14.55,1.21 21.09,3.64 6.43,2.43 12.43,5.76 18.01,10l1.09 0.73 -0.55 0.91c-0.61,1.33 -1.67,2.67 -3.18,4.01 -1.52,1.33 -3.4,2.49 -5.64,3.45 -2.24,0.97 -4.51,1.46 -6.82,1.46 -2.18,0 -4.18,-0.49 -6,-1.46 -6.55,-3.4 -12.37,-5.09 -17.46,-5.09 -4.36,0 -8.49,0.55 -12.37,1.64 -4,1.09 -7.76,2.63 -11.27,4.64 -3.52,2 -6.67,4.46 -9.46,7.36 -2.79,2.91 -5.21,6 -7.27,9.28 -1.94,3.51 -3.46,7.21 -4.54,11.09 -1.09,3.89 -1.64,7.89 -1.64,12.01 0,4.24 0.55,8.3 1.64,12.19 1.09,3.88 2.64,7.52 4.64,10.91 2,3.39 4.42,6.48 7.27,9.28 2.85,2.79 5.97,5.21 9.37,7.27 3.39,1.94 7.03,3.45 10.91,4.54 3.88,1.09 7.88,1.64 12,1.64 7.03,0 13.95,-1.76 20.73,-5.27 2.19,-1.1 4.31,-1.64 6.36,-1.64 4.97,0 9.22,2.97 12.73,8.92l0.55 1.09 -0.91 0.73c-5.58,4.36 -11.64,7.76 -18.19,10.19zm48.56 1.81l-17.1 0 0 -84.74 17.1 0 0 84.74zm2.55 -101.3c0,3.03 -1.06,5.61 -3.18,7.73 -2.12,2.12 -4.7,3.18 -7.73,3.18 -3.03,0 -5.61,-1.06 -7.73,-3.18 -2.12,-2.12 -3.18,-4.7 -3.18,-7.73 0,-3.03 1.06,-5.61 3.18,-7.73 2.12,-2.12 4.7,-3.19 7.73,-3.19 3.03,0 5.61,1.06 7.73,3.19 2.12,2.12 3.18,4.7 3.18,7.73zm68.2 100.39c-4.12,1.46 -8.61,2.18 -13.46,2.18 -5.94,0 -11.52,-1.15 -16.73,-3.45 -5.33,-2.18 -9.94,-5.21 -13.82,-9.1 -3.88,-3.88 -6.94,-8.46 -9.18,-13.72 -2.24,-5.28 -3.37,-10.88 -3.37,-16.82 0,-5.94 1.09,-11.52 3.28,-16.73 2.18,-5.21 5.15,-9.76 8.91,-13.64 3.76,-3.88 8.18,-6.97 13.27,-9.28 5.09,-2.3 10.49,-3.45 16.19,-3.45 5.58,0 10.82,1.08 15.73,3.27 4.91,2.18 9.21,5.15 12.91,8.91 3.69,3.75 6.57,8.24 8.64,13.45 2.18,5.1 3.28,10.61 3.28,16.55 0,3.4 -1.28,5.75 -3.82,7.09 -1.57,0.72 -3.45,1.09 -5.64,1.09l-54.74 0c0.48,1.57 1.09,3.08 1.82,4.54 1.45,2.92 3.33,5.43 5.63,7.55 2.3,2.12 4.97,3.78 8,4.99 2.91,1.21 6.06,1.82 9.46,1.82 2.91,0 5.7,-0.43 8.37,-1.28l1.27 -0.55c2.3,-0.84 4.18,-1.27 5.64,-1.27 4.24,0 8.37,2.73 12.37,8.18l0.91 1.09 -1.09 0.91c-0.85,0.85 -1.7,1.51 -2.55,2 -3.52,2.43 -7.27,4.31 -11.28,5.63zm-6.36 -65.28c-2.67,-1.09 -5.52,-1.64 -8.55,-1.64 -3.03,0 -5.88,0.55 -8.55,1.64 -2.79,1.09 -5.27,2.6 -7.46,4.54 -1.82,1.7 -3.7,4.12 -5.64,7.28 -0.85,1.33 -1.46,2.84 -1.82,4.54 0.97,-0.61 1.88,-0.91 2.73,-0.91l43.29 0c-0.49,-1.33 -1.03,-2.6 -1.64,-3.82 -1.33,-2.66 -3.06,-4.99 -5.18,-7 -2.12,-2.01 -4.52,-3.55 -7.18,-4.64zm46.01 66.19l0 -84.74 17.1 0 0 6.36c1.09,-0.85 2.24,-1.57 3.46,-2.18 2.42,-1.45 5.03,-2.54 7.82,-3.28 2.79,-0.73 5.64,-1.08 8.55,-1.08 4.85,0 9.39,0.97 13.64,2.91 4.24,1.82 7.91,4.33 11.01,7.55 3.09,3.21 5.52,7 7.27,11.37 1.76,4.36 2.64,8.96 2.64,13.82l0 49.11 -17.1 0 0 -49.29c-0.12,-2.43 -0.67,-4.85 -1.64,-7.28 -0.97,-2.18 -2.24,-4.12 -3.82,-5.82 -1.57,-1.69 -3.46,-3.03 -5.64,-4 -2.18,-0.97 -4.73,-1.46 -7.64,-1.46 -2.43,0 -4.79,0.49 -7.09,1.46 -2.18,0.97 -4.12,2.25 -5.82,3.82 -1.7,1.58 -3.09,3.46 -4.18,5.64 -0.97,2.18 -1.46,4.55 -1.46,7.1l0 50.01 -17.1 0zm142.58 -2c-4.85,2.18 -10.19,3.27 -16,3.27 -5.94,0 -11.52,-1.15 -16.73,-3.45 -4.97,-2.3 -9.33,-5.39 -13.09,-9.28 -3.76,-4 -6.67,-8.61 -8.73,-13.82 -2.06,-5.21 -3.09,-10.79 -3.09,-16.73 0,-5.93 1.03,-11.51 3.09,-16.73 2.06,-5.21 4.97,-9.79 8.73,-13.73 3.76,-3.94 8.18,-7 13.28,-9.19 5.09,-2.3 10.61,-3.46 16.55,-3.46 5.45,0 10.55,0.97 15.28,2.91 4.73,1.82 8.97,4.43 12.73,7.82 0.6,0.36 1.27,0.97 2,1.81l0.73 0.91 -0.73 0.91c-3.52,4.61 -7.46,6.91 -11.82,6.91 -2.3,0 -5.09,-0.72 -8.37,-2.18 -2.91,-1.33 -6.12,-2 -9.64,-2 -3.64,0 -6.91,0.67 -9.82,2 -2.91,1.34 -5.45,3.18 -7.64,5.55 -2.18,2.36 -3.88,5.15 -5.09,8.36 -1.21,3.21 -1.82,6.58 -1.82,10.09 0,3.64 0.61,7.04 1.82,10.19 1.21,3.15 2.91,5.93 5.09,8.36 2.19,2.3 4.73,4.12 7.64,5.45 2.91,1.34 6.18,2.01 9.82,2.01 1.7,0 3.33,-0.18 4.91,-0.55 2.06,-0.49 3.64,-1.03 4.73,-1.64 2.43,-1.34 4.85,-2.01 7.27,-2.01 4.97,0 9.03,2.49 12.19,7.46l0.73 1.09 -0.91 0.72c-3.88,3.76 -8.24,6.73 -13.09,8.91zm44.01 2l-17.1 0 0 -84.74 17.1 0 0 84.74zm2.55 -101.3c0,3.03 -1.06,5.61 -3.18,7.73 -2.12,2.12 -4.7,3.18 -7.73,3.18 -3.03,0 -5.61,-1.06 -7.73,-3.18 -2.12,-2.12 -3.18,-4.7 -3.18,-7.73 0,-3.03 1.06,-5.61 3.18,-7.73 2.12,-2.12 4.7,-3.19 7.73,-3.19 3.03,0 5.61,1.06 7.73,3.19 2.12,2.12 3.18,4.7 3.18,7.73zm63.11 101.3c-3.27,0.85 -6.79,1.27 -10.55,1.27 -5.7,0 -11.09,-1.15 -16.19,-3.45 -4.97,-2.18 -9.28,-5.27 -12.91,-9.28 -3.64,-3.76 -6.49,-8.24 -8.55,-13.46 -2.06,-5.21 -3.09,-10.79 -3.09,-16.73 0,-5.95 1.03,-11.52 3.09,-16.73 2.06,-5.21 4.91,-9.79 8.55,-13.73 3.64,-3.94 7.94,-7.06 12.91,-9.36 4.97,-2.3 10.37,-3.45 16.19,-3.45 3.76,0 7.34,0.48 10.73,1.45 3.4,0.97 6.48,2.36 9.28,4.18 1.33,0.85 2.54,1.76 3.63,2.73l0 -8.18 1.46 0c4.24,0 7.88,1.52 10.91,4.54 3.03,3.03 4.55,6.67 4.55,10.91l0 69.29 -1.46 0c-8.85,0 -14,-2.36 -15.46,-7.09 -1.21,1.09 -2.54,2.13 -4,3.1 -2.79,1.69 -5.82,3.03 -9.1,4zm-1.27 -65.65c-2.79,-1.34 -5.88,-2.01 -9.28,-2.01 -3.4,0 -6.49,0.67 -9.28,2.01 -2.91,1.33 -5.4,3.15 -7.46,5.45 -2.06,2.3 -3.7,5.06 -4.91,8.27 -1.21,3.21 -1.82,6.64 -1.82,10.28 0,3.64 0.57,7.03 1.73,10.18 1.15,3.16 2.82,5.88 5,8.18 2.06,2.3 4.54,4.13 7.46,5.46 2.79,1.33 5.88,2 9.28,2 3.4,0 6.49,-0.67 9.28,-2 2.79,-1.34 5.21,-3.09 7.27,-5.27 2.06,-2.3 3.7,-5.04 4.91,-8.18 1.21,-3.15 1.82,-6.61 1.82,-10.37 0,-3.64 -0.61,-7.04 -1.82,-10.19 -1.09,-3.15 -2.73,-5.93 -4.91,-8.36 -1.94,-2.3 -4.37,-4.12 -7.27,-5.45zm86.57 65.28c-3.64,0.98 -7.4,1.46 -11.28,1.46 -6.18,0 -11.91,-1.94 -17.19,-5.81 -5.27,-3.88 -9.24,-7.95 -11.91,-12.19l-0.55 -1.09 0.73 -0.72c3.4,-3.52 6.97,-5.28 10.73,-5.28 3.27,0 6.3,1.27 9.09,3.82 3.51,3.15 6.54,4.73 9.09,4.73 1.58,0 3.21,-0.25 4.91,-0.73 1.57,-0.36 3.09,-0.98 4.55,-1.82 1.21,-0.84 2.24,-1.81 3.09,-2.9 0.6,-0.97 0.91,-2.18 0.91,-3.64 0,-1.21 -0.3,-2.24 -0.91,-3.09 -0.85,-1.21 -1.94,-2.25 -3.28,-3.09 -1.57,-1.09 -3.33,-1.94 -5.27,-2.55 -1.94,-0.84 -3.94,-1.51 -6,-2 -3.03,-0.85 -5.94,-1.94 -8.73,-3.27 -2.91,-1.46 -5.52,-3.16 -7.82,-5.1 -2.67,-2.3 -4.79,-4.91 -6.36,-7.82 -1.34,-2.67 -2,-5.58 -2,-8.73 0,-3.64 0.66,-7 2,-10.09 1.33,-3.1 3.21,-5.76 5.63,-8.01 2.43,-2.24 5.33,-3.97 8.73,-5.18 3.4,-1.09 7.03,-1.64 10.91,-1.64 5.82,0 11.09,1.27 15.82,3.82 2.42,1.22 4.82,3 7.18,5.37 2.37,2.37 3.91,4.58 4.64,6.63l0.36 0.92 -0.73 0.72c-3.15,2.91 -6.55,4.36 -10.19,4.36 -2.55,0 -5.09,-0.72 -7.64,-2.18 -1.21,-0.6 -2.85,-1.27 -4.91,-2 -2.06,-0.73 -3.58,-1.09 -4.55,-1.09 -1.69,0 -3.21,0.24 -4.54,0.73 -1.34,0.48 -2.43,1.09 -3.28,1.82 -0.85,0.73 -1.48,1.58 -1.91,2.55 -0.43,0.97 -0.64,2.06 -0.64,3.27 0,0.97 0.18,1.76 0.55,2.36 0.6,0.97 1.39,1.76 2.36,2.36 1.21,0.85 2.49,1.52 3.82,2 1.57,0.61 3.03,1.09 4.37,1.46l2.36 0.55c4,1.09 7.58,2.48 10.73,4.18 3.27,1.58 6.12,3.46 8.55,5.64 2.43,2.3 4.31,4.85 5.64,7.64 1.46,2.91 2.18,6.06 2.18,9.46 0,4.12 -0.91,7.82 -2.73,11.09 -1.7,3.27 -4,6.01 -6.91,8.19 -1.34,1.09 -2.82,2.03 -4.46,2.81 -1.64,0.79 -3.36,1.49 -5.18,2.09zm180.23 0.91l-83.84 0 0 -124.39 85.11 0 0 17.28 -67.65 0 0 24.91 53.11 0 0 17.46 -53.11 0 0 47.47 66.38 0 0 17.27zm86.2 -0.55l-13.28 0c-2.79,0 -5.15,-0.49 -7.09,-1.46 -1.94,-0.97 -3.82,-2.85 -5.64,-5.64 -3.15,-4.49 -7.4,-10.67 -12.73,-18.55l-13.09 18.92c-2.67,4.49 -7.46,6.73 -14.36,6.73l-11.28 0 28.37 -40.74 -28.91 -44.37 12.73 0 1.82 0c3.76,0 6.61,1.34 8.55,4l16.37 25.28c6.91,-10.43 12.12,-18.25 15.64,-23.46 2.55,-3.64 6.55,-5.45 12,-5.45l13.46 0 -29.64 44.19 27.1 40.55zm55.83 0c-3.27,0.85 -6.79,1.27 -10.55,1.27 -5.7,0 -11.09,-1.15 -16.19,-3.45 -4.97,-2.18 -9.28,-5.27 -12.91,-9.28 -3.64,-3.76 -6.49,-8.24 -8.55,-13.46 -2.06,-5.21 -3.1,-10.79 -3.1,-16.73 0,-5.95 1.03,-11.52 3.1,-16.73 2.06,-5.21 4.91,-9.79 8.55,-13.73 3.64,-3.94 7.94,-7.06 12.91,-9.36 4.97,-2.3 10.37,-3.45 16.19,-3.45 3.76,0 7.34,0.48 10.73,1.45 3.4,0.97 6.48,2.36 9.28,4.18 1.33,0.85 2.54,1.76 3.63,2.73l0 -8.18 1.46 0c4.24,0 7.88,1.52 10.91,4.54 3.03,3.03 4.55,6.67 4.55,10.91l0 69.29 -1.46 0c-8.85,0 -14,-2.36 -15.46,-7.09 -1.21,1.09 -2.54,2.13 -4,3.1 -2.79,1.69 -5.82,3.03 -9.1,4zm-1.27 -65.65c-2.79,-1.34 -5.88,-2.01 -9.28,-2.01 -3.4,0 -6.49,0.67 -9.28,2.01 -2.91,1.33 -5.4,3.15 -7.46,5.45 -2.06,2.3 -3.7,5.06 -4.91,8.27 -1.21,3.21 -1.82,6.64 -1.82,10.28 0,3.64 0.57,7.03 1.73,10.18 1.15,3.16 2.82,5.88 5,8.18 2.06,2.3 4.54,4.13 7.46,5.46 2.79,1.33 5.88,2 9.28,2 3.4,0 6.49,-0.67 9.28,-2 2.79,-1.34 5.21,-3.09 7.27,-5.27 2.06,-2.3 3.7,-5.04 4.91,-8.18 1.21,-3.15 1.82,-6.61 1.82,-10.37 0,-3.64 -0.61,-7.04 -1.82,-10.19 -1.09,-3.15 -2.73,-5.93 -4.91,-8.36 -1.94,-2.3 -4.37,-4.12 -7.27,-5.45zm55.29 66.02l0 -66.39 -10.55 0 0 -7.09c0,-2.78 0.97,-5.12 2.91,-7 1.94,-1.88 4.24,-2.82 6.91,-2.82l0.73 0 0 -10c0,-8.61 4,-12.92 12,-12.92l5.45 0 0 22.92 14.73 0 0 4.91c0,3.27 -1.18,6.09 -3.55,8.46 -2.36,2.37 -5.18,3.55 -8.46,3.55l-2.73 0 0 48.93c0,4.85 -1.69,8.97 -5.09,12.37 -3.4,3.39 -7.52,5.09 -12.37,5.09zm89.11 -0.37c-3.27,0.85 -6.79,1.27 -10.55,1.27 -5.7,0 -11.09,-1.15 -16.19,-3.45 -4.97,-2.18 -9.28,-5.27 -12.91,-9.28 -3.64,-3.76 -6.49,-8.24 -8.55,-13.46 -2.06,-5.21 -3.09,-10.79 -3.09,-16.73 0,-5.95 1.03,-11.52 3.09,-16.73 2.06,-5.21 4.91,-9.79 8.55,-13.73 3.64,-3.94 7.94,-7.06 12.91,-9.36 4.97,-2.3 10.37,-3.45 16.19,-3.45 3.76,0 7.34,0.48 10.73,1.45 3.4,0.97 6.49,2.36 9.28,4.18 1.33,0.85 2.54,1.76 3.64,2.73l0 -8.18 1.45 0c4.25,0 7.88,1.52 10.92,4.54 3.03,3.03 4.54,6.67 4.54,10.91l0 69.29 -1.46 0c-8.85,0 -14,-2.36 -15.46,-7.09 -1.21,1.09 -2.55,2.13 -4,3.1 -2.79,1.69 -5.82,3.03 -9.1,4zm-1.27 -65.65c-2.79,-1.34 -5.88,-2.01 -9.28,-2.01 -3.4,0 -6.48,0.67 -9.28,2.01 -2.91,1.33 -5.39,3.15 -7.46,5.45 -2.06,2.3 -3.7,5.06 -4.91,8.27 -1.21,3.21 -1.82,6.64 -1.82,10.28 0,3.64 0.58,7.03 1.73,10.18 1.15,3.16 2.82,5.88 5,8.18 2.06,2.3 4.55,4.13 7.46,5.46 2.79,1.33 5.88,2 9.28,2 3.4,0 6.49,-0.67 9.28,-2 2.79,-1.34 5.22,-3.09 7.27,-5.27 2.06,-2.3 3.7,-5.04 4.91,-8.18 1.21,-3.15 1.82,-6.61 1.82,-10.37 0,-3.64 -0.61,-7.04 -1.82,-10.19 -1.09,-3.15 -2.73,-5.93 -4.91,-8.36 -1.94,-2.3 -4.36,-4.12 -7.27,-5.45zm86.57 65.28c-3.64,0.98 -7.4,1.46 -11.28,1.46 -6.18,0 -11.91,-1.94 -17.19,-5.81 -5.27,-3.88 -9.25,-7.95 -11.91,-12.19l-0.55 -1.09 0.73 -0.72c3.4,-3.52 6.97,-5.28 10.73,-5.28 3.27,0 6.3,1.27 9.09,3.82 3.52,3.15 6.55,4.73 9.1,4.73 1.58,0 3.21,-0.25 4.91,-0.73 1.58,-0.36 3.1,-0.98 4.55,-1.82 1.21,-0.84 2.24,-1.81 3.09,-2.9 0.61,-0.97 0.91,-2.18 0.91,-3.64 0,-1.21 -0.3,-2.24 -0.91,-3.09 -0.85,-1.21 -1.94,-2.25 -3.27,-3.09 -1.57,-1.09 -3.33,-1.94 -5.27,-2.55 -1.94,-0.84 -3.94,-1.51 -6,-2 -3.03,-0.85 -5.94,-1.94 -8.73,-3.27 -2.91,-1.46 -5.52,-3.16 -7.82,-5.1 -2.67,-2.3 -4.79,-4.91 -6.37,-7.82 -1.33,-2.67 -2,-5.58 -2,-8.73 0,-3.64 0.67,-7 2,-10.09 1.33,-3.1 3.21,-5.76 5.64,-8.01 2.42,-2.24 5.33,-3.97 8.73,-5.18 3.4,-1.09 7.03,-1.64 10.91,-1.64 5.82,0 11.1,1.27 15.82,3.82 2.42,1.22 4.82,3 7.18,5.37 2.36,2.37 3.91,4.58 4.64,6.63l0.36 0.92 -0.73 0.72c-3.15,2.91 -6.54,4.36 -10.18,4.36 -2.55,0 -5.09,-0.72 -7.64,-2.18 -1.21,-0.6 -2.85,-1.27 -4.91,-2 -2.06,-0.73 -3.58,-1.09 -4.55,-1.09 -1.69,0 -3.21,0.24 -4.54,0.73 -1.33,0.48 -2.42,1.09 -3.27,1.82 -0.85,0.73 -1.48,1.58 -1.91,2.55 -0.42,0.97 -0.64,2.06 -0.64,3.27 0,0.97 0.18,1.76 0.55,2.36 0.61,0.97 1.39,1.76 2.36,2.36 1.21,0.85 2.49,1.52 3.82,2 1.57,0.61 3.03,1.09 4.36,1.46l2.37 0.55c4,1.09 7.58,2.48 10.73,4.18 3.28,1.58 6.12,3.46 8.55,5.64 2.42,2.3 4.3,4.85 5.64,7.64 1.46,2.91 2.18,6.06 2.18,9.46 0,4.12 -0.91,7.82 -2.73,11.09 -1.7,3.27 -4,6.01 -6.91,8.19 -1.33,1.09 -2.82,2.03 -4.45,2.81 -1.64,0.79 -3.37,1.49 -5.18,2.09zm-948.67 -114.31l10.18 0 21.16 24.36 -4.82 0 -21.48 -16.07 -21.48 16.07 -4.83 0 21.26 -24.36z"/>
  <polygon class="fil2" points="2486.48,985.04 1727.76,985.04 1727.76,1035.49 2486.48,1035.49 "/>
  <polygon class="fil3" points="969.05,985.04 1727.76,985.04 1727.76,1035.49 969.05,1035.49 "/>
  <polygon class="fil0" points="210.33,985.04 969.05,985.04 969.05,1035.49 210.33,1035.49 "/>
 </g>
</svg>
