<svg width="40" height="41" viewBox="0 0 40 41" fill="none" xmlns="http://www.w3.org/2000/svg">
<rect y="0.447266" width="40" height="40" rx="20" fill="#5F45FF"/>
<path d="M21 10.4473C23.3869 10.4473 25.6761 11.3955 27.364 13.0833C29.0518 14.7711 30 17.0603 30 19.4473M21 14.4473C22.3261 14.4473 23.5979 14.974 24.5355 15.9117C25.4732 16.8494 26 18.1212 26 19.4473M21.832 25.0153C22.0385 25.1101 22.2712 25.1318 22.4917 25.0767C22.7122 25.0216 22.9073 24.8931 23.045 24.7123L23.4 24.2473C23.5863 23.9989 23.8279 23.7973 24.1056 23.6584C24.3833 23.5196 24.6895 23.4473 25 23.4473H28C28.5304 23.4473 29.0391 23.658 29.4142 24.0331C29.7893 24.4081 30 24.9168 30 25.4473V28.4473C30 28.9777 29.7893 29.4864 29.4142 29.8615C29.0391 30.2366 28.5304 30.4473 28 30.4473C23.2261 30.4473 18.6477 28.5508 15.2721 25.1752C11.8964 21.7995 10 17.2212 10 12.4473C10 11.9168 10.2107 11.4081 10.5858 11.0331C10.9609 10.658 11.4696 10.4473 12 10.4473H15C15.5304 10.4473 16.0391 10.658 16.4142 11.0331C16.7893 11.4081 17 11.9168 17 12.4473V15.4473C17 15.7578 16.9277 16.064 16.7889 16.3417C16.65 16.6194 16.4484 16.861 16.2 17.0473L15.732 17.3983C15.5484 17.5384 15.419 17.7379 15.3658 17.9626C15.3126 18.1874 15.3388 18.4236 15.44 18.6313C16.8067 21.4071 19.0544 23.6521 21.832 25.0153Z" stroke="#EFECFF" stroke-width="2" stroke-linecap="round" stroke-linejoin="round"/>
</svg>
